<svg width="24" height="24" viewBox="0 0 24 24" fill="none" xmlns="http://www.w3.org/2000/svg">
<g clip-path="url(#clip0_1_35)">
<path d="M6.78274 22.8093C8.36037 23.5721 10.1302 24 12.0001 24C13.87 24 15.6399 23.5721 17.2175 22.8093L18.261 12L17.2175 1.19072C15.6399 0.427875 13.87 0 12.0001 0C10.1302 0 8.36037 0.427875 6.78274 1.19072L5.73926 12L6.78274 22.8093Z" fill="#FFDA44"/>
<path d="M17.2178 22.8091C21.2317 20.8682 24.0004 16.7577 24.0004 12.0003C24.0004 7.24278 21.2317 3.13231 17.2178 1.19141V22.8091Z" fill="#D80027"/>
<path d="M6.78263 22.8091V1.19141C2.76867 3.13231 0 7.24273 0 12.0003C0 16.7578 2.76867 20.8682 6.78263 22.8091Z" fill="#0052B4"/>
<path d="M12 16.1739C12 14.259 12 12 12 12H15.1305V13.5652C15.1305 13.8371 14.6087 14.8335 13.3209 15.6522C12.8332 15.9623 12.3283 16.062 12 16.1739Z" fill="#D80027"/>
<path d="M8.86914 8.86914H11.9996V11.9996H8.86914V8.86914Z" fill="#D80027"/>
<path d="M13.5653 7.82571C13.5653 7.24938 13.0981 6.78223 12.5218 6.78223C12.3315 6.78223 12.1536 6.83398 12.0001 6.92295C11.8465 6.83398 11.6687 6.78223 11.4783 6.78223C10.9021 6.78223 10.4349 7.24938 10.4349 7.82571H7.82617V13.043C7.82617 14.9854 9.36864 16.1086 10.5782 16.6909C10.4877 16.8455 10.4349 17.0249 10.4349 17.217C10.4349 17.7934 10.9021 18.2605 11.4783 18.2605C11.6687 18.2605 11.8465 18.2088 12.0001 18.1198C12.1537 18.2088 12.3315 18.2605 12.5218 18.2605C13.0981 18.2605 13.5653 17.7934 13.5653 17.217C13.5653 17.0249 13.5124 16.8455 13.4218 16.6909C14.6314 16.1086 16.174 14.9854 16.174 13.043V7.82571H13.5653ZM14.6088 13.043C14.6088 13.315 14.6087 14.1424 13.321 14.9611C12.8332 15.2712 12.3284 15.4723 12.0001 15.5841C11.6718 15.4723 11.1669 15.2712 10.6791 14.9611C9.39138 14.1424 9.39138 13.315 9.39138 13.043V9.39091H14.6088V13.043Z" fill="#FF9811"/>
</g>
<defs>
<clipPath id="clip0_1_35">
<rect width="24" height="24" fill="white"/>
</clipPath>
</defs>
</svg>
