<svg width="24" height="24" viewBox="0 0 24 24" fill="none" xmlns="http://www.w3.org/2000/svg">
<g clip-path="url(#clip0_1_70)">
<path d="M0 11.9996C0 12.8215 0.082875 13.6241 0.240328 14.3996L12 15.13L23.7597 14.3996C23.9172 13.6241 24 12.8215 24 11.9996C24 11.1776 23.9171 10.375 23.7597 9.59959L12 8.86914L0.240328 9.59959C0.082875 10.375 0 11.1776 0 11.9996H0Z" fill="#0052B4"/>
<path d="M23.7596 14.4004H0.240234C1.35206 19.8777 6.19448 24.0004 11.9999 24.0004C17.8053 24.0004 22.6477 19.8777 23.7596 14.4004Z" fill="#F0F0F0"/>
<path d="M0.240234 9.6H23.7597C22.6477 4.12266 17.8054 0 11.9999 0C6.19439 0 1.35206 4.12266 0.240234 9.6Z" fill="black"/>
<path d="M17.217 9.59998H6.78223L8.9141 8.59714L7.77884 6.53253L10.0938 6.97527L10.3872 4.63672L11.9996 6.35675L13.6121 4.63672L13.9054 6.97527L16.2204 6.53253L15.0852 8.59723L17.217 9.59998Z" fill="#FFDA44"/>
<path d="M0 12.0002C0 18.6276 5.37262 24.0002 12 24.0002L2.39981 4.7998C0.893062 6.80554 0 9.29849 0 12.0002Z" fill="#A2001D"/>
<path d="M12 24.0002C18.6274 24.0002 24 18.6276 24 12.0002C24 9.29849 23.1069 6.80554 21.6002 4.7998L12 24.0002Z" fill="#A2001D"/>
</g>
<defs>
<clipPath id="clip0_1_70">
<rect width="24" height="24" fill="white"/>
</clipPath>
</defs>
</svg>
