<svg width="24" height="24" viewBox="0 0 24 24" fill="none" xmlns="http://www.w3.org/2000/svg">
<g clip-path="url(#clip0_1_18)">
<path d="M12 24C18.6274 24 24 18.6274 24 12C24 5.37258 18.6274 0 12 0C5.37258 0 0 5.37258 0 12C0 18.6274 5.37258 24 12 24Z" fill="#D80027"/>
<path d="M9.3683 6.67299C9.3683 6.43075 9.56468 6.23438 9.80692 6.23438H10.7594C10.9921 6.23438 11.2152 6.3268 11.3797 6.49131C11.7223 6.83389 12.2777 6.83389 12.6203 6.49131C12.7848 6.3268 13.0079 6.23438 13.2406 6.23438H14.1931C14.4353 6.23438 14.6317 6.43075 14.6317 6.67299C14.6317 6.91523 14.4353 7.11161 14.1931 7.11161H14.0114C13.8469 7.11161 13.6891 7.17696 13.5728 7.29329L13.1342 7.7319C12.9923 7.87381 12.9923 8.10387 13.1342 8.24577L13.143 8.2546C13.3686 8.48025 13.7545 8.32043 13.7545 8.00131C13.7545 7.99442 13.76 7.98884 13.7669 7.98884H13.7715C13.7745 7.98884 13.7774 7.98805 13.78 7.98656L16.435 6.45369C16.6448 6.33257 16.9131 6.40445 17.0342 6.61424L17.0433 6.62999C17.1594 6.83107 17.0905 7.08821 16.8894 7.2043C16.5169 7.41938 16.6695 7.98884 17.0996 7.98884H17.702C17.9442 7.98884 18.1406 8.18521 18.1406 8.42745C18.1406 8.6697 17.9442 8.86607 17.702 8.86607H15.9475C15.7053 8.86607 15.5089 9.06245 15.5089 9.30469C15.5089 9.54693 15.7053 9.7433 15.9475 9.7433H17.702C17.9442 9.7433 18.1406 9.93968 18.1406 10.1819C18.1406 10.4242 17.9442 10.6205 17.702 10.6205H16.3862C15.9017 10.6205 15.5089 11.0133 15.5089 11.4978C15.5089 11.6215 15.5749 11.7359 15.6821 11.7977L17.0715 12.5999C17.2813 12.721 17.3531 12.9893 17.232 13.199C17.1109 13.4088 16.8426 13.4807 16.6329 13.3596L15.0738 12.4594C14.978 12.4041 14.8693 12.375 14.7586 12.375C14.1971 12.375 13.9159 13.0539 14.313 13.4509L14.7346 13.8725C14.8991 14.037 15.1222 14.1295 15.3549 14.1295H16.8248C17.067 14.1295 17.2634 14.3258 17.2634 14.5681C17.2634 14.8103 17.067 15.0067 16.8248 15.0067C16.5825 15.0067 16.3862 15.2031 16.3862 15.4453C16.3862 15.6876 16.1898 15.8839 15.9475 15.8839C15.7053 15.8839 15.5089 15.6876 15.5089 15.4453C15.5089 15.2031 15.3126 15.0067 15.0703 15.0067C14.7895 15.0067 14.5201 14.8951 14.3215 14.6965L12.9681 13.3431C12.9099 13.2849 12.831 13.2522 12.7488 13.2522C12.5775 13.2522 12.4386 13.3911 12.4386 13.5624V14.3488C12.4386 14.7121 12.7332 15.0067 13.0965 15.0067H13.3158C13.5581 15.0067 13.7545 15.2031 13.7545 15.4453C13.7545 15.6876 13.5581 15.8839 13.3158 15.8839H12.8772C12.635 15.8839 12.4386 16.0803 12.4386 16.3225V16.5419C12.4386 16.663 12.5368 16.7612 12.6579 16.7612C12.779 16.7612 12.8772 16.8593 12.8772 16.9805V17.4191C12.8772 17.5402 12.779 17.6384 12.6579 17.6384C12.5368 17.6384 12.4386 17.7366 12.4386 17.8577V18.077C12.4386 18.3192 12.2422 18.5156 12 18.5156C11.7578 18.5156 11.5614 18.3192 11.5614 18.077V17.8577C11.5614 17.7366 11.4632 17.6384 11.3421 17.6384C11.221 17.6384 11.1228 17.5402 11.1228 17.4191V16.9805C11.1228 16.8593 11.221 16.7612 11.3421 16.7612C11.4632 16.7612 11.5614 16.663 11.5614 16.5419V16.3225C11.5614 16.0803 11.365 15.8839 11.1228 15.8839H10.6842C10.4419 15.8839 10.2455 15.6876 10.2455 15.4453C10.2455 15.2031 10.4419 15.0067 10.6842 15.0067H10.9035C11.2668 15.0067 11.5614 14.7121 11.5614 14.3488V13.4715C11.5614 13.3504 11.4632 13.2522 11.3421 13.2522C11.2017 13.2522 11.067 13.308 10.9677 13.4073L9.67836 14.6966C9.4798 14.8951 9.21049 15.0067 8.92969 15.0067C8.68745 15.0067 8.49107 15.2031 8.49107 15.4453C8.49107 15.6876 8.2947 15.8839 8.05245 15.8839C7.81021 15.8839 7.61384 15.6876 7.61384 15.4453C7.61384 15.2031 7.41746 15.0067 7.17522 15.0067C6.93298 15.0067 6.73661 14.8103 6.73661 14.5681C6.73661 14.3258 6.93298 14.1295 7.17522 14.1295H8.64166C8.87432 14.1295 9.09744 14.037 9.26196 13.8725L9.6857 13.4488C10.082 13.0525 9.80131 12.375 9.24092 12.375C9.13051 12.375 9.02204 12.4041 8.92642 12.4593L7.36704 13.3596C7.15725 13.4807 6.889 13.4088 6.76788 13.199C6.64676 12.9893 6.71863 12.721 6.92842 12.5999L8.31794 11.7976C8.42508 11.7358 8.49107 11.6215 8.49107 11.4978C8.49107 11.0133 8.09832 10.6205 7.61384 10.6205H6.29799C6.05575 10.6205 5.85938 10.4242 5.85938 10.1819C5.85938 9.93968 6.05575 9.7433 6.29799 9.7433H8.05245C8.2947 9.7433 8.49107 9.54693 8.49107 9.30469C8.49107 9.06245 8.2947 8.86607 8.05245 8.86607H6.29799C6.05575 8.86607 5.85938 8.6697 5.85938 8.42745C5.85938 8.18521 6.05575 7.98884 6.29799 7.98884H6.89044C7.32058 7.98884 7.47317 7.41938 7.10065 7.2043C6.89956 7.08821 6.83066 6.83107 6.94676 6.62999L6.95586 6.61424C7.07698 6.40445 7.34523 6.33257 7.55502 6.45369L10.2082 7.9855C10.212 7.98769 10.2163 7.98884 10.2206 7.98884C10.2344 7.98884 10.2455 7.99999 10.2455 8.01374V8.24577C10.2455 8.47468 10.5223 8.58932 10.6842 8.42745L10.8658 8.24577C11.0077 8.10387 11.0077 7.87381 10.8658 7.7319L10.4272 7.29329C10.3109 7.17696 10.1531 7.11161 9.9886 7.11161H9.80692C9.56468 7.11161 9.3683 6.91523 9.3683 6.67299Z" fill="black"/>
</g>
<defs>
<clipPath id="clip0_1_18">
<rect width="24" height="24" fill="white"/>
</clipPath>
</defs>
</svg>
