<svg width="24" height="24" viewBox="0 0 24 24" fill="none" xmlns="http://www.w3.org/2000/svg">
<g clip-path="url(#clip0_1041_267)">
<circle cx="12" cy="12" r="12" fill="white"/>
<path d="M16 0.682823V23.3172C14.7489 23.7594 13.4025 24 12 24C10.5975 24 9.25112 23.7594 8 23.3172V0.682823C9.25112 0.240617 10.5975 0 12 0C13.4025 0 14.7489 0.240617 16 0.682823Z" fill="#DC171D"/>
<path d="M23.3172 16C23.7594 14.7489 24 13.4025 24 12C24 10.5975 23.7594 9.25112 23.3172 8H0.682823C0.240617 9.25112 0 10.5975 0 12C0 13.4025 0.240617 14.7489 0.682823 16H23.3172Z" fill="#012A87"/>
<path d="M11.4121 10.1426L12 9.71545L12.5879 10.1426L12.3633 9.4515L12.9512 9.02441H12.2247L12 8.33301L11.7753 9.02441H11.0488L11.6367 9.4515L11.4121 10.1426Z" fill="white"/>
<path d="M16.7451 12.3516L17.333 11.9244L17.9209 12.3516L17.6964 11.6605L18.2842 11.2334H17.5577L17.333 10.542L17.1084 11.2334H16.3818L16.9697 11.6605L16.7451 12.3516Z" fill="white"/>
<path d="M13.6211 15.4756L14.209 15.0485L14.7969 15.4756L14.5723 14.7845L15.1602 14.3574H14.4333L14.209 13.667L13.9846 14.3574H13.2578L13.8456 14.7845L13.6211 15.4756Z" fill="white"/>
<path d="M7.03034 11.6605L7.61816 11.2334H6.89164L6.66699 10.542L6.44234 11.2334H5.71582L6.30365 11.6605L6.0791 12.3516L6.66699 11.9244L7.25488 12.3516L7.03034 11.6605Z" fill="white"/>
<path d="M10.1544 14.7845L10.7422 14.3574H10.0153L9.79102 13.667L9.56668 14.3574H8.83984L9.42767 14.7845L9.20312 15.4756L9.79102 15.0485L10.3789 15.4756L10.1544 14.7845Z" fill="white"/>
</g>
<defs>
<clipPath id="clip0_1041_267">
<rect width="24" height="24" fill="white"/>
</clipPath>
</defs>
</svg>
