<svg width="24" height="24" viewBox="0 0 24 24" fill="none" xmlns="http://www.w3.org/2000/svg">
<g clip-path="url(#clip0_1_43)">
<path d="M0 12C0 5.37262 5.37262 0 12 0C18.6274 0 24 5.37262 24 12C23.4783 12 12 13.5652 12 13.5652L0 12Z" fill="#D80027"/>
<path d="M24 12C24 18.6274 18.6274 24 12 24C5.37262 24 0 18.6274 0 12" fill="black"/>
<path d="M10.3555 9.54414L11.3728 10.2824L10.9851 11.4781L12.0016 10.7386L13.019 11.4769L12.6298 10.2816L13.6463 9.54217L12.3893 9.54292L12.0001 8.34766L11.6124 9.54334L10.3555 9.54414Z" fill="#FFDA44"/>
<path d="M15.0004 6.80381C14.0548 6.25785 13.0209 6.00018 12.0004 6.00196V7.56684C12.7547 7.56548 13.5188 7.75579 14.2178 8.15938C16.3355 9.38207 17.0637 12.0997 15.841 14.2174C14.6183 16.3351 11.9007 17.0633 9.78297 15.8407C9.166 15.4844 8.66795 15.0008 8.30083 14.4426L6.99414 15.3053C7.49088 16.0604 8.16569 16.7142 9.00039 17.1961C11.8656 18.8503 15.5423 17.8651 17.1965 14.9999C18.8507 12.1348 17.8656 8.45803 15.0004 6.80381Z" fill="#FFDA44"/>
<path d="M8.54094 10.9561C8.12609 11.7144 8.40462 12.6656 9.16297 13.0804L14.2465 15.8582C13.9008 16.4902 14.0844 17.2593 14.7163 17.605L16.0895 18.3562C16.7215 18.702 17.5142 18.4698 17.8599 17.8379L18.611 16.4647L8.54094 10.9561Z" fill="#FFDA44"/>
</g>
<defs>
<clipPath id="clip0_1_43">
<rect width="24" height="24" fill="white"/>
</clipPath>
</defs>
</svg>
