<svg width="24" height="24" viewBox="0 0 24 24" fill="none" xmlns="http://www.w3.org/2000/svg">
<g clip-path="url(#clip0_1_78)">
<path d="M12 24C18.6274 24 24 18.6274 24 12C24 5.37258 18.6274 0 12 0C5.37258 0 0 5.37258 0 12C0 18.6274 5.37258 24 12 24Z" fill="#F0F0F0"/>
<path d="M11.9997 0C7.24218 0 3.13143 2.76867 1.19043 6.78263H22.8089C20.868 2.76867 16.7572 0 11.9997 0Z" fill="#338AF3"/>
<path d="M11.9997 24.0004C16.7572 24.0004 20.868 21.2317 22.809 17.2178H1.19043C3.13143 21.2317 7.24218 24.0004 11.9997 24.0004Z" fill="#338AF3"/>
<path d="M15.5864 11.9998L14.1208 12.6892L14.9012 14.1085L13.3098 13.804L13.1082 15.4117L11.9997 14.2293L10.8912 15.4117L10.6896 13.804L9.09821 14.1085L9.87859 12.6891L8.41309 11.9998L9.87863 11.3104L9.09821 9.89111L10.6896 10.1955L10.8913 8.58789L11.9997 9.77027L13.1082 8.58789L13.3098 10.1955L14.9013 9.89111L14.1209 11.3104L15.5864 11.9998Z" fill="#FFDA44"/>
</g>
<defs>
<clipPath id="clip0_1_78">
<rect width="24" height="24" fill="white"/>
</clipPath>
</defs>
</svg>
