<svg width="24" height="24" viewBox="0 0 24 24" fill="none" xmlns="http://www.w3.org/2000/svg">
<g clip-path="url(#clip0_1_96)">
<path d="M24 12C24 18.6274 18.6274 24 12 24C5.37262 24 0 18.6274 0 12C0 12.0028 12 0.00135937 12 0C18.6274 0 24 5.37262 24 12Z" fill="#0052B4"/>
<path d="M11.9678 11.9999H11.9999C11.9999 11.989 11.9999 11.9786 11.9999 11.9678C11.9892 11.9785 11.9785 11.9892 11.9678 11.9999Z" fill="#F0F0F0"/>
<path d="M12 6.26086C12 4.14937 12 2.76577 12 0H11.998C5.3715 0.00107812 0 5.37319 0 12H6.26086V8.47439L9.78642 12H11.9679C11.9787 11.9893 11.9894 11.9786 12 11.9678C12 11.1594 12 10.438 12 9.78647L8.47444 6.26086H12Z" fill="#F0F0F0"/>
<path d="M6.07124 1.56543C4.19441 2.63413 2.63413 4.19441 1.56543 6.07124V12.0002H4.69588V4.69593V4.69588H12.0002C12.0002 3.70855 12.0002 2.76796 12.0002 1.56543H6.07124Z" fill="#D80027"/>
<path d="M11.9998 10.5241L7.73641 6.26076H6.26074C6.26074 6.26072 6.26074 6.26076 6.26074 6.26076L11.9998 11.9998H11.9998C11.9998 11.9998 11.9998 10.9824 11.9998 10.5241Z" fill="#D80027"/>
<path d="M7.23729 14.0869L7.89588 15.464L9.38309 15.1203L8.71709 16.4938L9.91305 17.4422L8.42398 17.7779L8.42815 19.3043L7.23729 18.3493L6.04648 19.3043L6.05065 17.7779L4.56152 17.4422L5.75754 16.4938L5.09145 15.1203L6.57874 15.464L7.23729 14.0869Z" fill="#F0F0F0"/>
<path d="M17.9668 16.6963L18.2961 17.3848L19.0397 17.2129L18.7066 17.8997L19.3047 18.3739L18.5601 18.5418L18.5622 19.305L17.9668 18.8275L17.3714 19.305L17.3734 18.5418L16.6289 18.3739L17.2269 17.8997L16.8939 17.2129L17.6375 17.3848L17.9668 16.6963Z" fill="#F0F0F0"/>
<path d="M14.9033 9.3916L15.2326 10.0802L15.9762 9.90826L15.6432 10.595L16.2412 11.0693L15.4967 11.2371L15.4987 12.0003L14.9033 11.5228L14.3079 12.0003L14.3099 11.2371L13.5654 11.0693L14.1634 10.595L13.8304 9.90826L14.574 10.0802L14.9033 9.3916Z" fill="#F0F0F0"/>
<path d="M17.9668 5.21777L18.2961 5.90637L19.0397 5.73448L18.7067 6.42124L19.3046 6.89543L18.5601 7.06329L18.5622 7.82651L17.9668 7.34899L17.3714 7.82651L17.3734 7.06329L16.6289 6.89543L17.2268 6.42124L16.8939 5.73448L17.6375 5.90637L17.9668 5.21777Z" fill="#F0F0F0"/>
<path d="M20.6426 8.34863L20.9718 9.03723L21.7155 8.86529L21.3825 9.55205L21.9805 10.0263L21.2359 10.1941L21.238 10.9573L20.6426 10.4799L20.0472 10.9573L20.0492 10.1941L19.3047 10.0263L19.9027 9.55205L19.5697 8.86529L20.3133 9.03723L20.6426 8.34863Z" fill="#F0F0F0"/>
<path d="M18.729 12L18.988 12.7972H19.8262L19.1481 13.2899L19.4072 14.087L18.729 13.5943L18.0509 14.087L18.3099 13.2899L17.6318 12.7972H18.47L18.729 12Z" fill="#F0F0F0"/>
</g>
<defs>
<clipPath id="clip0_1_96">
<rect width="24" height="24" fill="white"/>
</clipPath>
</defs>
</svg>
