<svg width="24" height="24" viewBox="0 0 24 24" fill="none" xmlns="http://www.w3.org/2000/svg">
<g clip-path="url(#clip0_1_88)">
<path d="M12 24C18.6274 24 24 18.6274 24 12C24 5.37258 18.6274 0 12 0C5.37258 0 0 5.37258 0 12C0 18.6274 5.37258 24 12 24Z" fill="#FFDA44"/>
<path d="M11.9999 24.0001C15.637 24.0001 18.8959 22.3818 21.0965 19.8262H2.90332C5.10396 22.3818 8.36285 24.0001 11.9999 24.0001Z" fill="#338AF3"/>
<path d="M24 12C24 5.37262 18.6274 0 12 0C5.37262 0 0 5.37262 0 12C0 13.0831 0.144375 14.1323 0.413391 15.1305H23.5867C23.8556 14.1323 24 13.0831 24 12Z" fill="#338AF3"/>
<path d="M0.954102 16.6953C1.18543 17.2389 1.45585 17.7616 1.76152 18.2605H22.239C22.5446 17.7616 22.8151 17.2388 23.0465 16.6953H0.954102Z" fill="#338AF3"/>
<path d="M5.4988 7.56819L3.1543 6.53347L5.4988 5.49875L6.53347 3.1543L7.56814 5.49875L9.91259 6.53347L7.56814 7.56819L6.53347 9.91264L5.4988 7.56819Z" fill="#F0F0F0"/>
<path d="M6.53423 4.44727L7.17319 5.89519L8.62116 6.53424L7.17319 7.17323L6.53423 8.62116L5.89519 7.17323L4.44727 6.53424L5.89519 5.89519L6.53423 4.44727Z" fill="#D80027"/>
</g>
<defs>
<clipPath id="clip0_1_88">
<rect width="24" height="24" fill="white"/>
</clipPath>
</defs>
</svg>
