<svg width="24" height="24" viewBox="0 0 24 24" fill="none" xmlns="http://www.w3.org/2000/svg">
<g clip-path="url(#clip0_1_282)">
<path d="M12 24C18.6274 24 24 18.6274 24 12C24 5.37258 18.6274 0 12 0C5.37258 0 0 5.37258 0 12C0 18.6274 5.37258 24 12 24Z" fill="#F0F0F0"/>
<path d="M19.3067 2.47944C15.0105 -0.826471 8.98955 -0.826471 4.69336 2.47939L12 9.78608L19.3067 2.47944Z" fill="#D80027"/>
<path d="M12 14.213L4.69336 21.5196C8.98955 24.8255 15.0105 24.8255 19.3067 21.5196L12 14.2129L12 14.213Z" fill="#D80027"/>
<path d="M9.78607 12L2.47943 4.69336C-0.826477 8.98955 -0.826477 15.0105 2.47943 19.3067L9.78607 12Z" fill="#6DA544"/>
<path d="M14.2129 12L21.5195 19.3067C24.8254 15.0105 24.8254 8.98955 21.5195 4.69336L14.2129 12Z" fill="#6DA544"/>
<path d="M11.9996 17.217C14.8811 17.217 17.217 14.8811 17.217 11.9996C17.217 9.11812 14.8811 6.78223 11.9996 6.78223C9.11812 6.78223 6.78223 9.11812 6.78223 11.9996C6.78223 14.8811 9.11812 17.217 11.9996 17.217Z" fill="#F0F0F0"/>
<path d="M12 8.34766L12.4518 9.13028H13.3555L12.9037 9.91286L13.3555 10.6955H12.4518L12 11.4781L11.5482 10.6955H10.6445L11.0964 9.91286L10.6445 9.13028H11.5482L12 8.34766Z" fill="#D80027"/>
<path d="M9.70319 12L10.155 12.7826H11.0587L10.6068 13.5652L11.0587 14.3478H10.155L9.70319 15.1305L9.25131 14.3478H8.34766L8.79948 13.5652L8.34766 12.7826H9.25131L9.70319 12Z" fill="#D80027"/>
<path d="M14.2969 12L14.7488 12.7826H15.6524L15.2006 13.5652L15.6524 14.3478H14.7488L14.2969 15.1305L13.8451 14.3478H12.9414L13.3932 13.5652L12.9414 12.7826H13.8451L14.2969 12Z" fill="#D80027"/>
</g>
<defs>
<clipPath id="clip0_1_282">
<rect width="24" height="24" fill="white"/>
</clipPath>
</defs>
</svg>
