<svg width="24" height="24" viewBox="0 0 24 24" fill="none" xmlns="http://www.w3.org/2000/svg">
<g clip-path="url(#clip0_1_1998)">
<path d="M12 24C18.6274 24 24 18.6274 24 12C24 5.37258 18.6274 0 12 0C5.37258 0 0 5.37258 0 12C0 18.6274 5.37258 24 12 24Z" fill="#F0F0F0"/>
<path d="M3.51436 3.51432C0.942561 6.08612 -0.217454 9.5349 0.0334675 12.898L12.898 0.0334789C9.53489 -0.21749 6.08616 0.942526 3.51436 3.51432Z" fill="#FFDA44"/>
<path d="M4.28516 21.1911C8.99989 25.1578 16.048 24.9232 20.4856 20.4856C24.9233 16.048 25.1579 8.99984 21.1912 4.28516L4.28516 21.1911Z" fill="#0052B4"/>
<path d="M11.9571 11.5162L12.9912 10.956L11.9571 10.3959C11.7156 8.82739 10.4763 7.58806 8.90784 7.34666L8.34763 6.3125L7.78748 7.34661C6.21904 7.58802 4.97976 8.82734 4.73826 10.3958L3.7041 10.956L4.73821 11.5162C4.97966 13.0847 6.21895 14.324 7.78743 14.5654L8.34763 15.5996L8.90779 14.5655C10.4763 14.324 11.7156 13.0847 11.9571 11.5162ZM8.34768 13.043C7.19507 13.043 6.26071 12.1087 6.26071 10.956C6.26071 9.80337 7.19502 8.86906 8.34768 8.86906C9.50034 8.86906 10.4346 9.80337 10.4346 10.956C10.4346 12.1087 9.50029 13.043 8.34768 13.043Z" fill="black"/>
<path d="M8.34767 9.3916L8.7995 10.1742H9.7032L9.25133 10.9568L9.7032 11.7394H8.7995L8.34767 12.522L7.89584 11.7394H6.99219L7.44402 10.9568L6.99219 10.1742H7.89584L8.34767 9.3916Z" fill="#D80027"/>
</g>
<defs>
<clipPath id="clip0_1_1998">
<rect width="24" height="24" fill="white"/>
</clipPath>
</defs>
</svg>
