<svg width="24" height="24" viewBox="0 0 24 24" fill="none" xmlns="http://www.w3.org/2000/svg">
<g clip-path="url(#clip0_1_1977)">
<path d="M12 24.0004C18.6274 24.0004 24 18.6278 24 12.0004C24 8.68693 22.6571 5.68716 20.4858 3.51562L20.4844 3.51599L3.5156 20.4847L3.51465 20.4856C5.68622 22.6572 8.68624 24.0004 12 24.0004Z" fill="#FF671F"/>
<path d="M20.485 3.51448L20.4844 3.51562L3.51562 20.4844L3.51449 20.4851C1.34305 18.3135 0 15.3136 0 12C0 5.37258 5.37258 0 12 0C15.3136 0 18.3135 1.34305 20.485 3.51448Z" fill="#FFCD00"/>
<path fill-rule="evenodd" clip-rule="evenodd" d="M18.9842 9.14318L18.9842 9.14318C19.3272 9.03179 19.6788 8.98846 20.0391 9.01323C20.1347 9.02659 20.2137 9.06991 20.2761 9.14318C20.3126 9.22761 20.338 9.31423 20.3525 9.40309C20.4969 9.28231 20.5174 9.14471 20.4137 8.9903C20.2484 8.8348 20.0521 8.74053 19.8251 8.70746C19.7959 8.61594 19.7526 8.53186 19.6951 8.4552C19.5277 8.31042 19.3622 8.31297 19.1983 8.46285C19.1209 8.46832 19.0445 8.46067 18.9689 8.43991C18.9229 8.45019 18.8771 8.46038 18.8313 8.47049C18.8537 8.30054 18.8205 8.14257 18.732 7.99655C18.7317 7.99352 18.7314 7.99049 18.7311 7.98746L18.7306 7.98137C18.7298 7.97241 18.729 7.96346 18.7281 7.9545C18.7274 7.94651 18.7267 7.93853 18.726 7.93054L18.7252 7.92162L18.7243 7.91246C18.7176 7.84571 18.7381 7.78966 18.7855 7.74429C19.1925 7.68972 19.5747 7.56231 19.9321 7.36207C19.9824 7.34859 20.0333 7.33841 20.085 7.3315C20.3048 7.32445 20.5239 7.30916 20.7424 7.28563C20.7991 7.27273 20.8552 7.25744 20.9106 7.23977C20.9916 7.20722 21.0425 7.14862 21.0635 7.06395C21.0575 7.0453 21.0448 7.0351 21.0252 7.03337C20.9396 7.06913 20.8505 7.08442 20.7577 7.07924C20.5534 7.05661 20.3496 7.03112 20.1462 7.00279C20.074 7.00311 20.0026 7.01076 19.9321 7.02573C19.7971 7.08309 19.6595 7.13149 19.5193 7.17097C19.5169 7.14998 19.5195 7.12958 19.527 7.10981C19.5806 7.05109 19.6392 6.99758 19.7028 6.94928C19.832 6.88984 19.9644 6.83887 20.1003 6.7964C20.2654 6.74089 20.3521 6.62622 20.3602 6.45241C20.2675 6.48081 20.1758 6.51393 20.085 6.55178C19.9017 6.54888 19.7182 6.54888 19.5346 6.55178C19.4343 6.57644 19.3476 6.62486 19.2747 6.69702C19.2734 6.6937 19.2721 6.69038 19.2707 6.68706L19.267 6.67769C19.2656 6.67416 19.2641 6.67062 19.2627 6.66708L19.2617 6.66443L19.2594 6.6588C19.3106 6.52816 19.3641 6.39821 19.42 6.26895C19.4314 6.12468 19.4519 5.982 19.4811 5.84087C19.554 5.69997 19.6458 5.57256 19.7563 5.45865C19.8752 5.312 19.8855 5.15911 19.7869 5C19.7627 5.09125 19.7271 5.17788 19.6799 5.2599C19.6162 5.31851 19.5525 5.37712 19.4887 5.43572C19.425 5.49433 19.3613 5.55293 19.2976 5.61154C19.2862 5.63956 19.2709 5.66504 19.2518 5.68798C19.2269 5.81165 19.1963 5.93396 19.16 6.05491C19.0588 6.19183 18.9518 6.32434 18.839 6.45241C18.8055 6.62069 18.7699 6.78886 18.732 6.95693C18.7067 6.97553 18.6788 6.98827 18.6479 6.99515C18.5496 7.00544 18.4528 6.99779 18.3574 6.97222C18.2764 6.98998 18.1949 6.99763 18.1128 6.99515C17.9893 6.92317 17.8567 6.87731 17.7153 6.85755C17.6339 6.77105 17.5575 6.67932 17.486 6.58236C17.4367 6.5399 17.3808 6.50933 17.3178 6.49063C17.2046 6.48609 17.0924 6.49118 16.9814 6.50592C16.8518 6.43597 16.7143 6.39266 16.5686 6.37596C16.4462 6.39393 16.3239 6.40668 16.2017 6.41419C16.1449 6.36243 16.0837 6.31657 16.0183 6.27659C15.8272 6.20613 15.6387 6.12968 15.4526 6.04726L15.2691 5.91731C15.208 5.87399 15.1468 5.83068 15.0857 5.78736C14.938 5.69734 14.78 5.63108 14.6117 5.58861C14.3627 5.51031 14.1181 5.5205 13.8779 5.61918C13.8353 5.66175 13.8455 5.68723 13.9084 5.69563C14.0841 5.70543 14.2574 5.73091 14.4283 5.77207C14.4874 5.79175 14.5435 5.81722 14.5964 5.84851C14.6164 5.8608 14.6266 5.87865 14.627 5.90202C14.5953 5.99079 14.5597 6.07743 14.52 6.16193C14.3969 6.09016 14.2694 6.02645 14.1378 5.97082C13.9495 5.89667 13.7558 5.87629 13.5568 5.90967C13.4083 5.95475 13.3267 6.05413 13.3122 6.20779C13.3845 6.17414 13.4558 6.13592 13.5262 6.09313C13.7211 6.08452 13.8994 6.13549 14.0613 6.24601C13.9951 6.24856 13.9288 6.25111 13.8626 6.25366C13.7963 6.25621 13.7301 6.25876 13.6638 6.2613C13.4509 6.3453 13.3439 6.50327 13.3428 6.73524C13.1369 6.68256 12.928 6.6367 12.7159 6.59765C12.6191 6.58745 12.5223 6.58745 12.4255 6.59765C12.1578 6.58988 11.9667 6.70455 11.8521 6.94164C11.8229 7.16117 11.9121 7.30641 12.1197 7.37736C12.2726 7.41713 12.3668 7.36362 12.4025 7.21683C12.3453 7.20465 12.2867 7.197 12.2267 7.1939C12.2175 7.18929 12.2083 7.18469 12.1991 7.18009L12.1656 7.16332C12.1211 7.14322 12.1033 7.11009 12.112 7.06395C12.1482 7.01244 12.1966 6.97931 12.2573 6.96457C12.3745 6.95437 12.4917 6.95437 12.6089 6.96457C12.9623 7.02207 13.3038 7.12145 13.6333 7.2627C13.65 7.28361 13.6449 7.30145 13.618 7.31621C13.5479 7.33261 13.4766 7.34026 13.4039 7.33914C13.2335 7.32452 13.0628 7.31433 12.8918 7.30856C12.578 7.29321 12.3002 7.38241 12.0585 7.57611C11.8534 7.59028 11.6495 7.61577 11.447 7.65255C11.3554 7.67628 11.2688 7.71195 11.1871 7.75957C11.0745 7.83961 11.0261 7.94917 11.0419 8.08828C11.0849 8.04016 11.1333 7.99685 11.1871 7.95832C11.2641 7.91868 11.3456 7.89321 11.4317 7.88188C11.7541 7.86748 12.0752 7.88277 12.3949 7.92775C12.4257 7.93814 12.446 7.95852 12.456 7.9889C12.3951 8.07051 12.3467 8.15969 12.3108 8.25645C12.2776 8.4205 12.2419 8.58358 12.2038 8.74568C12.0533 8.83483 11.9208 8.94696 11.8063 9.08203C11.7182 9.1868 11.6545 9.30402 11.6152 9.43366C11.6599 9.43428 11.7006 9.42154 11.7375 9.39544C11.8479 9.30706 11.9702 9.23826 12.1044 9.18905C12.1217 9.2523 12.1141 9.31345 12.0815 9.37251C12.0458 9.43366 12.0101 9.49482 11.9745 9.55597L11.8674 9.73943C11.8456 9.89417 11.8762 10.0369 11.9592 10.1675C11.9952 10.0063 12.069 9.86618 12.1808 9.74708C12.2766 9.71029 12.3759 9.68736 12.479 9.67828C12.4982 9.68224 12.5135 9.69244 12.5248 9.70886C12.5205 9.81235 12.5511 9.90408 12.6166 9.98405C12.6775 10.0375 12.7437 10.0833 12.8153 10.1216C12.8344 10.2183 12.8548 10.3151 12.8765 10.4121C12.9167 10.4677 12.9625 10.5186 13.0141 10.565C13.0243 10.5854 13.0243 10.6058 13.0141 10.6262C12.9824 10.6418 12.9493 10.6546 12.9147 10.6644C12.8067 10.6668 12.6997 10.677 12.5936 10.695C12.5141 10.7377 12.4683 10.7989 12.456 10.8784C12.5274 10.8835 12.5987 10.8886 12.6701 10.8937C12.7822 10.9447 12.8943 10.9956 13.0064 11.0466C13.0806 11.0731 13.157 11.0884 13.2358 11.0925C13.2559 11.1573 13.2814 11.221 13.3122 11.2836C13.3032 11.3034 13.2879 11.3162 13.2663 11.3218C13.1848 11.332 13.1032 11.332 13.0217 11.3218C12.9021 11.3014 12.8155 11.2377 12.7618 11.1307C12.7211 11.19 12.7058 11.2563 12.7159 11.3294C12.5669 11.2789 12.414 11.2458 12.2573 11.2301C12.1815 11.1798 12.1102 11.1238 12.0432 11.0619C11.7443 11.023 11.5532 10.8574 11.4699 10.565C11.376 10.4872 11.2842 10.4057 11.1947 10.3204L11.1336 10.1981C11.033 10.3735 11.0509 10.5366 11.1871 10.6873C11.0311 10.7125 10.8782 10.6997 10.7284 10.6491C10.6775 10.6466 10.6265 10.644 10.5756 10.6415L10.4227 10.6338C10.4023 10.6236 10.3819 10.6134 10.3615 10.6032L10.2316 10.5956C10.1882 10.593 10.1449 10.5905 10.1016 10.5879C10.0634 10.5599 10.0252 10.5319 9.98694 10.5039L9.87228 10.4198L9.74997 10.3739C9.64765 10.3669 9.55081 10.3415 9.45949 10.2975C9.41674 10.2499 9.37599 10.2014 9.33718 10.1522C9.27027 10.2675 9.28302 10.3745 9.3754 10.4733C9.61441 10.6579 9.58128 10.7318 9.27603 10.695C9.18496 10.7198 9.11616 10.7733 9.06963 10.8555C9.05305 10.9158 9.02501 10.9693 8.98555 11.016C8.78204 10.9929 8.63425 11.0693 8.54218 11.2454C8.42507 11.243 8.30785 11.243 8.19055 11.2454L7.93064 11.3829C7.82543 11.4095 7.72351 11.4452 7.62487 11.49C7.55659 11.5373 7.53366 11.601 7.55607 11.6811C7.58738 11.6952 7.61541 11.6875 7.64016 11.6581C7.78815 11.6493 7.93595 11.6518 8.08353 11.6658C8.03628 11.7999 8.00315 11.9375 7.98415 12.0786C7.92017 12.1259 7.85901 12.1768 7.80069 12.2315C7.79049 12.2518 7.78031 12.2722 7.77011 12.2926C7.75109 12.424 7.7409 12.5565 7.73953 12.6901C7.52836 12.8298 7.31687 12.9699 7.10506 13.1105C7.08086 13.1186 7.05665 13.1267 7.03244 13.1348L7.01333 13.1411C6.92625 13.1437 6.83962 13.1514 6.75343 13.1641C6.80883 13.2424 6.88018 13.301 6.96747 13.3399C7.14747 13.3383 7.32584 13.3204 7.50256 13.2864C7.47257 13.3706 7.44963 13.4573 7.43376 13.5463C7.42181 13.6196 7.42945 13.691 7.4567 13.7603C7.45335 13.7823 7.44571 13.8027 7.43376 13.8215C7.32864 13.9197 7.25475 14.0369 7.21208 14.1731C7.10818 14.2287 7.00627 14.2873 6.90631 14.3489C6.82499 14.3735 6.74346 14.3964 6.6617 14.4177C6.7155 14.4843 6.77665 14.5429 6.84516 14.5935C6.87722 14.6181 6.91289 14.636 6.95218 14.647C6.87995 14.729 6.78822 14.7646 6.67698 14.7541C6.68296 14.8172 6.69825 14.8783 6.72285 14.9375C6.72241 14.9609 6.71221 14.9787 6.69227 14.991C6.56104 15.0126 6.42855 15.0202 6.29477 15.014C6.30364 15.0799 6.30875 15.1461 6.31006 15.2127C6.13701 15.198 5.96375 15.1955 5.79025 15.2051C5.7256 15.2221 5.66444 15.2476 5.60679 15.2815C5.49986 15.4293 5.35717 15.4803 5.17871 15.4344C5.0222 15.351 4.85912 15.2848 4.68948 15.2357C4.54133 15.2303 4.39355 15.2201 4.24611 15.2051C4.13263 15.1761 4.01796 15.1531 3.90212 15.1363C3.85266 15.1375 3.80424 15.1452 3.75688 15.1592C3.68224 15.2083 3.62364 15.2721 3.58106 15.3503C3.56886 15.3772 3.57142 15.4027 3.58871 15.4268C3.64095 15.3972 3.69446 15.3717 3.74924 15.3503C3.90365 15.4109 4.05907 15.4695 4.21554 15.5261C4.38924 15.5298 4.56251 15.54 4.73534 15.5567C4.84238 15.5822 4.9392 15.6281 5.02583 15.6943C4.95541 15.7121 4.88406 15.7273 4.81179 15.7402C4.6109 15.8203 4.40705 15.8916 4.20025 15.9542C4.04631 15.9738 3.89342 15.9993 3.74159 16.0307C3.62722 16.071 3.56097 16.15 3.54284 16.2676C3.75141 16.256 3.96036 16.2483 4.16967 16.2447C4.28157 16.2092 4.39369 16.1735 4.50602 16.1377C4.56208 16.1275 4.61813 16.1275 4.67419 16.1377C4.57897 16.2256 4.46686 16.2816 4.33784 16.3058C4.08615 16.3149 3.86702 16.4015 3.68044 16.5657C3.50386 16.6429 3.32039 16.699 3.13005 16.7339C2.98969 16.8372 2.85209 16.9443 2.71726 17.055C2.61931 17.1049 2.51739 17.1405 2.41149 17.162C2.49642 17.2445 2.59835 17.275 2.71726 17.2537C2.93134 17.1926 3.13519 17.106 3.3288 16.9938C3.35063 16.985 3.37103 16.9875 3.38996 17.0015C3.40507 16.9966 3.42023 16.993 3.43543 16.9906C3.48103 16.9833 3.52702 16.987 3.57341 17.0015C3.57341 17.0015 3.57341 17.0015 3.57341 17.0015C3.51216 17.0458 3.44593 17.0611 3.37467 17.0473C3.2405 17.1375 3.10801 17.2318 2.97717 17.3302C2.80789 17.4995 2.62952 17.6575 2.44207 17.8041C2.31068 17.8895 2.16799 17.943 2.01399 17.9646C1.99838 17.9723 1.99583 17.9825 2.00635 17.9952C2.04737 18.0603 2.10597 18.0909 2.18216 18.087C2.29208 18.0709 2.3991 18.0429 2.50322 18.0029L3.05361 17.7735C3.25288 17.7342 3.45163 17.6934 3.64986 17.6512C3.67541 17.6385 3.70095 17.6257 3.7265 17.6129C3.75192 17.6002 3.77733 17.5875 3.80275 17.5748C3.92053 17.4621 4.04284 17.355 4.16967 17.2537C4.2831 17.2096 4.40031 17.179 4.52131 17.162C4.61149 17.1126 4.69303 17.0514 4.76592 16.9785C4.8536 17.0009 4.94278 17.0238 5.03347 17.0473L5.194 17.0244C5.26396 16.9919 5.33531 16.9639 5.40804 16.9403C5.42855 16.8798 5.47014 16.8491 5.53282 16.8483C5.537 16.8483 5.54127 16.8484 5.54564 16.8486C5.56158 16.8095 5.58707 16.7764 5.62208 16.7492C5.70916 16.6692 5.81109 16.6386 5.92785 16.6575C5.82765 16.7458 5.71554 16.8146 5.5915 16.8639C5.55972 16.9002 5.51894 16.9205 5.46919 16.925C5.37992 17.0017 5.3417 17.0985 5.35453 17.2155C5.36086 17.2225 5.3685 17.2276 5.37746 17.2308C5.57054 17.0686 5.79478 16.9795 6.05016 16.9633C6.11255 16.9408 6.1737 16.9153 6.23362 16.8868C6.35753 16.7768 6.47475 16.6596 6.58525 16.5352C6.71854 16.4274 6.85613 16.3254 6.99804 16.2294C7.10385 16.1272 7.19303 16.0125 7.26559 15.8854C7.51554 15.6916 7.778 15.5158 8.05295 15.358C8.07844 15.3478 8.10391 15.3478 8.12939 15.358C8.21765 15.4167 8.31449 15.4397 8.41987 15.4268C8.42344 15.515 8.40815 15.5991 8.37401 15.679C8.27373 15.6982 8.1718 15.7084 8.06824 15.7096C8.02164 15.7189 7.98342 15.7418 7.95357 15.7784C7.9427 15.8069 7.95035 15.8299 7.97651 15.8472C8.03642 15.8757 8.09758 15.9011 8.15997 15.9236C8.19824 15.9509 8.19824 15.9764 8.15997 16.0001C8.12939 16.0052 8.09881 16.0103 8.06824 16.0154C8.00523 16.093 7.94408 16.172 7.88478 16.2523C7.83594 16.2763 7.78754 16.3018 7.73953 16.3288C7.72934 16.3441 7.72934 16.3594 7.73953 16.3746C7.79902 16.4165 7.86528 16.4369 7.93829 16.4358C8.04312 16.4188 8.14759 16.4061 8.2517 16.3976C8.27006 16.4114 8.28281 16.4292 8.28992 16.4511C8.29501 16.502 8.30012 16.553 8.30521 16.604C8.35167 16.6264 8.39498 16.6213 8.43516 16.5887L8.57276 16.3441C8.59682 16.3268 8.62231 16.3242 8.6492 16.3364C8.7465 16.4366 8.82294 16.5513 8.87853 16.6804C8.84181 16.7778 8.80358 16.8747 8.76386 16.9709L8.72564 17.0091C8.26523 17.1765 8.13019 17.4899 8.3205 17.9494C8.42507 18.1357 8.49642 18.3344 8.53454 18.5456C8.73069 18.9099 9.03392 19.0552 9.4442 18.9813C9.79802 18.8676 9.99422 18.6255 10.0328 18.2551L10.1704 17.8882C10.1806 17.8118 10.1806 17.7353 10.1704 17.6589C10.1539 17.5116 10.1233 17.3689 10.0787 17.2308C10.1051 17.2143 10.1331 17.2118 10.1628 17.2232C10.3411 17.2944 10.4761 17.4142 10.5679 17.5824L10.5832 17.9188C10.5863 17.9456 10.5939 17.9711 10.6061 17.9952C10.6788 17.9179 10.7273 17.8262 10.7514 17.72C10.8022 17.4539 10.7767 17.194 10.6749 16.9403C10.655 16.8826 10.6219 16.8342 10.5756 16.7951C10.4002 16.6907 10.2116 16.6397 10.0099 16.6422C9.92368 16.692 9.83706 16.692 9.74997 16.6422C9.70327 16.579 9.66505 16.5102 9.63531 16.4358C9.55757 16.3365 9.49132 16.2294 9.43656 16.1147C9.3805 16.0689 9.32445 16.023 9.26839 15.9771C9.25521 15.9529 9.24501 15.9274 9.23781 15.9007C9.21665 15.6927 9.23703 15.4889 9.29896 15.2892C9.32492 15.2703 9.3555 15.2601 9.39069 15.2586C9.46503 15.268 9.53892 15.2808 9.61238 15.2968C9.80102 15.4166 9.99468 15.5288 10.1933 15.6332C10.3719 15.6324 10.5503 15.6222 10.7284 15.6026C10.9224 15.5883 11.088 15.5144 11.2253 15.3809C11.4666 15.0482 11.4564 14.722 11.1947 14.4024C11.1551 14.3295 11.1246 14.253 11.103 14.1731C11.0533 14.0775 10.9795 14.0087 10.8813 13.9667C10.6287 13.939 10.3815 13.9619 10.1398 14.0355C10.1229 14.0342 10.1076 14.0291 10.094 14.0202C10.1195 13.8922 10.1934 13.7979 10.3156 13.7374C10.4271 13.7345 10.5341 13.7141 10.6367 13.6762C10.4168 13.4225 10.1518 13.3563 9.8417 13.4775C9.65104 13.6728 9.53129 13.9047 9.48242 14.1731C9.41794 14.2533 9.34405 14.2661 9.26074 14.2113C9.2129 14.1386 9.17977 14.0596 9.16137 13.9743C9.16688 13.6961 9.20257 13.4209 9.26839 13.1488C9.36001 12.9704 9.48996 12.8252 9.65824 12.713C9.76951 12.7032 9.87142 12.6676 9.96401 12.606C10.0984 12.6055 10.2309 12.5927 10.3615 12.5678C10.4201 12.5767 10.4762 12.5945 10.5297 12.6213C10.6729 12.6341 10.8156 12.6494 10.9578 12.6672C11.2418 12.7585 11.5272 12.8502 11.8139 12.9424C12.0563 12.9864 12.2958 13.0425 12.5325 13.1105C12.853 13.1547 13.174 13.1929 13.4957 13.2252C13.4953 13.3989 13.4086 13.4855 13.2358 13.4851C13.1139 13.4656 12.9916 13.458 12.8688 13.4622C12.817 13.4776 12.8017 13.5081 12.823 13.5539C12.9046 13.5861 12.9811 13.6269 13.0523 13.6762C13.0787 13.6975 13.0991 13.7229 13.1134 13.7527C13.0446 13.8777 12.9579 13.9898 12.8535 14.089C12.8135 14.1034 12.7727 14.1161 12.7312 14.1272C12.7261 14.1374 12.721 14.1476 12.7159 14.1578C12.7805 14.2567 12.8723 14.295 12.9911 14.2725C13.1104 14.2154 13.2225 14.1466 13.3275 14.0661C13.3534 14.0793 13.3713 14.0997 13.381 14.1272C13.3777 14.2328 13.3803 14.3373 13.3886 14.4406C13.4316 14.4434 13.4724 14.4332 13.5109 14.4101C13.585 14.3539 13.6512 14.2902 13.7097 14.219C13.7687 14.2653 13.8299 14.3086 13.8932 14.3489C13.9349 14.3552 13.9757 14.3654 14.0155 14.3795L14.1989 14.5171C14.2773 14.552 14.3589 14.5775 14.4435 14.5935C14.5834 14.6805 14.7363 14.7213 14.9022 14.7158C14.9726 14.7638 15.0491 14.7995 15.1315 14.8229C15.2897 14.8274 15.4476 14.8274 15.6055 14.8229C15.6634 14.8442 15.7194 14.8696 15.7736 14.8993C15.8105 14.9124 15.8309 14.9379 15.8348 14.9757C15.7914 15.0601 15.7736 15.1493 15.7813 15.2433C15.8593 15.3958 15.9256 15.5538 15.98 15.7172C16.0525 15.8109 16.1417 15.8848 16.2476 15.9389C16.3378 16.0578 16.455 16.1343 16.5992 16.1682C16.8321 16.2063 17.0664 16.2293 17.3025 16.237C17.4944 16.2451 17.6728 16.2018 17.8376 16.1071C17.8695 16.0752 17.9013 16.0434 17.9331 16.0115C17.965 15.9797 17.9968 15.9478 18.0287 15.916C18.1117 15.8083 18.1576 15.686 18.1663 15.5491C18.2044 15.3169 18.1687 15.0977 18.0593 14.8917C18.0568 14.8305 18.0542 14.7694 18.0516 14.7082C18.0491 14.647 18.0465 14.5859 18.044 14.5247C17.975 14.3638 17.8706 14.2288 17.7306 14.1196C17.5609 14.0725 17.3875 14.0547 17.2108 14.0661C17.2123 14.0077 17.2251 13.9516 17.249 13.8979C17.2961 13.861 17.3433 13.824 17.3904 13.7871C17.4375 13.7501 17.4847 13.7132 17.5318 13.6762C17.5661 13.6624 17.6018 13.6547 17.6388 13.6533C17.6946 13.6627 17.7506 13.6678 17.807 13.6686C17.8082 13.6467 17.8032 13.6263 17.7917 13.6074C17.6682 13.4871 17.5205 13.4208 17.3484 13.4087C17.1921 13.4497 17.0342 13.4828 16.8744 13.508C16.7396 13.5794 16.6479 13.6864 16.5992 13.8291C16.4608 13.8605 16.364 13.942 16.3087 14.0737C16.2201 14.0915 16.136 14.1195 16.0565 14.1578C15.9435 14.1235 15.8288 14.0955 15.7125 14.0737C15.6419 14.0257 15.5654 13.99 15.4832 13.9667C15.3348 13.9561 15.187 13.9408 15.0398 13.9208C14.9129 13.8497 14.7829 13.786 14.6499 13.7297C14.6469 13.6216 14.6723 13.5196 14.7264 13.424C14.8842 13.2204 15.0269 13.0064 15.1545 12.7818C15.4231 12.3237 15.5556 11.8294 15.552 11.2989C15.6688 11.201 15.8039 11.1628 15.9571 11.1842C16.0259 11.1945 16.0667 11.2327 16.0794 11.2989C16.0692 11.4594 15.9877 11.5638 15.8348 11.6123C15.8559 11.6385 15.8813 11.6589 15.9112 11.6734C16.0135 11.6827 16.1154 11.6802 16.217 11.6658C16.1864 11.9361 16.2934 12.1246 16.5381 12.2315C16.5686 12.2315 16.5839 12.2162 16.5839 12.1856C16.5176 12.035 16.5456 11.9025 16.668 11.7881C16.7086 11.8083 16.7392 11.8389 16.7598 11.8798C16.811 11.9651 16.844 12.0568 16.8591 12.155C16.9556 12.0565 16.9888 11.9393 16.9585 11.8034C16.9267 11.6915 16.8885 11.5819 16.8438 11.4747C16.8452 11.4733 16.8466 11.4719 16.8479 11.4706L16.8515 11.467C16.854 11.4645 16.8566 11.4619 16.8591 11.4594C16.9868 11.4352 17.1141 11.4097 17.2413 11.3829C17.4528 11.2645 17.6618 11.1422 17.8682 11.016C17.909 11.0058 17.9497 11.0058 17.9905 11.016C18.2984 11.2698 18.65 11.3718 19.0454 11.3218C19.1435 11.2803 19.2405 11.2345 19.3359 11.1842C19.4149 11.1657 19.4913 11.1403 19.5652 11.1078C19.7211 10.957 19.8714 10.8015 20.0162 10.6415C20.0636 10.5458 20.0636 10.4489 20.0162 10.351C19.9278 10.2203 19.8514 10.0827 19.7869 9.93819L19.5575 9.73943C19.4594 9.45534 19.2683 9.26678 18.9842 9.17376C18.9785 9.17495 18.9727 9.17606 18.9669 9.1771C18.8804 9.1927 18.7945 9.19159 18.709 9.17376C18.6991 9.17832 18.6892 9.18297 18.6793 9.18771C18.5318 9.25887 18.3991 9.35104 18.281 9.46424C18.2807 9.465 18.2804 9.46574 18.2801 9.46648C18.2757 9.47757 18.2683 9.48702 18.258 9.49482C18.2573 9.49208 18.2566 9.48935 18.2559 9.48664C18.2462 9.44591 18.2495 9.40788 18.2657 9.37254C18.2657 9.37253 18.2657 9.37252 18.2657 9.37251C18.2719 9.28597 18.277 9.19933 18.281 9.11262V9.11261C18.4247 9.11788 18.5674 9.13317 18.709 9.15847L18.709 9.15847C18.8003 9.12892 18.892 9.12383 18.9842 9.14318ZM17.2796 8.08828C17.2496 8.0433 17.2063 8.02292 17.1496 8.02712C17.0602 8.07819 16.9811 8.14443 16.9126 8.22588C16.9018 8.25442 16.9094 8.27735 16.9356 8.29467C17.2973 8.41944 17.654 8.5545 18.0058 8.69982C18.0097 8.66135 18.0224 8.62567 18.044 8.5928C18.1051 8.51414 18.1486 8.42752 18.1739 8.33289C18.0122 8.33517 17.8517 8.35046 17.6923 8.37876C17.6757 8.37621 17.6591 8.37365 17.6425 8.37109C17.626 8.36855 17.6095 8.36601 17.593 8.36347C17.6579 8.30116 17.7139 8.23236 17.7611 8.15708C17.7076 8.09176 17.6414 8.07648 17.5624 8.11121C17.4722 8.19888 17.3754 8.27787 17.2719 8.34818C17.2694 8.34186 17.2669 8.33553 17.2643 8.32919L17.2602 8.31882L17.2576 8.31234L17.2566 8.30996C17.2834 8.23795 17.291 8.16406 17.2796 8.08828ZM17.7153 10.0605C17.7015 10.0726 17.6913 10.0879 17.6847 10.1064C17.4873 10.1627 17.2886 10.2162 17.0885 10.2669C16.6433 10.3154 16.2458 10.2033 15.896 9.93054C15.8246 9.89487 15.7533 9.85919 15.6819 9.82352C15.4983 9.75215 15.3148 9.6808 15.1315 9.60948C15.0474 9.54578 14.9736 9.47189 14.9098 9.3878C14.8996 9.36742 14.8996 9.34702 14.9098 9.32665C14.9786 9.31642 15.0474 9.30368 15.1162 9.28842C15.1672 9.24766 15.2182 9.20689 15.2691 9.16612C15.3201 9.12535 15.371 9.08457 15.422 9.04381C15.4766 9.00349 15.5378 8.97802 15.6055 8.96737C15.7605 8.97573 15.9159 8.98846 16.0718 9.00559C16.1819 9.00124 16.2915 8.99105 16.4005 8.97501C16.5815 8.99927 16.7395 9.07318 16.8744 9.19669C16.9645 9.27901 17.046 9.36818 17.119 9.46424C17.022 9.61 16.8894 9.70427 16.7215 9.74708C16.7751 9.78154 16.8311 9.81212 16.8897 9.83881C16.9335 9.84071 16.9773 9.84262 17.0211 9.84452L17.2413 9.8541C17.2976 9.9817 17.3918 10.0658 17.5242 10.1064C17.5369 10.1013 17.5497 10.0962 17.5624 10.0911C17.4494 9.97336 17.4647 9.87654 17.6083 9.80059C17.6985 9.86388 17.7341 9.95051 17.7153 10.0605ZM17.7917 10.1064V10.0758C17.8376 10.0274 17.8809 9.97641 17.9217 9.9229C17.9549 9.79818 18.0236 9.6988 18.1281 9.62477C18.1513 9.60935 18.1768 9.6017 18.2045 9.60184C18.1331 9.79837 18.0261 9.97419 17.8835 10.1293C17.8477 10.1407 17.8171 10.1331 17.7917 10.1064ZM18.3574 8.74569C18.3942 8.74014 18.4172 8.75542 18.4262 8.79155C18.4465 8.87819 18.4159 8.90366 18.3345 8.86799C18.3279 8.82485 18.3355 8.78409 18.3574 8.74569ZM12.349 8.57752C12.3947 8.57224 12.4151 8.59262 12.4102 8.63867C12.4142 8.67666 12.3989 8.70215 12.3643 8.71511C12.3083 8.67718 12.3032 8.63132 12.349 8.57752Z" fill="#090909"/>
<path d="M19.5194 5.51953H19.5653C19.5095 5.61064 19.4612 5.70746 19.42 5.81001C19.3972 5.93134 19.382 6.05365 19.3742 6.17694L19.3283 6.31453C19.23 6.49079 19.1484 6.67426 19.0837 6.86492C19.0369 6.93722 18.9757 6.99328 18.9002 7.03309C18.8579 7.02124 18.8401 6.99322 18.8467 6.94901C18.8222 6.64383 18.9319 6.40177 19.1754 6.2228C19.2546 6.07956 19.3055 5.92668 19.3283 5.76415C19.3787 5.67062 19.4423 5.58908 19.5194 5.51953Z" fill="white"/>
<path d="M14.4436 5.64184C14.5695 5.66084 14.6918 5.69397 14.8105 5.74121C14.8526 5.7747 14.8475 5.80018 14.7952 5.81766C14.7749 5.82785 14.7545 5.82785 14.7341 5.81766L14.4589 5.68006C14.4474 5.6698 14.4423 5.65707 14.4436 5.64184Z" fill="white"/>
<path d="M14.9328 5.90174C14.8986 5.88685 14.8629 5.88174 14.8258 5.88645C14.6828 5.99044 14.6038 6.13313 14.5889 6.31453L14.413 6.19986C14.2095 6.07596 13.9904 6.00461 13.7556 5.98582C14.0221 6.10368 14.2565 6.26676 14.4589 6.47506C14.495 6.51108 14.5383 6.53401 14.5889 6.54385C14.6373 6.53366 14.6806 6.51328 14.7188 6.4827C14.7311 6.36623 14.7387 6.24903 14.7417 6.13106C14.7968 6.04793 14.8605 5.97148 14.9328 5.90174Z" fill="white"/>
<path d="M15.0246 5.97819C15.1609 5.95994 15.2781 5.99816 15.3762 6.09286C15.5535 6.18422 15.737 6.26066 15.9266 6.32218C16.1569 6.42677 16.1442 6.47519 15.8884 6.46742C15.7963 6.47232 15.7071 6.45958 15.6208 6.4292C15.405 6.315 15.2037 6.17995 15.0169 6.02406C15.0098 6.00759 15.0123 5.9923 15.0246 5.97819Z" fill="white"/>
<path d="M14.9481 6.10814C14.9199 6.09089 14.8894 6.08325 14.8564 6.08521C14.8186 6.13647 14.8033 6.19507 14.8105 6.26102C14.8003 6.34266 14.8207 6.414 14.8717 6.47506C15.0674 6.52226 15.2662 6.53755 15.468 6.52093C15.4851 6.51712 15.5004 6.50948 15.5138 6.498C15.3205 6.37578 15.132 6.24583 14.9481 6.10814Z" fill="white"/>
<path d="M13.6945 6.3451C13.766 6.34257 13.8374 6.34512 13.9085 6.35275C13.8261 6.39442 13.7522 6.44793 13.6868 6.51328C13.6721 6.57874 13.6823 6.6399 13.7174 6.69674C13.736 6.71872 13.7546 6.74071 13.7732 6.7627L13.8026 6.79736C13.8302 6.83007 13.8579 6.86278 13.8856 6.89549C13.9249 6.95045 13.9503 7.01161 13.962 7.07895C13.9871 7.11682 14.0152 7.15249 14.0461 7.18597C13.9684 7.24817 13.8817 7.26092 13.7862 7.22419C13.5018 7.10901 13.2114 7.01219 12.9148 6.93371C12.7274 6.90384 12.5389 6.88601 12.3491 6.8802C12.186 6.85757 12.0841 6.92382 12.0433 7.07895C12.0559 7.14735 12.0864 7.20597 12.1351 7.25477C12.0492 7.26136 11.9906 7.22314 11.9592 7.14011C11.9163 6.99907 11.9545 6.88441 12.0739 6.79611C12.2083 6.70856 12.3561 6.67034 12.5173 6.68145C12.6507 6.68411 12.7832 6.69686 12.9148 6.71967C13.088 6.76473 13.2613 6.80804 13.4346 6.84962C13.4033 6.61556 13.4899 6.44738 13.6945 6.3451Z" fill="white"/>
<path d="M14.2602 6.41391C14.2062 6.39347 14.1502 6.38583 14.092 6.39098C14.017 6.41804 13.9406 6.44608 13.8627 6.47507C13.8133 6.50141 13.7777 6.53963 13.7556 6.58973C13.8095 6.70227 13.8885 6.794 13.9926 6.86492C14.1602 6.80661 14.3054 6.71488 14.4283 6.58973C14.3808 6.52251 14.3247 6.4639 14.2602 6.41391Z" fill="white"/>
<path d="M16.4617 6.46742C16.6552 6.44632 16.826 6.49728 16.9739 6.62031C16.9836 6.70438 16.9734 6.78593 16.9433 6.86492C16.8786 6.87891 16.815 6.87127 16.7522 6.84199C16.5918 6.75797 16.444 6.65604 16.3088 6.53622C16.3602 6.51158 16.4111 6.48864 16.4617 6.46742Z" fill="white"/>
<path d="M16.1865 6.58209C16.0719 6.54847 15.9547 6.53573 15.8349 6.54386C15.7462 6.56635 15.6544 6.5842 15.5597 6.59737C15.2742 6.60144 14.9888 6.60144 14.7035 6.59737C14.5343 6.65397 14.3865 6.7457 14.2602 6.87257C14.1963 6.88532 14.1351 6.90571 14.0767 6.93372C14.0397 6.96434 14.0269 7.00257 14.0385 7.04838C14.1233 7.11411 14.2175 7.16251 14.3213 7.19363C14.3747 7.25455 14.4206 7.3208 14.4589 7.39238C14.5009 7.41913 14.5468 7.43442 14.5965 7.43824C14.7966 7.45468 14.9953 7.48016 15.1928 7.51468C15.3089 7.55235 15.4108 7.61351 15.4985 7.69815C15.6325 7.71372 15.7522 7.68061 15.8578 7.59877C15.8898 7.49053 15.9509 7.40389 16.0413 7.33887C16.1605 7.09197 16.3567 6.9926 16.6299 7.04074C16.7728 7.07644 16.9155 7.11211 17.058 7.14776C17.1772 7.21602 17.2384 7.3154 17.2414 7.44589C17.0827 7.51513 16.9451 7.6145 16.8286 7.74401C16.8077 7.75016 16.7873 7.7578 16.7675 7.76694C16.5433 7.69056 16.4592 7.53768 16.5152 7.30829C16.5521 7.24483 16.5801 7.17858 16.5993 7.10954C16.4839 7.10466 16.3769 7.1327 16.2782 7.19363C16.2084 7.22506 16.1728 7.27857 16.1712 7.35415C16.2287 7.35961 16.2848 7.37235 16.3394 7.39238C16.3858 7.41058 16.4113 7.44371 16.4158 7.49175C16.3092 7.47192 16.2022 7.45919 16.0948 7.45353C16.0428 7.47493 15.9994 7.50806 15.9648 7.55291C15.9427 7.61748 15.9656 7.65571 16.0336 7.66757C16.2949 7.7047 16.4606 7.84995 16.5305 8.10329C16.5318 8.47919 16.3432 8.67794 15.9648 8.69954C15.6426 8.69274 15.4209 8.54239 15.2998 8.24853C15.1481 8.27067 14.9952 8.28087 14.8411 8.27911L14.6271 8.23324C14.418 8.15675 14.209 8.08031 14.0003 8.00392C13.9224 7.99129 13.846 7.99639 13.7709 8.0192C13.5901 8.2578 13.3914 8.48203 13.1747 8.6919C13.1176 8.72451 13.0565 8.74489 12.9912 8.75305L12.7781 8.77549C12.6555 8.78839 12.5329 8.8013 12.4102 8.81421C12.3319 8.82743 12.2555 8.84781 12.1809 8.87536C12.0294 8.9374 11.9325 9.04187 11.8904 9.18878C11.9779 9.14687 12.0697 9.11883 12.1656 9.10469C12.4608 9.07812 12.7563 9.05774 13.0524 9.04353C13.235 9.03372 13.3904 8.96492 13.5187 8.83714C13.6282 8.67921 13.7302 8.51613 13.8244 8.34791C13.9426 8.19926 14.0929 8.15084 14.2754 8.20267C14.4527 8.26683 14.631 8.32799 14.8105 8.38613C14.9173 8.40816 15.0243 8.42854 15.1316 8.44728C15.0781 8.48677 15.0221 8.52244 14.9634 8.5543C14.8041 8.58931 14.6461 8.62753 14.4895 8.66897C14.5158 8.69089 14.5464 8.70362 14.5812 8.70719C14.8783 8.74088 15.1739 8.73579 15.4679 8.6919L15.4832 8.70719C15.4297 8.78108 15.3762 8.85498 15.3227 8.92887C15.2991 8.9591 15.2915 8.98967 15.2998 9.0206C15.393 8.9689 15.4898 8.92557 15.5903 8.89065C15.6463 8.88045 15.7024 8.88045 15.7584 8.89065C15.8752 8.91146 15.9924 8.9293 16.1101 8.94416C16.2858 8.93398 16.426 8.85753 16.5305 8.71483C16.6503 8.50584 16.7777 8.302 16.9127 8.10329C16.9731 8.04298 17.0419 7.99457 17.1191 7.95805C17.29 7.92218 17.4582 7.93238 17.6236 7.98863C17.7522 8.04952 17.881 8.11052 18.01 8.17163L18.0259 8.17916C18.0854 8.20736 18.145 8.23558 18.2046 8.26382C18.4151 8.27449 18.5552 8.18021 18.625 7.98098C18.6379 7.82755 18.6837 7.68485 18.7626 7.55291C18.8355 7.48001 18.8967 7.39848 18.9461 7.30829C18.9481 7.22284 18.915 7.15404 18.8467 7.10189C18.7559 7.06941 18.6668 7.07196 18.5792 7.10954C18.5665 7.18526 18.5411 7.2566 18.5027 7.32358C18.4708 7.35546 18.4389 7.38733 18.4071 7.41921C18.3753 7.45103 18.3435 7.48286 18.3116 7.51468C18.3256 7.53379 18.3396 7.55291 18.3537 7.57202C18.3677 7.59113 18.3817 7.61024 18.3957 7.62935C18.4435 7.70019 18.4435 7.77155 18.3957 7.84339C18.2706 8.00902 18.1202 8.03706 17.9447 7.92747C17.8507 7.80558 17.8456 7.68072 17.9294 7.55291C17.948 7.53439 17.9659 7.53439 17.9829 7.55291C17.9607 7.62683 17.9505 7.70327 17.9523 7.78223C17.9603 7.82097 17.978 7.85409 18.0058 7.88161C18.065 7.91836 18.1058 7.90307 18.1281 7.83574C18.1421 7.73901 18.165 7.64473 18.1969 7.55291C18.2454 7.49426 18.2938 7.43562 18.3423 7.37699C18.3907 7.31842 18.4391 7.25984 18.4874 7.20127C18.498 7.16427 18.4903 7.13114 18.4645 7.10189C18.4053 7.07866 18.3442 7.07355 18.281 7.08661C18.1621 7.12824 18.045 7.1741 17.9294 7.2242C17.8134 7.26481 17.6962 7.2699 17.5778 7.23949C17.4113 7.16979 17.2483 7.09335 17.0885 7.01016C17.0224 6.99237 16.9563 6.97457 16.8902 6.95676C16.8238 6.93889 16.7574 6.92101 16.691 6.90314L16.1865 6.58209Z" fill="white"/>
<path d="M17.1803 6.58972C17.3056 6.56832 17.4152 6.5989 17.509 6.68145C17.5192 6.69674 17.5192 6.71203 17.509 6.72732C17.3668 6.73085 17.2622 6.79454 17.1955 6.91843C17.1471 6.93338 17.1038 6.92573 17.0656 6.89549C17.0365 6.76594 17.0748 6.66401 17.1803 6.58972Z" fill="white"/>
<path d="M20.1157 6.65853C19.8966 6.65088 19.6775 6.64833 19.4583 6.65088C19.3109 6.79562 19.1606 6.93831 19.0072 7.07896C18.9913 7.14828 19.0091 7.20688 19.0607 7.25478C19.1406 7.25137 19.217 7.23099 19.2901 7.19362C19.4067 7.1025 19.5188 7.00568 19.6264 6.90314C19.8044 6.82688 19.9828 6.75298 20.1615 6.68146C20.1481 6.66998 20.1328 6.66233 20.1157 6.65853Z" fill="white"/>
<path d="M17.4096 6.83434H17.4707C17.473 6.85043 17.4704 6.86571 17.4631 6.88021C17.4148 6.92607 17.3741 6.97703 17.3408 7.03309C17.329 7.03088 17.3188 7.02578 17.3102 7.0178C17.2994 6.93234 17.3325 6.87119 17.4096 6.83434Z" fill="white"/>
<path d="M18.0823 7.07132C17.9464 6.98781 17.7985 6.94959 17.6389 6.95666C17.5703 6.98437 17.5142 7.03024 17.4707 7.09425C17.4781 7.1092 17.4882 7.12194 17.5013 7.13247C17.7051 7.21503 17.8988 7.19464 18.0823 7.07132Z" fill="white"/>
<path d="M19.9628 7.10953C20.2416 7.10686 20.5168 7.13488 20.7883 7.19362C20.7874 7.19458 20.7864 7.19554 20.7855 7.19651C20.7838 7.19813 20.7822 7.19976 20.7806 7.20139C20.7781 7.2039 20.7755 7.2064 20.7731 7.20891C20.5035 7.23565 20.2334 7.25603 19.9628 7.27006C19.8265 7.32285 19.6941 7.38401 19.5653 7.45352C19.3376 7.56268 19.098 7.62128 18.8467 7.62934C18.8985 7.48832 18.9953 7.38894 19.1372 7.33121C19.2945 7.30357 19.4526 7.27809 19.6111 7.25477C19.7299 7.20547 19.847 7.15705 19.9628 7.10953Z" fill="white"/>
<path d="M18.3422 7.72872C18.3471 7.66278 18.3165 7.63476 18.2505 7.64464C18.2235 7.72328 18.2133 7.80481 18.2199 7.88925C18.2488 7.89236 18.2717 7.88217 18.2887 7.85868C18.3212 7.82148 18.3391 7.77815 18.3422 7.72872Z" fill="white"/>
<path d="M15.7584 7.75166C15.9407 7.7404 16.114 7.77353 16.2782 7.85103C16.4665 8.01902 16.4945 8.21013 16.3623 8.42435C16.1312 8.634 15.8789 8.66203 15.6055 8.50844C15.3793 8.32016 15.3487 8.10612 15.5138 7.86632C15.5909 7.815 15.6724 7.77678 15.7584 7.75166Z" fill="white"/>
<path d="M14.3825 8.58488C14.5302 8.4293 14.4996 8.33502 14.2907 8.30204C14.2301 8.41594 14.2072 8.53825 14.2219 8.66896C14.2784 8.64672 14.3319 8.61869 14.3825 8.58488Z" fill="white"/>
<path d="M14.5812 8.43963C14.6558 8.42912 14.722 8.44696 14.78 8.49314C14.7219 8.54185 14.6556 8.55714 14.5812 8.53901C14.5421 8.50605 14.5421 8.47292 14.5812 8.43963Z" fill="white"/>
<path d="M15.2692 8.81421C15.0144 8.80656 14.7596 8.80401 14.5048 8.80656C14.5001 8.8165 14.495 8.8267 14.4895 8.83714C14.5531 8.9443 14.6372 9.03094 14.7417 9.09704C14.7696 9.07945 14.7976 9.0616 14.8258 9.04353C14.9358 9.02257 15.0428 8.992 15.1469 8.9518C15.2043 8.92752 15.2502 8.8893 15.2845 8.83714C15.2813 8.82818 15.2762 8.82053 15.2692 8.81421Z" fill="white"/>
<path d="M15.0246 9.08175H15.2233C15.1994 9.16413 15.1433 9.21254 15.0552 9.22699C14.9991 9.23719 14.943 9.23719 14.887 9.22699C14.7896 9.18957 14.7947 9.15388 14.9023 9.11997C14.9452 9.10802 14.986 9.09527 15.0246 9.08175Z" fill="white"/>
<path d="M13.5263 7.91218C13.267 7.88654 13.0071 7.87381 12.7466 7.87396C12.6623 8.05278 12.5884 8.23624 12.5249 8.42435C12.5091 8.51583 12.4964 8.60757 12.4867 8.69954C12.6244 8.70208 12.762 8.69954 12.8995 8.6919C12.9882 8.67931 13.0698 8.64874 13.1441 8.60017C13.3617 8.41177 13.5452 8.19517 13.6945 7.9504C13.6408 7.92851 13.5847 7.91578 13.5263 7.91218Z" fill="white"/>
<path d="M17.3943 8.02685H17.5013C17.4892 8.0799 17.4587 8.12067 17.4096 8.14915C17.3795 8.11043 17.3743 8.06965 17.3943 8.02685Z" fill="white"/>
<path d="M18.6632 8.13387C18.6921 8.13077 18.7151 8.14095 18.732 8.16445C18.7408 8.40101 18.682 8.62015 18.5562 8.82185C18.5409 8.84223 18.5256 8.84223 18.5104 8.82185C18.4972 8.70002 18.4946 8.57771 18.5027 8.45493C18.4708 8.43964 18.4452 8.44984 18.4263 8.48551C18.2589 8.7074 18.1876 8.95711 18.2122 9.23464C18.1919 9.33657 18.1714 9.33657 18.1511 9.23464C18.1228 9.05185 18.1075 8.86839 18.1052 8.68426C18.1601 8.60014 18.211 8.5135 18.2581 8.42435C18.3235 8.35465 18.4026 8.30623 18.4951 8.27911C18.5541 8.23276 18.6102 8.18435 18.6632 8.13387Z" fill="white"/>
<path d="M17.8377 8.21031C17.8637 8.20787 17.8892 8.2104 17.9141 8.21796C17.9344 8.23834 17.9344 8.25873 17.9141 8.27911C17.8858 8.29636 17.8553 8.304 17.8224 8.30204C17.8198 8.26962 17.8248 8.23904 17.8377 8.21031Z" fill="white"/>
<path d="M16.8286 8.39377C17.176 8.4679 17.5123 8.57748 17.8377 8.72247C17.8892 8.74305 17.9351 8.77107 17.9753 8.80656C17.9513 8.82385 17.9257 8.8264 17.8988 8.8142C17.5961 8.70795 17.2903 8.61111 16.9815 8.52372C16.9288 8.50498 16.8777 8.48204 16.8286 8.45492C16.8113 8.43493 16.8113 8.41453 16.8286 8.39377Z" fill="white"/>
<path d="M19.5194 8.45492C19.5778 8.46769 19.6263 8.49827 19.6646 8.54665C19.699 8.63134 19.7322 8.71542 19.764 8.79891C19.9421 8.8192 20.1103 8.87016 20.2685 8.9518C20.0554 8.93145 19.8414 8.92636 19.6264 8.93651C19.3619 8.98484 19.0968 9.02815 18.8314 9.06646C18.7855 9.06391 18.7397 9.06137 18.6938 9.05882C18.6713 9.04796 18.6611 9.03014 18.6632 9.00531C18.8467 9.01332 18.9867 8.94197 19.0837 8.79127C19.0843 8.7863 19.0849 8.78133 19.0856 8.77636C19.086 8.77294 19.0864 8.76953 19.0868 8.76611L19.0894 8.74548C19.09 8.74036 19.0907 8.73524 19.0913 8.73012C19.0719 8.67077 19.0617 8.60961 19.0607 8.54665C19.1444 8.5414 19.2029 8.57706 19.2366 8.65367C19.2762 8.74276 19.2838 8.83449 19.2595 8.92887C19.5104 8.86138 19.5969 8.70341 19.5194 8.45492Z" fill="white"/>
<path d="M19.2748 8.4855C19.4385 8.49325 19.4946 8.57223 19.443 8.72247C19.4063 8.7321 19.3781 8.71937 19.3589 8.68425C19.3138 8.62478 19.2858 8.55853 19.2748 8.4855Z" fill="white"/>
<path d="M18.8008 8.54665C18.9392 8.57047 18.9979 8.65201 18.9767 8.79127C18.9624 8.82264 18.9395 8.84558 18.9079 8.86007C18.8293 8.89503 18.7478 8.91032 18.6632 8.90593C18.6593 8.76846 18.7051 8.6487 18.8008 8.54665Z" fill="white"/>
<path d="M16.7369 8.57723C16.7901 8.5724 16.841 8.58004 16.8898 8.60016C16.9485 8.63719 17.0046 8.67797 17.058 8.72247C17.185 8.76274 17.292 8.83409 17.379 8.93651C17.1899 8.93625 17.032 8.86491 16.9051 8.72247C16.8465 8.69578 16.7906 8.6652 16.7369 8.63074C16.7188 8.61324 16.7188 8.59539 16.7369 8.57723Z" fill="white"/>
<path d="M16.6452 8.71483C16.7126 8.71029 16.7738 8.72812 16.8286 8.76834C16.8424 8.7796 16.8562 8.79087 16.8699 8.80213L16.9127 8.83714C16.9407 8.86007 16.9687 8.88301 16.9968 8.90594C17.168 8.97657 17.3362 9.05301 17.5013 9.13527C17.5869 9.15245 17.6736 9.16263 17.7612 9.16584C17.8299 9.18572 17.8604 9.23158 17.853 9.30344C17.8585 9.39962 17.8176 9.46588 17.7306 9.50219C17.5643 9.54498 17.4062 9.5246 17.2567 9.44104C17.1905 9.37743 17.1244 9.31382 17.0582 9.25021C16.9919 9.18641 16.9256 9.12261 16.8592 9.05882C16.7588 8.98695 16.6492 8.93344 16.5305 8.89829C16.5203 8.88301 16.5203 8.86772 16.5305 8.85243C16.5662 8.80404 16.6044 8.75818 16.6452 8.71483Z" fill="white"/>
<path d="M17.3026 8.74541C17.3351 8.72815 17.3708 8.7256 17.4096 8.73777C17.6025 8.78508 17.786 8.85642 17.96 8.95181C17.9999 8.98143 18.0279 9.01966 18.0441 9.06647C18.0543 9.20916 18.0543 9.35186 18.0441 9.49455C18.0366 9.54497 18.0188 9.59083 17.9906 9.63214C17.9688 9.60407 17.951 9.5735 17.937 9.54041C17.9887 9.29743 17.9147 9.10633 17.7154 8.96709L17.3943 8.8295C17.3657 8.79831 17.3351 8.77028 17.3026 8.74541Z" fill="white"/>
<path d="M14.2296 8.82185C14.2797 8.81751 14.3281 8.8226 14.3748 8.83714C14.4445 9.12949 14.5567 9.40468 14.7112 9.66272C14.9231 9.98207 15.1168 10.3133 15.2921 10.6565C15.4073 10.9171 15.4557 11.1897 15.4374 11.4744C15.4508 11.7945 15.3973 12.1028 15.2768 12.3994C15.2452 12.4882 15.2019 12.5698 15.1469 12.644C15.2665 11.8125 15.157 11.0124 14.8182 10.2437C14.7011 10.0094 14.5686 9.78514 14.4207 9.57099C14.3247 9.41474 14.2585 9.24657 14.2219 9.06647C14.21 8.98365 14.2125 8.90212 14.2296 8.82185Z" fill="white"/>
<path d="M12.3032 9.15819C12.3657 9.1512 12.4243 9.1614 12.4791 9.18877C12.5465 9.29281 12.5873 9.40492 12.6014 9.52511C12.5749 9.55748 12.5418 9.58041 12.502 9.59391C12.3803 9.60776 12.2631 9.63834 12.1503 9.68564C12.0869 9.73631 12.0258 9.78982 11.9669 9.84617C11.95 9.80505 11.9526 9.76427 11.9745 9.72386C12.0892 9.57103 12.1758 9.40285 12.2344 9.21934C12.2558 9.19534 12.2787 9.17495 12.3032 9.15819Z" fill="white"/>
<path d="M14.5812 9.23464C14.6318 9.25242 14.6828 9.27026 14.7341 9.28815L14.9405 9.5557C14.9793 9.5996 15.0226 9.63783 15.0704 9.67036C15.301 9.75909 15.5303 9.85082 15.7584 9.94555C15.8782 10.0182 15.9955 10.0946 16.1101 10.1749C16.1918 10.2225 16.2784 10.2582 16.37 10.2819C16.6011 10.3404 16.8355 10.3659 17.0732 10.3583C17.251 10.3152 17.4295 10.2744 17.6083 10.236C17.667 10.2335 17.7256 10.2309 17.7842 10.2284L17.96 10.2207C18.0194 10.1347 18.0806 10.0506 18.1434 9.96848C18.1951 10.0776 18.241 10.1897 18.281 10.3048C18.2428 10.3316 18.202 10.3546 18.1587 10.3736C18.1442 10.3846 18.1416 10.3973 18.1511 10.4119C18.3344 10.4066 18.5052 10.455 18.6632 10.5571C18.6712 10.5657 18.6764 10.5759 18.6785 10.5877C18.6561 10.647 18.6408 10.7082 18.6327 10.7711C18.6311 10.8039 18.6412 10.832 18.6632 10.8552C18.6979 10.7936 18.7261 10.7273 18.7473 10.6565C18.7703 10.6233 18.7982 10.5953 18.8314 10.5724C18.9265 10.5533 19.0234 10.5431 19.1219 10.5418C19.1581 10.5306 19.1938 10.5178 19.2289 10.5036C19.2442 10.5087 19.2544 10.5189 19.2595 10.5342C19.2178 10.6236 19.1821 10.7153 19.1525 10.8094C19.156 10.8312 19.1662 10.8389 19.1831 10.8323C19.2603 10.7315 19.324 10.6219 19.3742 10.5036C19.3977 10.4749 19.4258 10.4519 19.4582 10.4348C19.6134 10.4408 19.7637 10.4178 19.9093 10.366C19.9219 10.3711 19.9348 10.3762 19.9475 10.3813C19.9644 10.4467 19.9669 10.5129 19.9551 10.58C19.93 10.6451 19.8816 10.6833 19.8099 10.6947C19.7431 10.7043 19.6769 10.7018 19.6111 10.687C19.6081 10.7159 19.6182 10.7389 19.6417 10.7558C19.679 10.7689 19.7146 10.7842 19.7487 10.8017C19.5978 11.0873 19.3787 11.1561 19.0913 11.0081C19.089 11.0242 19.0916 11.0395 19.099 11.054C19.1349 11.0873 19.1681 11.123 19.1983 11.161C19.1338 11.2187 19.0574 11.2518 18.969 11.2604C18.867 11.2706 18.7652 11.2706 18.6632 11.2604C18.6487 11.2494 18.6461 11.2367 18.6556 11.2221C18.6909 11.2047 18.7189 11.1792 18.7397 11.1457C18.7244 11.1406 18.7091 11.1355 18.6938 11.1304C18.6177 11.1473 18.5412 11.1626 18.4645 11.1763C18.3862 11.1647 18.3148 11.1366 18.2505 11.0922C18.2174 11.0642 18.1842 11.0361 18.1511 11.0081C18.1179 10.9801 18.0848 10.952 18.0517 10.924L17.96 10.9011C17.8597 10.936 17.7628 10.9793 17.6695 11.031C17.5294 11.1343 17.3816 11.226 17.2261 11.3062C17.0038 11.3724 16.7796 11.3775 16.5534 11.3215C16.3948 11.2805 16.242 11.2245 16.0948 11.1533C15.9081 11.0918 15.7271 11.1045 15.552 11.1916C15.5376 11.1854 15.5274 11.1752 15.5215 11.161C15.4776 10.9327 15.4063 10.7136 15.3074 10.5036C15.1316 10.1928 14.9482 9.88698 14.757 9.58627C14.6899 9.47234 14.6313 9.35513 14.5812 9.23464Z" fill="white"/>
<path d="M17.1803 9.54041C17.24 9.53679 17.2961 9.54952 17.3484 9.57863C17.2919 9.64032 17.2307 9.69638 17.165 9.74681C17.1104 9.76829 17.0543 9.77338 16.9968 9.76209C17.0492 9.67946 17.1104 9.60557 17.1803 9.54041Z" fill="white"/>
<path d="M17.7612 9.57098C17.8655 9.56069 17.9114 9.60909 17.8988 9.71622C17.8944 9.76389 17.8841 9.80975 17.8682 9.85382C17.8409 9.86177 17.8153 9.85667 17.7918 9.83853C17.7389 9.77109 17.688 9.70229 17.6389 9.63213L17.681 9.61111C17.7083 9.59745 17.7351 9.58408 17.7612 9.57098Z" fill="white"/>
<path d="M12.6396 9.61686C12.6606 9.61446 12.681 9.61701 12.7007 9.6245C12.7754 9.71449 12.8442 9.80877 12.9071 9.90734C12.9364 9.99286 12.9083 10.026 12.823 10.0067C12.6446 9.93267 12.5835 9.80272 12.6396 9.61686Z" fill="white"/>
<path d="M17.4402 9.61685C17.4762 9.61436 17.5119 9.6169 17.5472 9.62449C17.5561 9.63815 17.5611 9.65343 17.5625 9.67036C17.5391 9.72442 17.5061 9.77282 17.4631 9.8156C17.4415 9.84847 17.4288 9.88415 17.4249 9.92262C17.4047 9.92522 17.3868 9.92013 17.3714 9.90733C17.3417 9.8313 17.3417 9.75486 17.3714 9.678C17.3928 9.654 17.4157 9.63361 17.4402 9.61685Z" fill="white"/>
<path d="M12.9759 10.0449C13.0036 10.0448 13.0291 10.0524 13.0524 10.0679C13.1477 10.1494 13.2267 10.2437 13.2893 10.3507C13.2998 10.3703 13.2972 10.3882 13.2817 10.4042C13.2281 10.4387 13.172 10.4692 13.1135 10.4959C13.0889 10.5069 13.0659 10.5044 13.0447 10.4883C12.9253 10.3528 12.9024 10.205 12.9759 10.0449Z" fill="white"/>
<path d="M9.47485 10.4424C9.62971 10.4288 9.77751 10.462 9.91822 10.5418C10.0731 10.6725 10.0578 10.7744 9.87236 10.8476C9.8123 10.8678 9.75115 10.8729 9.68889 10.8629C9.66008 10.7589 9.63204 10.6544 9.60481 10.5494C9.56787 10.5048 9.52454 10.4691 9.47485 10.4424Z" fill="white"/>
<path d="M11.1719 10.473C11.258 10.4918 11.3319 10.5326 11.3936 10.5953C11.4496 10.7787 11.5515 10.9316 11.6993 11.054C11.7103 11.0786 11.7078 11.1015 11.6917 11.1228C11.5576 11.1154 11.4327 11.0772 11.3171 11.0081C11.2944 10.9075 11.2791 10.8056 11.2713 10.7023C11.2461 10.6215 11.213 10.5451 11.1719 10.473Z" fill="white"/>
<path d="M13.2817 10.5036C13.3197 10.5005 13.3554 10.5081 13.3887 10.5265C13.4384 10.5788 13.4792 10.6374 13.511 10.7023C13.4302 10.7754 13.3639 10.8595 13.3123 10.9546C13.1675 11.0143 13.0299 10.999 12.8995 10.9087C12.8407 10.8717 12.7847 10.8309 12.7313 10.7864C12.7675 10.7838 12.8036 10.7812 12.8398 10.7787L12.9453 10.7711C12.972 10.7639 12.9975 10.7537 13.0218 10.7405C13.1023 10.6523 13.1889 10.5733 13.2817 10.5036Z" fill="white"/>
<path d="M10.1781 10.6871C10.2505 10.6828 10.3218 10.6879 10.3922 10.7023C10.417 10.7549 10.4068 10.7982 10.3616 10.8323C10.2741 10.8443 10.1875 10.8418 10.1017 10.8246C10.0839 10.7933 10.0865 10.7627 10.1093 10.7329C10.1346 10.7192 10.1575 10.7039 10.1781 10.6871Z" fill="white"/>
<path d="M10.5756 10.7176C10.6435 10.7132 10.7097 10.7208 10.7744 10.7406C10.8181 10.8239 10.7926 10.8775 10.6979 10.9011C10.6357 10.8933 10.5745 10.8805 10.5145 10.8629C10.4866 10.8404 10.4789 10.8124 10.4915 10.7788C10.5145 10.7487 10.5425 10.7283 10.5756 10.7176Z" fill="white"/>
<path d="M9.30668 10.7788C9.37956 10.774 9.45091 10.7817 9.52072 10.8017C9.55656 10.8198 9.56929 10.8478 9.55894 10.8858C9.41833 10.9505 9.27309 11.0014 9.12322 11.0387C9.13596 10.9159 9.19711 10.8293 9.30668 10.7788Z" fill="white"/>
<path d="M10.9731 10.7788C11.0784 10.7695 11.1574 10.8103 11.2101 10.9011C11.222 10.9232 11.2195 10.9435 11.2025 10.9622C11.0919 10.9793 10.9849 10.964 10.8814 10.9164C10.8651 10.8906 10.8676 10.8651 10.889 10.8399C10.9167 10.8174 10.9448 10.797 10.9731 10.7788Z" fill="white"/>
<path d="M13.5263 10.7941C13.5775 10.8654 13.6055 10.9469 13.6104 11.0387C13.6206 11.1559 13.6206 11.2731 13.6104 11.3903C13.6074 11.4176 13.5947 11.438 13.5722 11.4515C13.3062 11.2494 13.2909 11.0303 13.5263 10.7941Z" fill="white"/>
<path d="M11.7987 11.1151C11.9246 11.0917 12.0291 11.1274 12.1121 11.2221C12.1256 11.2549 12.118 11.2803 12.0892 11.2986C11.9845 11.2628 11.8852 11.2169 11.7911 11.161C11.7839 11.1445 11.7864 11.1292 11.7987 11.1151Z" fill="white"/>
<path d="M12.3032 11.3292C12.4395 11.325 12.5618 11.3632 12.6702 11.4438C12.7191 11.4956 12.7089 11.516 12.6396 11.505C12.524 11.4676 12.4119 11.4217 12.3032 11.3674C12.2864 11.3556 12.2864 11.3429 12.3032 11.3292Z" fill="white"/>
<path d="M12.8995 11.4209C13.0612 11.4018 13.2243 11.4094 13.3887 11.4438C13.5473 11.5104 13.5473 11.5716 13.3887 11.6273C13.3189 11.6524 13.2476 11.6626 13.1747 11.6579C13.1609 11.6099 13.1354 11.5691 13.0982 11.5356C13.0366 11.4894 12.9703 11.4512 12.8995 11.4209Z" fill="white"/>
<path d="M14.1684 8.24853C14.1383 8.24096 14.1077 8.23841 14.0767 8.24089C14.0069 8.28763 13.9432 8.34369 13.8856 8.40906C13.8448 8.47531 13.8041 8.54156 13.7633 8.60781L13.641 8.80656C13.5302 8.96518 13.3799 9.06456 13.19 9.10469C12.9922 9.13244 12.7935 9.14773 12.5937 9.15055C12.5852 9.16164 12.5801 9.17437 12.5784 9.18878C12.6196 9.30685 12.6731 9.41897 12.7389 9.52512C12.9261 9.78365 13.1248 10.0334 13.3352 10.2743C13.5108 10.5083 13.6331 10.7682 13.7021 11.054C13.7592 11.2613 13.7209 11.4473 13.5875 11.612C13.4076 11.7222 13.214 11.7527 13.0065 11.7037C12.463 11.511 11.9177 11.3225 11.3706 11.1381C11.094 11.06 10.8137 10.9988 10.5298 10.9546C9.37241 10.798 8.59014 11.2643 8.18298 12.3535C8.04911 12.7616 7.93189 13.1744 7.83134 13.5919C7.60743 14.3745 7.16151 14.9936 6.4936 15.4494C6.03117 15.7138 5.55722 15.9584 5.07177 16.1833C4.93416 16.2571 4.80165 16.3387 4.67427 16.4279C4.64597 16.4536 4.62048 16.4817 4.59782 16.512C4.62189 16.5293 4.64737 16.5318 4.67427 16.5196C4.86838 16.4276 5.06204 16.3359 5.25523 16.2444C5.69522 16.1102 6.13858 15.9879 6.58533 15.8775C6.88731 15.7775 7.1625 15.6297 7.41091 15.4341C7.52099 15.3293 7.63106 15.2245 7.74114 15.1196L7.79312 15.0701C7.87976 14.9876 7.96639 14.9051 8.05302 14.8226C8.11245 14.7763 8.1787 14.761 8.25178 14.7767C8.31038 14.8149 8.35879 14.8634 8.39702 14.922C8.5189 15.2382 8.52654 15.5567 8.41995 15.8775C8.62634 16.0941 8.79706 16.3362 8.93211 16.6037C8.95618 16.7356 8.93324 16.8604 8.86332 16.9783C8.9223 16.9977 8.98345 17.013 9.04678 17.0241C9.12788 17.0523 9.12788 17.0753 9.04678 17.0929C8.80514 17.0621 8.59875 17.1335 8.42759 17.307C8.35294 17.395 8.32492 17.497 8.34351 17.6127C8.43988 17.6067 8.50868 17.5608 8.5499 17.4751C8.60301 17.5117 8.63359 17.5626 8.64163 17.628C8.65293 17.6444 8.66822 17.6546 8.6875 17.6586C8.78297 17.5994 8.88235 17.5459 8.98562 17.4981C9.05491 17.4721 9.12625 17.4542 9.19966 17.4446C9.31945 17.479 9.43156 17.5299 9.53601 17.5975C9.54659 17.5894 9.55423 17.5792 9.55894 17.5669L9.56683 17.3855C9.5693 17.3287 9.57176 17.272 9.57423 17.2152C9.60676 17.1326 9.66792 17.0919 9.75769 17.0929C9.84734 17.1053 9.93652 17.1205 10.0252 17.1388C10.0741 17.1327 10.12 17.1174 10.1628 17.0929C10.2196 17.1366 10.2807 17.1722 10.3463 17.1999C10.4305 17.1288 10.5248 17.0727 10.6291 17.0318C10.6182 16.9589 10.58 16.9003 10.5145 16.856C10.3834 16.8029 10.2509 16.7545 10.117 16.7107C10.0783 16.7147 10.0427 16.7275 10.01 16.7489C9.96468 16.8012 9.92902 16.8598 9.90293 16.9248C9.89032 16.9383 9.87503 16.9434 9.85707 16.94C9.86155 16.8799 9.85646 16.8213 9.84178 16.7642C9.76125 16.746 9.67971 16.7384 9.59716 16.7413C9.5997 16.6545 9.59715 16.5679 9.58952 16.4814C9.55148 16.4471 9.51072 16.4165 9.46721 16.3897C9.45327 16.3264 9.43287 16.2652 9.40606 16.2062C9.34548 16.1429 9.27922 16.0868 9.20731 16.038C9.18314 15.8554 9.17803 15.672 9.19202 15.4876C9.22013 15.3089 9.25071 15.1305 9.28375 14.9525C9.30552 14.7097 9.26985 14.4753 9.17673 14.2493C9.06934 14.0193 8.9929 13.7798 8.9474 13.5307C8.90256 12.8479 9.20069 12.3918 9.84178 12.1624C10.3022 12.0909 10.7558 12.1215 11.2025 12.2541C11.6584 12.391 12.1171 12.5184 12.5784 12.6363C12.9106 12.7197 13.2469 12.7783 13.5875 12.8121C13.5593 12.9406 13.5695 13.0654 13.618 13.1867C13.5868 13.3712 13.5791 13.5572 13.5951 13.7447C13.6113 13.7924 13.6317 13.8383 13.6563 13.8823C13.6588 13.9028 13.6614 13.9233 13.6639 13.9437L13.6647 13.9499C13.667 13.9681 13.6693 13.9864 13.6715 14.0047C13.7096 14.0389 13.7503 14.0695 13.7939 14.0964C13.8524 14.2716 13.9722 14.3328 14.1531 14.2798C14.1477 14.3632 14.1834 14.4218 14.2602 14.4557C14.3407 14.4752 14.4223 14.4905 14.5048 14.5015C14.5426 14.5545 14.5936 14.5902 14.6577 14.6085C14.7586 14.6263 14.8605 14.6365 14.9634 14.6391C15.1342 14.7717 15.3202 14.7997 15.5215 14.7232C15.6742 14.7435 15.8118 14.7996 15.9342 14.8914C16.0323 14.8282 16.1368 14.7849 16.2477 14.7614L16.2629 14.7767L16.2018 14.8379C16.0848 14.8936 15.9854 14.9726 15.9037 15.0748C15.8822 15.1076 15.8695 15.1432 15.8654 15.1819C15.9355 15.3435 16.0043 15.5065 16.0718 15.6711C16.1085 15.7333 16.1595 15.7791 16.2247 15.8087C16.2897 15.7418 16.3687 15.701 16.4617 15.6864C16.5145 15.6163 16.5221 15.5399 16.4846 15.4571C16.4544 15.4141 16.4213 15.3733 16.3853 15.3348C16.513 15.1964 16.5869 15.0334 16.6069 14.8455C16.7278 14.8167 16.8246 14.7504 16.8974 14.6468C16.9236 14.6099 16.9363 14.5692 16.9356 14.5245C17.0225 14.5372 17.1092 14.5525 17.1955 14.5703C17.279 14.551 17.3605 14.5255 17.4402 14.4939C17.5002 14.5352 17.5664 14.5479 17.6389 14.5321C17.6511 14.4697 17.6588 14.406 17.6618 14.341C17.6886 14.3027 17.7115 14.2619 17.7306 14.2187C17.6993 14.1928 17.6635 14.175 17.6236 14.1652C17.3871 14.1477 17.1527 14.1605 16.9204 14.2034C16.9179 14.1824 16.9205 14.162 16.928 14.1422C16.9881 14.1161 17.0416 14.0804 17.0885 14.0352C17.1425 13.9913 17.1578 13.9378 17.1344 13.8747C17.0242 13.8199 16.9655 13.7307 16.9586 13.6072C16.9204 13.5904 16.8821 13.5929 16.8439 13.6148C16.7614 13.6964 16.7155 13.7958 16.7063 13.9129C16.6396 13.9229 16.5734 13.9356 16.5076 13.9511L16.37 14.1499L16.2018 14.1958C16.1578 14.2372 16.117 14.2805 16.0795 14.3257C15.9703 14.2304 15.8429 14.1769 15.6973 14.1652C15.6398 14.1229 15.5786 14.0872 15.5138 14.0582C15.3293 14.0528 15.1458 14.0375 14.9634 14.0123C14.9137 13.9589 14.8577 13.913 14.7953 13.8747C14.7241 13.8671 14.6527 13.8645 14.5812 13.8671C14.5723 13.732 14.5851 13.5995 14.6194 13.4696C14.8296 13.1911 14.9723 12.8802 15.0475 12.537C15.2023 11.4185 14.9475 10.4043 14.2831 9.49455C14.1806 9.31449 14.1245 9.12085 14.1149 8.91358C14.1019 8.8905 14.0892 8.86756 14.0767 8.84478C14.1003 8.78291 14.1181 8.71922 14.1302 8.65368C14.1416 8.53041 14.1595 8.4081 14.1837 8.28675C14.1821 8.27235 14.177 8.25962 14.1684 8.24853Z" fill="white"/>
<path d="M8.21355 14.8608C8.1981 14.848 8.18026 14.8429 8.16004 14.8455C8.06747 14.9048 7.98083 14.9736 7.90014 15.0519C7.74725 15.2252 7.58417 15.3883 7.41091 15.5411C7.18653 15.6942 6.95212 15.8318 6.70764 15.9539C6.58407 16.0367 6.46941 16.1309 6.36365 16.2368C6.30504 16.3132 6.24643 16.3897 6.18783 16.4661C6.12922 16.5425 6.07062 16.619 6.01201 16.6954C5.92965 16.776 5.84046 16.8473 5.74446 16.9095C5.90033 16.9279 6.04812 16.8998 6.18783 16.8254L6.55475 16.4585C6.7352 16.3363 6.90593 16.2012 7.06692 16.0533C7.12828 15.9358 7.20728 15.8314 7.30389 15.7399C7.40581 15.6736 7.50773 15.6074 7.60966 15.5411L7.91543 15.3424C8.05041 15.2382 8.14979 15.1083 8.21355 14.9525C8.22375 14.922 8.22375 14.8914 8.21355 14.8608Z" fill="white"/>
<path d="M8.35115 15.0137C8.3447 14.9842 8.32686 14.969 8.29764 14.9678C8.25155 15.0473 8.21588 15.1314 8.19062 15.2201C8.21069 15.2929 8.25911 15.3362 8.33586 15.35C8.36202 15.351 8.3824 15.3408 8.39702 15.3195C8.40643 15.2143 8.39115 15.1123 8.35115 15.0137Z" fill="white"/>
<path d="M8.33586 15.8087C8.29429 15.7943 8.25098 15.7892 8.20591 15.7934C8.22413 15.8402 8.24707 15.8861 8.27471 15.931C8.28477 15.9849 8.26693 16.0282 8.2212 16.0609C8.17376 16.0829 8.13045 16.111 8.09125 16.145C8.03946 16.2001 8.00124 16.2638 7.97658 16.3361C7.97831 16.3557 7.98851 16.3684 8.00716 16.3744C8.09236 16.3343 8.179 16.2986 8.26706 16.2673C8.27449 16.2698 8.28192 16.2723 8.28934 16.2748L8.29271 16.2759C8.29945 16.2781 8.30619 16.2804 8.31293 16.2826C8.3332 16.3539 8.36887 16.415 8.41995 16.4661C8.45857 16.3659 8.51463 16.2767 8.58812 16.1985C8.51355 16.1189 8.44475 16.0348 8.38173 15.9463C8.35497 15.9043 8.33968 15.8584 8.33586 15.8087Z" fill="white"/>
<path d="M6.37129 16.038H6.27956C5.97737 16.1098 5.67669 16.1939 5.37754 16.2903C5.25013 16.3463 5.12273 16.4024 4.99532 16.4585C4.86792 16.5145 4.74052 16.5706 4.61311 16.6266C4.57234 16.6368 4.53158 16.6368 4.4908 16.6266C4.48192 16.613 4.47682 16.5977 4.47552 16.5808C4.52008 16.4748 4.58888 16.3856 4.68191 16.3132C4.69243 16.3005 4.68988 16.2903 4.67427 16.2826L4.50609 16.3514C4.33641 16.3864 4.16823 16.4272 4.00157 16.4737C3.86543 16.5436 3.73292 16.62 3.60407 16.7031C3.46721 16.7411 3.32961 16.7768 3.19128 16.8101L3.09955 16.856C2.98901 16.9366 2.89218 17.0309 2.80907 17.1388C2.81416 17.1439 2.81926 17.149 2.82436 17.1541C3.00931 17.0616 3.19787 16.9775 3.39003 16.9018C3.51956 16.8942 3.64696 16.8739 3.77224 16.8407C3.90654 16.7863 4.03904 16.7277 4.16975 16.6648L4.18503 16.6801C4.12841 16.791 4.05196 16.8853 3.95571 16.963C3.71835 17.0488 3.48393 17.1406 3.25244 17.2382C3.00849 17.4362 2.77916 17.6503 2.56445 17.8803C2.56955 17.8828 2.57465 17.8854 2.57974 17.8879C2.74607 17.8146 2.91424 17.7459 3.08426 17.6815C3.21912 17.6429 3.35672 17.6225 3.49705 17.6204C3.63304 17.5862 3.75535 17.5251 3.86398 17.4369C3.97309 17.3226 4.0954 17.2258 4.2309 17.1464C4.35596 17.1506 4.46809 17.1149 4.56725 17.0394C4.66359 16.9505 4.76551 16.869 4.87302 16.7948C4.96059 16.7665 5.04721 16.736 5.13292 16.7031L5.4234 16.4126C5.50524 16.347 5.59188 16.3419 5.68331 16.3973C5.59054 16.4493 5.50645 16.513 5.43105 16.5884C5.37494 16.6905 5.31125 16.7873 5.23994 16.8789C5.25864 16.8959 5.27902 16.8985 5.30109 16.8865L5.62215 16.6572C5.74732 16.59 5.87983 16.5441 6.01965 16.5196C6.16916 16.3805 6.28636 16.22 6.37129 16.038Z" fill="white"/>
<path d="M5.54571 16.8483C5.55655 16.8621 5.57184 16.8672 5.59158 16.8636C5.71561 16.8143 5.82772 16.7455 5.92792 16.6572C5.81117 16.6384 5.70924 16.6689 5.62215 16.7489C5.58714 16.7761 5.56166 16.8092 5.54571 16.8483Z" fill="white"/>
<path d="M5.13292 16.856C5.07302 16.8383 5.01187 16.8306 4.94946 16.833C4.90709 16.8677 4.86632 16.9059 4.82715 16.9477C4.93984 16.9543 5.04177 16.9237 5.13292 16.856Z" fill="white"/>
<path d="M19.4047 9.57098C19.2399 9.34721 19.0182 9.25038 18.7397 9.2805C18.3229 9.42611 18.1777 9.7115 18.304 10.1367C18.4136 10.3137 18.5665 10.436 18.7626 10.5036C18.8065 10.5021 18.8371 10.4817 18.8544 10.4424C18.8857 10.2753 18.827 10.1556 18.6785 10.0831C18.84 10.0019 18.9929 10.0172 19.1372 10.129C19.2074 10.1758 19.248 10.2395 19.2595 10.3201C19.3017 10.3164 19.3349 10.296 19.3589 10.259C19.4908 10.0864 19.4679 9.94116 19.2901 9.82324C19.4685 9.8063 19.5067 9.72222 19.4047 9.57098Z" fill="white"/>
<path d="M19.7564 10.0296C19.7154 9.93143 19.6416 9.88556 19.5347 9.89205C19.517 10.0351 19.5399 10.1727 19.6035 10.3048C19.6278 10.3323 19.6584 10.3476 19.6952 10.3507C19.7694 10.3503 19.8128 10.3146 19.8252 10.2437C19.8099 10.1699 19.787 10.0985 19.7564 10.0296Z" fill="white"/>
<path d="M19.1983 10.3583C19.1407 10.2267 19.0439 10.1426 18.9079 10.1061C18.9071 10.2253 18.9351 10.3374 18.9919 10.4424C19.0898 10.4896 19.1586 10.4616 19.1983 10.3583Z" fill="white"/>
<path d="M16.7369 11.4438C16.5501 11.4048 16.3667 11.3564 16.1865 11.2986C16.1604 11.3967 16.1298 11.4935 16.0948 11.5891C16.1277 11.591 16.1583 11.5834 16.1865 11.5661C16.2253 11.5222 16.2686 11.484 16.3165 11.4515L16.3317 11.4668C16.3284 11.6195 16.3284 11.7724 16.3317 11.9254C16.3517 11.9757 16.3823 12.0165 16.4235 12.0477C16.4353 12.0455 16.4455 12.0404 16.4541 12.0324C16.5231 11.9036 16.5563 11.766 16.5534 11.6196C16.5744 11.6172 16.5948 11.6198 16.6146 11.6273C16.7177 11.682 16.8043 11.7559 16.8745 11.849C16.8795 11.8388 16.8847 11.8286 16.8898 11.8184C16.8462 11.6903 16.7953 11.5654 16.7369 11.4438Z" fill="white"/>
<path d="M10.4075 13.5689C10.2899 13.5213 10.1676 13.4984 10.0405 13.5001C10.0353 13.5725 10.071 13.6209 10.1475 13.6454C10.2291 13.6556 10.3106 13.6556 10.3922 13.6454C10.4444 13.6279 10.4495 13.6024 10.4075 13.5689Z" fill="white"/>
<path d="M17.486 13.5231C17.4149 13.5154 17.3435 13.5129 17.272 13.5154C17.1949 13.5323 17.1261 13.568 17.0656 13.6224C17.0622 13.7524 17.126 13.8008 17.2567 13.7677C17.3752 13.7206 17.4772 13.6492 17.5625 13.5536C17.5403 13.5366 17.5148 13.5264 17.486 13.5231Z" fill="white"/>
<path d="M9.91822 13.5689C9.90373 13.5615 9.88844 13.559 9.87236 13.5613C9.84268 13.5792 9.81975 13.6047 9.80356 13.6377C9.75908 13.7421 9.70302 13.8389 9.63538 13.9282C9.61744 14.0085 9.60724 14.09 9.60481 14.1728C9.59761 14.1995 9.58741 14.225 9.57423 14.2493C9.52711 14.2708 9.4838 14.2988 9.44428 14.3334C9.40525 14.345 9.36703 14.3577 9.32961 14.3716C9.35669 14.6044 9.37198 14.8388 9.37548 15.0748C9.3971 15.1686 9.4557 15.2017 9.5513 15.1742C9.63184 15.0924 9.69553 14.9981 9.7424 14.8914C9.76096 14.8677 9.7839 14.8499 9.8112 14.8379C9.91553 14.8262 10.0174 14.8313 10.117 14.8532C10.1416 14.7818 10.1594 14.7079 10.1705 14.6315C10.2804 14.4759 10.4282 14.3739 10.6138 14.3257C10.624 14.3002 10.624 14.2748 10.6138 14.2493C10.5776 14.186 10.5445 14.1223 10.5145 14.0582C10.4574 14.0488 10.4013 14.0539 10.3463 14.0734C10.2454 14.1122 10.1434 14.1479 10.0405 14.1805C10.0109 14.1918 9.98283 14.1893 9.95644 14.1728C9.9863 14.091 10.0016 14.0044 10.0023 13.9129C10.0432 13.8542 10.0916 13.8033 10.1475 13.76C10.0693 13.6997 9.99281 13.636 9.91822 13.5689Z" fill="white"/>
<path d="M13.1059 13.5613C13.0942 13.5624 13.0865 13.5674 13.0829 13.5766C13.143 13.642 13.2194 13.6802 13.3123 13.6912C13.3453 13.7113 13.3504 13.7368 13.3276 13.7677C13.1713 13.8576 13.0516 13.9825 12.9683 14.1422C12.9563 14.1643 12.9589 14.1847 12.9759 14.2034C13.0637 14.1589 13.1452 14.1054 13.2205 14.0429C13.3141 13.9869 13.4109 13.9793 13.511 14.0199C13.4886 14.0458 13.4784 14.0764 13.4804 14.1117C13.5141 14.349 13.5599 14.349 13.618 14.1117C13.5938 13.9904 13.5555 13.8732 13.5034 13.76C13.4952 13.6934 13.4978 13.6271 13.511 13.5613C13.4162 13.5656 13.3219 13.5758 13.2282 13.5919C13.1845 13.5927 13.1438 13.5825 13.1059 13.5613Z" fill="white"/>
<path d="M11.0266 14.1881C10.9406 14.0594 10.8208 14.0135 10.6674 14.0505C10.6258 14.1291 10.6462 14.1928 10.7285 14.2416C10.8339 14.294 10.9435 14.3068 11.0572 14.2798C11.0636 14.2449 11.0534 14.2143 11.0266 14.1881Z" fill="white"/>
<path d="M17.8912 14.3869C17.8623 14.3357 17.8189 14.3153 17.7612 14.3257C17.7398 14.3459 17.7297 14.3714 17.7306 14.4021C17.7542 14.5352 17.8306 14.6142 17.96 14.6391C17.9766 14.6076 17.9792 14.5744 17.9676 14.5397C17.9488 14.4853 17.9234 14.4344 17.8912 14.3869Z" fill="white"/>
<path d="M18.1205 15.2736C17.9854 14.7916 17.6669 14.5827 17.165 14.6468C17.0535 14.6796 16.9515 14.7331 16.8592 14.8073C16.5416 15.1307 16.5034 15.4849 16.7445 15.8698C16.96 16.1285 17.2327 16.2228 17.5625 16.1527C17.9627 15.9971 18.1488 15.7041 18.1205 15.2736Z" fill="white"/>
<path d="M10.1399 15.0748C10.0803 14.9367 9.97577 14.8756 9.82649 14.8914C9.79905 14.9726 9.76083 15.049 9.71183 15.1207C9.70163 15.1564 9.70163 15.1921 9.71183 15.2277C9.78873 15.3362 9.89321 15.3948 10.0252 15.4035C10.1488 15.3223 10.187 15.2127 10.1399 15.0748Z" fill="white"/>
<path d="M10.3998 15.5182C10.3306 15.4339 10.2414 15.3931 10.1323 15.3959C10.1174 15.4199 10.1148 15.4454 10.1246 15.4723C10.1847 15.5406 10.2612 15.5763 10.3539 15.5794C10.3989 15.5803 10.4142 15.5599 10.3998 15.5182Z" fill="white"/>
<path d="M16.5687 15.8011C16.5045 15.7802 16.4383 15.7725 16.37 15.7781C16.3491 15.8417 16.3567 15.9028 16.3929 15.9616C16.4838 16.0452 16.5908 16.0962 16.714 16.1145C16.7706 16.1083 16.7807 16.0828 16.7445 16.038C16.6841 15.9604 16.6255 15.8814 16.5687 15.8011Z" fill="white"/>
<path d="M10.0405 17.414C9.99557 17.2519 9.88855 17.1704 9.71947 17.1694C9.68513 17.2022 9.6622 17.243 9.65067 17.2917C9.64491 17.3455 9.63726 17.399 9.62774 17.4522C9.63141 17.5327 9.66709 17.553 9.73476 17.5134C9.81704 17.4239 9.91896 17.3908 10.0405 17.414Z" fill="white"/>
<path d="M10.6903 17.2764C10.6667 17.197 10.6132 17.1613 10.5298 17.1694C10.4879 17.2061 10.4751 17.2519 10.4915 17.307C10.5119 17.3324 10.5323 17.3579 10.5527 17.3834C10.5731 17.4089 10.5935 17.4344 10.6138 17.4599C10.6541 17.5147 10.6719 17.5759 10.6674 17.6433C10.6922 17.6455 10.71 17.6353 10.7209 17.6127C10.734 17.4986 10.7238 17.3865 10.6903 17.2764Z" fill="white"/>
<path d="M10.0482 17.5822C10.0051 17.5211 9.94645 17.4956 9.87235 17.5057C9.84215 17.5232 9.81922 17.5487 9.80355 17.5822C9.79117 17.6549 9.79627 17.7262 9.81884 17.7962C9.85313 17.8355 9.88116 17.8789 9.90293 17.9261C9.87828 18.0103 9.8477 18.0918 9.8112 18.1708C9.86415 18.1833 9.91513 18.1781 9.96408 18.1555C10.0123 18.0871 10.0505 18.0132 10.0787 17.9338C10.134 17.8114 10.1238 17.6942 10.0482 17.5822Z" fill="white"/>
<path d="M9.29139 17.5745C9.22822 17.5455 9.16196 17.5327 9.09264 17.5363C8.6519 17.7094 8.49137 18.0254 8.61105 18.4842C8.79424 18.8573 9.08727 18.9924 9.49014 18.8893C9.76412 18.771 9.91701 18.5646 9.94879 18.2701C9.84109 18.2717 9.73917 18.2488 9.64302 18.2013C9.82401 18.0708 9.84441 17.9179 9.70418 17.7427C9.56175 17.6995 9.42415 17.6435 9.29139 17.5745Z" fill="white"/>
<path d="M8.57283 17.6739C8.53332 17.6602 8.49255 17.6551 8.45052 17.6586C8.43236 17.6718 8.41452 17.6871 8.39701 17.7045C8.35747 17.8267 8.38296 17.9337 8.47345 18.0255C8.53127 17.9379 8.57459 17.8436 8.6034 17.7427C8.60351 17.715 8.59331 17.6921 8.57283 17.6739Z" fill="white"/>
<path d="M9.00092 11.1228C8.94508 11.1151 8.88904 11.1126 8.83274 11.1151C8.73603 11.1405 8.67488 11.2016 8.64928 11.2986C8.64451 11.3474 8.66491 11.3652 8.71044 11.3521C8.81561 11.2867 8.91243 11.2103 9.00092 11.1228Z" fill="white"/>
<path d="M8.26706 11.3292C8.39232 11.3229 8.50699 11.3535 8.61105 11.4209C8.61745 11.4559 8.60725 11.4864 8.58048 11.5126C8.52683 11.577 8.46823 11.6356 8.40466 11.6884C8.38428 11.6986 8.36389 11.6986 8.34351 11.6884C8.2757 11.6494 8.20437 11.6189 8.12947 11.5967C8.03011 11.5884 7.93329 11.5731 7.83899 11.5508C7.97206 11.4563 8.11474 11.3824 8.26706 11.3292Z" fill="white"/>
<path d="M8.34351 11.7878C8.29528 11.7496 8.23921 11.7292 8.17534 11.7267C8.15089 11.8069 8.12541 11.8858 8.0989 11.9636C8.09382 12.0328 8.11931 12.0864 8.17534 12.1242C8.24751 12.0206 8.30358 11.9085 8.34351 11.7878Z" fill="white"/>
<path d="M8.05303 12.17C8.12286 12.1637 8.1458 12.1942 8.12182 12.2618L7.98423 12.6746C7.95212 12.7687 7.91136 12.7737 7.86192 12.6898C7.83166 12.5897 7.82147 12.4877 7.83134 12.3841C7.85334 12.3366 7.88138 12.2933 7.91543 12.2541C7.96227 12.2257 8.00814 12.1977 8.05303 12.17Z" fill="white"/>
<path d="M10.2928 12.2006C10.2512 12.1862 10.2079 12.1811 10.1628 12.1853C10.0924 12.1981 10.021 12.216 9.9488 12.2388C9.90924 12.2621 9.89651 12.2953 9.91057 12.3382C10.001 12.5019 10.1361 12.558 10.3157 12.5064C10.3165 12.4038 10.3089 12.3019 10.2928 12.2006Z" fill="white"/>
<path d="M10.4075 12.1853C10.4916 12.1917 10.5732 12.2095 10.6521 12.2388C10.716 12.3436 10.7644 12.4532 10.7973 12.5675C10.6536 12.5944 10.5313 12.5536 10.4304 12.4452C10.391 12.3609 10.3833 12.2742 10.4075 12.1853Z" fill="white"/>
<path d="M11.0572 12.3382C10.9823 12.2706 10.8931 12.24 10.7897 12.2465C10.7832 12.2582 10.7781 12.2709 10.7744 12.2847C10.822 12.4341 10.9137 12.5462 11.0496 12.621C11.0866 12.6361 11.1121 12.6259 11.126 12.5905C11.0953 12.5085 11.0724 12.4244 11.0572 12.3382Z" fill="white"/>
<path d="M9.71947 12.277C9.76266 12.2706 9.79578 12.2859 9.81885 12.3229C9.95465 12.5742 9.88586 12.6634 9.61245 12.5905C9.55809 12.559 9.51731 12.5157 9.49014 12.4605C9.49059 12.4371 9.50078 12.4193 9.52072 12.407C9.58553 12.3598 9.65177 12.3164 9.71947 12.277Z" fill="white"/>
<path d="M11.4318 12.407C11.3467 12.3768 11.2601 12.3539 11.1719 12.3382C11.1636 12.3572 11.1585 12.3776 11.1566 12.3994C11.2039 12.6046 11.3313 12.7269 11.5388 12.7663C11.5308 12.6629 11.513 12.561 11.4853 12.4605L11.4318 12.407Z" fill="white"/>
<path d="M11.5847 12.4758C11.6207 12.4733 11.6564 12.4758 11.6917 12.4834C11.8486 12.5315 12.0066 12.5748 12.1656 12.6134C12.1701 12.7111 12.165 12.808 12.1503 12.9039C11.9559 12.9231 11.7903 12.862 11.6535 12.7204C11.6041 12.6461 11.5811 12.5646 11.5847 12.4758Z" fill="white"/>
<path d="M9.36784 12.8427C9.57039 12.7333 9.57039 12.6212 9.36784 12.5064C9.30899 12.578 9.25294 12.6519 9.19966 12.7281C9.23898 12.7887 9.29505 12.8269 9.36784 12.8427Z" fill="white"/>
<path d="M12.2727 12.644C12.4282 12.6778 12.581 12.7211 12.7313 12.7739L12.7695 12.8121C12.7839 12.894 12.7941 12.9755 12.8001 13.0568C12.6314 13.0674 12.476 13.0241 12.3338 12.9268C12.2661 12.8422 12.2458 12.7479 12.2727 12.644Z" fill="white"/>
<path d="M7.91543 12.9192C7.9006 12.8228 7.84455 12.7769 7.74725 12.7816C7.53127 12.9432 7.31213 13.1011 7.08985 13.2555C7.09463 13.2579 7.0994 13.2603 7.10418 13.2627C7.10959 13.2654 7.11501 13.2681 7.12043 13.2708C7.35879 13.2276 7.5983 13.1944 7.83899 13.1714C7.85735 13.1576 7.8701 13.1398 7.87721 13.1179C7.88701 13.0511 7.89974 12.9848 7.91543 12.9192Z" fill="white"/>
<path d="M12.8536 12.7969C12.9153 12.7995 12.9764 12.8071 13.0371 12.8198C13.065 12.824 13.088 12.8367 13.1059 12.858C13.1076 12.9267 13.128 12.9878 13.167 13.0415C13.1912 13.1118 13.1683 13.1398 13.0982 13.1256C12.973 13.0819 12.8889 12.9978 12.846 12.8733C12.8362 12.8463 12.8387 12.8208 12.8536 12.7969Z" fill="white"/>
<path d="M13.4499 12.8962C13.3662 12.8654 13.2796 12.8527 13.19 12.858C13.176 12.8769 13.1735 12.8973 13.1823 12.9192C13.2251 12.9772 13.2735 13.0308 13.3276 13.0797C13.3741 13.1275 13.4277 13.1402 13.4881 13.1179C13.5021 13.0383 13.4893 12.9644 13.4499 12.8962Z" fill="white"/>
<path d="M9.1538 12.858C9.29846 12.8901 9.31375 12.9538 9.19967 13.0491C9.16213 13.0741 9.12391 13.0766 9.085 13.0568C9.07314 12.9785 9.09607 12.9123 9.1538 12.858Z" fill="white"/>
<path d="M9.16908 13.2402C9.17555 13.1728 9.14497 13.1473 9.07735 13.1638C9.02132 13.2166 9.00349 13.2829 9.02384 13.3625C9.12817 13.3928 9.17657 13.352 9.16908 13.2402Z" fill="white"/>
<path d="M7.64023 13.2861C7.69145 13.2836 7.74241 13.2861 7.79312 13.2937C7.8103 13.3066 7.8205 13.3244 7.8237 13.3472C7.79315 13.4669 7.75493 13.5841 7.70903 13.6989C7.60061 13.7778 7.53692 13.7498 7.51793 13.6148C7.52741 13.4922 7.56818 13.3826 7.64023 13.2861Z" fill="white"/>
<path d="M9.12322 13.4772C9.09306 13.4696 9.06248 13.4671 9.03149 13.4696C9.02412 13.4836 9.01903 13.4988 9.0162 13.5154C9.05697 13.7397 9.09773 13.7397 9.13851 13.5154C9.13686 13.501 9.13177 13.4883 9.12322 13.4772Z" fill="white"/>
<path d="M7.57908 13.8365H7.64024C7.63032 13.9608 7.58445 14.0704 7.50264 14.1652C7.4528 14.1772 7.40438 14.1746 7.3574 14.1575C7.3472 14.132 7.3472 14.1066 7.3574 14.0811C7.40796 13.9771 7.48185 13.8956 7.57908 13.8365Z" fill="white"/>
<path d="M7.45678 14.2798C7.3913 14.2647 7.32505 14.2596 7.25803 14.2645C7.12861 14.3231 7.00885 14.3995 6.89875 14.4939C6.88855 14.5041 6.88855 14.5143 6.89875 14.5245C7.00627 14.5827 7.12093 14.6056 7.24274 14.5933C7.32731 14.4981 7.39865 14.3936 7.45678 14.2798Z" fill="white"/>
<path d="M10.6826 14.3716C11.0433 14.3322 11.2599 14.4902 11.3324 14.8455C11.3377 15.1869 11.1771 15.4086 10.8508 15.5106C10.6419 15.5373 10.461 15.4787 10.3081 15.3348C10.1954 15.1116 10.1801 14.8823 10.2622 14.6468C10.305 14.5887 10.3534 14.5352 10.4075 14.4862C10.5057 14.46 10.5974 14.4217 10.6826 14.3716Z" fill="white"/>
<path d="M7.12807 14.7691C7.1435 14.7458 7.15114 14.7203 7.151 14.6926H7.08985C7.00134 14.7599 6.90452 14.816 6.79937 14.8608C6.82923 14.9161 6.86999 14.962 6.92168 14.9984C6.99287 14.9246 7.06167 14.8482 7.12807 14.7691Z" fill="white"/>
<path d="M6.57004 15.0901H6.79936C6.80196 15.1103 6.79687 15.1282 6.78407 15.1436C6.70272 15.2098 6.61609 15.2684 6.52417 15.3195C6.34715 15.1987 6.36243 15.1223 6.57004 15.0901Z" fill="white"/>
<path d="M4.32263 15.3118C4.18059 15.2737 4.0379 15.2406 3.89455 15.2124C3.87578 15.2355 3.87578 15.2585 3.89455 15.2812C4.01383 15.346 4.13614 15.4021 4.26148 15.4494C4.4452 15.4625 4.62866 15.4777 4.81186 15.4953C5.02243 15.5904 5.23647 15.677 5.45398 15.7552C5.46708 15.7657 5.47726 15.7785 5.48456 15.7934C5.27157 15.8186 5.05753 15.8314 4.84244 15.8316C4.66014 15.9009 4.47668 15.9671 4.29205 16.0304L4.07037 16.0686C3.99648 16.0813 3.92258 16.0941 3.84869 16.1068C3.82508 16.1113 3.8047 16.1214 3.78753 16.1374C4.03319 16.1842 4.2727 16.1587 4.50609 16.061C4.6132 16.0397 4.72022 16.0371 4.82715 16.0533C4.82955 16.0743 4.827 16.0947 4.81951 16.1145C4.79456 16.1517 4.77162 16.1899 4.75071 16.2291C4.7558 16.2368 4.76091 16.2444 4.766 16.2521L6.27956 15.4953C6.32425 15.464 6.36757 15.4309 6.40951 15.3959C6.41726 15.373 6.40962 15.3552 6.38658 15.3424C6.23299 15.2896 6.075 15.2693 5.91263 15.2812C5.85639 15.2855 5.80543 15.3034 5.75975 15.3347C5.82503 15.3661 5.88363 15.4069 5.93557 15.4571C5.95613 15.4927 5.95868 15.5283 5.94321 15.5641C5.90392 15.5467 5.86316 15.534 5.8209 15.5259C5.65515 15.5167 5.48953 15.5193 5.32403 15.5335C5.2471 15.5374 5.17321 15.5246 5.10234 15.4953C4.86193 15.3544 4.60203 15.2933 4.32263 15.3118Z" fill="white"/>
<path d="M16.7369 7.20127H16.7981C16.7605 7.32937 16.7605 7.45932 16.7981 7.59112C16.7927 7.62497 16.7749 7.6479 16.7445 7.65992C16.64 7.61661 16.5916 7.53763 16.5993 7.42295C16.5971 7.31766 16.6429 7.24377 16.7369 7.20127Z" fill="white"/>
<path d="M16.9356 7.23184H16.9815C16.9575 7.32125 16.9448 7.41298 16.9433 7.50704C16.9178 7.52742 16.8924 7.52742 16.8668 7.50704C16.821 7.39731 16.8439 7.30558 16.9356 7.23184Z" fill="white"/>
<path d="M14.0767 7.29299C14.1419 7.28845 14.2056 7.29354 14.2678 7.30828C14.2823 7.42387 14.3333 7.5207 14.4207 7.59876C14.4321 7.61611 14.4296 7.6314 14.413 7.64463C14.1741 7.71391 13.932 7.76998 13.6868 7.8128C13.5931 7.80418 13.5167 7.7634 13.4575 7.69049C13.4287 7.65358 13.4185 7.61281 13.4269 7.56818C13.5017 7.48868 13.5909 7.43007 13.6945 7.39237C13.8225 7.35413 13.9499 7.321 14.0767 7.29299Z" fill="white"/>
<path d="M12.7313 7.40002C12.9513 7.39705 13.1705 7.40979 13.3887 7.43824C13.4091 7.45862 13.4091 7.47901 13.3887 7.49939C13.1389 7.54118 12.8892 7.58704 12.6396 7.63699C12.4954 7.67047 12.3527 7.66537 12.2115 7.6217C12.1927 7.59744 12.1978 7.57704 12.2268 7.56055C12.39 7.48545 12.5582 7.43194 12.7313 7.40002Z" fill="white"/>
<path d="M14.6729 7.53762C14.86 7.53297 15.0434 7.5559 15.2233 7.60642C15.2954 7.63777 15.3591 7.6811 15.4144 7.73637C15.4287 7.78759 15.4159 7.8309 15.3762 7.86632C15.3609 7.87652 15.3456 7.87652 15.3304 7.86632C15.1576 7.70867 14.9538 7.61694 14.7188 7.59113C14.7086 7.586 14.6983 7.58088 14.6881 7.57576C14.6779 7.57069 14.6678 7.56562 14.6577 7.56055C14.6662 7.5547 14.6712 7.54705 14.6729 7.53762Z" fill="white"/>
<path d="M13.0524 7.62935C13.1455 7.62383 13.2372 7.63147 13.3276 7.65228C13.3827 7.69922 13.3929 7.75017 13.3581 7.80517C12.7032 7.84109 12.0509 7.8309 11.4012 7.77459C11.4365 7.74605 11.4773 7.73076 11.5235 7.72872C11.9213 7.72629 12.3188 7.71609 12.716 7.69815C12.8311 7.67972 12.9432 7.65679 13.0524 7.62935Z" fill="white"/>
<path d="M14.7953 7.6905C14.933 7.71007 15.0578 7.76104 15.1698 7.84338C15.1818 7.87119 15.1741 7.89157 15.1469 7.90454C15.0431 7.86029 14.9412 7.81189 14.8411 7.7593C14.816 7.74204 14.8007 7.7191 14.7953 7.6905Z" fill="white"/>
<path d="M14.2907 7.75165C14.409 7.74621 14.5263 7.75385 14.6424 7.77458C14.8489 7.87229 15.0629 7.94873 15.2845 8.00391C15.3 8.01184 15.3102 8.02459 15.3151 8.04213C15.3137 8.11739 15.2755 8.15306 15.2004 8.14915C15.166 8.14715 15.1328 8.1395 15.101 8.12622C14.9906 8.06677 14.8887 7.99542 14.7953 7.91218C14.7237 7.8705 14.6473 7.84248 14.5659 7.82809C14.4281 7.85006 14.2905 7.87299 14.1531 7.89689C14.0869 7.90709 14.0206 7.90709 13.9544 7.89689C13.9474 7.86718 13.9627 7.8468 14.0002 7.83573C14.0983 7.80493 14.1951 7.7769 14.2907 7.75165Z" fill="white"/>
<path d="M14.4283 7.91983C14.6389 7.91423 14.8147 7.99068 14.9558 8.14916C14.9676 8.19849 14.9472 8.21887 14.8946 8.21031C14.6739 8.16902 14.4624 8.10022 14.2602 8.00392C14.2398 7.99372 14.2398 7.98354 14.2602 7.97334C14.3175 7.95333 14.3736 7.9355 14.4283 7.91983Z" fill="white"/>
</g>
<defs>
<clipPath id="clip0_1_1977">
<rect width="24" height="24" fill="white"/>
</clipPath>
</defs>
</svg>
