<svg width="24" height="24" viewBox="0 0 24 24" fill="none" xmlns="http://www.w3.org/2000/svg">
<g clip-path="url(#clip0_1_179)">
<path d="M24 12.0002C24 7.88174 21.9249 4.24832 18.7635 2.0872L12 1.56543L5.23655 2.08715C2.07516 4.24832 0 7.88179 0 12.0002C0 16.1188 2.07516 19.7521 5.23655 21.9133L12 22.435L18.7635 21.9133C21.9249 19.7521 24 16.1188 24 12.0002Z" fill="#0052B4"/>
<path d="M18.7632 2.08697C16.8374 0.770437 14.5087 0 11.9998 0C9.49089 0 7.16219 0.770437 5.23633 2.08697H18.7632Z" fill="#A2001D"/>
<path d="M5.23633 21.9131C7.16214 23.2296 9.49089 24.0001 11.9998 24.0001C14.5087 24.0001 16.8374 23.2296 18.7632 21.9131H5.23633Z" fill="#A2001D"/>
<path d="M11.9999 17.739C15.1695 17.739 17.739 15.1695 17.739 11.9999C17.739 8.83024 15.1695 6.26074 11.9999 6.26074C8.83024 6.26074 6.26074 8.83024 6.26074 11.9999C6.26074 15.1695 8.83024 17.739 11.9999 17.739Z" fill="#F0F0F0"/>
<path d="M12.0003 16.696C14.5937 16.696 16.696 14.5937 16.696 12.0003C16.696 9.407 14.5937 7.30469 12.0003 7.30469C9.407 7.30469 7.30469 9.407 7.30469 12.0003C7.30469 14.5937 9.407 16.696 12.0003 16.696Z" fill="#6DA544"/>
<path d="M11.9996 15.13C13.7285 15.13 15.13 13.7285 15.13 11.9996C15.13 10.2707 13.7285 8.86914 11.9996 8.86914C10.2707 8.86914 8.86914 10.2707 8.86914 11.9996C8.86914 13.7285 10.2707 15.13 11.9996 15.13Z" fill="#F0F0F0"/>
<path d="M12.0003 11.2178L10.3047 12.0004V13.3047L12.0003 14.3482L13.696 13.3047V12.0004L12.0003 11.2178Z" fill="#0052B4"/>
<path d="M10.3047 10.4346H13.696V11.9998H10.3047V10.4346Z" fill="#FFDA44"/>
</g>
<defs>
<clipPath id="clip0_1_179">
<rect width="24" height="24" fill="white"/>
</clipPath>
</defs>
</svg>
