<svg width="24" height="24" viewBox="0 0 24 24" fill="none" xmlns="http://www.w3.org/2000/svg">
<g clip-path="url(#clip0_1_482)">
<path d="M22.668 6.49714C22.1135 5.42281 21.3867 4.41444 20.4861 3.51388C19.5855 2.61327 18.5771 1.88647 17.5028 1.33203L9.04896 9.04794L1.33301 17.5018C1.88749 18.5761 2.61429 19.5845 3.51485 20.4851C4.41541 21.3857 5.42384 22.1125 6.49812 22.667L14.952 14.951L22.668 6.49714Z" fill="#FFDA44"/>
<path d="M3.51455 20.4858C4.01795 20.9892 4.55509 21.4381 5.11848 21.8334L21.8334 5.11848C21.4381 4.55509 20.9892 4.01795 20.4858 3.51455C19.9824 3.01116 19.4453 2.56224 18.8819 2.16699L2.16699 18.8819C2.5622 19.4452 3.01112 19.9824 3.51455 20.4858Z" fill="#D80027"/>
<path d="M3.51441 3.51431C-0.271541 7.30026 -0.998338 12.9861 1.33257 17.5023L17.5024 1.33251C12.9862 -0.998347 7.30032 -0.271457 3.51441 3.51431Z" fill="#338AF3"/>
<path d="M20.486 20.486C24.2719 16.7001 24.9986 11.0142 22.6679 6.49805L6.49805 22.6678C11.0142 24.9987 16.7001 24.2719 20.486 20.486Z" fill="#338AF3"/>
<path d="M6.39449 3.65137L7.04202 5.64435H9.13752L7.44224 6.87604L8.08977 8.86898L6.39449 7.63724L4.69912 8.86898L5.34674 6.87604L3.65137 5.64435H5.74687L6.39449 3.65137Z" fill="#FFDA44"/>
</g>
<defs>
<clipPath id="clip0_1_482">
<rect width="24" height="24" fill="white"/>
</clipPath>
</defs>
</svg>
