<svg width="24" height="24" viewBox="0 0 24 24" fill="none" xmlns="http://www.w3.org/2000/svg">
<g clip-path="url(#clip0_1_372)">
<path d="M12 24C18.6274 24 24 18.6274 24 12C24 5.37258 18.6274 0 12 0C5.37258 0 0 5.37258 0 12C0 18.6274 5.37258 24 12 24Z" fill="#D80027"/>
<path d="M6.56719 7.30273L7.60312 10.4902H10.9547L8.24531 12.4637L9.28125 15.6512L6.56719 13.6824L3.85313 15.6512L4.89375 12.4637L2.17969 10.4902H5.53125L6.56719 7.30273Z" fill="#FFDA44"/>
<path d="M14.227 18.5857L13.4348 17.6107L12.2629 18.0654L12.9426 17.0107L12.1504 16.0311L13.3645 16.3545L14.0488 15.2998L14.1145 16.5561L15.3332 16.8795L14.1566 17.3295L14.227 18.5857Z" fill="#FFDA44"/>
<path d="M15.802 15.7264L16.177 14.5264L15.1504 13.7998L16.4066 13.7811L16.777 12.5811L17.1848 13.7717L18.441 13.7576L17.4332 14.5076L17.8363 15.6982L16.8098 14.9717L15.802 15.7264Z" fill="#FFDA44"/>
<path d="M17.9246 8.80723L17.3715 9.93691L18.2715 10.8135L17.0293 10.6354L16.4762 11.7604L16.2605 10.5229L15.0137 10.3447L16.1293 9.75879L15.9137 8.5166L16.8137 9.39316L17.9246 8.80723Z" fill="#FFDA44"/>
<path d="M14.2592 5.38574L14.1654 6.63731L15.3326 7.11074L14.1092 7.41074L14.0201 8.66699L13.3592 7.59824L12.1357 7.89824L12.9467 6.9373L12.2811 5.87324L13.4482 6.34668L14.2592 5.38574Z" fill="#FFDA44"/>
</g>
<defs>
<clipPath id="clip0_1_372">
<rect width="24" height="24" fill="white"/>
</clipPath>
</defs>
</svg>
