<svg width="24" height="24" viewBox="0 0 24 24" fill="none" xmlns="http://www.w3.org/2000/svg">
<g clip-path="url(#clip0_1_465)">
<path d="M12 23.9999C18.6273 23.9999 23.9999 18.6273 23.9999 12C23.9999 5.37256 18.6273 0 12 0C5.37256 0 0 5.37256 0 12C0 18.6273 5.37256 23.9999 12 23.9999Z" fill="#F0F0F0"/>
<path d="M11.9999 0C8.07405 0 4.58871 1.88545 2.39941 4.8H21.6004C19.4111 1.88541 15.9258 0 11.9999 0Z" fill="#0052B4"/>
<path d="M11.9999 24.0002C15.9258 24.0002 19.4111 22.1147 21.6004 19.2002H2.39941C4.58866 22.1148 8.07405 24.0002 11.9999 24.0002Z" fill="#0052B4"/>
<path d="M0 11.9996C0 12.8216 0.082875 13.6242 0.240328 14.3996H23.7597C23.9172 13.6242 24 12.8216 24 11.9996C24 11.1777 23.9171 10.3751 23.7597 9.59961H0.240328C0.082875 10.3751 0 11.1777 0 11.9996Z" fill="#0052B4"/>
<path d="M3.51468 3.51465C-1.17156 8.20088 -1.17156 15.7989 3.51468 20.4852C5.45122 18.5487 7.31366 16.6862 11.9999 12L3.51468 3.51465Z" fill="#D80027"/>
<path d="M4.85695 8.87012L5.63385 11.2614H8.14851L6.11427 12.7395L6.89118 15.1309L4.85695 13.6529L2.82262 15.1309L3.59971 12.7395L1.56543 11.2614H4.0799L4.85695 8.87012Z" fill="#F0F0F0"/>
</g>
<defs>
<clipPath id="clip0_1_465">
<rect width="24" height="24" fill="white"/>
</clipPath>
</defs>
</svg>
