<svg width="24" height="24" viewBox="0 0 24 24" fill="none" xmlns="http://www.w3.org/2000/svg">
<g clip-path="url(#clip0_1_312)">
<path d="M12 24C18.6274 24 24 18.6274 24 12C24 5.37258 18.6274 0 12 0C5.37258 0 0 5.37258 0 12C0 18.6274 5.37258 24 12 24Z" fill="#F0F0F0"/>
<path d="M11.9999 24.0001C15.637 24.0001 18.8959 22.3818 21.0965 19.8262H2.90332C5.10396 22.3818 8.36285 24.0001 11.9999 24.0001Z" fill="#0052B4"/>
<path d="M24 12C24 5.37262 18.6274 0 12 0C5.37262 0 0 5.37262 0 12C0 13.0831 0.144375 14.1323 0.413391 15.1305H23.5867C23.8556 14.1323 24 13.0831 24 12Z" fill="#0052B4"/>
<path d="M0.954102 16.6953C1.18543 17.2389 1.45585 17.7616 1.76162 18.2605H22.2391C22.5447 17.7616 22.8151 17.2388 23.0466 16.6953H0.954102Z" fill="#D80027"/>
<path d="M8.57773 12.7822L8.77198 13.3801H9.40062L8.89207 13.7496L9.08632 14.3474L8.57773 13.9779L8.06913 14.3474L8.26343 13.7496L7.75488 13.3801H8.38352L8.57773 12.7822Z" fill="#FFDA44"/>
<path d="M8.57773 20.6084L8.77198 21.2063H9.40062L8.89207 21.5758L9.08632 22.1736L8.57773 21.8041L8.06913 22.1736L8.26343 21.5758L7.75488 21.2063H8.38352L8.57773 20.6084Z" fill="#FFDA44"/>
<path d="M4.93515 17.9619L5.1294 18.5597H5.75804L5.24949 18.9292L5.44374 19.5271L4.93515 19.1576L4.42655 19.5271L4.6209 18.9292L4.1123 18.5597H4.7409L4.93515 17.9619Z" fill="#FFDA44"/>
<path d="M6.3268 13.5645L6.52105 14.1623H7.14964L6.64114 14.5318L6.83539 15.1297L6.3268 14.7602L5.8182 15.1297L6.01255 14.5318L5.50391 14.1623H6.13255L6.3268 13.5645Z" fill="#FFDA44"/>
<path d="M4.1123 16.0266L4.7408 16.0267L4.9351 15.4287L5.1294 16.0266L5.75804 16.0266L5.24945 16.3961L5.44374 16.994L4.9351 16.6245L4.42655 16.9939L4.6208 16.3961L4.1123 16.0266Z" fill="#FFDA44"/>
<path d="M5.8183 21.277L6.01255 20.6793L5.50391 20.3098H6.13255L6.32684 19.7119L6.52114 20.3098H7.14973L6.64114 20.6792L6.83539 21.2772L6.3268 20.9076L5.8183 21.277Z" fill="#FFDA44"/>
<path d="M12.2193 17.9619L12.0251 18.5597H11.3965L11.905 18.9292L11.7107 19.5271L12.2193 19.1576L12.7279 19.5271L12.5336 18.9292L13.0422 18.5597H12.4136L12.2193 17.9619Z" fill="#FFDA44"/>
<path d="M10.8277 13.5645L10.6335 14.1623H10.0049L10.5134 14.5318L10.3191 15.1297L10.8277 14.7602L11.3363 15.1297L11.142 14.5318L11.6506 14.1623H11.022L10.8277 13.5645Z" fill="#FFDA44"/>
<path d="M13.0422 16.0266L12.4137 16.0267L12.2194 15.4287L12.0251 16.0266L11.3965 16.0266L11.905 16.3961L11.7107 16.994L12.2194 16.6245L12.7279 16.9939L12.5337 16.3961L13.0422 16.0266Z" fill="#FFDA44"/>
<path d="M11.3363 21.277L11.1421 20.6793L11.6507 20.3098H11.0221L10.8278 19.7119L10.6335 20.3098H10.0049L10.5135 20.6792L10.3192 21.2772L10.8278 20.9076L11.3363 21.277Z" fill="#FFDA44"/>
</g>
<defs>
<clipPath id="clip0_1_312">
<rect width="24" height="24" fill="white"/>
</clipPath>
</defs>
</svg>
