<svg width="24" height="24" viewBox="0 0 24 24" fill="none" xmlns="http://www.w3.org/2000/svg">
<g clip-path="url(#clip0_1_1990)">
<path d="M12 24C18.6274 24 24 18.6274 24 12C24 5.37258 18.6274 0 12 0C5.37258 0 0 5.37258 0 12C0 18.6274 5.37258 24 12 24Z" fill="#FFDA44"/>
<path d="M12 23.9996C15.9375 23.9996 19.432 22.1031 21.6201 19.1738H2.37988C4.56801 22.1031 8.06249 23.9996 12 23.9996Z" fill="#0052B4"/>
<path d="M24 12C24 5.37262 18.6274 0 12 0C5.37262 0 0 5.37262 0 12C0 13.419 0.246984 14.7803 0.699188 16.0439H23.3008C23.753 14.7803 24 13.419 24 12Z" fill="#0052B4"/>
<path d="M8.21359 7.69629L8.86108 9.68904H10.9566L9.26134 10.9208L9.90883 12.9137L8.21359 11.682L6.51836 12.9137L7.16594 10.9208L5.4707 9.68904H7.56611L8.21359 7.69629Z" fill="#F0F0F0"/>
<path d="M4.61541 5.60938L5.00391 6.80506H6.26124L5.2441 7.54409L5.6326 8.73983L4.61541 8.0008L3.59827 8.73983L3.98682 7.54409L2.96973 6.80506H4.22701L4.61541 5.60938Z" fill="#F0F0F0"/>
</g>
<defs>
<clipPath id="clip0_1_1990">
<rect width="24" height="24" fill="white"/>
</clipPath>
</defs>
</svg>
