<svg width="24" height="24" viewBox="0 0 24 24" fill="none" xmlns="http://www.w3.org/2000/svg">
<g clip-path="url(#clip0_1_392)">
<path d="M12 24C18.6274 24 24 18.6274 24 12C24 5.37258 18.6274 0 12 0C5.37258 0 0 5.37258 0 12C0 18.6274 5.37258 24 12 24Z" fill="#6DA544"/>
<path d="M1.26453 6.60938C0.45538 8.22452 0 10.0476 0 11.9771C0 18.6045 5.37258 23.9771 12 23.9771C16.6979 23.9771 20.7653 21.2774 22.7355 17.3448L1.26453 6.60938Z" fill="#012169"/>
<path opacity="0.6" d="M22.7356 17.3677L1.26465 6.63226C3.23478 2.69966 7.30218 0 12.0001 0C18.6275 0 24.0001 5.37258 24.0001 12C24.0001 13.9295 23.5447 15.7526 22.7356 17.3677Z" fill="#0DB02B"/>
<path d="M2.3252 11.3109L1.72519 10.7531L1.12051 11.3062L1.18613 10.4906L0.379883 10.3594L1.05957 9.9L0.656446 9.1875L1.43926 9.43125L1.74395 8.67188L2.03926 9.43594L2.82207 9.20156L2.40957 9.90937L3.07988 10.3781L2.26895 10.4953L2.3252 11.3109ZM4.44394 18.0891L3.79707 17.6578L3.16895 18.1125L3.38926 17.3812L2.75176 16.9406L3.53457 16.9219L3.76895 16.1953L4.03145 16.9125L4.81426 16.9031L4.19551 17.3672L4.44394 18.0891ZM7.40645 15.3L6.80644 14.7375L6.20176 15.2906L6.26738 14.475L5.46113 14.3437L6.14082 13.8844L5.7377 13.1719L6.52051 13.4156L6.8252 12.6562L7.12051 13.4203L7.90332 13.1859L7.49082 13.8937L8.16113 14.3625L7.35019 14.4797L7.40645 15.3Z" fill="white"/>
<path d="M23.3381 10.2271C23.2301 10.1653 23.156 10.2147 23.0108 10.1653C22.8904 10.1252 22.912 10.0819 22.807 10.048C22.6835 10.0078 22.6249 10.0603 22.4118 10.0819C22.3377 10.0881 22.2204 10.0974 22.1524 10.0881C21.8776 10.0511 21.6615 9.62497 21.5719 9.30076C21.4515 8.88084 21.5349 8.59369 21.4793 7.9885C21.467 7.85264 21.4361 7.65503 21.362 7.43581C21.3095 7.27833 21.2045 7.03132 20.695 6.43849C20.13 5.7839 19.6792 5.41955 19.5587 5.32383C19.3673 5.16945 19.1975 5.05212 19.074 4.96875C19.0925 5.16019 19.1357 5.44425 19.2407 5.76846C19.3611 6.14516 19.5093 6.41378 19.6514 6.67006C19.8891 7.09616 20.4881 8.15523 20.4048 8.464C20.3986 8.48253 20.3801 8.54737 20.3615 8.64309C20.3368 8.76968 20.3307 8.87466 20.3276 8.94568C20.2504 8.92098 20.1331 8.87775 19.9941 8.80982C19.7378 8.68323 19.5711 8.55046 19.4877 8.48562C19.2592 8.31271 19.0369 8.23551 18.5954 8.07495C18.0087 7.86191 17.4591 7.77854 17.0175 7.75075C17.2954 8.15523 17.5671 8.42695 17.7678 8.59677C18.1415 8.91789 18.5367 9.13712 18.7312 9.24518C18.969 9.37796 19.0678 9.41501 19.3148 9.57248C19.6946 9.81641 19.8397 9.97388 19.9324 10.0974C20.0466 10.2487 20.1516 10.3876 20.1763 10.5914C20.201 10.789 20.1454 11.0021 19.9787 11.2676C19.497 12.0303 18.5737 12.4502 18.2928 12.5706C17.5147 12.8454 17.421 12.9782 15.958 12.6849C16.0846 12.7404 16.2266 12.796 16.381 12.8454C16.5478 12.8979 16.7021 12.935 16.8442 12.9627C16.8534 12.9658 16.6466 12.972 16.4366 12.9257C16.1834 12.8701 15.9827 12.7713 15.8438 12.6879C15.9487 12.7713 16.1124 12.8856 16.3224 12.9782C17.1866 13.3125 18.0636 12.9627 18.1723 12.9257C18.5892 12.7837 18.9443 12.6632 19.4043 12.4255C20.0682 12.0797 20.3832 11.7833 21.1211 11.4838C21.3527 11.3911 21.4701 11.3417 21.6183 11.2985C22.0567 11.1688 22.2235 11.2028 22.5261 11.033C22.7978 10.8817 22.8842 10.7273 22.9089 10.681C22.9491 10.6069 22.9553 10.5605 22.9985 10.505C23.1127 10.3598 23.3134 10.3537 23.4678 10.3722C23.4493 10.332 23.4061 10.2703 23.3381 10.2271ZM22.7453 10.3691C22.7268 10.3938 22.6928 10.4031 22.665 10.3969C22.6249 10.3845 22.5971 10.3413 22.6002 10.2888L22.5075 10.2394H22.7453C22.7731 10.2796 22.77 10.3351 22.7453 10.3691Z" fill="#F7D116"/>
<path d="M12.0143 15.4689C13.9222 15.4689 15.4689 13.9222 15.4689 12.0143C15.4689 10.1063 13.9222 8.55957 12.0143 8.55957C10.1063 8.55957 8.55957 10.1063 8.55957 12.0143C8.55957 13.9222 10.1063 15.4689 12.0143 15.4689Z" fill="#F7D116"/>
<path d="M14.0178 9.89106C13.8916 9.91336 13.7693 9.9742 13.6392 9.97286C13.5648 9.9721 13.4661 9.91788 13.3978 9.96442C13.3018 10.0299 13.3309 10.1819 13.2779 10.2731C13.2542 10.3138 13.2159 10.3387 13.1693 10.3438C13.1277 10.3483 13.08 10.3356 13.0495 10.3724C13.0179 10.4105 13.0274 10.4627 13.0254 10.5081C13.0229 10.5641 13.0092 10.6201 12.9741 10.6645C12.9383 10.7098 12.8851 10.738 12.843 10.7769C12.7865 10.829 12.7415 10.8926 12.6797 10.9396C12.5901 11.0078 12.4851 11.046 12.386 11.0973C12.3159 11.1335 12.2561 11.1849 12.1836 11.2176C12.1271 11.243 12.0657 11.256 12.0074 11.2764C11.9353 11.3015 11.8657 11.3332 11.792 11.3539C11.7346 11.37 11.6743 11.375 11.6158 11.3856C11.5677 11.3942 11.5207 11.4076 11.4722 11.4136C11.3648 11.4267 11.2562 11.3605 11.1523 11.3397C11.0773 11.3247 11.0001 11.3168 10.9239 11.3116C10.8862 11.309 10.8501 11.3117 10.8129 11.3029C10.7297 11.2833 10.672 11.2195 10.5975 11.1822C10.5139 11.1403 10.4134 11.1299 10.3364 11.0757C10.2267 10.9985 10.2063 10.8492 10.0949 10.775C10.0448 10.7417 9.9685 10.7175 9.91223 10.7511C9.86853 10.7772 9.85384 10.8268 9.84426 10.8737C9.82436 10.971 9.80562 11.0771 9.83721 11.1739C9.87075 11.2767 9.95323 11.3207 10.0225 11.3958C10.0739 11.4516 10.1142 11.547 10.1037 11.6243C10.093 11.7031 10.0355 11.7614 10.0065 11.8332C9.96794 11.9283 9.97676 12.0548 9.90365 12.1323C9.85455 12.1843 9.78851 12.2412 9.72937 12.2812C9.6639 12.3254 9.60131 12.3568 9.55098 12.4206C9.48278 12.5072 9.35632 12.6735 9.46315 12.7775C9.5695 12.881 9.75952 12.8052 9.84628 12.7143C9.89757 12.6605 9.93409 12.5952 9.99047 12.5458C10.0268 12.514 10.0725 12.4947 10.121 12.4927C10.1992 12.4895 10.277 12.5087 10.356 12.5052C10.5043 12.4987 10.6748 12.4655 10.8194 12.5144C10.926 12.5504 10.9736 12.6768 11.087 12.6982C11.172 12.7143 11.2617 12.6829 11.3481 12.6888C11.4185 12.6936 11.4875 12.7138 11.557 12.7246C11.679 12.7435 11.7986 12.7592 11.916 12.7992C12.0699 12.8517 12.2092 12.9896 12.2474 13.1517C12.2653 13.2278 12.2538 13.3094 12.2638 13.3867C12.2747 13.4704 12.3189 13.5454 12.3318 13.6282C12.3479 13.7312 12.329 13.8317 12.3542 13.935C12.3949 14.1018 12.4566 14.3033 12.6405 14.3579C12.6741 14.3678 12.71 14.3721 12.745 14.3723C12.8158 14.3726 12.8842 14.3674 12.9538 14.354C13.0257 14.3401 13.1176 14.3291 13.1658 14.2677C13.2315 14.184 13.1859 14.0802 13.1769 13.9872C13.1668 13.8827 13.1905 13.7771 13.2029 13.6739C13.2113 13.6034 13.2273 13.5348 13.2394 13.465C13.2477 13.4173 13.2488 13.3669 13.2667 13.3214C13.3189 13.188 13.4161 13.0732 13.4465 12.9298C13.4612 12.8604 13.4318 12.7999 13.4174 12.7339C13.4003 12.6556 13.3967 12.5658 13.4054 12.4859C13.416 12.3877 13.4967 12.3255 13.5512 12.2509C13.5834 12.2068 13.6046 12.1553 13.6421 12.115C13.6796 12.0746 13.7315 12.0493 13.7625 12.0029C13.7828 11.9726 13.794 11.9373 13.8106 11.905C13.8518 11.8249 13.9139 11.7276 13.9917 11.6796C14.0459 11.6461 14.1076 11.6435 14.1679 11.6293C14.217 11.6177 14.2616 11.5952 14.305 11.5702C14.3494 11.5446 14.3984 11.5118 14.3997 11.4546C14.4011 11.3947 14.3405 11.3531 14.3075 11.311C14.2787 11.2741 14.2664 11.2265 14.2659 11.1804C14.2653 11.132 14.2592 11.0771 14.2738 11.0303C14.289 10.9817 14.3222 10.9404 14.3412 10.8932C14.3629 10.8395 14.3674 10.781 14.3632 10.7235C14.3572 10.6424 14.3002 10.5734 14.2679 10.5016C14.2473 10.4558 14.2396 10.4063 14.2275 10.358C14.2166 10.3143 14.2012 10.2718 14.1928 10.2275C14.1778 10.1494 14.2044 10.069 14.19 9.99247C14.1792 9.9354 14.144 9.89135 14.0831 9.8883C14.0615 9.88721 14.0391 9.8873 14.0178 9.89106Z" fill="#0DB02B"/>
</g>
<defs>
<clipPath id="clip0_1_392">
<rect width="24" height="24" fill="white"/>
</clipPath>
</defs>
</svg>
