<svg width="24" height="24" viewBox="0 0 24 24" fill="none" xmlns="http://www.w3.org/2000/svg">
<g clip-path="url(#clip0_1_474)">
<path d="M12 24C18.6274 24 24 18.6274 24 12C24 5.37258 18.6274 0 12 0C5.37258 0 0 5.37258 0 12C0 18.6274 5.37258 24 12 24Z" fill="#FCFCFC"/>
<path d="M18.7829 10.4346C18.4177 10.4346 17.9655 10.4346 17.2177 10.4346C17.2177 13.3161 14.8818 15.6519 12.0004 15.6519C9.1188 15.6519 6.78298 13.3161 6.78298 10.4346C6.2786 10.4346 5.72205 10.4346 5.21777 10.4346C5.21777 13.5384 7.30259 16.1553 10.1484 16.9612C9.83637 17.5539 9.8839 18.3001 10.3296 18.8563C10.915 18.3871 11.521 17.9014 12.0351 17.4895C12.5493 17.9015 13.1554 18.3871 13.7407 18.8563C14.1908 18.2946 14.2351 17.5389 13.9127 16.9434C16.7273 16.1176 18.7829 13.5163 18.7829 10.4346Z" fill="#6DA544"/>
<path d="M7.82617 9.91291C7.82617 9.91291 7.82617 12.5216 10.4349 12.5216L10.9566 13.0433H12.0001C12.0001 13.0433 12.5218 11.4781 13.5653 11.4781C13.5653 11.4781 13.5653 10.4346 14.6087 10.4346C15.6522 10.4346 16.174 10.4346 16.174 10.4346C16.174 10.4346 15.6522 8.34766 18.2609 6.78246L17.2174 6.26074C17.2174 6.26074 13.5653 8.86943 10.9566 8.34771V9.3912H9.91309L9.39138 8.86948L7.82617 9.91291Z" fill="#FFDA44"/>
</g>
<defs>
<clipPath id="clip0_1_474">
<rect width="24" height="24" fill="white"/>
</clipPath>
</defs>
</svg>
