<svg width="24" height="24" viewBox="0 0 24 24" fill="none" xmlns="http://www.w3.org/2000/svg">
<g clip-path="url(#clip0_1_552)">
<path d="M12 24C18.6274 24 24 18.6274 24 12C24 5.37258 18.6274 0 12 0C5.37258 0 0 5.37258 0 12C0 18.6274 5.37258 24 12 24Z" fill="#F0F0F0"/>
<path d="M11.9997 0C6.84013 0 2.44161 3.2565 0.746094 7.82611H23.2534C21.5578 3.2565 17.1593 0 11.9997 0Z" fill="#D80027"/>
<path d="M11.9997 23.9999C17.1593 23.9999 21.5578 20.7434 23.2533 16.1738H0.746094C2.44161 20.7434 6.84012 23.9999 11.9997 23.9999Z" fill="black"/>
<path d="M16.174 10.6958H13.0436C13.0436 10.1195 12.5764 9.65234 12.0001 9.65234C11.4238 9.65234 10.9566 10.1195 10.9566 10.6958H7.82617C7.82617 11.2722 8.32816 11.7393 8.90444 11.7393H8.86966C8.86966 12.3156 9.33681 12.7828 9.91314 12.7828C9.91314 13.3591 10.3803 13.8263 10.9566 13.8263H13.0436C13.6199 13.8263 14.0871 13.3591 14.0871 12.7828C14.6634 12.7828 15.1306 12.3156 15.1306 11.7393H15.0958C15.6721 11.7393 16.174 11.2722 16.174 10.6958Z" fill="#FF9811"/>
</g>
<defs>
<clipPath id="clip0_1_552">
<rect width="24" height="24" fill="white"/>
</clipPath>
</defs>
</svg>
