<svg width="24" height="24" viewBox="0 0 24 24" fill="none" xmlns="http://www.w3.org/2000/svg">
<g clip-path="url(#clip0_1_1396)">
<path d="M1.19072 6.78274C0.427875 8.36037 0 10.1302 0 12.0001C0 13.87 0.427875 15.6399 1.19072 17.2175L12 18.261L22.8093 17.2175C23.5721 15.6399 24 13.87 24 12.0001C24 10.1302 23.5721 8.36037 22.8093 6.78274L12 5.73926L1.19072 6.78274Z" fill="#F0F0F0"/>
<path d="M1.19141 17.2178C3.13231 21.2317 7.24278 24.0004 12.0003 24.0004C16.7577 24.0004 20.8682 21.2317 22.8091 17.2178H1.19141Z" fill="#496E2D"/>
<path d="M1.19141 6.78263H22.8091C20.8682 2.76867 16.7578 0 12.0003 0C7.24273 0 3.13231 2.76867 1.19141 6.78263Z" fill="black"/>
<path d="M3.51471 3.51465C-1.17157 8.20093 -1.17157 15.7989 3.51471 20.4853C5.45126 18.5487 7.31374 16.6862 12 12L3.51471 3.51465Z" fill="#D80027"/>
<path d="M15.1307 11.9998C15.1307 10.2515 16.3594 8.79091 18.0002 8.43259C17.748 8.37752 17.4864 8.34766 17.2176 8.34766C15.2005 8.34766 13.5654 9.98275 13.5654 11.9998C13.5654 14.0169 15.2005 15.652 17.2176 15.652C17.4863 15.652 17.748 15.6221 18.0002 15.5671C16.3594 15.2088 15.1307 13.7482 15.1307 11.9998Z" fill="#D80027"/>
<path d="M18.1533 9.65234L18.6714 11.2468H20.3477L18.9915 12.232L19.5096 13.8263L18.1533 12.841L16.7972 13.8263L17.3153 12.232L15.959 11.2468H17.6353L18.1533 9.65234Z" fill="#D80027"/>
</g>
<defs>
<clipPath id="clip0_1_1396">
<rect width="24" height="24" fill="white"/>
</clipPath>
</defs>
</svg>
