<svg width="24" height="24" viewBox="0 0 24 24" fill="none" xmlns="http://www.w3.org/2000/svg">
<g clip-path="url(#clip0_1_573)">
<path d="M10.9565 10.9561C10.9565 10.9561 3.52168 20.4865 3.51465 20.4848C5.68618 22.6564 8.68623 23.9995 12 23.9995C18.6273 23.9995 24 18.6269 24 11.9995L10.9565 10.9561Z" fill="#338AF3"/>
<path d="M10.9565 12C10.9565 12 3.52168 3.51305 3.51465 3.51473C5.68618 1.34316 8.68623 0 12 0C18.6273 0 24 5.37262 24 12H10.9565Z" fill="#6DA544"/>
<path d="M3.51471 3.51465C-1.17157 8.20093 -1.17157 15.7989 3.51471 20.4853C3.51438 20.4872 24 12 24 12L3.51471 3.51465Z" fill="#D80027"/>
<path d="M6.2608 7.04395C3.95929 7.04395 2.08691 8.91637 2.08691 11.2178V12.783C2.08691 15.0846 3.95934 16.9569 6.2608 16.9569C8.56227 16.9569 10.4347 15.0845 10.4347 12.783V11.2178C10.4347 8.91637 8.56232 7.04395 6.2608 7.04395ZM8.86949 12.7831C8.86949 13.949 8.10065 14.9384 7.04338 15.2717V13.5657L8.15076 12.4583L7.04399 11.3516L7.04338 10.9577V10.4353H5.47823V12.0005L4.3716 13.107L5.47823 14.2136V15.2717C4.42096 14.9385 3.65212 13.949 3.65212 12.7831V11.2179C3.65212 9.77948 4.8224 8.60924 6.2608 8.60924C7.69921 8.60924 8.86949 9.77952 8.86949 11.2179V12.7831Z" fill="#FFDA44"/>
</g>
<defs>
<clipPath id="clip0_1_573">
<rect width="24" height="24" fill="white"/>
</clipPath>
</defs>
</svg>
