<svg width="24" height="24" viewBox="0 0 24 24" fill="none" xmlns="http://www.w3.org/2000/svg">
<g clip-path="url(#clip0_1_1573)">
<path d="M0 11.9996C0 13.4674 0.264047 14.8735 0.746391 16.1735L12 17.217L23.2536 16.1735C23.736 14.8735 24 13.4674 24 11.9996C24 10.5318 23.736 9.1257 23.2536 7.82571L12 6.78223L0.746391 7.82571C0.264047 9.1257 0 10.5318 0 11.9996H0Z" fill="#FFDA44"/>
<path d="M23.2533 7.82611C21.5578 3.25655 17.1593 0 11.9997 0C6.84012 0 2.44161 3.25655 0.746094 7.82611H23.2533Z" fill="#D80027"/>
<path d="M0.746094 16.1738C2.44161 20.7434 6.84012 23.9999 11.9997 23.9999C17.1593 23.9999 21.5578 20.7434 23.2533 16.1738H0.746094Z" fill="#D80027"/>
</g>
<defs>
<clipPath id="clip0_1_1573">
<rect width="24" height="24" fill="white"/>
</clipPath>
</defs>
</svg>
