<svg width="24" height="24" viewBox="0 0 24 24" fill="none" xmlns="http://www.w3.org/2000/svg">
<g clip-path="url(#clip0_1_582)">
<path d="M0 11.9996C0 13.4675 0.264047 14.8736 0.746437 16.1736L12 17.217L23.2536 16.1736C23.736 14.8736 24 13.4675 24 11.9996C24 10.5519 23.7435 9.16404 23.2737 7.87905L12 6.78223L0.726281 7.8791C0.256453 9.16404 0 10.5519 0 11.9996H0Z" fill="#FFDA44"/>
<path d="M11.9997 23.9999C17.1593 23.9999 21.5578 20.7434 23.2533 16.1738H0.746094C2.44161 20.7434 6.84012 23.9999 11.9997 23.9999Z" fill="#D80027"/>
<path d="M11.9997 0C6.84013 0 2.44161 3.2565 0.746094 7.82611H23.2534C21.5578 3.2565 17.1593 0 11.9997 0Z" fill="#6DA544"/>
<path d="M11.9999 17.739C15.1695 17.739 17.739 15.1695 17.739 11.9999C17.739 8.83024 15.1695 6.26074 11.9999 6.26074C8.83024 6.26074 6.26074 8.83024 6.26074 11.9999C6.26074 15.1695 8.83024 17.739 11.9999 17.739Z" fill="#0052B4"/>
<path d="M11.999 7.55566L13.035 10.7442H16.393L13.6753 12.7149L14.7195 15.9129L11.999 13.9328L9.28269 15.9092L10.3227 12.7149L7.60742 10.7442H10.963L11.999 7.55566Z" fill="#FFDA44"/>
<path d="M16.1308 12.7934L12.8441 11.7254L14.8753 8.92981L14.0312 8.31641L11.9999 11.1122L9.96872 8.31645L9.1245 8.92977L11.1557 11.7256L7.86914 12.7934L8.19155 13.7859L11.4782 12.718V16.1737H12.5217V12.718L15.8082 13.7859L16.1308 12.7934Z" fill="#FFDA44"/>
</g>
<defs>
<clipPath id="clip0_1_582">
<rect width="24" height="24" fill="white"/>
</clipPath>
</defs>
</svg>
