<svg width="24" height="24" viewBox="0 0 24 24" fill="none" xmlns="http://www.w3.org/2000/svg">
<g clip-path="url(#clip0_1_608)">
<path d="M24 12C24 18.6274 18.6274 24 12 24C5.37262 24 0 18.6274 0 12C0 12.0029 12 0.0013125 12 0C18.6274 0 24 5.37262 24 12Z" fill="#338AF3"/>
<path d="M12.0001 5.73926V9.78659L7.82617 5.73926H12.0001Z" fill="#0052B4"/>
<path d="M6.26098 12.0003H9.78654L6.26098 7.30469L5.73926 10.9569L6.26098 12.0003Z" fill="#0052B4"/>
<path d="M11.9678 11.9999H11.9999C11.9999 11.9891 11.9999 11.9786 11.9999 11.9678C11.9892 11.9785 11.9785 11.9892 11.9678 11.9999Z" fill="#F0F0F0"/>
<path d="M12 6.26086C12 4.14937 12 2.76586 12 0H11.998C5.3715 0.001125 0 5.37323 0 12H6.26086V8.47448L9.78642 12H11.968C11.9787 11.9893 11.9894 11.9786 12.0001 11.9679C12.0001 11.1594 12.0001 10.4381 12.0001 9.78647L8.47444 6.26086H12Z" fill="#F0F0F0"/>
<path d="M6.07124 1.56543C4.19441 2.63413 2.63413 4.19441 1.56543 6.07124V12.0002H4.69588V4.69598V4.69588H12.0002C12.0002 3.70855 12.0002 2.76796 12.0002 1.56543H6.07124Z" fill="#D80027"/>
<path d="M11.9998 10.5242L7.73641 6.26074H6.26074V6.26084L11.9997 11.9998H11.9998C11.9998 11.9998 11.9998 10.9823 11.9998 10.5242Z" fill="#D80027"/>
<path d="M13.5654 7.82571V11.9996C13.5654 14.7952 17.2176 15.6518 17.2176 15.6518C17.2176 15.6518 20.8698 14.7952 20.8698 11.9996V7.82571L17.2176 6.78223L13.5654 7.82571Z" fill="#F3F3F3"/>
<path d="M20.8698 7.82595V6.26074H13.5654V7.82595H16.6958V10.9564H13.5654V11.9998V11.9999L16.6958 12V15.492C17.0107 15.6034 17.2176 15.6521 17.2176 15.6521C17.2176 15.6521 17.4244 15.6035 17.7393 15.492V11.9999H20.8698V11.9998V10.9564H17.7393V7.8259H20.8698V7.82595Z" fill="#D80027"/>
</g>
<defs>
<clipPath id="clip0_1_608">
<rect width="24" height="24" fill="white"/>
</clipPath>
</defs>
</svg>
