<svg width="24" height="24" viewBox="0 0 24 24" fill="none" xmlns="http://www.w3.org/2000/svg">
<g clip-path="url(#clip0_1_604)">
<path d="M12 24C18.6274 24 24 18.6274 24 12C24 5.37258 18.6274 0 12 0C5.37258 0 0 5.37258 0 12C0 18.6274 5.37258 24 12 24Z" fill="#F0F0F0"/>
<path d="M23.4781 12.0002L23.898 10.435C23.8283 9.90155 23.7237 9.37899 23.5865 8.86984H10.9563V0.0458984C10.4238 0.0917422 9.90139 0.172789 9.39111 0.285945L7.30414 1.56545L6.26066 1.46012C5.71152 1.75974 5.18834 2.10099 4.69545 2.4797V8.86979H0.413188C0.275984 9.37895 0.171359 9.90151 0.101609 10.435L0.521516 12.0002L0.101562 13.5654C0.171313 14.0989 0.275937 14.6215 0.413141 15.1306H4.69541V21.5207C5.1883 21.8995 5.71152 22.2407 6.26061 22.5403L7.82581 22.435L9.39102 23.7145C9.90134 23.8276 10.4238 23.9086 10.9562 23.9545V15.1307H23.5863C23.7235 14.6215 23.8281 14.099 23.8979 13.5655L23.4781 12.0002Z" fill="#0052B4"/>
<path d="M23.8984 10.4347H9.39136H9.39131V0.285156C8.28234 0.531062 7.23098 0.929641 6.26086 1.459V10.4347H0.101578C0.034875 10.9471 0 11.4694 0 11.9999C0 12.5304 0.034875 13.0528 0.101578 13.5651H6.26081H6.26086V22.5408C7.23098 23.0701 8.28234 23.4688 9.39131 23.7146V13.5653V13.5652H23.8984C23.9651 13.0528 24 12.5304 24 11.9999C24 11.4694 23.9651 10.9471 23.8984 10.4347Z" fill="#D80027"/>
</g>
<defs>
<clipPath id="clip0_1_604">
<rect width="24" height="24" fill="white"/>
</clipPath>
</defs>
</svg>
