<svg width="24" height="24" viewBox="0 0 24 24" fill="none" xmlns="http://www.w3.org/2000/svg">
<g clip-path="url(#clip0_1_1807)">
<path d="M12 24C18.6274 24 24 18.6274 24 12C24 5.37258 18.6274 0 12 0C5.37258 0 0 5.37258 0 12C0 18.6274 5.37258 24 12 24Z" fill="#F0F0F0"/>
<path d="M2.48032 4.69434C1.53771 5.92073 0.826945 7.33424 0.413086 8.86982H6.6558L2.48032 4.69434Z" fill="#0052B4"/>
<path d="M23.5864 8.86977C23.1725 7.33424 22.4617 5.92073 21.5191 4.69434L17.3438 8.86977H23.5864Z" fill="#0052B4"/>
<path d="M0.413086 15.1299C0.826992 16.6654 1.53776 18.0789 2.48032 19.3053L6.65566 15.1299H0.413086Z" fill="#0052B4"/>
<path d="M19.3053 2.48037C18.0789 1.53776 16.6655 0.826992 15.1299 0.413086V6.65576L19.3053 2.48037Z" fill="#0052B4"/>
<path d="M4.69434 21.5191C5.92073 22.4617 7.33424 23.1725 8.86977 23.5864V17.3438L4.69434 21.5191Z" fill="#0052B4"/>
<path d="M8.86973 0.413086C7.33419 0.826992 5.92068 1.53776 4.69434 2.48032L8.86973 6.65571V0.413086Z" fill="#0052B4"/>
<path d="M15.1299 23.5864C16.6654 23.1725 18.0789 22.4617 19.3053 21.5191L15.1299 17.3438V23.5864Z" fill="#0052B4"/>
<path d="M17.3438 15.1299L21.5191 19.3053C22.4617 18.079 23.1725 16.6654 23.5864 15.1299H17.3438Z" fill="#0052B4"/>
<path d="M23.8984 10.4348H13.5653H13.5653V0.101578C13.0529 0.034875 12.5305 0 12 0C11.4694 0 10.9471 0.034875 10.4348 0.101578V10.4347V10.4347H0.101578C0.034875 10.9471 0 11.4695 0 12C0 12.5306 0.034875 13.0529 0.101578 13.5652H10.4347H10.4347V23.8984C10.9471 23.9651 11.4694 24 12 24C12.5305 24 13.0529 23.9652 13.5652 23.8984V13.5653V13.5653H23.8984C23.9651 13.0529 24 12.5306 24 12C24 11.4695 23.9651 10.9471 23.8984 10.4348Z" fill="#D80027"/>
<path d="M15.1309 15.1309L20.4857 20.4857C20.732 20.2395 20.9669 19.9821 21.191 19.7153L16.6066 15.1309H15.1309V15.1309Z" fill="#D80027"/>
<path d="M8.86951 15.1309H8.86941L3.51465 20.4856C3.76084 20.7319 4.01823 20.9668 4.28504 21.191L8.86951 16.6064V15.1309Z" fill="#D80027"/>
<path d="M8.86976 8.8696V8.86951L3.51495 3.51465C3.26866 3.76084 3.03373 4.01823 2.80957 4.28504L7.39409 8.86955H8.86976V8.8696Z" fill="#D80027"/>
<path d="M15.1309 8.8698L20.4857 3.5149C20.2395 3.26862 19.9821 3.03368 19.7153 2.80957L15.1309 7.39409V8.8698Z" fill="#D80027"/>
</g>
<defs>
<clipPath id="clip0_1_1807">
<rect width="24" height="24" fill="white"/>
</clipPath>
</defs>
</svg>
