<svg width="24" height="24" viewBox="0 0 24 24" fill="none" xmlns="http://www.w3.org/2000/svg">
<g clip-path="url(#clip0_1_723)">
<path d="M12 24C18.6274 24 24 18.6274 24 12C24 5.37258 18.6274 0 12 0C5.37258 0 0 5.37258 0 12C0 18.6274 5.37258 24 12 24Z" fill="#FFDA44"/>
<path d="M5.23633 2.08697C7.16219 0.770437 9.49084 0 11.9998 0C14.5087 0 16.8374 0.770437 18.7632 2.08697L11.9998 2.60869L5.23633 2.08697Z" fill="#A2001D"/>
<path d="M12.0004 12.0002L11.2346 11.2344L11.0312 11.5986L12.0004 12.0002Z" fill="#0052B4"/>
<path d="M3.51471 3.51465C-1.17157 8.20093 -1.17157 15.7989 3.51471 20.4853C5.45126 18.5487 7.31374 16.6862 12 12L3.51471 3.51465Z" fill="#496E2D"/>
<path d="M20.4853 3.51465C25.1716 8.20093 25.1716 15.7989 20.4853 20.4853C18.5488 18.5487 16.6863 16.6862 12 12L20.4853 3.51465Z" fill="#496E2D"/>
<path d="M12.0001 16.174C14.3052 16.174 16.174 14.3052 16.174 12.0001C16.174 9.69489 14.3052 7.82617 12.0001 7.82617C9.69489 7.82617 7.82617 9.69489 7.82617 12.0001C7.82617 14.3052 9.69489 16.174 12.0001 16.174Z" fill="#A2001D"/>
<path d="M11.9996 7.82617L12.9352 10.7057H15.9633L13.5137 12.4856L14.4492 15.3653L11.9996 13.5856L9.54996 15.3653L10.4857 12.4856L8.03613 10.7057H11.064L11.9996 7.82617Z" fill="#FFDA44"/>
<path d="M12.0043 0H11.9963C8.68444 0.00107812 5.68627 1.34372 3.51562 3.51413H20.485C18.3143 1.34372 15.3161 0.00107812 12.0043 0Z" fill="#A2001D"/>
<path d="M3.51562 20.4863C5.68716 22.6575 8.68688 24.0004 12.0002 24.0004C15.3136 24.0004 18.3133 22.6575 20.4848 20.4863H3.51562Z" fill="#A2001D"/>
<path d="M12.0006 1.30469L12.1949 1.90253H12.8235L12.315 2.27205L12.5093 2.86989L12.0006 2.50042L11.4921 2.86989L11.6864 2.27205L11.1777 1.90253H11.8063L12.0006 1.30469Z" fill="#FFDA44"/>
<path d="M9.09047 1.30469L9.28477 1.90253H9.91336L9.40481 2.27205L9.59911 2.86989L9.09047 2.50042L8.58197 2.86989L8.77622 2.27205L8.26758 1.90253H8.89617L9.09047 1.30469Z" fill="#FFDA44"/>
<path d="M14.9098 1.30469L15.1041 1.90253H15.7327L15.2241 2.27205L15.4184 2.86989L14.9098 2.50042L14.4013 2.86989L14.5956 2.27205L14.0869 1.90253H14.7155L14.9098 1.30469Z" fill="#FFDA44"/>
<path d="M12.0006 21.1309L12.1949 21.7287H12.8235L12.315 22.0982L12.5093 22.6961L12.0006 22.3265L11.4921 22.6961L11.6864 22.0982L11.1777 21.7287H11.8063L12.0006 21.1309Z" fill="#FFDA44"/>
<path d="M9.09047 21.1309L9.28477 21.7287H9.91336L9.40481 22.0982L9.59911 22.6961L9.09047 22.3265L8.58197 22.6961L8.77622 22.0982L8.26758 21.7287H8.89617L9.09047 21.1309Z" fill="#FFDA44"/>
<path d="M14.9098 21.1309L15.1041 21.7287H15.7327L15.2241 22.0982L15.4184 22.6961L14.9098 22.3265L14.4013 22.6961L14.5956 22.0982L14.0869 21.7287H14.7155L14.9098 21.1309Z" fill="#FFDA44"/>
<path d="M3.65663 11.8019C3.96484 12.2889 3.81999 12.9335 3.33301 13.2417C2.84607 13.55 2.20145 13.4051 1.8932 12.9182C1.33515 12.0365 1.65873 10.5967 1.65873 10.5967C1.65873 10.5967 3.09854 10.9203 3.65663 11.8019Z" fill="#FFDA44"/>
<path d="M3.05395 13.3227C3.34208 13.3227 3.57566 13.0892 3.57566 12.801C3.57566 12.5129 3.34208 12.2793 3.05395 12.2793C2.76581 12.2793 2.53223 12.5129 2.53223 12.801C2.53223 13.0892 2.76581 13.3227 3.05395 13.3227Z" fill="#A2001D"/>
</g>
<defs>
<clipPath id="clip0_1_723">
<rect width="24" height="24" fill="white"/>
</clipPath>
</defs>
</svg>
