<svg width="24" height="24" viewBox="0 0 24 24" fill="none" xmlns="http://www.w3.org/2000/svg">
<g clip-path="url(#clip0_1_644)">
<path d="M12 24C18.6274 24 24 18.6274 24 12C24 5.37258 18.6274 0 12 0C5.37258 0 0 5.37258 0 12C0 18.6274 5.37258 24 12 24Z" fill="#F0F0F0"/>
<path d="M21.9857 18.657C19.8338 21.8783 16.1647 23.9999 12 23.9999C5.37259 23.9999 0 18.6273 0 11.9999C0 9.53712 0.741875 7.24767 2.01434 5.34277L21.9857 18.657Z" fill="#FCDD09"/>
<path d="M21.986 18.6571L2.01465 5.34289C4.16648 2.12157 7.83563 0 12.0003 0C18.6277 0 24.0003 5.37258 24.0003 12C24.0003 14.4627 23.2584 16.7522 21.986 18.6571Z" fill="#078930"/>
<path d="M12.0074 8.39062L14.3585 15.6267L8.20312 11.1546H15.8116L9.65621 15.6267L12.0074 8.39062Z" fill="#DA121A"/>
</g>
<defs>
<clipPath id="clip0_1_644">
<rect width="24" height="24" fill="white"/>
</clipPath>
</defs>
</svg>
