<svg width="24" height="24" viewBox="0 0 24 24" fill="none" xmlns="http://www.w3.org/2000/svg">
<g clip-path="url(#clip0_1_699)">
<path d="M0 12.0003C0 13.4682 0.264047 14.8742 0.746391 16.1742L12 16.696L23.2536 16.1743C23.736 14.8742 24 13.4682 24 12.0003C24 10.5325 23.736 9.12644 23.2536 7.82645L12 7.30469L0.746391 7.82641C0.264047 9.12644 0 10.5325 0 12.0003H0Z" fill="#FFDA44"/>
<path d="M11.9997 0C6.84013 0 2.44161 3.2565 0.746094 7.82611H23.2534C21.5578 3.2565 17.1593 0 11.9997 0Z" fill="#D80027"/>
<path d="M23.2533 16.1738H0.746094C2.44161 20.7434 6.84012 23.9999 11.9997 23.9999C17.1593 23.9999 21.5578 20.7434 23.2533 16.1738Z" fill="#496E2D"/>
<path d="M12 7.82617L13.0359 11.0146H16.3888L13.6764 12.9854L14.7124 16.174L12 14.2033L9.28753 16.174L10.3237 12.9854L7.61133 11.0146H10.964L12 7.82617Z" fill="black"/>
</g>
<defs>
<clipPath id="clip0_1_699">
<rect width="24" height="24" fill="white"/>
</clipPath>
</defs>
</svg>
