<svg width="24" height="24" viewBox="0 0 24 24" fill="none" xmlns="http://www.w3.org/2000/svg">
<g clip-path="url(#clip0_1_746)">
<path d="M12 24C18.6274 24 24 18.6274 24 12C24 5.37258 18.6274 0 12 0C5.37258 0 0 5.37258 0 12C0 18.6274 5.37258 24 12 24Z" fill="black"/>
<path fill-rule="evenodd" clip-rule="evenodd" d="M8.77512 12.3346C8.37538 12.2999 8.0696 12.1676 7.95298 11.9723C7.92517 11.971 7.89675 11.9695 7.86774 11.9678C7.79504 11.9633 7.72711 11.9595 7.66377 11.9562C7.67168 11.9624 7.67931 11.969 7.68658 11.9758C7.74317 12.0407 7.88053 12.1298 7.98555 12.1866C8.00974 12.2008 8.03242 12.2154 8.05246 12.2298C8.10322 12.253 8.15332 12.2771 8.20069 12.3011C8.23327 12.3067 8.26147 12.3164 8.28321 12.33C8.34021 12.3657 8.37463 12.3873 8.38137 12.4011C8.46012 12.4498 8.51022 12.491 8.50832 12.5135C8.50778 12.5448 8.33575 12.5112 8.10249 12.4467C8.00484 12.4669 7.88411 12.5037 7.77973 12.5479C7.92504 12.6161 8.08067 12.6835 8.2394 12.7461C8.62725 12.892 8.76461 12.9811 8.67573 13.0136C8.58442 13.0492 8.10133 12.8483 7.64843 12.6136C7.63167 12.6278 7.61242 12.6437 7.59099 12.661C7.6413 12.6784 7.69399 12.7073 7.73519 12.7461C7.79178 12.811 7.92913 12.9001 8.03416 12.9569C8.04574 12.9636 8.05699 12.9705 8.06776 12.9775C8.17353 13.0051 8.2547 13.0417 8.27178 13.0702C8.34451 13.1838 7.52846 13.1757 7.31837 13.0622C7.3076 13.0559 7.29573 13.0496 7.28295 13.0436L7.26025 13.0481C7.20329 13.0601 7.13145 13.0666 7.05423 13.0679C6.87899 13.2107 6.76332 13.3367 6.69355 13.4727C6.70398 13.4698 6.71449 13.4669 6.7251 13.464C7.4442 13.2614 7.70277 13.2289 7.76747 13.3343C7.79169 13.3749 7.66241 13.4316 7.4685 13.4559C7.16288 13.5055 6.87848 13.5633 6.63559 13.624C6.6217 13.6768 6.61312 13.7321 6.60922 13.7911C6.81726 13.6385 7.08711 13.6136 7.51362 13.6899C7.61765 13.7059 7.74339 13.744 7.86376 13.7905C8.16234 13.6982 8.54418 13.6577 8.54418 13.7304C8.54418 13.7444 8.3578 13.8187 8.1095 13.9013C8.2389 13.9697 8.32414 14.0355 8.30263 14.0675C8.29522 14.0785 8.1176 14.0402 7.88354 13.9755C7.31044 14.1724 7.12445 14.3578 7.02516 14.833L6.94435 15.1978L6.93628 14.8086C6.92858 14.3761 7.09695 14.1349 7.6022 13.8956C7.13312 13.7705 6.87651 13.7822 6.6104 13.974C6.61224 14.0014 6.61475 14.0297 6.61789 14.0589L6.65341 14.4309L6.52587 14.0633C6.52383 14.0574 6.52184 14.0515 6.51989 14.0456C6.49006 14.0712 6.4598 14.0991 6.42883 14.1293L6.15853 14.3864L6.36871 14.0592C6.40533 14.0026 6.44291 13.9522 6.48235 13.9079C6.46489 13.8243 6.45902 13.7455 6.46573 13.6688C6.16154 13.7537 5.945 13.8415 5.86868 13.918C5.78787 13.9991 5.71514 14.1937 5.70706 14.3315L5.70697 14.3343C5.69895 14.5829 5.69871 14.5902 5.63433 14.3963C5.48462 13.9232 5.58452 13.791 6.49275 13.5292C6.53934 13.3752 6.642 13.2244 6.80954 13.0553C6.73779 13.0467 6.66974 13.034 6.61274 13.0172C6.59934 13.0132 6.58568 13.0089 6.57177 13.0046L6.44803 13.0691C6.33494 13.1259 6.04404 13.2232 5.80166 13.2799C5.55928 13.3366 5.29264 13.4339 5.21991 13.5069C5.13103 13.5799 5.07448 13.588 5.07448 13.5393C5.07448 13.4258 5.18758 13.3529 5.72085 13.1421C5.96323 13.0529 6.27839 12.9718 6.40767 12.9637H6.45003C6.38866 12.942 6.32383 12.9176 6.25636 12.8909C6.1718 12.883 6.0855 12.8751 6.00137 12.8676C5.28226 12.8027 4.98329 12.9081 4.88634 13.2567C4.86208 13.3458 4.82172 13.4107 4.79746 13.3783C4.77324 13.354 4.78939 13.2324 4.83786 13.1108C4.88634 12.9892 4.91055 12.8676 4.89441 12.8514C4.82975 12.7865 4.16719 12.9811 4.10257 13.0865C4.06216 13.1513 4.02983 13.1594 4.02983 13.1027C4.02983 12.9568 4.21566 12.8352 4.56311 12.7541C4.79834 12.6979 5.26651 12.6712 5.75154 12.6714C5.503 12.5551 5.2466 12.4242 5.01186 12.2938C4.80329 12.2723 4.62362 12.2596 4.49845 12.2596C4.03786 12.2596 3.91669 12.3245 3.84396 12.6244C3.82361 12.7061 3.81351 12.7466 3.80746 12.746C3.80151 12.7454 3.79949 12.7049 3.79548 12.6244C3.77936 12.2925 3.91627 12.2193 4.729 12.1303C4.53694 12.0144 4.37306 11.9041 4.25957 11.8106C4.23372 11.8078 4.20842 11.8035 4.18451 11.7975L3.94213 11.757L4.12956 11.6958C3.95762 11.5394 3.89221 11.462 3.99052 11.5246C4.01906 11.5433 4.05809 11.5684 4.10327 11.5974L4.10332 11.5975C4.1372 11.6193 4.17454 11.6433 4.21352 11.6685L4.26532 11.6516C4.47059 11.5885 4.58247 11.5582 4.67077 11.556C4.6689 11.5527 4.66726 11.5497 4.66586 11.547C3.96139 11.3253 3.19805 11.1181 2.65624 11.0192C2.48079 10.9872 2.48638 10.9868 2.69633 10.9712L2.70472 10.9706C2.90208 10.9638 3.58804 11.118 4.32937 11.3139C4.16168 11.2429 4.00951 11.1648 3.9502 11.1084C3.86133 11.0273 3.61087 10.8814 3.40078 10.7841C3.19069 10.6869 3.02101 10.5977 3.02101 10.5815C3.02101 10.5247 3.03715 10.5247 3.53814 10.7031C3.59891 10.7242 3.67253 10.7543 3.75384 10.7905C3.67576 10.7323 3.61405 10.6785 3.58456 10.6386C3.51104 10.5433 3.28965 10.3559 3.09959 10.2235C2.90957 10.0911 2.7579 9.97374 2.7607 9.95778C2.77051 9.9019 2.78644 9.9047 3.2489 10.1677C3.62314 10.3766 4.48938 11.0773 4.49412 11.1698C4.75725 11.3197 4.95682 11.4522 4.93679 11.4804C5.10582 11.5283 5.27159 11.5768 5.42893 11.6243C5.40391 11.5663 5.44315 11.5758 5.54801 11.6606C6.09311 11.8281 6.51391 11.9792 6.575 12.0488C6.6595 12.1407 7.06931 12.4234 7.40321 12.6234C7.45301 12.5985 7.50052 12.5771 7.54299 12.5605L7.54442 12.5588C7.31459 12.4358 7.10144 12.3078 6.96281 12.2029C6.82981 12.0991 6.71706 11.9681 6.69876 11.9031C6.69382 11.9005 6.68899 11.898 6.68429 11.8955L6.5219 11.8705C6.35226 11.8461 6.0775 11.7326 5.924 11.6191C5.3584 11.1976 4.34037 10.095 4.08987 9.61672C3.94444 9.34921 3.8879 9.21139 3.96866 9.31672C3.98925 9.34428 4.01762 9.38159 4.05046 9.42478C4.13358 9.53408 4.24537 9.68109 4.33225 9.80312C4.77665 10.3869 5.13216 10.7922 5.21297 10.7922C5.25337 10.7922 5.17257 10.6544 5.04328 10.4841C4.90593 10.322 4.74436 10.0221 4.67162 9.81939C4.5262 9.39783 4.55041 9.42215 5.07562 10.1842C5.56037 10.8814 6.23912 11.684 6.34414 11.684C6.38454 11.684 6.22297 11.4489 5.97248 11.1651C5.72199 10.8895 5.46342 10.5004 5.3988 10.3058C5.22911 9.81939 5.25333 9.7221 5.45535 10.1031C5.64118 10.4517 6.22293 11.2462 6.60271 11.6597L6.7436 11.8157C6.74649 11.8167 6.74939 11.8177 6.75231 11.8188C6.75607 11.8201 6.75986 11.8215 6.76368 11.8228C6.79554 11.8105 6.83835 11.8003 6.89139 11.7923C6.70806 11.6162 6.27882 11.0117 6.27882 10.9081C6.27882 10.8189 6.33707 10.8757 6.72806 11.4107C6.84585 11.5692 6.9296 11.7094 6.95891 11.7838C7.13174 11.766 7.38443 11.7659 7.70071 11.7844C7.63694 11.7459 7.57758 11.6874 7.52265 11.611C7.33682 11.3516 7.02171 10.7355 7.02171 10.6463C7.02171 10.6139 7.12673 10.7112 7.24794 10.8652C7.36915 11.0192 7.60346 11.303 7.78122 11.4894C7.95318 11.6847 8.02883 11.7706 8.02663 11.8083C8.10048 11.8147 8.17685 11.8219 8.25559 11.83C8.28262 11.8324 8.30858 11.8348 8.33347 11.8373C8.15193 11.7315 7.72463 10.9578 7.61729 10.527C7.58496 10.3973 7.60115 10.3162 7.65774 10.3162C7.70621 10.3162 7.74662 10.3811 7.74662 10.4703C7.74662 10.6324 8.1829 11.4918 8.38492 11.7269C8.38882 11.7313 8.39259 11.7356 8.39624 11.7398C8.4221 11.7541 8.46614 11.7903 8.53798 11.8492C8.54426 11.854 8.55103 11.859 8.55823 11.8642C8.81798 11.9022 8.85643 11.9412 8.7174 11.9638C8.82495 12.0247 8.95411 12.0883 9.06982 12.1336C9.319 12.2308 9.35443 12.2638 9.22091 12.2593C9.10795 12.2555 8.88399 12.1908 8.70854 12.1087C8.62413 12.0713 8.54918 12.0263 8.49149 11.9811C8.43033 11.983 8.36057 11.9836 8.28275 11.9827C8.36112 12.0193 8.44518 12.0537 8.52393 12.0789C8.93394 12.2287 9.06851 12.3554 8.77512 12.3346ZM7.10085 11.9471C7.25252 11.998 7.4089 12.0404 7.50882 12.0556C7.44766 12.0148 7.40254 11.9777 7.38761 11.9515C7.38692 11.9503 7.38625 11.9492 7.38562 11.9481C7.38502 11.947 7.38445 11.9459 7.3839 11.9449C7.26402 11.9418 7.17053 11.9425 7.10085 11.9471ZM6.97936 12.0452C7.16542 12.14 7.51326 12.2666 7.8302 12.366C7.75968 12.3972 7.69109 12.4373 7.63537 12.4783C7.27332 12.2986 7 12.1237 6.94764 12.0294L6.97936 12.0452ZM6.97899 12.6244C7.08517 12.6542 7.17781 12.6802 7.25803 12.7023C7.22395 12.7223 7.19 12.7433 7.15699 12.7649C7.06543 12.7147 6.9663 12.6572 6.86375 12.5953C6.90463 12.6051 6.94315 12.6148 6.97899 12.6244ZM6.50357 12.5739C6.59256 12.6223 6.67436 12.6696 6.7457 12.7132C6.66515 12.7055 6.57888 12.6988 6.48869 12.6932C6.35556 12.6189 6.20677 12.5314 6.05231 12.4365C6.15453 12.4535 6.25505 12.471 6.35182 12.4889C6.40278 12.5191 6.45371 12.5477 6.50357 12.5739ZM4.97177 11.9154C5.03133 11.9734 5.09686 12.0321 5.16265 12.0859C5.08202 12.0916 4.9942 12.0996 4.90248 12.1096C4.82638 12.0636 4.74618 12.0141 4.6626 11.9615C4.70315 11.957 4.7593 11.9485 4.83324 11.9364C4.87575 11.9306 4.92288 11.9234 4.97177 11.9154ZM5.32641 11.9598C5.38136 11.9986 5.43768 12.0375 5.49485 12.0764C5.55494 12.0792 5.59409 12.0861 5.6054 12.0974C5.64679 12.1262 5.78859 12.1726 5.9477 12.2158C5.82558 12.1218 5.72586 12.0319 5.67155 11.9632C5.6407 11.9254 5.61268 11.8902 5.58751 11.8579C5.54692 11.8431 5.50542 11.8281 5.46311 11.8131C5.44492 11.8185 5.42343 11.8244 5.39884 11.8311C5.3492 11.8435 5.28049 11.8583 5.20461 11.8733C5.24292 11.9005 5.28349 11.9293 5.32641 11.9598ZM6.50227 12.3163C6.49543 12.3232 6.46822 12.3235 6.42722 12.3191C6.26592 12.2125 6.11033 12.1049 5.97597 12.0065C6.33654 12.1527 6.55161 12.2693 6.50227 12.3163ZM4.97176 11.6453C5.0887 11.6837 5.20269 11.7222 5.31231 11.7601C5.28692 11.7594 5.25923 11.7588 5.22916 11.7581C5.16702 11.756 5.10594 11.7577 5.04784 11.7625C5.01115 11.7367 4.97736 11.7131 4.94633 11.6916C5.04221 11.6896 5.04768 11.6802 4.97176 11.6453ZM4.82242 11.7557C4.83245 11.7678 4.8431 11.7802 4.8543 11.7928C4.77244 11.8127 4.70575 11.8398 4.66355 11.8716C4.63673 11.8922 4.61545 11.909 4.60081 11.9225C4.56703 11.9011 4.53275 11.8792 4.49801 11.8569C4.47554 11.8414 4.452 11.8255 4.42784 11.8092C4.48241 11.8025 4.53092 11.7899 4.56429 11.7732C4.61465 11.7451 4.69986 11.7209 4.78238 11.706C4.7949 11.7216 4.80826 11.7382 4.82242 11.7557ZM5.5542 12.3604C5.4582 12.347 5.36356 12.3346 5.27197 12.3233C5.48276 12.438 5.62409 12.4982 5.66273 12.4841C5.68812 12.4748 5.64154 12.4262 5.5542 12.3604ZM7.46612 12.7587C7.43671 12.7812 7.40548 12.8047 7.37284 12.8288C7.47656 12.8543 7.58338 12.8796 7.67949 12.9007C7.59131 12.8504 7.51372 12.7996 7.46957 12.7597L7.46612 12.7587Z" fill="#008000"/>
<path d="M3.844 10.2526C4.07831 10.6012 4.34495 10.8525 4.86208 11.2011C5.24186 11.4605 5.57311 11.6632 5.58926 11.647C5.62159 11.6064 3.73086 9.84724 3.60158 9.79858C3.55315 9.78236 3.65817 9.98502 3.844 10.2526Z" fill="#008000"/>
<path d="M6.62461 10.8675C6.93165 11.435 7.24677 11.8079 7.37605 11.7674C7.44067 11.7431 7.29524 11.508 6.98013 11.127C6.84778 10.9714 6.72428 10.8247 6.62785 10.7102L6.62782 10.7102C6.51822 10.58 6.44359 10.4914 6.43071 10.4784C6.40649 10.4541 6.49537 10.6324 6.62461 10.8675Z" fill="#008000"/>
<path d="M3.26919 11.4512C3.17224 11.5242 3.06717 11.6944 3.04295 11.8322C2.99448 12.0674 2.99448 12.0674 3.12376 11.9133C3.46314 11.4836 3.48735 11.4674 3.90753 11.4593C4.2469 11.4512 4.29538 11.435 4.13377 11.3863C3.79435 11.281 3.45502 11.3053 3.26919 11.4512Z" fill="#008000"/>
<path d="M7.57226 14.5562C7.47531 14.6859 7.40258 14.8561 7.40258 14.9453C7.40258 15.0507 7.44298 15.0264 7.55608 14.8399C7.64495 14.694 7.79845 14.5238 7.89545 14.4508C7.99537 14.381 8.04156 14.3488 8.03654 14.3339C8.03222 14.3211 7.99004 14.3211 7.91159 14.3211C7.81469 14.3211 7.66921 14.4183 7.57226 14.5562Z" fill="#008000"/>
<path d="M20.4592 18.4572C20.4842 18.4139 20.5204 18.3522 20.5711 18.2669C20.4377 18.2121 20.19 18.1135 19.8878 17.9932C19.1495 17.6994 18.0863 17.2762 17.5732 17.0466C17.3111 16.9315 17.0036 16.7915 16.718 16.6616C16.3238 16.4823 15.9716 16.322 15.8389 16.2725C15.6102 16.187 15.5933 16.2844 15.7803 16.3994C15.9261 16.4888 16.4491 16.7144 17.0415 16.9701C17.4405 17.1422 17.871 17.328 18.239 17.4949C19.1465 17.9064 20.2064 18.3818 20.4592 18.4572Z" fill="#008000"/>
<path d="M17.2137 16.7162C16.6131 16.4815 16.0829 16.2745 15.9342 16.1903C15.7432 16.0819 15.7568 15.9841 15.9883 16.0614C16.1225 16.1063 16.4799 16.254 16.88 16.4194C17.17 16.5392 17.4824 16.6684 17.7485 16.7743C18.2689 16.9857 19.3453 17.371 20.0933 17.6389C20.4001 17.7487 20.6516 17.8387 20.787 17.8889C20.7393 17.976 20.7052 18.0389 20.6818 18.083C20.4266 18.0166 19.3507 17.5785 18.4295 17.199C18.0557 17.045 17.6187 16.8743 17.2137 16.7162Z" fill="#008000"/>
<path d="M15.6066 16.59C15.4258 16.4653 15.4478 16.369 15.6717 16.4663C15.8016 16.5227 16.1449 16.7012 16.5291 16.901C16.8075 17.0457 17.1075 17.2016 17.3633 17.3304C17.8635 17.5865 18.9028 18.0648 19.6247 18.397C19.9204 18.5331 20.1629 18.6447 20.2933 18.7065C20.2383 18.7891 20.1989 18.8487 20.1717 18.8906C19.9232 18.8021 18.8895 18.2717 18.0048 17.8131C17.6459 17.6271 17.2257 17.419 16.8362 17.2261C16.2579 16.9397 15.7475 16.6869 15.6066 16.59Z" fill="#008000"/>
<path d="M17.4429 15.7698C17.7467 15.848 18.0739 15.9323 18.3521 16C18.8966 16.1365 20.0153 16.3678 20.7932 16.5285C21.1125 16.5945 21.3745 16.6487 21.5156 16.6795C21.4805 16.7724 21.4555 16.8394 21.4384 16.8864C21.1764 16.8563 20.0502 16.5727 19.0854 16.3256C18.6939 16.2253 18.2377 16.1173 17.8148 16.0173C17.1873 15.8688 16.6334 15.7377 16.4744 15.6751C16.2703 15.5944 16.2701 15.4956 16.5102 15.5399C16.6493 15.5655 17.0238 15.6619 17.4429 15.7698Z" fill="#008000"/>
<path d="M17.0525 16.2028C17.3488 16.3075 17.6681 16.4203 17.9399 16.5122C18.4712 16.6961 19.568 17.025 20.3291 17.2532C20.64 17.3464 20.8949 17.4228 21.0323 17.4657C20.9892 17.5552 20.9585 17.6197 20.9374 17.665C20.6791 17.6121 19.5818 17.2312 18.6421 16.9006C18.2609 16.7665 17.8158 16.619 17.4033 16.4824C16.791 16.2796 16.2505 16.1006 16.0975 16.0242C15.9012 15.9261 15.9096 15.8276 16.1449 15.8927C16.2811 15.9304 16.645 16.0589 17.0525 16.2028Z" fill="#008000"/>
<path d="M17.2715 16.0056C17.5727 16.0945 17.8973 16.1903 18.1732 16.2678C18.7128 16.4234 19.8233 16.6938 20.5952 16.8817C20.9117 16.9588 21.1713 17.022 21.3112 17.0577C21.2729 17.1493 21.2456 17.2154 21.2269 17.2617C20.9661 17.2224 19.8505 16.8996 18.8948 16.6188C18.5069 16.5048 18.0545 16.3809 17.6352 16.2661C17.0134 16.0957 16.4647 15.9454 16.308 15.8773C16.1069 15.7895 16.1101 15.6908 16.3485 15.7434C16.4865 15.7739 16.8569 15.8832 17.2715 16.0056Z" fill="#008000"/>
<path d="M0.677734 8.01562H23.3231C21.6802 3.34671 17.2312 0 12.0004 0C6.7697 0 2.32065 3.34671 0.677734 8.01562Z" fill="#002488"/>
<path d="M11.5232 1.27585C11.1072 1.96245 11.0575 2.51163 11.3415 3.46C11.4782 3.90256 11.6284 4.56347 11.6915 4.92169C11.7575 5.31863 11.7663 5.43369 11.7727 5.51799C11.7745 5.54109 11.7761 5.5619 11.7786 5.58556C11.8034 5.58556 11.8357 5.58558 11.872 5.58561H11.8721C11.9895 5.58569 12.1489 5.5858 12.2333 5.58527C12.2369 5.54545 12.2404 5.50423 12.244 5.46103C12.2563 5.31432 12.2705 5.14485 12.2994 4.9301C12.3429 4.60604 12.4719 3.92831 12.6106 3.4575C12.888 2.5168 12.8694 1.9396 12.4382 1.28631C12.2804 1.04397 12.0701 0.84375 11.9754 0.84375C11.8809 0.843807 11.6667 1.02886 11.5232 1.27585Z" fill="#FCDD09"/>
<path d="M13.5665 3.21852C12.9775 3.47143 12.6233 4.1715 12.4298 5.13629C12.3941 5.31748 12.3853 5.38141 12.3675 5.58562C12.385 5.58569 12.4011 5.58576 12.4161 5.58584C12.4316 5.58592 12.446 5.586 12.4597 5.58608C12.5289 5.58648 12.5799 5.58677 12.6693 5.58624C12.6965 5.44887 12.7161 5.37636 12.7761 5.18142C13.0138 4.42736 13.7138 4.12472 13.6822 4.83076C13.6717 5.0257 13.5896 5.13453 13.4982 5.23905C13.6112 5.2108 13.8512 5.09861 14.0457 4.98796C15.1289 4.33461 14.7023 2.73379 13.5665 3.21852Z" fill="#FCDD09"/>
<path d="M11.1599 5.83165L11.2187 5.83191C11.7004 5.83404 12.4725 5.83747 12.8512 5.83545C12.8515 5.78007 12.852 5.7703 12.8526 5.75956C12.8531 5.7506 12.8537 5.74097 12.8541 5.70366C12.6557 5.70199 12.0742 5.70334 11.6331 5.70437H11.633C11.4282 5.70484 11.2538 5.70525 11.1621 5.70525C11.1627 5.75033 11.1618 5.77565 11.1606 5.81143L11.1606 5.81236C11.1603 5.81844 11.1601 5.82482 11.1599 5.83165Z" fill="#FCDD09"/>
<path d="M11.2997 6.38929C11.1284 6.57434 10.8607 6.71267 10.8607 6.71267C10.8607 6.71267 11.0975 6.73933 11.3183 6.72319C11.5391 6.70705 11.6616 6.67942 11.7921 6.61594C11.7567 6.87959 11.7546 7.13415 11.7546 7.13415C11.7868 7.47344 11.823 7.56022 11.8965 7.72538C11.9961 7.86314 12.054 7.86388 12.1273 7.71845C12.2065 7.55562 12.2585 7.38808 12.2751 7.13261C12.2694 6.94114 12.2587 6.85339 12.2134 6.61929C12.3662 6.68556 12.4627 6.70273 12.6907 6.72324C12.9239 6.74427 13.1383 6.73398 13.1383 6.73398C13.1383 6.73398 12.8232 6.57559 12.6846 6.38128C12.5763 6.22952 12.572 6.21825 12.5256 6.09782L12.5255 6.09777C12.5133 6.06599 12.4981 6.0266 12.4774 5.97504C12.3906 5.97092 12.0508 5.97265 11.7937 5.97395H11.7936C11.6922 5.97447 11.6037 5.97492 11.5486 5.97492C11.5332 6.00753 11.5198 6.03641 11.5077 6.06238L11.5076 6.06253C11.4364 6.21579 11.4122 6.26777 11.2997 6.38929Z" fill="#FCDD09"/>
<path d="M10.4339 3.21812C11.0228 3.47103 11.3771 4.1711 11.5705 5.1359C11.6063 5.31708 11.615 5.38102 11.6329 5.58522C11.5972 5.58536 11.5675 5.58553 11.5406 5.58569C11.4715 5.58608 11.4205 5.58637 11.3311 5.58584C11.3039 5.44848 11.2843 5.37596 11.2243 5.18102C10.9866 4.42696 10.2866 4.12432 10.3182 4.83036C10.3287 5.0253 10.4108 5.13413 10.5022 5.23865C10.3892 5.2104 10.1492 5.09822 9.9547 4.98756C8.8715 4.33426 9.29807 2.73345 10.4339 3.21812Z" fill="#FCDD09"/>
<path d="M18.4196 3.45999C18.2123 2.76744 18.1828 2.28777 18.344 1.81201C18.8657 2.13755 19.3606 2.50205 19.8246 2.90144C19.7935 3.07312 19.7479 3.25705 19.6888 3.45749C19.55 3.92829 19.421 4.60603 19.3775 4.93009C19.3487 5.14484 19.3344 5.31431 19.3221 5.46103C19.3185 5.50422 19.3151 5.54544 19.3114 5.58526C19.2271 5.58578 19.0678 5.58567 18.9503 5.58559L18.8568 5.58554C18.8542 5.56191 18.8526 5.54114 18.8509 5.51806L18.8509 5.51797C18.8444 5.43367 18.8357 5.31862 18.7696 4.92168C18.7065 4.56346 18.5563 3.90255 18.4196 3.45999Z" fill="#FCDD09"/>
<path d="M19.5079 5.13628C19.6678 4.339 19.9375 3.7225 20.3586 3.38973C20.7668 3.78605 21.1469 4.21113 21.4956 4.66171C21.4005 4.78373 21.2773 4.89535 21.1238 4.98794C20.9293 5.0986 20.6893 5.21079 20.5763 5.23903C20.6677 5.13452 20.7498 5.02568 20.7603 4.83074C20.7919 4.12471 20.0919 4.42734 19.8542 5.1814C19.7942 5.37634 19.7746 5.44886 19.7474 5.58623C19.658 5.58676 19.607 5.58646 19.5379 5.58607L19.5369 5.58606C19.5214 5.58597 19.5049 5.58588 19.4868 5.58579C19.474 5.58572 19.4603 5.58566 19.4456 5.5856C19.4635 5.3814 19.4722 5.31746 19.5079 5.13628Z" fill="#FCDD09"/>
<path d="M18.2968 5.83189L18.238 5.83163C18.2383 5.82446 18.2385 5.81778 18.2387 5.81144V5.81138C18.24 5.77563 18.2409 5.75029 18.2402 5.70523C18.3313 5.70523 18.5041 5.70483 18.7071 5.70436L18.7107 5.70435L18.7109 5.70435H18.7113C19.1523 5.70333 19.7339 5.70197 19.9322 5.70364C19.9318 5.74095 19.9313 5.75059 19.9307 5.75954C19.9301 5.77028 19.9296 5.78005 19.9293 5.83544C19.5507 5.83746 18.7787 5.83403 18.297 5.83189H18.2968Z" fill="#FCDD09"/>
<path d="M18.3778 6.38928C18.2065 6.57432 17.9388 6.71266 17.9388 6.71266C17.9388 6.71266 18.1756 6.73931 18.3964 6.72317C18.6172 6.70703 18.7397 6.67941 18.8702 6.61593C18.8348 6.87957 18.8327 7.13413 18.8327 7.13413C18.8649 7.47342 18.9012 7.56021 18.9746 7.72536C19.0742 7.86313 19.1321 7.86387 19.2054 7.71843C19.2846 7.5556 19.3367 7.38806 19.3532 7.1326C19.3475 6.94112 19.3368 6.85337 19.2916 6.61928C19.4443 6.68555 19.5408 6.70271 19.7688 6.72323C20.002 6.74426 20.2164 6.73397 20.2164 6.73397C20.2164 6.73397 19.9013 6.57557 19.7627 6.38126C19.6544 6.22951 19.6501 6.21824 19.6037 6.0978L19.6037 6.09776C19.5914 6.06597 19.5763 6.02659 19.5555 5.97502C19.4687 5.9709 19.1289 5.97263 18.8718 5.97394H18.8717L18.8716 5.97394L18.8704 5.97395C18.7696 5.97446 18.6816 5.97491 18.6268 5.97491C18.6113 6.00758 18.5978 6.03651 18.5858 6.06252C18.5145 6.21578 18.4903 6.26776 18.3778 6.38928Z" fill="#FCDD09"/>
<path d="M18.6487 5.13588C18.4552 4.17108 18.101 3.47101 17.512 3.21811C16.3762 2.73343 15.9496 4.33425 17.0328 4.98755C17.2273 5.0982 17.4673 5.21039 17.5803 5.23863C17.4889 5.13412 17.4068 5.02528 17.3963 4.83035C17.3647 4.12431 18.0647 4.42694 18.3024 5.18101C18.3624 5.37594 18.382 5.44846 18.4092 5.58583C18.4986 5.58636 18.5496 5.58607 18.6187 5.58567C18.6457 5.58552 18.6753 5.58535 18.711 5.5852C18.6931 5.381 18.6844 5.31706 18.6487 5.13588Z" fill="#FCDD09"/>
<path d="M4.13388 2.93769C4.1637 3.09884 4.20696 3.27154 4.26339 3.46001C4.40009 3.90257 4.5503 4.56348 4.6134 4.9217C4.67941 5.31864 4.68819 5.4337 4.69463 5.518C4.69639 5.54111 4.69798 5.56191 4.70052 5.58557C4.72533 5.58557 4.75758 5.58559 4.79384 5.58562H4.7941C4.91152 5.5857 5.07081 5.58581 5.1552 5.58529C5.15881 5.54546 5.16227 5.50424 5.16589 5.46105C5.1782 5.31433 5.19242 5.14487 5.22125 4.93011C5.26475 4.60605 5.39378 3.92832 5.53252 3.45751C5.73182 2.78146 5.7783 2.29315 5.62861 1.82941C5.1014 2.16039 4.60175 2.53122 4.13388 2.93769Z" fill="#FCDD09"/>
<path d="M2.50488 4.66155C2.60001 4.78349 2.72315 4.89503 2.87658 4.98757C3.07109 5.09823 3.3111 5.21041 3.42406 5.23866C3.33268 5.13414 3.25056 5.02531 3.24005 4.83037C3.20847 4.12433 3.90849 4.42697 4.14617 5.18103C4.20614 5.37597 4.22573 5.44849 4.25294 5.58585C4.34237 5.58639 4.39338 5.58609 4.46249 5.5857C4.48939 5.58554 4.51906 5.58537 4.55479 5.58523C4.5369 5.38103 4.52815 5.31709 4.49243 5.13591C4.33257 4.33877 4.06298 3.72235 3.64195 3.38954C3.23375 3.78586 2.85364 4.21095 2.50488 4.66155Z" fill="#FCDD09"/>
<path d="M6.48834 3.21853C5.8994 3.47144 5.54519 4.17151 5.3517 5.1363C5.31598 5.31749 5.30723 5.38142 5.28934 5.58563C5.32507 5.58577 5.35472 5.58594 5.38163 5.58609C5.45073 5.58649 5.50176 5.58678 5.59119 5.58625C5.61839 5.44889 5.63799 5.37637 5.69796 5.18143C5.93563 4.42737 6.63566 4.12473 6.60408 4.83077C6.59357 5.02571 6.51145 5.13454 6.42007 5.23906C6.53303 5.21081 6.77304 5.09862 6.96755 4.98797C8.05075 4.33462 7.62418 2.7338 6.48834 3.21853Z" fill="#FCDD09"/>
<path d="M4.1406 5.83192L4.08177 5.83166C4.08201 5.82448 4.08224 5.81781 4.08246 5.81147C4.08372 5.77567 4.08461 5.75035 4.08398 5.70526C4.17517 5.70526 4.34817 5.70486 4.55143 5.70439L4.55439 5.70438L4.55466 5.70438H4.55501C4.99604 5.70335 5.57762 5.702 5.77599 5.70367C5.77555 5.74097 5.77501 5.75061 5.7745 5.75956C5.77389 5.77031 5.77334 5.78008 5.77309 5.83546C5.39442 5.83748 4.62244 5.83406 4.14073 5.83192H4.1406Z" fill="#FCDD09"/>
<path d="M4.22159 6.3893C4.05025 6.57435 3.78259 6.71268 3.78259 6.71268C3.78259 6.71268 4.01935 6.73934 4.24016 6.7232C4.46097 6.70706 4.58347 6.67943 4.71398 6.61595C4.67854 6.8796 4.67649 7.13416 4.67649 7.13416C4.70864 7.47345 4.74493 7.56023 4.81836 7.72539C4.91798 7.86315 4.9759 7.86389 5.04917 7.71846C5.12833 7.55563 5.18041 7.38809 5.197 7.13262C5.19126 6.94115 5.18058 6.8534 5.13532 6.61931C5.28809 6.68557 5.38458 6.70274 5.61254 6.72325C5.84579 6.74428 6.06018 6.73399 6.06018 6.73399C6.06018 6.73399 5.7451 6.5756 5.60647 6.38129C5.49818 6.22954 5.49384 6.21826 5.44745 6.09783C5.4352 6.06604 5.42003 6.02664 5.39923 5.97505C5.31249 5.97093 4.97267 5.97266 4.71558 5.97397H4.71539L4.71527 5.97397C4.61395 5.97448 4.52551 5.97493 4.47051 5.97493C4.45504 6.00761 4.4416 6.03653 4.42951 6.06254C4.35825 6.2158 4.33409 6.26778 4.22159 6.3893Z" fill="#FCDD09"/>
<path d="M12.4682 19.5407L12.7473 19.7393C13.1474 20.017 13.3674 20.4031 13.3456 20.8014L13.3308 21.1305L13.4621 20.8068C13.6058 20.468 13.586 19.9551 13.4163 19.5752L13.3173 19.3536L13.6317 19.49C14.081 19.6789 14.3768 20.0108 14.4386 20.4051L14.4927 20.73L14.5537 20.386C14.6235 20.0249 14.4972 19.5274 14.2518 19.1909L14.1088 18.9947L14.4448 19.0629C14.9236 19.1545 15.2822 19.418 15.4249 19.7909L15.5457 20.0975L15.5335 19.7484C15.5264 19.3806 15.299 18.9201 14.989 18.6419L14.8081 18.4796L15.151 18.4768C15.6385 18.4672 16.0443 18.6506 16.2617 18.9858L16.4437 19.2606L16.359 18.9217C16.2754 18.5636 15.9569 18.1602 15.5955 17.9523L15.3847 17.831L15.7196 17.7573C16.1944 17.6468 16.6295 17.7422 16.9121 18.025L17.1475 18.256L16.9939 17.9421C16.8374 17.6091 16.4417 17.2805 16.0449 17.152L15.8133 17.0771L16.1255 16.9356C16.5669 16.7292 17.0124 16.7323 17.3478 16.9503L17.6263 17.1276L17.4106 16.8524C17.1881 16.559 16.7325 16.3197 16.3174 16.2762L16.0754 16.2509L16.3513 16.0478C16.7399 15.7545 17.1763 15.6651 17.5499 15.809L17.8594 15.9246L17.5909 15.7001C17.312 15.4593 16.8165 15.3195 16.4014 15.3631L16.1594 15.3883L16.3868 15.1325C16.7058 14.7651 17.114 14.5874 17.5095 14.6507L17.8362 14.6997L17.5268 14.5358C17.2038 14.358 16.6899 14.3239 16.293 14.4524L16.0615 14.5273L16.2305 14.23C16.4658 13.8046 16.8281 13.5461 17.2281 13.526L17.558 13.5063L17.2211 13.41C16.868 13.3031 16.3583 13.3763 15.9968 13.5841L15.786 13.7054L15.8894 13.3796C16.0308 12.9146 16.3312 12.5868 16.7183 12.4843L17.0369 12.3966L16.6873 12.3723C16.3196 12.3408 15.8363 12.5179 15.5261 12.7962L15.3453 12.9585L15.3783 12.6184C15.4197 12.1342 15.6451 11.7514 16.0024 11.5708L16.2957 11.4192L15.9487 11.4677C15.5824 11.5131 15.1467 11.7866 14.9014 12.123L14.7583 12.3193L14.7197 11.9797C14.6591 11.4977 14.7997 11.0763 15.1115 10.8258L15.3668 10.6166L15.0374 10.736C14.6886 10.8563 14.3195 11.2141 14.1497 11.594L14.0507 11.8157L13.9421 11.4915C13.7822 11.0325 13.8319 10.5913 14.0846 10.2817L14.2907 10.0242L13.9934 10.2092C13.6774 10.3991 13.3909 10.8256 13.3041 11.2323L13.2535 11.4697L13.0796 11.1752C12.8275 10.7592 12.784 10.3175 12.9666 9.96218L13.1144 9.66768L12.8623 9.91017C12.5927 10.1615 12.4015 10.638 12.4015 11.0538V11.2964L12.1699 11.0443C11.8366 10.6899 11.7019 10.2666 11.8064 9.88127L11.8894 9.5625L11.6934 9.8521C11.4822 10.1536 11.3945 10.6593 11.4813 11.0662L11.5318 11.3034L11.2528 11.1048C10.8527 10.827 10.6327 10.441 10.6545 10.0425L10.6692 9.71348L10.5379 10.0374C10.3943 10.3761 10.4141 10.8889 10.5837 11.2688L10.6827 11.4905L10.3683 11.354C9.91902 11.1653 9.62322 10.8333 9.56142 10.439L9.50726 10.1141L9.4464 10.458C9.37655 10.8191 9.50279 11.3167 9.7482 11.6531L9.89124 11.8493L9.55528 11.781C9.07647 11.6894 8.71789 11.426 8.57513 11.053L8.45433 10.7465L8.46657 11.0956C8.4736 11.4633 8.701 11.9238 9.01109 12.202L9.19196 12.3643L8.84902 12.3671C8.36155 12.3767 7.95579 12.1933 7.73839 11.8582L7.55631 11.5833L7.64109 11.9222C7.72467 12.2804 8.04313 12.6838 8.40454 12.8917L8.61533 13.013L8.28049 13.0867C7.80568 13.1971 7.37056 13.1018 7.08797 12.819L6.85252 12.5879L7.00612 12.9018C7.16261 13.2349 7.55831 13.5634 7.95519 13.6918L8.18673 13.7668L7.87455 13.9083C7.43314 14.1148 6.98765 14.1116 6.6522 13.8935L6.37366 13.7162L6.58938 13.9914C6.81194 14.2848 7.26754 14.5241 7.68255 14.5676L7.92461 14.593L7.64877 14.796C7.26009 15.0894 6.82367 15.1786 6.45006 15.0348L6.14062 14.9192L6.40907 15.1437C6.68798 15.3846 7.18355 15.5243 7.59856 15.4808L7.84062 15.4555L7.61322 15.7112C7.29425 16.0787 6.88597 16.2564 6.49055 16.1932L6.16375 16.1441L6.47319 16.3081C6.79631 16.486 7.31016 16.52 7.70703 16.3914L7.93857 16.3165L7.76952 16.6139C7.53416 17.0393 7.17191 17.2978 6.77192 17.3178L6.44206 17.3374L6.77895 17.4338C7.13204 17.5407 7.64179 17.4675 8.00321 17.2596L8.21404 17.1383L8.11074 17.4642C7.96928 17.9292 7.66892 18.257 7.28182 18.3595L6.96322 18.4472L7.31281 18.4715C7.68051 18.5029 8.16388 18.3258 8.47397 18.0475L8.65484 17.8851L8.62176 18.2254C8.58044 18.7094 8.35499 19.0924 7.99772 19.2728L7.70438 19.4245L8.05141 19.376C8.41767 19.3306 8.85344 19.057 9.09871 18.7206L9.24179 18.5244L9.28042 18.864C9.341 19.346 9.20038 19.7673 8.88857 20.0178L8.6333 20.227L8.96265 20.1076C9.31141 19.9874 9.68064 19.6295 9.85039 19.2496L9.94936 19.0281L10.058 19.3521C10.2178 19.8112 10.1682 20.2523 9.91544 20.562L9.70939 20.8195L10.0066 20.6344C10.3227 20.4446 10.6092 20.0181 10.696 19.6113L10.7465 19.3741L10.9204 19.6686C11.1725 20.0845 11.2161 20.5263 11.0335 20.8816L10.8857 21.1761L11.1378 20.9335C11.4073 20.6823 11.5986 20.2058 11.5986 19.7899V19.5473L11.8301 19.7995C12.1634 20.154 12.2982 20.5772 12.1938 20.9625L12.1106 21.2812L12.3066 20.9917C12.5178 20.6901 12.6055 20.1844 12.5188 19.7776L12.4682 19.5404" fill="#FCDD09"/>
</g>
<defs>
<clipPath id="clip0_1_746">
<rect width="24" height="24" fill="white"/>
</clipPath>
</defs>
</svg>
