<svg width="24" height="24" viewBox="0 0 24 24" fill="none" xmlns="http://www.w3.org/2000/svg">
<g clip-path="url(#clip0_1_1517)">
<path d="M12 24C18.6274 24 24 18.6274 24 12C24 5.37258 18.6274 0 12 0C5.37258 0 0 5.37258 0 12C0 18.6274 5.37258 24 12 24Z" fill="#2A5F9E"/>
<path d="M16.9505 15.762C16.7105 16.002 16.2305 16.242 15.9105 16.002C15.4705 16.082 15.7105 16.202 15.3105 15.922C15.0305 16.002 14.9505 16.002 14.5505 15.842C14.3505 16.202 14.1105 16.282 13.7905 16.042C13.8305 15.962 13.9105 15.882 13.9505 15.802C13.9505 15.962 13.3105 15.922 13.2705 15.922C13.6305 14.762 15.1105 13.802 15.9505 13.002C16.3505 13.722 17.4305 14.882 16.9505 15.762Z" fill="#6A4C2D"/>
<path d="M18.6311 15.8817H19.2311L18.9511 15.7617L21.3111 15.6417L20.9911 15.5217L20.6711 15.1217L19.2311 15.0017L19.1111 14.8017L18.3511 14.7217L17.9111 15.0417L18.2311 15.8417L18.6311 15.8817Z" fill="white"/>
<path d="M18.6312 11.5222C18.6712 11.4822 18.8312 11.4422 18.7912 11.2422C18.7912 11.0422 18.5912 11.0022 18.4712 11.0022C18.3512 11.0022 18.2712 11.0822 18.2712 11.0822L17.9112 10.8822C17.9112 10.8822 18.0712 9.80223 18.2712 9.72223C18.4312 9.60223 18.4712 9.52223 18.4712 9.52223L18.3912 9.40223L17.2712 9.28223L16.1912 9.40223C16.1912 9.40223 16.1112 9.52223 16.1112 9.56223C16.1112 9.60223 16.1112 9.68223 16.3112 9.80223C16.5112 9.96223 16.6712 10.8822 16.6712 10.8822L16.3512 11.0022C16.3512 11.0022 16.2312 10.9622 16.1912 10.9622C16.1512 10.9622 15.9912 11.0422 15.9912 11.2422C15.9912 11.4422 16.1512 11.5622 16.1512 11.5622C16.1512 11.5622 17.1912 11.4422 17.3112 11.7222C17.5112 11.4822 18.5112 11.6022 18.6312 11.5222Z" fill="#656263"/>
<path d="M19.7113 10.4021C19.7913 10.1621 19.9513 10.1621 20.1913 10.1621C20.6713 10.1621 20.6313 10.3221 20.7913 10.7221C20.9913 11.2821 21.3513 11.8421 21.3913 12.4821C21.4313 13.1621 21.4313 14.0821 21.1113 14.6821C20.8713 15.1221 21.3913 15.2421 21.7113 15.4021L21.4713 15.3221L21.7113 15.5221L21.4313 15.4021L21.5913 15.5621L21.1913 15.3621L21.3513 15.5221L21.0313 15.3621C21.0713 15.4421 21.1513 15.4821 21.1913 15.5621C21.1113 15.5221 21.0313 15.4821 20.9113 15.4421V15.5221C20.5913 15.2821 20.1113 15.2421 19.9913 14.8821C19.8313 14.4821 19.5113 13.8821 19.5513 13.4421C19.6713 12.5221 19.9513 11.3221 19.7113 10.4021Z" fill="#3E4347"/>
<path d="M16.7108 14.9619L16.5908 15.3619L16.7508 15.1619V15.5619L16.8708 15.3619V15.8419L16.9908 15.6019V16.0419L17.1108 15.8419L17.1908 16.2419L17.3108 15.9619L17.4708 16.2819L17.5108 16.0419L17.7508 16.3219V16.0419L18.0308 16.2819V16.1219L18.3108 16.2419V16.0819L18.6308 16.1619L18.4308 15.9619H18.6308L18.3108 15.7619H18.4708L18.1908 15.5219H18.3908L18.0708 15.2819L18.2308 15.2419L16.7108 14.9619Z" fill="#00713D"/>
<path d="M18.991 8.68168C18.871 8.68168 18.751 8.80168 18.711 9.00168C18.991 8.80168 19.551 9.00168 19.191 9.32168C19.431 9.44168 19.951 9.12168 19.551 8.72168C20.5983 8.72168 20.8181 8.04458 20.8669 7.89418C20.8684 7.88949 20.8698 7.88531 20.871 7.88168C20.671 8.16168 19.631 8.32168 19.631 8.32168C19.631 8.32168 19.951 8.04168 19.911 7.72168C19.191 7.92168 18.951 8.56168 18.991 8.68168Z" fill="white"/>
<path d="M18.071 10.1217L18.0727 10.1236C18.0922 10.1464 18.0779 10.1923 18.0545 10.2676C18.0349 10.3305 18.0089 10.414 17.991 10.5217C18.2952 10.8597 18.428 10.8835 18.5584 10.9069C18.5823 10.9112 18.6062 10.9155 18.631 10.9217C18.711 10.8817 18.871 10.7617 18.831 10.6017C18.5228 10.6017 18.1033 10.1565 18.0727 10.1236L18.0723 10.1231C18.0719 10.1226 18.0714 10.1221 18.071 10.1217Z" fill="white"/>
<path d="M15.391 9.48169C15.151 9.04169 15.551 9.04169 15.551 9.04169C15.551 9.04169 15.591 8.80169 15.631 8.72169C15.471 8.00169 14.671 7.76169 14.671 7.76169C14.671 7.76169 14.631 8.12169 14.911 8.40169C14.8019 8.31083 14.6104 8.28601 14.4075 8.25973C14.1638 8.22817 13.9038 8.19449 13.751 8.04169C13.751 8.44169 14.151 8.88169 15.071 8.92169C14.791 9.28169 15.191 9.52169 15.391 9.48169Z" fill="white"/>
<path d="M16.591 10.2817C16.591 10.2817 16.151 10.6817 15.911 10.5217C15.711 10.6417 15.511 10.4417 15.511 10.4417C15.511 10.4417 15.751 11.3617 16.671 10.6817L16.591 10.2817Z" fill="white"/>
<path d="M18.5109 8.96167H16.1509V9.44167H18.5109V8.96167Z" fill="white"/>
<path d="M15.871 11.6417H16.751C16.751 11.6417 17.311 11.6417 17.391 11.8417C17.511 11.6017 17.991 11.6017 17.991 11.6017C18.131 11.6017 18.281 11.5917 18.431 11.5817C18.581 11.5717 18.731 11.5617 18.871 11.5617V11.8816C19.191 11.6816 19.431 11.7216 19.511 11.7616C19.551 11.9216 19.551 12.2016 19.551 12.3616C19.311 12.3216 18.871 12.5616 18.871 12.5616V13.7217C18.711 14.5617 18.071 15.1617 17.431 15.4017C16.631 15.1617 16.111 14.4817 15.951 13.7217C15.951 13.0017 15.911 12.3217 15.871 11.6417Z" fill="white"/>
<path d="M16.1914 11.6415L17.4314 15.0015L18.5514 11.5615C18.1914 11.6015 17.4314 11.5215 17.3514 11.8415C17.2314 11.5215 16.4314 11.6415 16.1914 11.6415Z" fill="#006B00"/>
<path d="M17.4307 5.60187L16.7107 6.20187L16.5907 6.12187L16.6707 5.96188L16.4307 6.04187L16.5507 5.88187L16.4307 5.72187H16.5107L16.4707 5.44187L16.5507 5.52187L16.5907 5.40187L16.7907 5.92187L16.9107 5.76188L16.7507 5.28187L16.7907 5.32187L16.9507 5.16187V5.40187L17.0707 5.36187L16.9907 5.60187L17.0707 5.80187L17.2707 5.48187L17.0707 5.08187L17.1907 4.92188L17.2707 5.08187L17.3107 5.00187L17.3507 5.04187L17.3907 5.24187L17.5507 5.16187L17.4307 5.60187Z" fill="#CDAD56"/>
<path d="M15.4707 5.24186L15.5107 5.64186L16.1507 6.20186L16.2307 6.12186L16.1907 5.96186L16.3907 6.04186L16.3507 5.92186L16.3907 5.76186H16.3107L16.3507 5.52186L16.2707 5.60186L16.1907 5.52186L16.0307 5.92186L15.9507 5.80186L16.1507 5.28186L16.0707 5.40186L15.9507 5.28186V5.48186H15.7907L15.9107 5.64186L15.8307 5.84186L15.6707 5.56186L15.9107 5.20186L15.8307 5.08186L15.7107 5.24186L15.6307 5.12186L15.5507 5.32186L15.4707 5.24186Z" fill="#CDAD56"/>
<path d="M19.3909 18.9623C19.6309 18.6823 20.3509 18.4823 20.4709 18.5223C20.3509 18.3623 20.1109 18.0823 20.0309 18.0023C20.0035 17.9749 19.826 18.0226 19.704 18.0553C19.6478 18.0704 19.6035 18.0823 19.5909 18.0823C19.5909 18.0823 19.4309 18.4423 19.3909 18.9623Z" fill="#ED4C5C"/>
<path d="M15.7109 19.0423C15.4309 18.7623 14.7509 18.5623 14.6309 18.6023C14.7109 18.4423 14.9509 18.1623 15.0309 18.0823C15.1109 18.0423 15.5109 18.1623 15.5109 18.1623C15.5109 18.1623 15.6709 18.5223 15.7109 19.0423Z" fill="#ED4C5C"/>
<path d="M20.7511 16.3621C20.7111 16.2821 20.6711 16.2021 20.6311 16.2021C20.7911 16.3621 20.5111 16.7621 20.1111 16.6021C20.1911 16.8021 20.3511 17.0021 20.3511 17.0021C20.3511 17.0021 20.6711 17.2821 20.8711 17.2821C21.1111 17.2021 21.1111 17.1221 21.1111 17.0421C21.1111 16.9621 21.0311 16.8421 20.9511 16.7621C20.8711 16.6821 20.7911 16.4821 20.7511 16.3621Z" fill="#ED4C5C"/>
<path d="M14.2311 16.4021C14.3111 16.3221 14.3511 16.2821 14.3911 16.2821C14.2711 16.4421 14.5511 16.8021 14.9511 16.6821C14.8711 16.8821 14.7111 17.0821 14.7111 17.0821C14.7111 17.0821 14.3511 17.4421 14.1511 17.4421C13.9111 17.3621 13.9111 17.2021 13.9111 17.1221C13.9111 17.0727 13.9417 17.0538 13.9839 17.0277C14.01 17.0116 14.0406 16.9927 14.0711 16.9621C14.1245 16.9088 14.16 16.731 14.1897 16.5829C14.2045 16.5088 14.2178 16.4421 14.2311 16.4021Z" fill="#ED4C5C"/>
<path fill-rule="evenodd" clip-rule="evenodd" d="M18.4313 11.7615L18.2713 11.9615L18.3913 12.1215L18.1113 12.0415L18.0313 12.2815V12.0415L17.8313 12.1215L17.9913 12.2415L17.8313 12.2815L17.9513 12.3615L17.8713 12.3215L17.9513 12.4415L17.7913 12.4015L17.7113 12.7215L17.6313 12.6015L17.7913 13.3615L17.8313 12.6815L18.3513 12.3215L18.1513 12.5215H18.2313L18.0713 12.6015L18.1513 12.7215L18.0313 12.6815V12.7615L17.9913 13.0015L17.9113 13.1615H18.0313V13.3215L17.7113 13.4815L17.7913 13.8415L17.6713 13.7615L17.7513 14.0415L17.6713 14.0015V14.2015L17.6313 14.1215L17.5513 14.2015L17.4713 14.3615V14.1215L17.2713 14.2815L17.4713 13.7215L17.3913 13.7615V13.6815L17.2713 13.8015V13.6815H17.3513L17.5513 13.4015L17.5113 13.1615L17.4313 13.1215L17.3113 13.1615L17.1113 13.2415L17.0713 13.4815L16.9513 13.2015L16.9113 13.2415L16.9913 13.0815L16.9513 12.2815H16.9113L16.7913 12.2015L16.7513 12.3615L16.6713 12.1215L16.4713 12.2015L16.6313 12.0015L16.4313 11.8415L16.6713 11.8815L16.7113 11.6415L16.7513 11.9215L16.9913 11.8015L16.8313 12.0015L17.1113 11.9215L17.1913 12.0415L17.3113 11.9615L17.4713 12.2815H17.1513V12.5215H17.4713L17.3913 12.4815L17.5113 12.4415L17.4713 12.3615L17.6313 12.3215L17.5113 12.2815L17.9513 11.9615L17.7913 11.7615L18.0313 11.8815L18.1513 11.5615L18.1913 11.8015L18.4313 11.7615ZM17.1513 12.7215L17.1113 13.0015L17.4713 12.6815L17.1513 12.7215Z" fill="#FFCE31"/>
<path d="M17.2713 13.6815L17.0313 13.8015L17.1113 13.6815H17.2713Z" fill="#FFCE31"/>
<path d="M20.3113 17.0015C20.3113 17.0015 20.1913 17.0815 20.0313 17.2415C20.3513 17.4815 20.6313 17.7615 20.8313 18.1215C20.8313 18.1215 20.6313 18.2415 20.3913 18.5215C20.1513 18.2415 19.9113 18.0015 19.6313 17.8015C19.4713 18.0815 19.3513 18.4815 19.2713 19.0015C19.2713 19.0015 18.9913 18.4415 18.8713 18.4415C18.8313 18.3215 18.8713 17.9215 19.0713 17.4815C18.0313 17.0015 16.7913 17.0815 15.8313 17.5615C16.0313 18.0015 16.1113 18.4415 16.0313 18.4415C15.9113 18.4415 15.6713 19.0815 15.6713 19.0815C15.5913 18.5215 15.4713 18.1215 15.3113 17.8415C14.9913 18.0415 14.7513 18.3215 14.5513 18.6015C14.5513 18.4415 14.1113 18.1615 14.1113 18.1615C14.3513 17.8015 14.6313 17.5215 14.9513 17.2815C14.7913 17.1215 14.6713 17.0815 14.6713 17.0815C14.6713 17.0815 14.8713 16.8415 14.9113 16.6815C14.5513 16.8815 13.9913 16.2415 14.5913 16.2015C14.9913 16.2015 15.3113 16.5215 15.5513 16.9215C16.7113 16.3215 18.1513 16.2815 19.3913 16.8815C19.6313 16.4815 19.9913 16.1615 20.3913 16.1215C20.9913 16.1615 20.4713 16.8015 20.0713 16.6015C20.1113 16.7615 20.3113 17.0015 20.3113 17.0015Z" fill="#FFCE31"/>
<path d="M18.5911 11.5615H18.7511L18.4768 11.9044L18.5911 11.5615Z" fill="#1E5AA6"/>
<path d="M18.4501 11.9847L18.4311 11.9615L18.4768 11.9044L18.4501 11.9847Z" fill="#1E5AA6"/>
<path d="M18.4276 12.866L18.2311 12.6415L18.4501 11.9847L18.7911 12.4015L18.4276 12.866Z" fill="#1E5AA6"/>
<path d="M18.4213 13.7335L18.7911 13.2815L18.4276 12.866L18.1063 13.2766L18.0311 13.2015L17.9511 13.4415L18.0712 13.3215L18.0711 13.3215L18.4213 13.7335Z" fill="#1E5AA6"/>
<path d="M17.7651 14.5978L17.6311 14.4415L17.8311 13.8415L18.0905 14.1379L18.4213 13.7335L18.7511 14.1215C18.6711 14.3215 18.5911 14.4815 18.4711 14.6015L18.0925 14.185L17.7651 14.5978Z" fill="#1E5AA6"/>
<path d="M17.4383 15.0099L17.7651 14.5978L18.1111 15.0015C18.0828 15.0204 18.0522 15.0415 18.02 15.0638C17.9156 15.136 17.7934 15.2204 17.6711 15.2815L17.4383 15.0099Z" fill="#1E5AA6"/>
<path d="M17.0753 14.5864L17.4383 15.0099L17.1911 15.3215C17.0311 15.2415 16.8711 15.1615 16.7111 15.0415L17.0753 14.5864Z" fill="#1E5AA6"/>
<path d="M17.0753 14.5864L16.7111 14.1615L16.9911 13.8015L17.1911 14.4415L17.0753 14.5864Z" fill="#1E5AA6"/>
<path d="M15.9511 11.6415H16.1511L16.5111 12.5615L16.2924 12.8428L15.9111 12.4415L16.2711 12.0015L15.9511 11.6415Z" fill="#1E5AA6"/>
<path d="M16.3375 13.7086L15.9511 13.2815L16.2924 12.8428L16.6711 13.2415L16.3375 13.7086Z" fill="#1E5AA6"/>
<path d="M16.3375 13.7086L16.7111 14.1215L16.3511 14.6015C16.2711 14.4815 16.1511 14.2815 16.0711 14.0815L16.3375 13.7086Z" fill="#1E5AA6"/>
<path d="M16.8711 13.4815L16.7111 13.2815L16.7511 13.2015L16.8711 13.4815Z" fill="#1E5AA6"/>
<path d="M19.7107 10.8818C19.7907 10.8818 20.2707 10.8818 20.2707 10.9618C20.0707 11.0418 19.9507 11.1618 19.8307 11.3618C19.9507 11.5618 20.0707 11.7218 20.1907 11.9218C20.2307 12.3218 19.6707 12.7218 19.7107 13.3218C19.7507 13.7618 19.7507 14.2018 20.1107 14.4818C20.5507 14.8818 20.3507 13.6418 20.3907 13.5218C20.3907 13.4418 20.8307 13.9218 20.8307 14.0818C20.7907 14.5218 20.6307 14.2818 20.6307 14.4018C20.5107 14.8418 20.5107 15.1218 20.1107 15.1218C19.5507 14.8018 19.0307 11.6018 19.7107 10.8818Z" fill="#F5F5F5"/>
<path d="M19.2711 10.3218C19.1911 11.1218 18.6311 10.9618 18.6311 10.9618C18.615 10.9618 18.6507 10.9294 18.6991 10.8855C18.7711 10.8203 18.8711 10.7296 18.8711 10.6818C18.7911 10.1618 18.4311 10.2818 18.3911 10.3618C18.3911 10.3618 18.1111 9.72178 18.7911 9.88178C18.5553 9.41028 18.6882 9.13727 18.7361 9.03888C18.7451 9.02041 18.7511 9.0081 18.7511 9.00178C18.7511 9.00178 18.9911 8.84178 19.2311 9.00178C19.0788 9.12867 19.0876 9.48098 19.145 9.81353C19.2149 9.62162 19.4025 9.24181 19.7911 9.24181C19.8254 9.89275 19.3901 10.2209 19.2645 10.3017C19.2667 10.3085 19.2689 10.3152 19.2711 10.3218Z" fill="#0000FF"/>
<path d="M15.9111 10.5216C15.9511 10.3216 16.1111 10.2416 16.2311 10.4016C16.3911 10.4416 16.5511 9.76164 15.9911 9.88164C16.1511 9.00164 15.6711 8.68164 15.6711 8.68164C15.6711 8.68164 15.5111 9.64164 15.5911 9.84164C15.6711 10.0416 15.4711 9.52164 14.8311 9.36164C14.8311 10.0816 15.5511 10.4416 15.5511 10.4416C15.5511 10.4416 15.7111 10.6016 15.9111 10.5216Z" fill="#0000FF"/>
<path d="M16.2709 8.80203C16.2309 8.88203 16.2309 8.96203 16.1909 9.00203C16.9509 9.00203 17.6709 9.04203 18.4309 9.04203C18.3909 8.80203 18.2309 8.56203 18.1509 8.36203C18.1909 8.20203 18.1909 7.92203 18.2309 7.72203C18.2709 7.52203 17.9509 7.48203 18.0309 7.28203C17.9909 7.36203 18.2709 7.28203 18.2709 7.28203C18.1509 7.28203 18.1109 6.88203 17.9909 6.84203C17.7109 6.76203 17.5909 6.84203 17.3509 6.84203C17.0309 6.84203 16.5509 6.84203 16.6309 6.36203C16.7909 6.40203 16.9909 6.36203 17.0309 6.20203C16.9909 6.16203 16.4709 6.08203 16.3909 6.08203C16.3109 6.08203 15.7509 6.24203 15.7109 6.28203C15.8709 6.48203 16.0309 6.44203 16.1909 6.60203C16.2709 6.68203 16.3109 7.04203 16.2309 7.00203H16.3109C16.2709 7.04203 16.2309 7.08203 16.2309 7.12203H16.3909C16.3509 7.20203 16.3109 7.24203 16.2709 7.32203H16.4709C16.4309 7.40203 16.4309 7.44203 16.3909 7.52203C16.4309 7.52203 16.4709 7.48203 16.5509 7.48203C16.7109 7.84203 16.4309 8.44203 16.2709 8.80203ZM17.9509 8.40203C18.0309 8.36203 18.0309 8.36203 17.9509 8.40203V8.40203ZM17.8709 7.64203C18.1909 7.64203 18.0309 8.36203 17.9109 8.40203C17.5909 8.44203 17.6309 7.64203 17.8709 7.64203ZM17.0709 7.88203C16.9509 7.24203 17.8709 7.44203 17.5909 7.92203C17.5509 8.00203 17.3509 8.44203 17.3509 8.44203C17.1109 8.44203 17.0309 8.08203 17.0709 7.88203ZM16.6709 8.28203C16.8309 8.08203 16.5509 7.60203 16.9109 7.48203C16.9109 7.76203 16.9109 8.16203 16.7509 8.44203C16.7109 8.36203 16.6709 8.32203 16.5909 8.36203C16.6309 8.36203 16.6709 8.32203 16.6709 8.28203Z" fill="#923F00"/>
<path d="M16.1906 9.64164L17.3106 10.3616L18.3106 9.68164C18.3106 9.68164 18.5106 9.56164 18.5106 9.48164C18.5106 9.40164 18.4306 9.44164 18.3906 9.44164L17.3506 10.1616L16.2706 9.48164C16.2706 9.48164 16.1906 9.44164 16.1906 9.52164C16.1506 9.60164 16.1906 9.64164 16.1906 9.64164Z" fill="#B4B6B9"/>
<path d="M19.7505 10.4414L19.2305 10.7214L19.3505 10.8414H19.8705L19.7505 10.4414Z" fill="#FF7000"/>
<path d="M19.9105 15.0014L19.5105 15.0414L19.6305 15.1614H20.1505L19.9105 15.0014Z" fill="#FF7000"/>
<path d="M19.8705 15.4014L19.6305 15.2414L20.3505 15.1614L20.5505 15.2814L19.8705 15.4014Z" fill="#FF7000"/>
<path d="M15.111 11.0821C14.991 11.4021 15.391 11.8821 15.511 12.1621C15.791 11.8421 15.911 11.8021 15.911 12.2421C15.911 12.3621 15.951 12.5221 15.911 12.6421C15.871 12.7621 15.591 12.6821 15.711 12.8421C15.951 13.2421 15.911 13.4821 15.791 13.8821C15.751 14.0421 15.591 14.8821 15.351 14.9221C15.351 14.9221 15.391 14.3221 15.351 14.2421C15.311 14.1221 15.111 13.8421 15.191 13.7221C15.111 13.8421 14.791 14.3221 14.591 14.1621C14.671 14.3621 14.591 14.4421 14.551 14.6421C14.511 14.7621 14.511 14.9221 14.511 15.0421C14.471 15.2021 14.231 15.3621 14.271 15.6021C13.431 15.3221 12.871 14.6821 13.151 13.7621C13.231 13.5621 13.311 13.3621 13.511 13.2421C13.711 13.0821 13.751 12.8421 13.831 12.5621C13.871 12.4821 13.951 12.3621 13.951 12.2421C13.911 12.0021 14.071 11.9221 14.071 11.7621C14.111 11.4821 14.151 11.1621 14.151 10.8821C14.151 10.4421 14.311 10.4821 14.671 10.2821C14.791 10.2421 15.271 10.3221 15.391 10.4021C15.471 10.5221 15.191 11.0021 15.111 11.0821Z" fill="#8A9396"/>
<path d="M6.75984 2.44043V4.80043H3.83984L9.59984 12.0004H11.9998V9.00043L6.75984 2.44043Z" fill="white"/>
<path d="M3.6 6.75977H1.2C0.44 8.35977 0 10.1198 0 11.9998H4.8V4.75977H3.6V6.75977Z" fill="white"/>
<path d="M12.0004 10.0396L6.80039 3.59961H4.40039L11.2004 11.9996H12.0004V10.0396Z" fill="#ED4C5C"/>
<path d="M6.75961 1.2V3.6H3.59961V4.8H11.9996V0C10.1196 0 8.35961 0.44 6.75961 1.2Z" fill="white"/>
<path d="M12.0002 1.2002H6.76019C4.36019 2.3602 2.3602 4.36019 1.2002 6.76019V12.0002H3.6002V3.6002H12.0002V1.2002Z" fill="#ED4C5C"/>
</g>
<defs>
<clipPath id="clip0_1_1517">
<rect width="24" height="24" fill="white"/>
</clipPath>
</defs>
</svg>
