<svg width="24" height="24" viewBox="0 0 24 24" fill="none" xmlns="http://www.w3.org/2000/svg">
<g clip-path="url(#clip0_1_763)">
<path d="M12 24C18.6274 24 24 18.6274 24 12C24 5.37258 18.6274 0 12 0C5.37258 0 0 5.37258 0 12C0 18.6274 5.37258 24 12 24Z" fill="#F0F0F0"/>
<path d="M24.0004 11.9997C24.0004 7.24218 21.2317 3.13143 17.2178 1.19043V22.8089C21.2317 20.868 24.0004 16.7572 24.0004 11.9997Z" fill="#338AF3"/>
<path d="M0 11.9997C0 16.7572 2.76867 20.868 6.78263 22.809V1.19043C2.76867 3.13143 0 7.24218 0 11.9997Z" fill="#338AF3"/>
<path d="M15.136 14.0288L13.107 11.9997L15.0384 10.0682L14.9508 9.04815L14.3979 8.49512L12.0001 10.8929L9.6024 8.49512L9.04946 9.04815L8.96195 10.0682L10.8933 11.9997L8.86426 14.0288L9.97107 15.1355L12.0001 13.1065L14.0292 15.1355L15.136 14.0288Z" fill="#ACABB1"/>
<path d="M14.9515 9.04883L13.8447 10.1556C14.3168 10.6277 14.6088 11.2798 14.6088 12.0002C14.6088 13.441 13.4408 14.6089 12.0001 14.6089C10.5594 14.6089 9.39138 13.441 9.39138 12.0002C9.39138 11.2798 9.68341 10.6277 10.1555 10.1556L9.04872 9.04883C8.29333 9.80408 7.82617 10.8476 7.82617 12.0002C7.82617 14.3054 9.69489 16.1741 12.0001 16.1741C14.3052 16.1741 16.174 14.3054 16.174 12.0002C16.174 10.8476 15.7068 9.80413 14.9515 9.04883Z" fill="#6DA544"/>
</g>
<defs>
<clipPath id="clip0_1_763">
<rect width="24" height="24" fill="white"/>
</clipPath>
</defs>
</svg>
