<svg width="24" height="24" viewBox="0 0 24 24" fill="none" xmlns="http://www.w3.org/2000/svg">
<g clip-path="url(#clip0_1_752)">
<path d="M5.23633 21.9126C7.16214 23.2291 9.49089 23.9996 11.9998 23.9996C14.5087 23.9996 16.8374 23.2291 18.7632 21.9126L11.9998 20.8691L5.23633 21.9126Z" fill="#D80027"/>
<path d="M18.7632 2.08697C16.8374 0.770484 14.5087 0 11.9998 0C9.49089 0 7.16214 0.770484 5.23633 2.08697L11.9998 3.13045L18.7632 2.08697Z" fill="#D80027"/>
<path d="M24 11.9999C24 8.02916 21.6227 4.04151 18.7635 2.08691H5.23655C2.07516 4.24804 0 7.88151 0 11.9999C0 16.1185 2.07516 19.7519 5.23655 21.913H18.7635C21.9249 19.7519 24 16.1185 24 11.9999Z" fill="#0052B4"/>
<path d="M11.3213 19.5746C11.1573 19.434 7.30469 16.0848 7.30469 11.9997C7.30469 7.91462 11.1572 4.56545 11.3213 4.42487L12.0003 3.84277L12.6794 4.42482C12.8434 4.56545 16.696 7.91457 16.696 11.9997C16.696 16.0849 12.8434 19.4341 12.6794 19.5746L12.0003 20.1567L11.3213 19.5746Z" fill="#D80027"/>
<path d="M15.652 12.0004C15.652 8.34823 11.9998 5.21777 11.9998 5.21777C11.9998 5.21777 8.34766 8.34832 8.34766 12.0004C8.34766 13.1177 8.6897 14.1859 9.16417 15.1309H14.8355C15.31 14.1859 15.652 13.1177 15.652 12.0004Z" fill="#338AF3"/>
<path d="M15.652 12C15.652 13.1173 15.31 14.1855 14.8355 15.1305L11.9998 15.6522L9.16417 15.1305C8.6897 14.1855 8.34766 13.1173 8.34766 12H15.652Z" fill="#0052B4"/>
<path d="M11.9997 18.783C11.9997 18.783 13.7588 17.2747 14.8354 15.1309H9.16406C10.2406 17.2747 11.9997 18.783 11.9997 18.783Z" fill="#FFDA44"/>
<path d="M9.65234 9.91309H14.348L12.0002 12.2609L9.65234 9.91309Z" fill="#6DA544"/>
<path d="M11.2178 11.4785H12.783V16.1742H11.2178V11.4785Z" fill="#A2001D"/>
</g>
<defs>
<clipPath id="clip0_1_752">
<rect width="24" height="24" fill="white"/>
</clipPath>
</defs>
</svg>
