<svg width="24" height="24" viewBox="0 0 24 24" fill="none" xmlns="http://www.w3.org/2000/svg">
<g clip-path="url(#clip0_1_801)">
<path d="M12 24C18.6274 24 24 18.6274 24 12C24 5.37258 18.6274 0 12 0C5.37258 0 0 5.37258 0 12C0 18.6274 5.37258 24 12 24Z" fill="#F0F0F0"/>
<path d="M11.9997 24.0004C16.7572 24.0004 20.868 21.2317 22.809 17.2178H1.19043C3.13143 21.2317 7.24218 24.0004 11.9997 24.0004Z" fill="#338AF3"/>
<path d="M11.9997 0C7.24218 0 3.13143 2.76867 1.19043 6.78263H22.8089C20.868 2.76867 16.7572 0 11.9997 0Z" fill="#338AF3"/>
<path d="M7.38504 7.82617L7.77354 9.02191H9.03077L8.01368 9.76084L8.40223 10.9566L7.38504 10.2176L6.36785 10.9566L6.7564 9.76084L5.73926 9.02191H6.99649L7.38504 7.82617Z" fill="#338AF3"/>
<path d="M7.38504 13.0439L7.77354 14.2397H9.03077L8.01368 14.9787L8.40223 16.1744L7.38504 15.4354L6.36785 16.1744L6.7564 14.9787L5.73926 14.2397H6.99649L7.38504 13.0439Z" fill="#338AF3"/>
<path d="M16.6145 7.82617L17.0031 9.02191H18.2603L17.2432 9.76084L17.6317 10.9566L16.6145 10.2176L15.5973 10.9566L15.9859 9.76084L14.9688 9.02191H16.226L16.6145 7.82617Z" fill="#338AF3"/>
<path d="M16.6145 13.0439L17.0031 14.2397H18.2603L17.2432 14.9787L17.6317 16.1744L16.6145 15.4354L15.5973 16.1744L15.9859 14.9787L14.9688 14.2397H16.226L16.6145 13.0439Z" fill="#338AF3"/>
<path d="M11.9993 10.4346L12.3878 11.6304H13.6451L12.6279 12.3693L13.0165 13.565L11.9993 12.826L10.9821 13.565L11.3707 12.3693L10.3535 11.6304H11.6107L11.9993 10.4346Z" fill="#338AF3"/>
</g>
<defs>
<clipPath id="clip0_1_801">
<rect width="24" height="24" fill="white"/>
</clipPath>
</defs>
</svg>
