<svg width="24" height="24" viewBox="0 0 24 24" fill="none" xmlns="http://www.w3.org/2000/svg">
<g clip-path="url(#clip0_1_440)">
<path d="M24 12.0003C24 10.5325 23.736 9.12639 23.2536 7.82645L12 7.30469L0.746391 7.82641C0.264047 9.12639 0 10.5325 0 12.0003C0 13.4682 0.264047 14.8743 0.746391 16.1742L12 16.696L23.2536 16.1743C23.736 14.8743 24 13.4682 24 12.0003Z" fill="#F0F0F0"/>
<path d="M11.9997 23.9999C17.1593 23.9999 21.5578 20.7434 23.2533 16.1738H0.746094C2.44161 20.7434 6.84012 23.9999 11.9997 23.9999Z" fill="#0052B4"/>
<path d="M0.746094 7.82611H23.2534C21.5578 3.2565 17.1593 0 11.9997 0C6.84013 0 2.44161 3.2565 0.746094 7.82611Z" fill="#D80027"/>
<path d="M15.1309 8.34753H13.0439L13.3918 5.7388L14.7831 4.69531L16.1744 5.7388V7.82577L15.1309 8.34753Z" fill="#338AF3"/>
<path d="M8.86961 8.34753H10.9566L10.6087 5.7388L9.21742 4.69531L7.82617 5.7388V7.82577L8.86961 8.34753Z" fill="#338AF3"/>
<path d="M13.3911 8.34753H10.6084V5.7388L11.9997 4.69531L13.3911 5.7388V8.34753Z" fill="#0052B4"/>
<path d="M7.82617 7.82617V13.5653C7.82617 14.9318 8.48627 16.1471 9.50439 16.909L10.2348 16.7262L11.1566 17.6535C11.4292 17.7096 11.7112 17.7392 12.0001 17.7392C12.2875 17.7392 12.5681 17.71 12.8392 17.6544L13.8914 16.7783L14.4957 16.9073C15.5134 16.1455 16.174 14.9314 16.174 13.5653V7.82617H7.82617Z" fill="#F0F0F0"/>
<path d="M7.82617 7.82617H9.49572V9.49572H7.82617V7.82617Z" fill="#D80027"/>
<path d="M11.165 7.82617H12.8346V9.49572H11.165V7.82617Z" fill="#D80027"/>
<path d="M14.5049 7.82617H16.1744V9.49572H14.5049V7.82617Z" fill="#D80027"/>
<path d="M9.49609 9.49609H11.1656V11.1656H9.49609V9.49609Z" fill="#D80027"/>
<path d="M12.835 9.49609H14.5045V11.1656H12.835V9.49609Z" fill="#D80027"/>
<path d="M7.82617 11.165H9.49572V12.8346H7.82617V11.165Z" fill="#D80027"/>
<path d="M9.49609 12.834H11.1656V14.5035H9.49609V12.834Z" fill="#D80027"/>
<path d="M11.165 11.165H12.8346V12.8346H11.165V11.165Z" fill="#D80027"/>
<path d="M14.5049 11.165H16.1744V12.8346H14.5049V11.165Z" fill="#D80027"/>
<path d="M12.835 12.834H14.5045V14.5035H12.835V12.834Z" fill="#D80027"/>
<path d="M11.165 14.5039H12.8346V16.1735H11.165V14.5039Z" fill="#D80027"/>
<path d="M9.49542 14.5039H7.93359C8.07684 15.1245 8.35847 15.6924 8.74463 16.1735H9.49542V14.5039Z" fill="#D80027"/>
<path d="M14.5049 16.1735H15.2556C15.6419 15.6924 15.9234 15.1245 16.0667 14.5039H14.5049V16.1735Z" fill="#D80027"/>
<path d="M9.49609 16.1738V16.9023C9.98167 17.2677 10.5491 17.5297 11.1656 17.6554V16.1738H9.49609Z" fill="#D80027"/>
<path d="M12.835 16.1738V17.6554C13.4515 17.5298 14.0189 17.2677 14.5045 16.9023V16.1738H12.835Z" fill="#D80027"/>
</g>
<defs>
<clipPath id="clip0_1_440">
<rect width="24" height="24" fill="white"/>
</clipPath>
</defs>
</svg>
