<svg width="24" height="24" viewBox="0 0 24 24" fill="none" xmlns="http://www.w3.org/2000/svg">
<g clip-path="url(#clip0_1_858)">
<path d="M12 24C18.6274 24 24 18.6274 24 12C24 5.37258 18.6274 0 12 0C5.37258 0 0 5.37258 0 12C0 18.6274 5.37258 24 12 24Z" fill="#D80027"/>
<path d="M16.4427 8.04441L15.5946 11.0712L13.0497 10.6013L11.4116 7.22461L6.98629 8.79497L6.6373 7.81153L5.47949 7.66889L6.35188 10.1274L9.3973 9.34861L10.2628 11.7875L8.15751 14.8944L11.7302 17.9416L11.053 18.7355L11.5084 19.8096L13.2014 17.8247L11.0042 15.5767L12.6836 13.6079L16.4269 13.8776L17.2795 9.25992L18.3057 9.44944L19.0083 8.51803L16.4427 8.04441Z" fill="#F0F0F0"/>
</g>
<defs>
<clipPath id="clip0_1_858">
<rect width="24" height="24" fill="white"/>
</clipPath>
</defs>
</svg>
