<svg width="24" height="24" viewBox="0 0 24 24" fill="none" xmlns="http://www.w3.org/2000/svg">
<g clip-path="url(#clip0_1_831)">
<path d="M24 12C24 13.7844 23.6105 15.4779 22.9119 17H1.08808C0.389487 15.4779 0 13.7844 0 12C0 10.2156 0.389487 8.52211 1.08808 7H22.9119C23.6105 8.52211 24 10.2156 24 12Z" fill="white"/>
<path d="M11.9998 0C7.15682 0 2.98391 2.86894 1.08789 7H22.9117C21.0157 2.86894 16.8428 0 11.9998 0Z" fill="#006934"/>
<path d="M11.9998 24C16.8428 24 21.0157 21.1311 22.9117 17H1.08789C2.98391 21.1311 7.15682 24 11.9998 24Z" fill="#006934"/>
<path d="M22.9117 7H1.08789C2.98391 2.86894 7.15682 0 11.9998 0C16.8428 0 21.0157 2.86894 22.9117 7Z" fill="#F15B25"/>
<path d="M22.9117 17C21.0157 21.1311 16.8428 24 11.9998 24C7.15682 24 2.98391 21.1311 1.08789 17H22.9117Z" fill="#006934"/>
<path fill-rule="evenodd" clip-rule="evenodd" d="M16 12C16 14.2091 14.2091 16 12 16C9.79086 16 8 14.2091 8 12C8 9.79086 9.79086 8 12 8C14.2091 8 16 9.79086 16 12ZM12.3011 15.4465C12.2019 15.4551 12.1014 15.4595 12 15.4595C11.8985 15.4595 11.7981 15.4551 11.6989 15.4465C11.708 15.3649 11.6501 15.2906 11.5682 15.2798C11.4862 15.269 11.411 15.326 11.3988 15.4074C11.1983 15.3723 11.0038 15.3199 10.8169 15.2519C10.8473 15.1752 10.8106 15.088 10.7341 15.0563C10.6576 15.0246 10.5701 15.0603 10.5373 15.1359C10.3542 15.0504 10.1798 14.9493 10.0159 14.8343C10.0647 14.7681 10.0517 14.6748 9.98615 14.6245C9.9207 14.5743 9.82728 14.5858 9.77594 14.6499C9.62198 14.5205 9.47946 14.378 9.3501 14.2241C9.41419 14.1727 9.42573 14.0793 9.3755 14.0138C9.32523 13.9483 9.23189 13.9353 9.1657 13.9841C9.05073 13.8202 8.94962 13.6458 8.86408 13.4627C8.93973 13.4299 8.97537 13.3424 8.9437 13.2659C8.91201 13.1895 8.82485 13.1527 8.74815 13.1831C8.6801 12.9962 8.62772 12.8017 8.5926 12.6012C8.67402 12.589 8.73097 12.5138 8.72018 12.4318C8.7094 12.35 8.63513 12.292 8.55346 12.3011C8.54491 12.2019 8.54054 12.1015 8.54054 12L10.6223 12.1297L11.3094 12.0432C11.3114 12.0751 11.3155 12.1064 11.3217 12.137L10.6357 12.2313L8.65839 12.8954L10.7028 12.4819L11.344 12.2206C11.3541 12.2506 11.3662 12.2798 11.3802 12.3079L10.742 12.5765L9.00401 13.7297L10.8717 12.8012L11.4235 12.3828C11.441 12.4091 11.4603 12.4341 11.4811 12.4577L10.9341 12.8824L9.55383 14.4462L11.1176 13.0659L11.5423 12.5189C11.5659 12.5397 11.5909 12.559 11.6172 12.5765L11.1988 13.1283L10.2703 14.996L11.4235 13.258L11.6921 12.6198C11.7202 12.6338 11.7494 12.6459 11.7794 12.656L11.5181 13.2972L11.1046 15.3416L11.7687 13.3643L11.863 12.6783C11.8936 12.6845 11.9249 12.6886 11.9567 12.6906L11.8703 13.3777L12 15.4595L12.1297 13.3777L12.0432 12.6906C12.0751 12.6886 12.1064 12.6845 12.1369 12.6783L12.2312 13.3643L12.8953 15.3416L12.4818 13.2972L12.2205 12.656C12.2506 12.6459 12.2798 12.6338 12.3079 12.6198L12.5765 13.258L13.7297 14.996L12.8012 13.1283L12.3827 12.5765C12.4091 12.559 12.4341 12.5397 12.4577 12.5189L12.8824 13.0659L14.4462 14.4462L13.0659 12.8824L12.5189 12.4577C12.5397 12.4341 12.5589 12.4091 12.5764 12.3828L13.1282 12.8012L14.9959 13.7297L13.2579 12.5765L12.6198 12.3079C12.6338 12.2798 12.6459 12.2506 12.656 12.2206L13.2972 12.4819L15.3416 12.8954L13.3643 12.2313L12.6783 12.137C12.6845 12.1064 12.6886 12.0751 12.6906 12.0432L13.3777 12.1297L15.4595 12L13.3777 11.8703L12.6906 11.9567C12.6886 11.9249 12.6845 11.8936 12.6783 11.863L13.3643 11.7687L15.3416 11.1046L13.2972 11.5181L12.656 11.7794C12.6459 11.7494 12.6338 11.7202 12.6198 11.6921L13.258 11.4235L14.996 10.2703L13.1283 11.1988L12.5765 11.6172C12.559 11.5909 12.5397 11.5659 12.5189 11.5423L13.0659 11.1176L14.4462 9.55381L12.8824 10.9341L12.4577 11.4811C12.4341 11.4603 12.4091 11.441 12.3828 11.4235L12.8012 10.8717L13.7297 9.00401L12.5765 10.742L12.3079 11.3802C12.2798 11.3662 12.2507 11.3541 12.2206 11.344L12.4819 10.7028L12.8954 8.6584L12.2313 10.6357L12.137 11.3217C12.1064 11.3155 12.0751 11.3114 12.0432 11.3094L12.1297 10.6223L12 8.54054C12.1015 8.54054 12.2019 8.54491 12.3011 8.55347C12.2921 8.63514 12.35 8.70943 12.4318 8.7202C12.5138 8.73099 12.5891 8.67404 12.6013 8.5926C12.8017 8.62773 12.9962 8.68011 13.1832 8.74815C13.1528 8.82485 13.1895 8.91201 13.266 8.9437C13.3424 8.97537 13.43 8.93974 13.4627 8.86409C13.6458 8.94963 13.8202 9.05074 13.9841 9.16571C13.9354 9.23189 13.9484 9.32522 14.0139 9.37548C14.0793 9.4257 14.1727 9.41418 14.2241 9.35011C14.378 9.47947 14.5206 9.62199 14.6499 9.77594C14.5858 9.82729 14.5743 9.92069 14.6245 9.98614C14.6748 10.0517 14.7681 10.0647 14.8343 10.0159C14.9493 10.1798 15.0504 10.3542 15.1359 10.5373C15.0603 10.57 15.0246 10.6576 15.0563 10.734C15.088 10.8105 15.1751 10.8472 15.2518 10.8168C15.3199 11.0038 15.3723 11.1983 15.4074 11.3988C15.326 11.411 15.269 11.4862 15.2798 11.5682C15.2906 11.65 15.3649 11.7079 15.4465 11.6989C15.4551 11.7981 15.4595 11.8985 15.4595 12C15.4595 12.1014 15.4551 12.2019 15.4465 12.3011C15.3649 12.292 15.2906 12.3499 15.2798 12.4318C15.269 12.5138 15.326 12.589 15.4074 12.6012C15.3723 12.8017 15.3199 12.9962 15.2518 13.1832C15.1751 13.1528 15.088 13.1895 15.0563 13.266C15.0246 13.3424 15.0603 13.43 15.1359 13.4627C15.0504 13.6458 14.9493 13.8202 14.8343 13.9841C14.7681 13.9353 14.6747 13.9483 14.6245 14.0138C14.5742 14.0793 14.5858 14.1727 14.6499 14.2241C14.5205 14.378 14.378 14.5206 14.224 14.6499C14.1727 14.5858 14.0793 14.5743 14.0138 14.6245C13.9483 14.6748 13.9353 14.7681 13.9841 14.8343C13.8202 14.9493 13.6458 15.0504 13.4627 15.1359C13.43 15.0603 13.3424 15.0246 13.2659 15.0563C13.1895 15.088 13.1527 15.1751 13.1831 15.2519C12.9962 15.3199 12.8016 15.3723 12.6012 15.4074C12.589 15.326 12.5137 15.269 12.4318 15.2798C12.3499 15.2906 12.292 15.3649 12.3011 15.4465ZM12 8.54054C11.8985 8.54054 11.7981 8.54491 11.6989 8.55346C11.7079 8.63513 11.65 8.7094 11.5682 8.72018C11.4862 8.73097 11.411 8.67402 11.3988 8.5926C11.1983 8.62773 11.0038 8.68011 10.8168 8.74816C10.8472 8.82486 10.8105 8.91201 10.734 8.9437C10.6576 8.97536 10.57 8.93974 10.5372 8.8641C10.3542 8.94964 10.1798 9.05074 10.0159 9.1657C10.0647 9.23189 10.0517 9.32523 9.98614 9.3755C9.92069 9.42573 9.82727 9.41419 9.77593 9.35011C9.69895 9.41479 9.62483 9.48276 9.55378 9.5538L11.1175 10.9341L11.5423 11.4811C11.5659 11.4603 11.5909 11.441 11.6172 11.4235L11.1988 10.8717L10.2702 9.00401L11.4235 10.742L11.6921 11.3802C11.7202 11.3662 11.7493 11.3541 11.7794 11.344L11.5181 10.7028L11.1046 8.65844L11.7687 10.6357L11.863 11.3217C11.8936 11.3155 11.9249 11.3114 11.9567 11.3094L11.8703 10.6223L12 8.54054ZM11.4811 11.5423L10.9341 11.1176L9.55378 9.5538C9.48274 9.62485 9.41477 9.69897 9.3501 9.77594C9.41417 9.82729 9.42571 9.9207 9.37548 9.98615C9.32521 10.0517 9.23188 10.0647 9.16569 10.0159C9.05073 10.1798 8.94963 10.3542 8.86409 10.5373C8.93974 10.57 8.97537 10.6576 8.9437 10.734C8.91201 10.8105 8.82485 10.8472 8.74816 10.8168C8.68011 11.0038 8.62773 11.1983 8.5926 11.3988C8.67404 11.411 8.73099 11.4862 8.7202 11.5682C8.70943 11.6501 8.63514 11.708 8.55346 11.6989C8.54491 11.7981 8.54054 11.8985 8.54054 12L10.6223 11.8703L11.3094 11.9567C11.3114 11.9249 11.3155 11.8936 11.3217 11.863L10.6357 11.7687L8.6584 11.1046L10.7028 11.5181L11.344 11.7794C11.3541 11.7494 11.3662 11.7202 11.3802 11.6921L10.742 11.4235L9.00401 10.2703L10.8717 11.1988L11.4235 11.6173C11.441 11.5909 11.4603 11.5659 11.4811 11.5423Z" fill="#2C2C6F"/>
</g>
<defs>
<clipPath id="clip0_1_831">
<rect width="24" height="24" fill="white"/>
</clipPath>
</defs>
</svg>
