<svg width="24" height="24" viewBox="0 0 24 24" fill="none" xmlns="http://www.w3.org/2000/svg">
<g clip-path="url(#clip0_1_846)">
<path d="M12 24C18.6274 24 24 18.6274 24 12C24 5.37258 18.6274 0 12 0C5.37258 0 0 5.37258 0 12C0 18.6274 5.37258 24 12 24Z" fill="#F0F0F0"/>
<path d="M11.9997 0C6.84013 0 2.44161 3.2565 0.746094 7.82611H23.2534C21.5578 3.2565 17.1593 0 11.9997 0Z" fill="#A2001D"/>
<path d="M11.9997 23.9999C17.1593 23.9999 21.5578 20.7434 23.2533 16.1738H0.746094C2.44161 20.7434 6.84012 23.9999 11.9997 23.9999Z" fill="black"/>
<path d="M9.13039 11.217C9.12383 11.217 9.11741 11.2174 9.11084 11.2175V11.217H6.81692C6.93322 10.7676 7.34094 10.4343 7.82605 10.4343V8.86914C6.38759 8.86914 5.21736 10.0394 5.21736 11.4778V12.7561V12.7822H9.11084H9.13039C9.27425 12.7822 9.39125 12.8993 9.39125 13.0431V13.5648H4.17383V15.13H10.9565V13.043C10.9565 12.0362 10.1373 11.217 9.13039 11.217Z" fill="#496E2D"/>
<path d="M13.0437 13.5648V8.86914H11.4785V15.13H14.0872V13.5648H13.0437Z" fill="#496E2D"/>
<path d="M18.2606 13.5648V8.86914H16.6954V13.5648H16.1736V11.9996H14.6084V15.1301H19.3041V13.5648H18.2606Z" fill="#496E2D"/>
</g>
<defs>
<clipPath id="clip0_1_846">
<rect width="24" height="24" fill="white"/>
</clipPath>
</defs>
</svg>
