<svg width="24" height="24" viewBox="0 0 24 24" fill="none" xmlns="http://www.w3.org/2000/svg">
<g clip-path="url(#clip0_1_841)">
<path d="M12 24C18.6274 24 24 18.6274 24 12C24 5.37258 18.6274 0 12 0C5.37258 0 0 5.37258 0 12C0 18.6274 5.37258 24 12 24Z" fill="#F0F0F0"/>
<path d="M15.8976 8.86919H14.3275C14.3405 9.04173 14.3479 9.21583 14.3479 9.39091C14.3479 10.5517 14.0577 11.6769 13.5519 12.4778C13.3958 12.7248 13.1336 13.0736 12.7826 13.309V8.86914H11.2174V13.309C10.8665 13.0736 10.6042 12.7248 10.4481 12.4778C9.94227 11.6769 9.65216 10.5517 9.65216 9.39091C9.65216 9.21583 9.65957 9.04169 9.67251 8.86919H8.10248C8.0924 9.04089 8.08691 9.2148 8.08691 9.39091C8.08691 12.6092 9.80573 15.13 11.9999 15.13C14.1942 15.13 15.913 12.6092 15.913 9.39091C15.9131 9.2148 15.9076 9.04089 15.8976 8.86919Z" fill="#D80027"/>
<path d="M4.95623 5.73914H6.52143V6.78263H8.08663V5.73914H9.65184V6.78263H11.217V5.73914H12.7822V6.78263H14.3474V5.73914H15.9126V6.78263H17.4779V5.73914H19.0431V6.78263H22.8089C20.868 2.76867 16.7572 0 11.9997 0C7.24223 0 3.13143 2.76867 1.19043 6.78263H4.95623V5.73914Z" fill="#6DA544"/>
<path d="M19.0432 17.2178V18.2613H17.478V17.2178H15.9128V18.2613H14.3476V17.2178H12.7824V18.2613H11.2172V17.2178H9.65198V18.2613H8.08677V17.2178H6.52143V18.2613H4.95623V17.2178H1.19043C3.13143 21.2317 7.24218 24.0004 11.9997 24.0004C16.7572 24.0004 20.868 21.2317 22.809 17.2178H19.0432Z" fill="#D80027"/>
</g>
<defs>
<clipPath id="clip0_1_841">
<rect width="24" height="24" fill="white"/>
</clipPath>
</defs>
</svg>
