<svg width="24" height="24" viewBox="0 0 24 24" fill="none" xmlns="http://www.w3.org/2000/svg">
<g clip-path="url(#clip0_1_884)">
<path d="M12 24C18.6274 24 24 18.6274 24 12C24 5.37258 18.6274 0 12 0C5.37258 0 0 5.37258 0 12C0 18.6274 5.37258 24 12 24Z" fill="#F0F0F0"/>
<path d="M21.5199 19.3064L14.2133 11.9998H14.2132L21.5199 4.69302C21.2048 4.28352 20.8601 3.88954 20.485 3.5144C20.1099 3.1393 19.7159 2.79454 19.3064 2.47949L11.9998 9.78613L11.9997 9.78618L4.69307 2.47949C4.28362 2.79459 3.88959 3.13926 3.51445 3.5144C3.1393 3.88954 2.79459 4.28352 2.47954 4.69302L9.78618 11.9996L9.78623 11.9997L2.47949 19.3064C2.79463 19.7159 3.13935 20.1099 3.5144 20.485C3.88954 20.8601 4.28348 21.2049 4.69302 21.5199L11.9997 14.2133L11.9998 14.2132L19.3064 21.5199C19.7159 21.2048 20.1099 20.8601 20.485 20.485C20.8602 20.1098 21.2048 19.7158 21.5199 19.3064Z" fill="#D80027"/>
<path d="M9.91309 3.65263L12.0001 4.17435L14.087 3.65263V1.87874L13.2522 2.29612L12.0001 1.04395L10.7479 2.29612L9.91309 1.87874V3.65263Z" fill="#FFDA44"/>
<path d="M9.91309 3.65234V4.95678C9.91309 6.55428 12.0001 7.04375 12.0001 7.04375C12.0001 7.04375 14.087 6.55423 14.087 4.95678V3.65234H9.91309Z" fill="#D80027"/>
</g>
<defs>
<clipPath id="clip0_1_884">
<rect width="24" height="24" fill="white"/>
</clipPath>
</defs>
</svg>
