<svg width="24" height="24" viewBox="0 0 24 24" fill="none" xmlns="http://www.w3.org/2000/svg">
<g clip-path="url(#clip0_1_917)">
<path d="M0 12C0 5.37262 5.37262 0 12 0C18.6274 0 24 5.37262 24 12" fill="#D80027"/>
<path d="M16.174 11.16L14.4684 11.9622L15.3767 13.614L13.5247 13.2597L13.29 15.1305L12.0001 13.7545L10.7101 15.1305L10.4755 13.2597L8.62347 13.6139L9.53167 11.9622L7.82617 11.16L9.53167 10.3577L8.62347 8.70605L10.4754 9.06023L10.7101 7.18945L12.0001 8.56537L13.2901 7.18945L13.5247 9.06023L15.3767 8.70605L14.4685 10.3578L16.174 11.16Z" fill="#FFDA44"/>
<path d="M15.13 3.91348H12.7822C12.7822 3.48134 12.4318 3.13086 11.9996 3.13086C11.5674 3.13086 11.217 3.4813 11.217 3.91348H8.86914C8.86914 4.34567 9.24564 4.69611 9.67783 4.69611H9.65172C9.65172 5.1283 10.0021 5.47873 10.4343 5.47873C10.4343 5.91092 10.7847 6.26136 11.217 6.26136H12.7822C13.2143 6.26136 13.5648 5.91097 13.5648 5.47873C13.9969 5.47873 14.3474 5.12834 14.3474 4.69611H14.3213C14.7535 4.69611 15.13 4.34572 15.13 3.91348Z" fill="#FFDA44"/>
<path d="M24 12C24 18.6274 18.6274 24 12 24C5.37262 24 0 18.6274 0 12H24Z" fill="#F0F0F0"/>
<path d="M12.0004 24C15.7515 24 19.0999 22.2785 21.3005 19.583C20.9047 19.3132 20.691 18.877 20.0003 18.877C19.0003 18.877 19.0003 19.7913 18.0003 19.7913C17.0004 19.7913 17.0004 18.877 16.0004 18.877C15.0004 18.877 15.0004 19.7913 14.0004 19.7913C13.0004 19.7913 13.0003 18.877 12.0002 18.877C11.0003 18.877 11.0003 19.7913 10.0003 19.7913C9.00048 19.7913 9.00048 18.877 8.00049 18.877C7.00041 18.877 7.00041 19.7913 6.00034 19.7913C5.00026 19.7913 5.00026 18.877 4.00018 18.877C3.30952 18.877 3.09582 19.3131 2.7002 19.5829C4.9007 22.2785 8.24935 24 12.0004 24Z" fill="#0052B4"/>
<path d="M21.9999 13.5306C20.9999 13.5306 20.9999 12.6162 19.9998 12.6162C18.9999 12.6162 18.9999 13.5306 17.9999 13.5306C17 13.5306 16.9999 12.6162 16 12.6162C15 12.6162 15 13.5306 14 13.5306C13 13.5306 12.9999 12.6162 11.9998 12.6162C10.9998 12.6162 10.9998 13.5306 9.99991 13.5306C9.00006 13.5306 9.00006 12.6162 8.00008 12.6162C7 12.6162 7 13.5306 5.99992 13.5306C4.99984 13.5306 4.99984 12.6162 3.99977 12.6162C2.99992 12.6162 2.99992 13.5306 1.99994 13.5306C1.00534 13.5306 0.999578 12.6263 0.015625 12.6166C0.0433281 13.1655 0.108859 13.7044 0.207953 14.2314C1.00502 14.3485 1.07481 15.1305 1.99998 15.1305C2.99997 15.1305 2.99997 14.2163 3.99981 14.2163C4.99989 14.2163 4.99989 15.1305 5.99997 15.1305C7.00005 15.1305 7.00005 14.2163 8.00013 14.2163C9.00011 14.2163 9.00011 15.1305 9.99995 15.1305C10.9999 15.1305 10.9999 14.2163 11.9999 14.2163C13 14.2163 13 15.1305 14 15.1305C15.0001 15.1305 15.0001 14.2163 16 14.2163C17 14.2163 17 15.1305 18 15.1305C18.9999 15.1305 19 14.2163 19.9999 14.2163C21 14.2163 21 15.1305 21.9999 15.1305C22.9252 15.1305 22.995 14.3486 23.7921 14.2314C23.8912 13.7044 23.9567 13.1656 23.9845 12.6167C23.0004 12.6264 22.9945 13.5306 21.9999 13.5306Z" fill="#0052B4"/>
<path d="M19.9998 15.7471C18.9998 15.7471 18.9998 16.6614 17.9998 16.6614C16.9999 16.6614 16.9999 15.7471 15.9999 15.7471C14.9999 15.7471 14.9999 16.6614 13.9999 16.6614C12.9998 16.6614 12.9998 15.7471 11.9998 15.7471C10.9998 15.7471 10.9998 16.6614 9.99983 16.6614C8.99998 16.6614 8.99998 15.7471 8 15.7471C6.99992 15.7471 6.99992 16.6614 5.99984 16.6614C4.99977 16.6614 4.99977 15.7471 3.99969 15.7471C2.99984 15.7471 2.99984 16.6614 1.99986 16.6614C1.28534 16.6614 1.08125 16.1947 0.658203 15.9281C0.939828 16.7418 1.3062 17.5159 1.74744 18.2394C1.82417 18.2536 1.9077 18.2614 1.99986 18.2614C2.99984 18.2614 2.99984 17.3471 3.99969 17.3471C4.99977 17.3471 4.99977 18.2614 5.99984 18.2614C6.99992 18.2614 6.99992 17.3471 8 17.3471C8.99998 17.3471 8.99998 18.2614 9.99983 18.2614C10.9998 18.2614 10.9998 17.3471 11.9998 17.3471C12.9998 17.3471 12.9998 18.2614 13.9999 18.2614C15 18.2614 15 17.3471 15.9999 17.3471C16.9999 17.3471 16.9999 18.2614 17.9998 18.2614C18.9998 18.2614 18.9998 17.3471 19.9998 17.3471C20.9998 17.3471 20.9998 18.2614 21.9998 18.2614C22.092 18.2614 22.1756 18.2536 22.2523 18.2394C22.6935 17.5159 23.0599 16.7418 23.3416 15.9281C22.9185 16.1946 22.7144 16.6614 21.9998 16.6614C20.9998 16.6614 20.9998 15.7471 19.9998 15.7471Z" fill="#0052B4"/>
<path d="M23.9628 11.0518C23.0004 11.0745 22.9872 11.9651 21.9998 11.9651C20.9999 11.9651 20.9999 11.0508 19.9998 11.0508C18.9998 11.0508 18.9998 11.9651 17.9999 11.9651C17 11.9651 16.9999 11.0508 16 11.0508C15 11.0508 15 11.9651 14 11.9651C12.9999 11.9651 12.9999 11.0508 11.9998 11.0508C10.9998 11.0508 10.9998 11.9651 9.99989 11.9651C9.00005 11.9651 9.00005 11.0508 8.00006 11.0508C6.99998 11.0508 6.99998 11.9651 5.99991 11.9651C4.99983 11.9651 4.99983 11.0508 3.99975 11.0508C2.99991 11.0508 2.99991 11.9651 1.99992 11.9651C1.01278 11.9651 0.999422 11.0746 0.0371719 11.0518C0.01275 11.3647 0 11.6808 0 11.9999C0 12.2184 0.0061875 12.4356 0.0178594 12.6513C0.999563 12.6623 1.00608 13.5651 1.99997 13.5651C2.99995 13.5651 2.99995 12.6508 3.9998 12.6508C4.99988 12.6508 4.99988 13.5651 5.99995 13.5651C7.00003 13.5651 7.00003 12.6508 8.00011 12.6508C9.00009 12.6508 9.00009 13.5651 9.99994 13.5651C10.9999 13.5651 10.9999 12.6508 11.9999 12.6508C12.9999 12.6508 12.9999 13.5651 14 13.5651C15.0001 13.5651 15.0001 12.6508 16 12.6508C17 12.6508 17 13.5651 18 13.5651C18.9999 13.5651 18.9999 12.6508 19.9999 12.6508C21 12.6508 21 13.5651 21.9999 13.5651C22.9939 13.5651 23.0004 12.6623 23.9823 12.6513C23.9938 12.4356 24 12.2184 24 11.9999C24 11.6808 23.9872 11.3647 23.9628 11.0518Z" fill="#F0F0F0"/>
</g>
<defs>
<clipPath id="clip0_1_917">
<rect width="24" height="24" fill="white"/>
</clipPath>
</defs>
</svg>
