<svg width="24" height="24" viewBox="0 0 24 24" fill="none" xmlns="http://www.w3.org/2000/svg">
<g clip-path="url(#clip0_1_404)">
<path d="M12 24C18.6274 24 24 18.6274 24 12C24 5.37258 18.6274 0 12 0C5.37258 0 0 5.37258 0 12C0 18.6274 5.37258 24 12 24Z" fill="#F0F0F0"/>
<path d="M23.9994 11.9648H10.9911C8.40842 14.5476 6.84664 16.5415 5.25195 18.1362L12.0346 18.7474L22.5596 17.7039C23.4781 16.0073 23.9998 14.0644 23.9998 11.9996C23.9998 11.988 23.9994 11.9765 23.9994 11.9648Z" fill="#D80027"/>
<path d="M5.25174 6.22613H22.5211C20.4802 2.51513 16.5338 0 11.9995 0C8.69462 0 5.7023 1.33645 3.53223 3.498L5.25174 6.22613Z" fill="#FFDA44"/>
<path d="M5.77425 17.7041C4.69547 18.7829 4.27856 19.6867 3.49805 20.4672C5.67094 22.6491 8.67773 23.9997 12.0003 23.9997C16.563 23.9997 20.5306 21.4533 22.5602 17.7041H5.77425Z" fill="#0052B4"/>
<path d="M3.51471 3.47949C-1.17157 8.16577 -1.17157 15.7638 3.51471 20.4501C5.45126 18.5136 7.31374 16.6511 12 11.9648L3.51471 3.47949Z" fill="#6DA544"/>
<path d="M3.16486 11.9656C3.16486 10.2173 4.39359 8.75673 6.03441 8.39841C5.78222 8.34334 5.52056 8.31348 5.25178 8.31348C3.2347 8.31348 1.59961 9.94857 1.59961 11.9656C1.59961 13.9827 3.2347 15.6178 5.25178 15.6178C5.52052 15.6178 5.78217 15.588 6.03441 15.5329C4.39359 15.1745 3.16486 13.714 3.16486 11.9656Z" fill="#F0F0F0"/>
<path d="M5.99379 8.83496L6.18809 9.4328H6.81668L6.30809 9.80232L6.50238 10.4002L5.99379 10.0307L5.4852 10.4002L5.67949 9.80232L5.1709 9.4328H5.79949L5.99379 8.83496Z" fill="#F0F0F0"/>
<path d="M5.99379 10.4004L6.18809 10.9983H6.81668L6.30809 11.3677L6.50238 11.9656L5.99379 11.5961L5.4852 11.9656L5.67949 11.3677L5.1709 10.9983H5.79949L5.99379 10.4004Z" fill="#F0F0F0"/>
<path d="M5.99379 11.9658L6.18809 12.5637H6.81668L6.30809 12.9332L6.50238 13.531L5.99379 13.1615L5.4852 13.531L5.67949 12.9332L5.1709 12.5637H5.79949L5.99379 11.9658Z" fill="#F0F0F0"/>
<path d="M5.99379 13.5312L6.18809 14.1291H6.81668L6.30809 14.4986L6.50238 15.0965L5.99379 14.727L5.4852 15.0965L5.67949 14.4986L5.1709 14.1291H5.79949L5.99379 13.5312Z" fill="#F0F0F0"/>
</g>
<defs>
<clipPath id="clip0_1_404">
<rect width="24" height="24" fill="white"/>
</clipPath>
</defs>
</svg>
