<svg width="24" height="24" viewBox="0 0 24 24" fill="none" xmlns="http://www.w3.org/2000/svg">
<g clip-path="url(#clip0_1_1594)">
<path d="M12 24C18.6274 24 24 18.6274 24 12C24 5.37258 18.6274 0 12 0C5.37258 0 0 5.37258 0 12C0 18.6274 5.37258 24 12 24Z" fill="#F0F0F0"/>
<path d="M12 24C18.6274 24 24 18.6274 24 12C24 5.37258 18.6274 0 12 0C5.37258 0 0 5.37258 0 12C0 18.6274 5.37258 24 12 24Z" fill="#F0F0F0"/>
<path d="M21.9932 5.35426L2.02193 18.6685C0.74483 16.7613 0 14.4676 0 12C0 5.37258 5.37258 0 12 0C16.1696 0 19.8425 2.12656 21.9932 5.35426Z" fill="#009739"/>
<path d="M2.02148 18.6687L21.9928 5.35449C23.2606 7.25715 23.9995 9.54235 23.9995 12.0002C23.9995 18.6276 18.627 24.0002 11.9995 24.0002C7.83976 24.0002 4.17434 21.8836 2.02148 18.6687Z" fill="#C8102E"/>
<path d="M0.0322266 12.8874L17.4238 1.29297C21.0839 3.15072 23.6635 6.83013 23.9694 11.1377L6.59824 22.7185C2.93342 20.8679 0.346923 17.1931 0.0322266 12.8874Z" fill="#FFCD00"/>
<path d="M0.3125 14.7309L19.0148 2.2627C21.3332 3.93573 23.0303 6.41637 23.6937 9.29239L5.00502 21.7515C2.68297 20.0827 0.981326 17.6051 0.3125 14.7309Z" fill="black"/>
<path d="M4.22358 13.3798L8.68902 16.9077L3.00293 16.6786L7.73763 13.5217L5.76263 18.8589L4.22358 13.3798ZM16.5523 5.16016L21.0177 8.68806L15.3316 8.45897L20.0663 5.30206L18.0913 10.6392L16.5523 5.16016Z" fill="white"/>
</g>
<defs>
<clipPath id="clip0_1_1594">
<rect width="24" height="24" fill="white"/>
</clipPath>
</defs>
</svg>
