<svg width="24" height="24" viewBox="0 0 24 24" fill="none" xmlns="http://www.w3.org/2000/svg">
<g clip-path="url(#clip0_1_900)">
<path d="M12 24C18.6274 24 24 18.6274 24 12C24 5.37258 18.6274 0 12 0C5.37258 0 0 5.37258 0 12C0 18.6274 5.37258 24 12 24Z" fill="#00ABC2"/>
<path d="M3.61924 3.41113C3.39328 3.63166 3.17599 3.86103 2.96793 4.09869V4.57638H3.61924V3.41113Z" fill="#FFE62E"/>
<path d="M2.09299 5.2263C1.2719 6.42495 0.662683 7.78018 0.319324 9.238L1.01398 8.0849L2.84951 11.1318H1.36924V9.42368H0.717928V11.1318H0.0309043C0.0104186 11.4184 0 11.7078 0 11.9997C0 12.3229 0.0127788 12.6431 0.0378587 12.9599H0.658717V14.668H1.31003V12.9599H2.7903L1.01398 16.0068L0.356821 14.9159C0.697733 16.2814 1.27256 17.5543 2.03628 18.6895L1.42845 17.2994H2.96793V19.1921H3.61924V14.668H2.96793V16.3761H1.48766L3.79688 12.4983L3.52114 12.0089C3.61131 11.8605 3.70331 11.7066 3.79688 11.5473L1.48766 7.66942H2.96793V9.37752H3.61924V4.85337H2.96793V6.74613H1.42845L2.09299 5.2263Z" fill="#FFE62E"/>
<path d="M2.96793 19.9007C3.17599 20.1383 3.39328 20.3677 3.61924 20.5882V19.4691H2.96793V19.9007Z" fill="#FFE62E"/>
<path d="M13.6517 5.60724C13.6517 5.74041 13.6073 5.87358 13.3853 5.87358C13.1634 5.87358 13.119 5.74041 13.119 5.60724C13.119 5.42969 13.3853 4.45312 13.3853 4.45312C13.3853 4.45312 13.6517 5.3853 13.6517 5.60724Z" fill="#FFE62E"/>
<path d="M13.3853 13.1534C15.273 13.1534 16.8033 11.6231 16.8033 9.73544C16.8033 7.84775 15.273 6.31747 13.3853 6.31747C11.4976 6.31747 9.96737 7.84775 9.96737 9.73544C9.96737 11.6231 11.4976 13.1534 13.3853 13.1534Z" fill="#FFE62E"/>
<path fill-rule="evenodd" clip-rule="evenodd" d="M19.2447 12.7983C19.2447 12.4876 19.5998 12.2656 19.9106 12.4432C20.7983 13.0202 21.1534 14.0856 20.7983 14.9734C20.0437 16.6602 18.5789 17.4148 16.7145 17.9031C16.1819 18.0806 15.9599 17.2816 16.4926 17.1484C17.9574 16.7489 19.511 16.1719 19.9549 14.7514C20.0881 14.3963 20.0881 13.9968 19.9549 13.6417C19.0672 15.6392 15.6492 16.3938 13.5185 16.3494H13.4741C12.4532 16.3938 11.521 17.326 11.1215 18.2582C12.1868 17.7699 13.4741 17.5479 14.6726 17.5479C15.2497 17.5479 15.2497 18.3469 14.6726 18.3469C13.3409 18.3469 11.7429 18.6577 10.722 19.4123C10.4556 19.6342 9.92298 19.5011 9.96737 19.146C10.0118 18.8352 10.0561 18.5245 10.1893 18.2138C8.41375 17.6811 6.32745 16.4826 5.92795 14.7958C5.706 13.8636 6.01673 12.9315 6.9489 12.4432C7.25963 12.31 7.61474 12.4876 7.61474 12.7983C7.74791 14.929 11.6542 15.5948 13.4741 15.5504C15.2941 15.5504 19.1115 14.9734 19.2447 12.7983ZM7.08207 15.1953C7.96985 16.3494 9.07958 17.0597 10.5444 17.4592C10.8552 16.9709 11.2547 16.527 11.6985 16.1719C9.74542 15.9055 7.57035 15.1065 6.90451 13.5529C6.59379 14.0412 6.72696 14.707 7.08207 15.1953Z" fill="#FFE62E"/>
<path d="M14.8502 6.13991C15.0277 6.22869 15.1609 6.13992 15.2053 6.00675C15.2941 5.82919 15.3829 4.80824 15.3829 4.80824C15.3829 4.80824 14.7614 5.60724 14.6726 5.7848C14.6726 5.91797 14.6726 6.09553 14.8502 6.13991Z" fill="#FFE62E"/>
<path d="M16.9809 11.2003C16.8921 11.3778 16.9809 11.511 17.114 11.5554C17.2916 11.6442 18.3125 11.733 18.3125 11.733C18.3125 11.733 17.5135 11.1115 17.336 11.0227C17.2028 11.0227 17.0253 11.0227 16.9809 11.2003Z" fill="#FFE62E"/>
<path d="M11.9205 13.331C11.7429 13.2422 11.6098 13.331 11.5654 13.4641C11.4766 13.6417 11.3878 14.6626 11.3878 14.6626C11.3878 14.6626 12.0093 13.8636 12.0981 13.6861C12.0981 13.5529 12.0981 13.3754 11.9205 13.331Z" fill="#FFE62E"/>
<path d="M9.78981 8.2706C9.87859 8.09304 9.78981 7.95987 9.65665 7.91548C9.47909 7.8267 8.45814 7.73793 8.45814 7.73793C8.45814 7.73793 9.25714 8.35938 9.4347 8.44815C9.56787 8.44815 9.74543 8.44815 9.78981 8.2706Z" fill="#FFE62E"/>
<path d="M16.1375 6.98331C16.2706 7.11648 16.4482 7.07209 16.537 6.98331C16.6701 6.85014 17.1584 5.96236 17.1584 5.96236C17.1584 5.96236 16.2706 6.45064 16.1375 6.58381C16.0043 6.71697 16.0043 6.85014 16.1375 6.98331Z" fill="#FFE62E"/>
<path d="M16.1375 12.4876C16.0043 12.6207 16.0487 12.7539 16.1375 12.8871C16.2706 13.0202 17.1584 13.5085 17.1584 13.5085C17.1584 13.5085 16.6701 12.6207 16.537 12.4876C16.4038 12.3544 16.2706 12.3544 16.1375 12.4876Z" fill="#FFE62E"/>
<path d="M10.6332 12.4876C10.5 12.3544 10.3225 12.3988 10.2337 12.4876C10.1005 12.6207 9.61226 13.5085 9.61226 13.5085C9.61226 13.5085 10.5 13.0202 10.6332 12.8871C10.7664 12.7539 10.7664 12.6207 10.6332 12.4876Z" fill="#FFE62E"/>
<path d="M10.6332 6.98331C10.7664 6.85014 10.722 6.67258 10.6332 6.58381C10.5 6.45064 9.61226 5.96236 9.61226 5.96236C9.61226 5.96236 10.1005 6.85014 10.2337 6.98331C10.3669 7.11648 10.5 7.11648 10.6332 6.98331Z" fill="#FFE62E"/>
<path d="M16.9809 8.2706C17.0696 8.44815 17.2028 8.49254 17.336 8.40376C17.5135 8.31499 18.3125 7.69354 18.3125 7.69354C18.3125 7.69354 17.2916 7.8267 17.114 7.87109C16.9809 7.95987 16.8921 8.04865 16.9809 8.2706Z" fill="#FFE62E"/>
<path d="M14.8502 13.331C14.6726 13.4197 14.6282 13.5529 14.717 13.6861C14.8058 13.8636 15.4272 14.6626 15.4272 14.6626C15.4272 14.6626 15.2941 13.6417 15.2497 13.4641C15.1609 13.331 15.0721 13.2422 14.8502 13.331Z" fill="#FFE62E"/>
<path d="M9.78981 11.2003C9.70104 11.0227 9.56787 10.9783 9.4347 11.0671C9.25714 11.1559 8.45814 11.7773 8.45814 11.7773C8.45814 11.7773 9.47909 11.6442 9.65665 11.5998C9.78981 11.511 9.87859 11.4222 9.78981 11.2003Z" fill="#FFE62E"/>
<path d="M11.9205 6.13991C12.0981 6.05114 12.1424 5.91797 12.0537 5.7848C11.9649 5.60724 11.3434 4.80824 11.3434 4.80824C11.3434 4.80824 11.4766 5.7848 11.521 6.00675C11.6098 6.13992 11.6985 6.22869 11.9205 6.13991Z" fill="#FFE62E"/>
<path d="M14.14 5.91797C14.3175 5.96236 14.4507 5.82919 14.4507 5.69602C14.4951 5.51847 14.4063 4.49751 14.4063 4.49751C14.4063 4.49751 13.9624 5.3853 13.918 5.60724C13.8736 5.74041 13.9624 5.87358 14.14 5.91797Z" fill="#FFE62E"/>
<path d="M17.2028 10.4901C17.1584 10.6676 17.2916 10.8008 17.4248 10.8008C17.6023 10.8452 18.6233 10.7564 18.6233 10.7564C18.6233 10.7564 17.7355 10.3125 17.5135 10.2681C17.3804 10.2237 17.2472 10.3125 17.2028 10.4901Z" fill="#FFE62E"/>
<path d="M12.6307 13.5529C12.4532 13.5085 12.32 13.6417 12.32 13.7749C12.2756 13.9524 12.3644 14.9734 12.3644 14.9734C12.3644 14.9734 12.8083 14.0856 12.8527 13.8636C12.8971 13.7305 12.8083 13.5973 12.6307 13.5529Z" fill="#FFE62E"/>
<path d="M9.56787 8.98082C9.61226 8.75888 9.47909 8.6701 9.34592 8.6701C9.16837 8.62571 8.14741 8.71449 8.14741 8.71449C8.14741 8.71449 9.0352 9.15838 9.25714 9.20277C9.39031 9.24716 9.52348 9.15838 9.56787 8.98082Z" fill="#FFE62E"/>
<path d="M15.5604 6.49503C15.738 6.58381 15.8711 6.53942 15.9599 6.40625C16.0931 6.22869 16.3594 5.29652 16.3594 5.29652C16.3594 5.29652 15.6048 5.96236 15.4716 6.09553C15.3829 6.22869 15.3829 6.40625 15.5604 6.49503Z" fill="#FFE62E"/>
<path d="M16.6258 11.9105C16.537 12.0881 16.5814 12.2212 16.7145 12.31C16.8921 12.4432 17.8243 12.7095 17.8243 12.7095C17.8243 12.7095 17.1584 11.9549 17.0253 11.8217C16.8921 11.733 16.7145 11.733 16.6258 11.9105Z" fill="#FFE62E"/>
<path d="M11.2103 12.9759C11.0327 12.8871 10.8995 12.9315 10.8108 13.0646C10.722 13.1978 10.4113 14.1744 10.4113 14.1744C10.4113 14.1744 11.1659 13.5085 11.299 13.3754C11.3878 13.2422 11.3878 13.0646 11.2103 12.9759Z" fill="#FFE62E"/>
<path d="M10.1449 7.56037C10.2337 7.38281 10.1893 7.24965 10.0561 7.16087C9.92298 7.07209 8.94642 6.76136 8.94642 6.76136C8.94642 6.76136 9.61226 7.51598 9.74542 7.64915C9.87859 7.73793 10.0561 7.73793 10.1449 7.56037Z" fill="#FFE62E"/>
<path d="M16.6258 7.56037C16.7589 7.73793 16.8921 7.73793 17.0253 7.64915C17.2028 7.51598 17.8243 6.76136 17.8243 6.76136C17.8243 6.76136 16.8477 7.07209 16.7145 7.16087C16.5814 7.29403 16.4926 7.4272 16.6258 7.56037Z" fill="#FFE62E"/>
<path d="M15.5604 12.9759C15.3829 13.109 15.3829 13.2422 15.4716 13.3754C15.6048 13.5529 16.3594 14.1744 16.3594 14.1744C16.3594 14.1744 16.0487 13.1978 15.9599 13.0646C15.8267 12.9315 15.6936 12.8427 15.5604 12.9759Z" fill="#FFE62E"/>
<path d="M10.1449 11.9105C10.0118 11.733 9.87859 11.733 9.74542 11.8217C9.56787 11.9549 8.94642 12.7095 8.94642 12.7095C8.94642 12.7095 9.92298 12.3988 10.0561 12.31C10.1893 12.1768 10.2781 12.0437 10.1449 11.9105Z" fill="#FFE62E"/>
<path d="M11.2103 6.49503C11.3878 6.36186 11.3878 6.22869 11.299 6.09553C11.1659 5.91797 10.4113 5.29652 10.4113 5.29652C10.4113 5.29652 10.722 6.27308 10.8108 6.40625C10.9439 6.53942 11.0771 6.6282 11.2103 6.49503Z" fill="#FFE62E"/>
<path d="M17.2028 8.98082C17.2472 9.15838 17.3804 9.24716 17.5135 9.20277C17.6911 9.15838 18.6233 8.71449 18.6233 8.71449C18.6233 8.71449 17.6023 8.62571 17.4248 8.6701C17.2472 8.6701 17.1584 8.75888 17.2028 8.98082Z" fill="#FFE62E"/>
<path d="M14.14 13.5529C13.9624 13.5973 13.8736 13.7305 13.918 13.8636C13.9624 14.0412 14.4063 14.9734 14.4063 14.9734C14.4063 14.9734 14.4951 13.9524 14.4507 13.7749C14.4507 13.5973 14.3619 13.5085 14.14 13.5529Z" fill="#FFE62E"/>
<path d="M9.56787 10.4901C9.52348 10.3125 9.39031 10.2237 9.25714 10.2681C9.07959 10.3125 8.14741 10.7564 8.14741 10.7564C8.14741 10.7564 9.16836 10.8452 9.34592 10.8008C9.52348 10.8008 9.61226 10.712 9.56787 10.4901Z" fill="#FFE62E"/>
<path d="M12.6307 5.91797C12.8083 5.87358 12.8971 5.74041 12.8527 5.60724C12.8083 5.42969 12.3644 4.49751 12.3644 4.49751C12.3644 4.49751 12.2756 5.51847 12.32 5.69602C12.32 5.87358 12.4088 5.96236 12.6307 5.91797Z" fill="#FFE62E"/>
</g>
<defs>
<clipPath id="clip0_1_900">
<rect width="24" height="24" fill="white"/>
</clipPath>
</defs>
</svg>
