<svg width="24" height="24" viewBox="0 0 24 24" fill="none" xmlns="http://www.w3.org/2000/svg">
<g clip-path="url(#clip0_1_948)">
<path d="M12 24C18.6274 24 24 18.6274 24 12C24 5.37258 18.6274 0 12 0C5.37258 0 0 5.37258 0 12C0 18.6274 5.37258 24 12 24Z" fill="#F0F0F0"/>
<path d="M11.9997 0C6.45537 0 1.79009 3.76036 0.413086 8.86955H23.5864C22.2093 3.76036 17.544 0 11.9997 0Z" fill="#A2001D"/>
<path d="M11.9997 24.0004C17.544 24.0004 22.2093 20.24 23.5863 15.1309H0.413086C1.79009 20.24 6.45537 24.0004 11.9997 24.0004Z" fill="#A2001D"/>
</g>
<defs>
<clipPath id="clip0_1_948">
<rect width="24" height="24" fill="white"/>
</clipPath>
</defs>
</svg>
