<svg width="24" height="24" viewBox="0 0 24 24" fill="none" xmlns="http://www.w3.org/2000/svg">
<g clip-path="url(#clip0_1_1366)">
<path d="M12 24C18.6274 24 24 18.6274 24 12C24 5.37258 18.6274 0 12 0C5.37258 0 0 5.37258 0 12C0 18.6274 5.37258 24 12 24Z" fill="#FFDA44"/>
<path d="M13.8249 23.862C15.7766 23.5643 17.5732 22.7957 19.0963 21.6768L12 12L13.8249 23.862Z" fill="#D80027"/>
<path d="M10.1747 0.137695C8.2231 0.435445 6.42657 1.20401 4.90332 2.32287L11.9997 11.9997L10.1747 0.137695Z" fill="#D80027"/>
<path d="M4.90332 21.6768C6.42648 22.7957 8.22301 23.5643 10.1746 23.8621L11.9997 12L4.90332 21.6768Z" fill="#D80027"/>
<path d="M2.32287 4.90332C1.20396 6.42657 0.435492 8.22305 0.137695 10.1747L11.9997 11.9997L2.32287 4.90332Z" fill="#D80027"/>
<path d="M0.137695 13.8249C0.435445 15.7766 1.20401 17.5732 2.32291 19.0963L11.9997 12L0.137695 13.8249Z" fill="#D80027"/>
<path d="M23.862 10.1747C23.5642 8.22305 22.7957 6.42652 21.6768 4.90332L12 11.9997L23.862 10.1747Z" fill="#D80027"/>
<path d="M19.0963 2.32282C17.5731 1.20396 15.7766 0.435445 13.8249 0.137695L12 11.9997L19.0963 2.32282Z" fill="#D80027"/>
<path d="M21.6769 19.0964C22.7958 17.5732 23.5643 15.7766 23.8621 13.825L12 12L21.6769 19.0964Z" fill="#D80027"/>
<path d="M12.0001 16.174C14.3052 16.174 16.174 14.3052 16.174 12.0001C16.174 9.69489 14.3052 7.82617 12.0001 7.82617C9.69489 7.82617 7.82617 9.69489 7.82617 12.0001C7.82617 14.3052 9.69489 16.174 12.0001 16.174Z" fill="#D80027"/>
<path d="M11.9996 15.13C13.7285 15.13 15.13 13.7285 15.13 11.9996C15.13 10.2707 13.7285 8.86914 11.9996 8.86914C10.2707 8.86914 8.86914 10.2707 8.86914 11.9996C8.86914 13.7285 10.2707 15.13 11.9996 15.13Z" fill="#FFDA44"/>
</g>
<defs>
<clipPath id="clip0_1_1366">
<rect width="24" height="24" fill="white"/>
</clipPath>
</defs>
</svg>
