<svg width="24" height="24" viewBox="0 0 24 24" fill="none" xmlns="http://www.w3.org/2000/svg">
<g clip-path="url(#clip0_1_895)">
<path d="M12 24C18.6274 24 24 18.6274 24 12C24 5.37258 18.6274 0 12 0C5.37258 0 0 5.37258 0 12C0 18.6274 5.37258 24 12 24Z" fill="#F0F0F0"/>
<path d="M0 12H24C24 5.37258 18.6274 0 12 0C5.37258 0 0 5.37258 0 12Z" fill="#4AA559"/>
<path d="M24 12L0 12C-5.79387e-07 18.6274 5.37258 24 12 24C18.6274 24 24 18.6274 24 12Z" fill="#1D1918"/>
<path d="M3.51471 3.51465C-1.17157 8.20093 -1.17157 15.7989 3.51471 20.4853C5.45126 18.5487 7.31374 16.6862 12 12L3.51471 3.51465Z" fill="#DC342E"/>
</g>
<defs>
<clipPath id="clip0_1_895">
<rect width="24" height="24" fill="white"/>
</clipPath>
</defs>
</svg>
