<svg width="24" height="24" viewBox="0 0 24 24" fill="none" xmlns="http://www.w3.org/2000/svg">
<g clip-path="url(#clip0_1_1049)">
<path d="M12 24C18.6274 24 24 18.6274 24 12C24 5.37258 18.6274 0 12 0C5.37258 0 0 5.37258 0 12C0 18.6274 5.37258 24 12 24Z" fill="#4CA863"/>
<path d="M11.9998 0C15.266 0 18.2275 1.30493 20.3912 3.42188H3.6084C5.77215 1.30493 8.73359 0 11.9998 0Z" fill="#C02F27"/>
<path d="M11.9998 24C8.73361 24 5.77217 22.6951 3.60842 20.5781L20.3913 20.5781C18.2275 22.6951 15.2661 24 11.9998 24Z" fill="#C02F27"/>
<path d="M12.3885 9.54339L12 8.34766L11.6115 9.54339H10.3543L11.3714 10.2824L10.9829 11.4781L12 10.7391L13.0172 11.4781L12.6287 10.2824L13.6458 9.54339H12.3885Z" fill="#FFDA44"/>
<path d="M7.9232 10.5836C8.33275 12.4589 10.002 13.8632 12.0001 13.8632C13.9982 13.8632 15.6674 12.4589 16.0769 10.5836C16.1398 10.8719 16.174 11.1709 16.174 11.4781C16.174 13.7833 14.3053 15.652 12.0001 15.652C9.69484 15.652 7.82617 13.7833 7.82617 11.4781C7.82617 11.1709 7.8603 10.8719 7.9232 10.5836Z" fill="#FFDA44"/>
</g>
<defs>
<clipPath id="clip0_1_1049">
<rect width="24" height="24" fill="white"/>
</clipPath>
</defs>
</svg>
