<svg width="24" height="24" viewBox="0 0 24 24" fill="none" xmlns="http://www.w3.org/2000/svg">
<g clip-path="url(#clip0_1_1178)">
<path d="M12 24C18.6274 24 24 18.6274 24 12C24 5.37258 18.6274 0 12 0C5.37258 0 0 5.37258 0 12C0 18.6274 5.37258 24 12 24Z" fill="#ED4C5C"/>
<path d="M11.9997 0C6.84013 0 2.44161 3.2565 0.746094 7.82611H23.2534C21.5578 3.2565 17.1593 0 11.9997 0Z" fill="#2A5F9E"/>
<path d="M11.9997 23.9999C17.1593 23.9999 21.5578 20.7434 23.2533 16.1738H0.746094C2.44161 20.7434 6.84012 23.9999 11.9997 23.9999Z" fill="#83BF4F"/>
<path d="M9.60938 19.6055C13.8098 19.6055 17.2148 16.2004 17.2148 12C17.2148 7.79962 13.8098 4.39453 9.60938 4.39453C5.40899 4.39453 2.00391 7.79962 2.00391 12C2.00391 16.2004 5.40899 19.6055 9.60938 19.6055Z" fill="#FFE62E"/>
<path d="M9.60938 4.26562C5.35547 4.26562 1.875 7.74609 1.875 12C1.875 16.2539 5.35547 19.7344 9.60938 19.7344C13.8633 19.7344 17.3438 16.2539 17.3438 12C17.3438 7.74609 13.8633 4.26562 9.60938 4.26562ZM2.13281 12C2.13281 7.91797 5.39844 4.60938 9.4375 4.52344V6.19922C8.96484 6.41406 8.62109 6.58594 8.53516 7.01562C8.53516 7.05859 8.49219 7.61719 8.49219 7.78906C8.49219 7.78906 8.57812 7.78906 8.75 7.66016C8.83594 7.57422 9.09375 7.53125 9.4375 7.35938V8.21875C8.92188 8.30469 8.57812 8.73438 8.57812 9.25C8.57812 9.76562 8.96484 10.1953 9.4375 10.2812V10.4961C9.05078 10.4961 8.70703 10.3672 8.40625 9.76562C8.23438 9.42187 7.80469 8.90625 7.80469 8.90625C7.80469 8.90625 8.01953 9.46484 8.01953 10.0664C8.0625 10.9258 8.83594 11.0117 9.39453 11.0117V11.1836H8.32031V11.4844H9.4375V11.6563C8.92188 11.6992 8.57812 11.957 8.57812 12.3008C8.57812 12.6445 8.96484 12.9023 9.4375 12.9453V13.1172H8.32031V13.2891H9.4375V13.4609C8.57812 13.5039 8.14844 13.8477 8.10547 14.3633C8.01953 15.4375 7.80469 16.2969 7.80469 16.2969C7.80469 16.2969 8.14844 15.9102 8.49219 14.9648C8.66406 14.5352 9.05078 14.2773 9.4375 14.1914V14.3203C9.05078 14.4063 8.75 14.9219 8.75 15.5234C8.75 16.125 9.05078 16.6406 9.4375 16.7266V17.0703C8.92188 17.0703 8.40625 17.1992 8.14844 17.4141C7.80469 17.7148 6.94531 18.5312 6.60156 18.875C3.98047 17.7148 2.13281 15.0938 2.13281 12ZM12.4453 18.918C12.1445 18.5742 11.3711 17.7578 10.8984 17.4141C10.6406 17.1992 10.2109 17.1133 9.78125 17.0703V16.7266C10.168 16.6406 10.4688 16.125 10.4688 15.5234C10.4688 14.9219 10.168 14.4063 9.78125 14.3203V14.1914C10.168 14.2344 10.5547 14.5352 10.7266 14.9648C11.1133 15.9102 11.4141 16.2969 11.4141 16.2969C11.4141 16.2969 11.1992 15.4375 11.1133 14.3633C11.0703 13.8477 10.6406 13.5039 9.78125 13.4609V13.2891H10.8984V12.9883H9.78125V12.8164C10.2969 12.7734 10.6406 12.5156 10.6406 12.1719C10.6406 11.8281 10.2539 11.5703 9.78125 11.5273V11.3555H10.8984V11.0547H9.78125V10.8828C10.3828 10.8828 11.1133 10.7969 11.1562 9.9375C11.1992 9.33594 11.3711 8.77734 11.3711 8.77734C11.3711 8.77734 10.9414 9.29297 10.7695 9.63672C10.4688 10.2383 10.125 10.3672 9.73828 10.3672V10.1523C10.2539 10.0664 10.5977 9.63672 10.5977 9.12109C10.5977 8.60547 10.2109 8.17578 9.73828 8.08984V7.01562C10.0391 6.75781 10.3828 6.37109 10.7266 5.76953C10.8984 5.42578 10.8125 5.29687 10.8125 5.29687C10.8125 5.29687 10.8125 5.33984 10.6836 5.42578C10.3828 5.68359 10.0391 5.85547 9.73828 6.02734V4.52344C13.7773 4.60938 17.043 7.91797 17.043 12C17.0859 15.1367 15.1523 17.8008 12.4453 18.918Z" fill="#3E4347"/>
</g>
<defs>
<clipPath id="clip0_1_1178">
<rect width="24" height="24" fill="white"/>
</clipPath>
</defs>
</svg>
