<svg width="24" height="24" viewBox="0 0 24 24" fill="none" xmlns="http://www.w3.org/2000/svg">
<g clip-path="url(#clip0_1_1197)">
<path d="M12 24C18.6274 24 24 18.6274 24 12C24 5.37258 18.6274 0 12 0C5.37258 0 0 5.37258 0 12C0 18.6274 5.37258 24 12 24Z" fill="#F0F0F0"/>
<path d="M11.9997 0C7.24218 0 3.13143 2.76867 1.19043 6.78263H22.8089C20.868 2.76867 16.7572 0 11.9997 0Z" fill="#338AF3"/>
<path d="M11.9997 24.0004C16.7572 24.0004 20.868 21.2317 22.809 17.2178H1.19043C3.13143 21.2317 7.24218 24.0004 11.9997 24.0004Z" fill="#338AF3"/>
<path d="M11.9998 8.34766C9.9828 8.34766 8.34766 9.9828 8.34766 11.9998C8.34766 14.0169 9.9828 15.652 11.9998 15.652C14.0169 15.652 15.652 14.0169 15.652 11.9998C15.652 9.9828 14.0169 8.34766 11.9998 8.34766ZM11.9998 14.0868C10.8473 14.0868 9.91286 13.1525 9.91286 11.9998C9.91286 10.8472 10.8472 9.91286 11.9998 9.91286C13.1524 9.91286 14.0868 10.8472 14.0868 11.9998C14.0868 13.1525 13.1524 14.0868 11.9998 14.0868Z" fill="#FFDA44"/>
<path d="M13.8071 12.5217L11.9997 12L10.1923 12.5217L9.58984 13.5652H14.4095L13.8071 12.5217Z" fill="#0052B4"/>
<path d="M11.9998 9.3916L10.7949 11.4786L11.9998 12.0003L13.2048 11.4786L11.9998 9.3916Z" fill="#338AF3"/>
<path d="M10.1924 12.522H13.8072L13.2047 11.4785H10.7949L10.1924 12.522Z" fill="#6DA544"/>
</g>
<defs>
<clipPath id="clip0_1_1197">
<rect width="24" height="24" fill="white"/>
</clipPath>
</defs>
</svg>
