<svg width="24" height="24" viewBox="0 0 24 24" fill="none" xmlns="http://www.w3.org/2000/svg">
<g clip-path="url(#clip0_1_1157)">
<path d="M12 24C18.6274 24 24 18.6274 24 12C24 5.37258 18.6274 0 12 0C5.37258 0 0 5.37258 0 12C0 18.6274 5.37258 24 12 24Z" fill="#0052B4"/>
<path d="M12 24C18.6274 24 24 18.6274 24 12C24 5.37258 18.6274 0 12 0C5.37258 0 0 5.37258 0 12C0 18.6274 5.37258 24 12 24Z" fill="#FFDA44"/>
<path d="M12.0002 0C5.72438 0 0.574789 4.81786 0.0458984 10.9565H23.9545C23.4256 4.81786 18.276 0 12.0002 0Z" fill="#0052B4"/>
<path d="M12.0002 24.0005C18.276 24.0005 23.4256 19.1826 23.9545 13.0439H0.0458984C0.574789 19.1826 5.72438 24.0005 12.0002 24.0005Z" fill="#0052B4"/>
<path d="M9.9097 17.0054L8.56505 17.6379L9.28106 18.9402L7.82095 18.6608L7.63594 20.1359L6.61889 19.051L5.60189 20.1359L5.41688 18.6608L3.95672 18.9401L4.67278 17.6379L3.32812 17.0054L4.67283 16.3729L3.95672 15.0707L5.41683 15.35L5.60194 13.875L6.61889 14.9598L7.63598 13.875L7.82095 15.35L9.28111 15.0707L8.56509 16.373L9.9097 17.0054Z" fill="#F0F0F0"/>
</g>
<defs>
<clipPath id="clip0_1_1157">
<rect width="24" height="24" fill="white"/>
</clipPath>
</defs>
</svg>
