<svg width="24" height="24" viewBox="0 0 24 24" fill="none" xmlns="http://www.w3.org/2000/svg">
<g clip-path="url(#clip0_800_19)">
<path d="M12 23C18.0751 23 23 18.0751 23 12C23 5.92487 18.0751 1 12 1C5.92487 1 1 5.92487 1 12C1 18.0751 5.92487 23 12 23Z" fill="black" fill-opacity="0.1"/>
<g opacity="0.7">
<path d="M21.5823 17.4066C19.694 20.7459 16.1104 23 12.0004 23C7.89139 23 4.30857 20.747 2.41992 17.4089L5.05263 14.0508C5.17244 13.8977 5.3172 13.7829 5.48692 13.7064C5.65664 13.6299 5.83136 13.5916 6.01106 13.5916C6.19077 13.5916 6.36549 13.6299 6.53521 13.7064C6.66768 13.7661 6.78495 13.8492 6.88701 13.9555L10.5428 18.5943C10.7138 18.8112 11.0281 18.8485 11.245 18.6776C11.4619 18.5066 11.4992 18.1922 11.3282 17.9754L9.42381 15.5589C9.2219 15.3027 9.2189 14.9423 9.41631 14.6826L9.96578 13.9594C10.9714 12.6354 11.9768 11.3116 13.0004 10L13.4389 9.45916C13.5587 9.30611 13.7035 9.19132 13.8732 9.11479C14.0429 9.03826 14.2176 9 14.3974 9C14.5771 9 14.7518 9.03826 14.9215 9.11479C15.0912 9.19132 15.236 9.30611 15.3558 9.45916L21.5823 17.4066Z" fill="#888888"/>
<path d="M10.0004 8C10.0004 9.10457 9.10501 10 8.00044 10C6.89587 10 6.00044 9.10457 6.00044 8C6.00044 6.89543 6.89587 6 8.00044 6C9.10501 6 10.0004 6.89543 10.0004 8Z" fill="#888888"/>
</g>
<circle cx="12" cy="12" r="11.5" stroke="white" stroke-opacity="0.2"/>
</g>
<defs>
<clipPath id="clip0_800_19">
<rect width="24" height="24" fill="white"/>
</clipPath>
</defs>
</svg>
