<svg width="24" height="24" viewBox="0 0 24 24" fill="none" xmlns="http://www.w3.org/2000/svg">
<g clip-path="url(#clip0_1_633)">
<path d="M12 24C18.6274 24 24 18.6274 24 12C24 5.37258 18.6274 0 12 0C5.37258 0 0 5.37258 0 12C0 18.6274 5.37258 24 12 24Z" fill="#0091C8"/>
<path d="M22.777 17.2842C22.2225 17.4447 21.9937 17.6931 21.8393 18.3886V18.4688C21.7593 18.4688 21.5192 18.3886 20.879 18.028C19.5987 17.2668 19.0385 17.0664 18.3583 17.9078C18.1982 18.0681 18.0382 18.1883 17.9582 18.2284C17.9289 18.2137 17.8835 18.199 17.826 18.1804C17.7263 18.1482 17.5902 18.1042 17.438 18.028C17.398 18.008 17.348 17.988 17.298 17.9679C17.2479 17.9479 17.1979 17.9279 17.1579 17.9078C16.3977 17.5072 15.8375 17.387 15.3974 17.5072C15.1173 17.5873 14.9172 17.7476 14.7972 18.028C14.7172 18.1883 14.6372 18.3085 14.5571 18.3085C14.3571 18.3486 13.6769 17.9479 13.4368 17.7876C12.5165 17.2267 11.9564 17.1866 11.1161 17.7476C10.9561 17.8678 10.796 17.9479 10.716 17.9479C10.676 17.9479 10.5159 17.9078 10.3559 17.8678C10.1558 17.7876 9.99577 17.7075 9.95576 17.6674C9.87573 17.5072 9.71569 17.427 9.55564 17.4671L9.51562 17.5072V18.1482C9.63566 18.2684 9.83572 18.3886 10.1158 18.4688C10.756 18.7092 10.916 18.6691 11.5162 18.2684C12.0764 17.9078 12.3565 17.8678 13.0367 18.3085C13.7969 18.7893 14.2771 19.0297 14.7172 18.9095C15.0773 18.8294 15.2774 18.5088 15.3974 18.2684C15.4774 18.1482 15.5174 18.1082 15.5975 18.1082C15.7175 18.0681 16.0376 18.0681 16.7978 18.4287C16.8032 18.4314 16.8117 18.4358 16.823 18.4415C16.9786 18.5211 17.6597 18.8694 17.9582 18.8694C18.1582 18.8694 18.3983 18.7092 18.5583 18.589C18.7184 18.4688 18.8384 18.3486 18.8784 18.3085C19.1985 17.9479 19.2786 17.8678 20.5189 18.589C20.9956 18.8827 21.3714 19.0418 21.6773 19.0972C22.0948 18.5289 22.4634 17.9225 22.777 17.2842Z" fill="#3E4347"/>
<path fill-rule="evenodd" clip-rule="evenodd" d="M21.7428 4.99295L21.1787 5.52021C20.5385 6.12122 19.8983 6.68215 19.8183 6.72222C19.7382 6.76228 19.6182 6.84242 19.6182 6.92255C19.5782 7.04275 19.6182 7.20302 19.7382 7.24308C19.8183 7.28315 19.7783 7.36329 19.5382 7.68382C19.2181 8.12455 18.938 8.64542 18.7379 9.16629L18.5779 9.56696L18.4979 9.20636C18.3778 8.76562 18.2578 8.12455 18.2578 7.68382C18.2578 7.28315 18.2578 7.28315 18.5379 6.92255C18.858 6.48182 19.6182 5.68048 20.0183 5.35995C20.1784 5.23975 20.4585 5.03941 20.6585 4.95928C21.0586 4.75894 21.1787 4.67881 21.1787 4.55861C21.1787 4.39834 21.0586 4.31821 20.8586 4.35828C20.7385 4.39834 20.2984 4.31821 19.5382 4.15794C19.176 4.08994 18.8522 4.02194 18.6321 3.9757C18.4631 3.94021 18.3552 3.91754 18.3378 3.91754C18.3378 3.91754 18.3778 3.67714 18.4579 3.43674C18.5379 3.11621 18.6179 2.91587 18.6979 2.83574C18.858 2.67547 18.858 2.47514 18.6979 2.35494C18.4579 2.11454 18.0577 2.31487 18.0978 2.67547L18.1378 2.83574L17.8177 2.87581C17.7746 2.88443 17.7204 2.89491 17.6587 2.90685C17.4337 2.95037 17.1086 3.01325 16.8574 3.07614C16.1372 3.27647 15.617 3.31654 15.2569 3.15627C15.1369 3.11621 15.0568 3.07614 15.0568 3.07614V3.19634C15.0568 3.39667 15.1769 3.59701 15.4169 3.71721L15.617 3.83741L15.457 3.87748C15.3769 3.91754 15.1369 3.91754 14.9368 3.87748C14.7367 3.83741 14.5767 3.87748 14.5767 3.87748C14.5767 3.99768 14.8168 4.27814 14.9768 4.35828C15.3369 4.55861 16.0571 4.47848 16.8974 4.19801C17.2975 4.03774 17.8577 3.99768 17.8177 4.11788C17.8177 4.19801 17.0975 4.71888 15.8571 5.60035C15.2169 6.04108 15.1369 6.16128 15.2169 6.36162C15.2569 6.48182 15.2569 6.52188 15.0969 6.76228C14.7768 7.32322 14.4567 8.28482 14.4567 8.76562C14.4567 9.00602 14.4567 9.04609 14.0966 9.40669C13.4163 10.1279 12.0559 11.8107 11.7759 12.3316L11.6958 12.4518L11.6158 12.3316C11.4157 12.0912 11.0156 12.2114 11.0156 12.5319C11.0156 12.7322 11.1357 12.8524 11.3757 12.8524C11.4958 12.8524 11.7759 12.9726 12.216 13.173L12.8962 13.4935L12.7361 13.6938C12.4961 13.9743 12.4561 14.1746 12.5761 14.3349C12.6561 14.415 12.6961 14.415 13.0162 14.415C13.3267 14.415 13.4113 14.4527 13.7447 14.6012C13.755 14.6058 13.7656 14.6105 13.7765 14.6154C14.1366 14.7756 14.2566 14.8958 14.7767 15.4167C16.2972 16.9793 16.6973 17.38 17.5376 17.9008C17.7777 18.021 17.9777 18.1012 18.0577 18.1012C18.1378 18.0611 18.2978 17.9409 18.4579 17.7806C19.1381 16.9793 19.6982 17.1796 20.9786 17.9008C21.6188 18.2614 21.8589 18.3416 21.9389 18.3416V18.2614C22.0892 17.5842 22.3101 17.3309 22.8004 17.2362C23.1365 16.5441 23.4082 15.8148 23.6074 15.0561H22.7792L22.259 15.016L22.299 14.8558C22.339 14.6154 22.4991 14.3349 22.7391 14.0945C22.785 14.0486 22.825 14.0027 22.8592 13.9635C22.9145 13.9 22.9545 13.8541 22.9792 13.8541C22.9792 13.8541 23.1393 13.9342 23.3393 14.0544C23.4719 14.154 23.6319 14.2535 23.7739 14.3303C23.8746 13.8185 23.9428 13.295 23.9762 12.7621C23.9063 12.5225 23.8698 12.3006 23.8995 12.2114C23.8995 12.1625 23.9442 12.0688 23.9972 11.9576C23.9981 11.9558 23.999 11.9539 23.9999 11.9521C23.9994 11.8257 23.997 11.6997 23.9926 11.5742C23.9609 11.637 23.9395 11.6891 23.9395 11.7306C23.8595 11.971 23.7795 11.8107 23.7795 11.0895C23.7495 10.6696 23.7644 10.2498 23.8073 9.8467C23.5418 8.3812 23.0102 7.00836 22.2642 5.78005C22.143 5.81269 22.0589 5.84075 22.0589 5.84075C22.0589 5.84075 22.1136 5.75868 22.1777 5.63975C22.1386 5.57727 22.0989 5.51517 22.0586 5.45346C21.8326 5.75109 21.6166 6.00101 21.5788 6.00101C21.5388 6.02105 21.4488 6.0511 21.3287 6.09116C21.2087 6.13123 21.0586 6.18131 20.8986 6.24142L20.3384 6.48182L20.7786 6.08115C20.904 5.97644 21.0842 5.80605 21.2733 5.6272C21.4459 5.46387 21.6261 5.29349 21.7789 5.15961L21.8271 5.11135C21.7992 5.07171 21.7711 5.03224 21.7428 4.99295ZM18.2978 4.07781C18.2578 4.07781 18.1378 4.51854 18.0177 4.99935L17.9777 5.15961L18.978 4.87914C19.2446 4.79699 19.5113 4.72537 19.7186 4.66967C19.9158 4.61671 20.0593 4.57814 20.0984 4.55861C20.2984 4.51854 20.2984 4.47848 19.2181 4.27814C18.7379 4.15794 18.3378 4.07781 18.2978 4.07781ZM13.5764 13.3733H13.7364L14.1766 11.8508L14.6167 10.2882L14.5367 9.96763C14.4967 9.80736 14.4567 9.56696 14.4567 9.48682V9.32656L14.1366 9.64709C13.2963 10.5286 11.8559 12.3716 11.8559 12.572C11.8559 12.6521 13.3763 13.3332 13.5764 13.3733ZM14.7367 13.8541C15.0168 14.0544 15.2969 14.1746 15.3369 14.1746C15.497 14.1746 15.497 13.9342 15.4169 13.5336C15.3369 13.3332 15.2969 12.9326 15.2969 12.6922V12.2514H14.9768V11.7306C14.9768 11.2898 14.9368 11.1296 14.8568 10.9292C14.8344 10.8845 14.8152 10.8428 14.7982 10.8061C14.7544 10.7112 14.7256 10.6488 14.6967 10.6488C14.6967 10.6488 14.4967 11.2898 14.2966 12.0511L13.8965 13.4534L14.0565 13.4935C14.1366 13.5336 14.4567 13.6938 14.7367 13.8541ZM15.8171 10.9292L15.9771 10.4484C15.9853 10.4198 15.9935 10.3916 16.0015 10.364C16.0718 10.121 16.129 9.92347 16.0571 9.88749C16.0571 9.84742 15.9771 9.84742 15.8971 9.84742C15.657 9.84742 15.2969 10.0478 15.1769 10.2481C15.0568 10.4484 14.9768 10.809 15.0568 10.8892C15.0969 10.9292 15.2569 10.9292 15.457 10.9292H15.8171ZM16.6173 10.4084C16.5773 10.5686 16.5373 10.7289 16.4973 10.809L16.4573 10.9693H16.9374C17.1775 10.9693 17.3775 10.9292 17.3775 10.8892C17.3775 10.8491 17.2975 10.7289 17.2175 10.6087C17.1775 10.5686 17.1375 10.5241 17.0974 10.4796C17.0174 10.3906 16.9374 10.3015 16.8574 10.2481L16.6973 10.1279L16.6173 10.4084ZM16.6773 5.50018C16.8174 5.46011 16.9574 5.42005 17.0574 5.40001L17.4576 5.27981L17.5776 4.95928C17.6006 4.84416 17.6368 4.72905 17.6634 4.64434C17.6832 4.58163 17.6976 4.53559 17.6976 4.51854V4.43841C17.6576 4.43841 16.0171 5.64041 15.9771 5.68048C15.9771 5.68048 16.0972 5.64041 16.2972 5.60035C16.3972 5.58031 16.5373 5.54025 16.6773 5.50018ZM17.8577 12.6521C18.0978 13.2531 18.5379 13.814 18.978 14.1346L19.0981 14.2548L19.058 14.1346C19.058 14.0544 18.938 13.774 18.818 13.5336C18.4178 12.6521 18.2578 11.7306 18.3378 10.769C18.3778 10.4484 18.4178 10.1279 18.4579 10.0077C18.4979 9.80736 18.4979 9.72722 18.3778 9.40669C18.2178 8.96596 18.0978 8.36495 18.0978 8.08449C18.0978 7.68382 18.0177 7.64375 17.8577 8.04442C17.5376 8.76562 17.4576 9.08616 17.4576 9.84742C17.4576 10.2882 17.4976 10.6488 17.5376 10.769C17.5776 10.9292 17.6176 10.9693 17.7376 10.9693H17.8977V11.6104C17.8977 12.1312 17.8977 12.2514 17.8177 12.2514C17.6976 12.2514 17.6976 12.2915 17.8577 12.6521ZM20.1892 13.4318C20.2526 13.2495 20.2984 13.1176 20.2984 13.0928C20.2984 13.0127 20.2984 13.0127 20.0583 13.1329C19.7783 13.173 19.5382 13.3733 19.3781 13.6538C19.2181 13.8541 19.2181 13.8942 19.2981 14.1346C19.3781 14.375 19.4181 14.415 19.5782 14.4952C19.6982 14.5352 19.8183 14.5753 19.8183 14.5352C19.8183 14.5105 19.8641 14.3786 19.9275 14.1963C19.9666 14.0837 20.0125 13.9518 20.0583 13.814C20.1042 13.6763 20.15 13.5444 20.1892 13.4318ZM21.2764 14.9946C21.4463 15.0267 21.6019 15.0561 21.6988 15.0561L21.9789 15.0962L21.6988 14.5753C21.5388 14.2147 21.4187 13.8942 21.3387 13.6137C21.2587 13.2932 21.2187 13.213 21.1387 13.173C20.9386 13.0928 20.8986 13.1329 20.7786 13.5736C20.7385 13.814 20.6185 14.2147 20.5385 14.415L20.4184 14.8157L20.9386 14.9359C21.0491 14.9517 21.1658 14.9737 21.2764 14.9946ZM22.5267 14.2039C22.5447 14.1802 22.5623 14.157 22.5791 14.1346L22.7792 13.8541L22.259 13.6137C21.6588 13.3332 21.4588 13.2531 21.4588 13.3733C21.4588 13.6538 22.0589 15.016 22.139 14.8958C22.179 14.8558 22.219 14.7356 22.259 14.6154C22.2934 14.512 22.4166 14.3494 22.5267 14.2039Z" fill="#FFCE31"/>
<path d="M20.5189 18.6293C20.9826 18.8794 21.351 19.0657 21.6522 19.1316C21.5971 19.2061 21.5411 19.2799 21.4843 19.3531C21.2543 19.2377 20.9628 19.09 20.639 18.9098C19.3986 18.1886 19.3186 18.2687 18.9985 18.6293L18.8784 18.7495C18.6784 18.9499 18.3583 19.2303 18.0782 19.2303C17.7797 19.2303 17.0986 18.882 16.943 18.8024L16.943 18.8024C16.9317 18.7966 16.9232 18.7923 16.9178 18.7896C16.1576 18.429 15.8375 18.429 15.7175 18.4691C15.6375 18.4691 15.5975 18.5091 15.5174 18.6293C15.3974 18.8697 15.1973 19.1903 14.8372 19.2704C14.3971 19.3906 13.9169 19.1502 13.1567 18.6694C12.4765 18.2287 12.1964 18.2687 11.6363 18.6293C11.0361 19.03 10.876 19.0701 10.2358 18.8297C9.87573 18.7095 9.63566 18.5492 9.51562 18.3889V18.1886C9.63566 18.3088 9.83572 18.429 10.1158 18.5091C10.756 18.7095 10.916 18.7095 11.5162 18.3088C12.0364 17.9482 12.3165 17.9081 13.0367 18.3489C13.7969 18.8297 14.2771 19.0701 14.7172 18.9499C15.0773 18.8697 15.2774 18.5492 15.3974 18.3088C15.4774 18.1886 15.5574 18.1485 15.5975 18.1485C15.7175 18.1085 16.0376 18.0684 16.7978 18.4691C16.8032 18.4717 16.8116 18.476 16.8227 18.4817L16.823 18.4819C16.9785 18.5614 17.6597 18.9098 17.9582 18.9098C18.1582 18.9098 18.3983 18.7896 18.5583 18.6293C18.7184 18.5091 18.8384 18.3889 18.8784 18.3489C19.1985 17.9883 19.2786 17.9081 20.5189 18.6293Z" fill="white"/>
<path d="M19.1585 20.3522C19.5593 20.4616 20.0596 20.405 20.7501 20.2124C20.5847 20.3886 20.4141 20.5597 20.2385 20.7256C19.7336 20.8197 19.386 20.7666 19.0385 20.5926C18.5183 20.3121 18.5983 20.232 19.1585 20.3522Z" fill="white"/>
<path d="M19.3865 21.4584C18.8479 21.2416 18.6408 21.3056 18.1582 21.7145C17.558 22.1953 17.1979 22.1953 16.5577 21.7545C15.9976 21.3539 15.5975 21.3539 14.8772 21.7145C14.4371 21.9148 14.3571 21.9949 14.5171 22.035C14.6372 22.0751 14.8772 22.035 15.1173 21.9549C15.6775 21.7145 15.9576 21.7145 16.6378 22.1552C16.7343 22.2089 16.8279 22.2626 16.9148 22.3124C17.1522 22.4485 17.3394 22.5559 17.398 22.5559C17.4566 22.5559 17.6009 22.47 17.784 22.3611C17.8509 22.3212 17.9231 22.2783 17.9982 22.2353C18.4477 21.946 18.7169 21.7856 18.9918 21.7542C19.1254 21.6583 19.257 21.5596 19.3865 21.4584Z" fill="white"/>
<path d="M14.1571 23.0367C14.8773 22.6761 15.3574 22.6761 15.8376 23.0367C16.1176 23.2771 16.1577 23.3171 15.9576 23.2771C15.2374 23.0367 14.9173 23.0767 14.3971 23.3572C13.7569 23.7579 13.1968 23.7178 12.5566 23.3171C12.2765 23.1569 11.9964 22.9565 11.9564 22.8764C11.8364 22.7161 11.3162 22.7161 10.9961 22.8764C10.796 22.9565 10.756 22.9565 10.9161 22.7562C10.9961 22.636 11.1562 22.5158 11.3162 22.4357C11.7163 22.2754 11.7563 22.2754 12.4365 22.7562C13.2768 23.3572 13.4768 23.3572 14.1571 23.0367Z" fill="white"/>
<path d="M13.2768 20.3121C12.8366 20.0317 12.5966 19.9916 12.2765 20.0317C11.8763 20.0717 11.8363 20.0717 12.0764 19.9115C12.4365 19.6711 12.6766 19.7111 13.3968 20.0317C14.197 20.3923 14.5171 20.3923 15.2374 20.0317C15.8375 19.7111 16.5177 19.7111 16.8778 20.0317C17.0379 20.1919 16.9979 20.1919 16.5978 20.1118C16.0376 19.9916 15.7575 20.0717 15.0773 20.4724C14.5171 20.833 14.157 20.7929 13.2768 20.3121Z" fill="white"/>
<path d="M9.69788 23.7795V16.1436H0.734375C1.09434 17.1219 1.57813 18.0405 2.16673 18.8801C2.33681 19.0828 2.50552 19.2998 2.60873 19.4713C2.6376 19.5075 2.66668 19.5436 2.69596 19.5795C3.68206 20.7885 4.89914 21.8017 6.27989 22.5517C6.6689 22.7631 7.07091 22.9535 7.4844 23.1215C8.1553 23.3942 8.85643 23.6079 9.58138 23.7563C9.62015 23.7642 9.65898 23.7719 9.69788 23.7795Z" fill="#ED4C5C"/>
<path d="M8.10297 23.3536C8.17448 23.3259 8.25077 23.3121 8.29891 23.3121C8.71033 23.3121 8.91604 22.7046 8.75147 22.2996C8.71033 22.2186 8.66919 22.1781 8.54576 22.2186C8.21662 22.2996 7.3115 22.2591 7.0235 22.0971C7.47607 22.2591 8.01091 21.9351 8.01091 21.6517C8.01091 21.3277 7.59949 21.0847 6.69436 21.2467C5.83038 21.4087 4.76068 21.3277 4.76068 21.0847C4.76068 20.8417 5.54238 20.8012 5.91266 20.8417C5.93469 20.8439 5.95625 20.846 5.97743 20.8482C6.32503 20.8831 6.57283 20.9081 7.1671 20.7582C7.22954 20.7489 7.27922 20.7361 7.3115 20.7202C7.26115 20.734 7.21309 20.7466 7.1671 20.7582C6.91119 20.7965 6.44104 20.7774 6.07723 20.6797C5.62467 20.5582 4.47269 20.5582 4.47269 21.0847C4.47269 21.6112 5.66581 21.5707 6.73551 21.4492C7.35264 21.3682 7.68178 21.4087 7.68178 21.6112C7.68178 21.7732 7.10579 21.8541 6.69436 21.8136C6.28294 21.7732 5.83038 21.7732 5.29553 21.8946C5.27806 21.9032 5.25874 21.91 5.23835 21.9157C5.66839 22.2095 6.11851 22.4761 6.58624 22.7129C6.82649 22.7446 7.14248 22.7391 7.59949 22.6641C8.17548 22.5831 8.34005 22.7451 8.34005 22.9476C8.34005 23.1096 8.21663 23.1096 8.17548 23.1096C7.97135 23.1096 7.84634 23.0784 7.75139 23.0547C7.69325 23.0403 7.64637 23.0286 7.59949 23.0286C7.54498 23.0554 7.50853 23.1 7.52601 23.1388C7.71597 23.2152 7.90834 23.2868 8.10297 23.3536Z" fill="#FFE62E"/>
<path d="M2.81129 19.7193C3.0387 19.6624 3.24802 19.5506 3.48527 19.3838C3.64984 19.3838 4.76068 19.3433 5.21324 19.1408C5.45604 19.3798 5.52339 19.3885 5.68646 19.4096C5.71682 19.4136 5.75049 19.4179 5.78923 19.4243C5.8245 19.4301 5.85808 19.435 5.88927 19.4396C6.07639 19.4673 6.17715 19.4821 6.03609 19.5863C5.99494 19.6268 5.70695 19.6268 5.54238 19.6268C5.3161 19.6268 5.15153 19.566 5.0281 19.5205C4.90468 19.4749 4.82239 19.4445 4.76068 19.5053C4.67839 19.6268 4.76068 19.6673 4.92525 19.6673C4.80182 19.6673 4.63725 19.6673 4.67839 19.7888C4.70241 19.907 4.79654 19.8733 4.88711 19.841C4.95167 19.8179 5.01443 19.7955 5.04867 19.8292C4.96639 19.8292 4.84296 19.8697 4.84296 19.9102C4.84296 19.9912 5.00753 20.0722 5.21324 19.9102C5.33667 19.8292 5.4601 19.8292 5.54238 19.8292C5.61096 19.8292 5.70286 19.8361 5.80643 19.8439C6.1378 19.8687 6.58857 19.9025 6.77665 19.7483C6.84522 19.6808 6.77093 19.6133 6.69665 19.5458C6.6818 19.5323 6.66692 19.5188 6.65322 19.5053C6.57093 19.4243 6.52979 19.3433 6.57093 19.1408C6.81779 19.1813 7.14692 19.1813 7.64063 19.1003C8.21662 19.0193 8.38119 19.1813 8.38119 19.3838C8.38119 19.5458 8.25776 19.5458 8.21662 19.5458C8.01249 19.5458 7.88748 19.5146 7.79253 19.4909C7.73438 19.4765 7.68751 19.4648 7.64063 19.4648C7.55835 19.5053 7.5172 19.5863 7.64063 19.6268C7.55835 19.6673 7.55835 19.7483 7.59949 19.7888C7.64063 19.8292 7.76406 19.7888 7.88748 19.7483C7.76406 19.7888 7.64063 19.8697 7.72292 19.9507C7.76406 19.9912 7.84634 20.0317 7.96977 19.9507C8.03069 19.8608 8.15929 19.8152 8.25534 19.7812C8.28901 19.7693 8.31869 19.7588 8.34005 19.7483C8.71033 19.8292 8.91604 19.2218 8.75147 18.8168C8.71033 18.7358 8.66919 18.6953 8.54576 18.7358C8.21662 18.8168 7.31149 18.7763 7.0235 18.6143C7.47606 18.7763 8.01091 18.4523 8.01091 18.1689C8.01091 17.8449 7.59949 17.6019 6.69436 17.7639C5.83038 17.9259 4.76068 17.8449 4.76068 17.6019C4.76068 17.3589 5.54238 17.3184 5.91266 17.3589C5.93461 17.3611 5.95609 17.3632 5.9772 17.3653L5.97743 17.3654C6.35193 17.403 6.61058 17.4291 7.31149 17.2374C7.14692 17.2779 6.52979 17.3184 6.07723 17.1969C5.62466 17.0754 4.47268 17.0754 4.47268 17.6019C4.47268 18.1284 5.66581 18.0879 6.7355 17.9664C7.35264 17.8854 7.68177 17.9259 7.68177 18.1284C7.68177 18.2903 7.10578 18.3713 6.69436 18.3308C6.28294 18.2903 5.83038 18.2903 5.29553 18.4118C4.3904 18.6548 3.3207 18.4928 3.07385 18.0879C3.07385 18.0711 3.08091 18.0543 3.08918 18.0347C3.10087 18.0069 3.11499 17.9733 3.11499 17.9259C3.18143 17.8932 3.22105 17.8077 3.2555 17.7333C3.26371 17.7156 3.27164 17.6985 3.27956 17.6829C3.3207 17.4804 3.23842 17.4804 2.99156 17.5614C2.90928 17.4804 2.74471 17.4399 2.49786 17.4399C2.25101 17.4399 2.12758 17.4804 2.00415 17.5614C1.7573 17.4804 1.67502 17.4804 1.71616 17.6829C1.72408 17.6985 1.732 17.7156 1.74022 17.7333C1.77467 17.8077 1.81429 17.8932 1.88073 17.9259C1.88073 18.2094 2.25101 18.6548 2.25101 18.6548C2.15778 18.6548 2.05611 18.6216 1.95365 18.5663C2.21673 18.968 2.50326 19.353 2.81129 19.7193Z" fill="#FFE62E"/>
<path d="M0.734575 16.1438H9.65695V7.88235H5.4193V4.56156H9.69809V2.90117H5.4193V1.96973C5.19043 2.11053 4.98146 2.27091 4.76471 2.43726C4.66975 2.51014 4.5733 2.58416 4.47303 2.65818C4.14578 2.92346 3.82753 3.20647 3.52673 3.50306C3.19198 3.83687 2.87684 4.19033 2.58319 4.56156H3.73247V7.84185H0.740103C0.261435 9.13749 0 10.5384 0 12.0003C0 13.4567 0.259422 14.8524 0.734575 16.1438Z" fill="white"/>
<path d="M9.45107 8.73228H9.36878L9.16307 8.4488H8.83393L9.12193 7.88184H9.69792V8.4488H9.65678L9.45107 8.73228Z" fill="#3E4347"/>
<path d="M9.40993 12.7416L9.2865 12.6201L9.40993 12.0936L9.5745 12.6201L9.40993 12.7416Z" fill="#3E4347"/>
<path d="M8.58707 12.9035L9.12192 13.025L9.24535 12.9035L9.12192 12.7415L8.58707 12.9035Z" fill="#3E4347"/>
<path d="M9.57446 12.9035L9.69789 12.9845V12.782L9.57446 12.9035Z" fill="#3E4347"/>
<path d="M9.69792 14.1995V13.511L9.45107 13.025H9.36878L8.83393 14.1995H9.16307L9.36878 14.4829H9.45107L9.65678 14.1995H9.69792Z" fill="#3E4347"/>
<path d="M6.40652 13.025L6.28309 12.9035L6.40652 12.7415L6.94137 12.9035L6.40652 13.025Z" fill="#3E4347"/>
<path d="M5.25455 12.9035L5.7894 13.025L5.91283 12.9035L5.7894 12.7415L5.25455 12.9035Z" fill="#3E4347"/>
<path d="M6.0774 12.7416L5.95398 12.6201L6.0774 12.0936L6.24197 12.6201L6.0774 12.7416Z" fill="#3E4347"/>
<path d="M6.03626 13.025L5.50141 14.1995H5.87169L6.03626 14.4829H6.11854L6.32425 14.1995H6.65339L6.11854 13.025H6.03626Z" fill="#3E4347"/>
<path d="M3.07404 13.025L2.95062 12.9035L3.07404 12.7415L3.60889 12.9035L3.07404 13.025Z" fill="#3E4347"/>
<path d="M2.5803 12.9035L2.45688 12.7415L1.92203 12.9035L2.45688 13.025L2.5803 12.9035Z" fill="#3E4347"/>
<path d="M2.78602 12.7416L2.62145 12.6201L2.78602 12.0936L2.90945 12.6201L2.78602 12.7416Z" fill="#3E4347"/>
<path d="M2.70375 13.025L2.21004 14.1995H2.53918L2.70375 14.4829H2.82717L2.99174 14.1995H3.36202L2.82717 13.025H2.70375Z" fill="#3E4347"/>
<path d="M6.03626 8.73228H6.11854L6.32425 8.4488H6.65339L6.40654 7.88184H5.78941L5.50141 8.4488H5.87169L6.03626 8.73228Z" fill="#3E4347"/>
<path d="M2.82717 8.73228H2.70375L2.53918 8.4488H2.21004L2.45689 7.88184H3.07402L3.36202 8.4488H2.99174L2.82717 8.73228Z" fill="#3E4347"/>
<path d="M1.92203 10.0687L1.38718 9.90673L1.26376 10.0687L1.38718 10.1902L1.92203 10.0687Z" fill="#3E4347"/>
<path d="M0.811215 9.90673L0.934642 10.0687L0.811215 10.1902L0.276367 10.0687L0.811215 9.90673Z" fill="#3E4347"/>
<path d="M1.26374 9.7852L1.09917 9.25874L0.975745 9.7852L1.09917 9.9067L1.26374 9.7852Z" fill="#3E4347"/>
<path d="M0.523226 11.3646L1.05807 10.1902H1.14036L1.67521 11.3646H1.30493L1.14036 11.6481H1.05807L0.852363 11.3646H0.523226Z" fill="#3E4347"/>
<path d="M5.25455 10.0687L4.7197 9.90673L4.59628 10.0687L4.7197 10.1902L5.25455 10.0687Z" fill="#3E4347"/>
<path d="M4.14374 9.90673L4.26716 10.0687L4.14374 10.1902L3.60889 10.0687L4.14374 9.90673Z" fill="#3E4347"/>
<path d="M4.55512 9.7852L4.43169 9.25874L4.30827 9.7852L4.43169 9.9067L4.55512 9.7852Z" fill="#3E4347"/>
<path d="M3.8557 11.3646L4.39055 10.1902H4.47283L5.00768 11.3646H4.6374L4.47283 11.6481H4.39055L4.18484 11.3646H3.8557Z" fill="#3E4347"/>
<path d="M8.58707 10.0687L8.05223 9.90673L7.9288 10.0687L8.05223 10.1902L8.58707 10.0687Z" fill="#3E4347"/>
<path d="M7.47621 9.90673L7.59964 10.0687L7.47621 10.1902L6.94136 10.0687L7.47621 9.90673Z" fill="#3E4347"/>
<path d="M7.88763 9.7852L7.76421 9.25874L7.59964 9.7852L7.76421 9.9067L7.88763 9.7852Z" fill="#3E4347"/>
<path d="M7.18822 11.3646L7.72307 10.1902H7.80536L8.3402 11.3646H7.96992L7.80536 11.6481H7.72307L7.51736 11.3646H7.18822Z" fill="#3E4347"/>
<path d="M4.59628 15.9409L4.7197 16.0624L5.25455 15.9409L4.7197 15.7789L4.59628 15.9409Z" fill="#3E4347"/>
<path d="M4.14374 16.0624L3.60889 15.9409L4.14374 15.7789L4.26716 15.9409L4.14374 16.0624Z" fill="#3E4347"/>
<path d="M4.30827 15.6574L4.43169 15.7788L4.55512 15.6574L4.43169 15.1309L4.30827 15.6574Z" fill="#3E4347"/>
<path d="M8.05223 16.0624L7.9288 15.9409L8.05223 15.7789L8.58707 15.9409L8.05223 16.0624Z" fill="#3E4347"/>
<path d="M6.94136 15.9409L7.47621 16.0624L7.59964 15.9409L7.47621 15.7789L6.94136 15.9409Z" fill="#3E4347"/>
<path d="M7.76421 15.7788L7.59964 15.6574L7.76421 15.1309L7.88763 15.6574L7.76421 15.7788Z" fill="#3E4347"/>
<path d="M0.725586 7.88185H3.69175V5.4115L0.762939 7.78102C0.750342 7.81456 0.737891 7.84817 0.725586 7.88185Z" fill="#ED4C5C"/>
<path d="M6.8597 2.90067H9.69851V0.632812L6.8597 2.90067Z" fill="#ED4C5C"/>
<path d="M8.42312 7.88183L5.41974 5.45199V7.88183H8.42312Z" fill="#ED4C5C"/>
<path d="M6.8597 4.56104L9.69851 6.8289V4.56104H6.8597Z" fill="#ED4C5C"/>
<path d="M0.762695 7.78139L3.69153 5.41185V4.5614H2.58331C1.82049 5.52576 1.20265 6.61005 0.762695 7.78139Z" fill="#699635"/>
<path d="M5.43908 1.951C5.43254 1.95693 5.42601 1.96311 5.41948 1.96954V2.90098H6.85946L9.69827 0.633123V0.220703C8.27316 0.497571 6.93811 1.02663 5.74145 1.75955C5.71632 1.77546 5.69128 1.79146 5.66633 1.80755C5.66222 1.80957 5.6581 1.8116 5.65399 1.81363C5.58183 1.85868 5.51019 1.90447 5.43908 1.951Z" fill="#699635"/>
<path d="M9.69827 6.82926L6.85946 4.5614H5.41948V5.45235L8.42286 7.88219H9.69827V6.82926Z" fill="#699635"/>
</g>
<defs>
<clipPath id="clip0_1_633">
<rect width="24" height="24" fill="white"/>
</clipPath>
</defs>
</svg>
