<svg width="24" height="24" viewBox="0 0 24 24" fill="none" xmlns="http://www.w3.org/2000/svg">
<g clip-path="url(#clip0_1_1309)">
<path d="M12 24C18.6274 24 24 18.6274 24 12C24 5.37258 18.6274 0 12 0C5.37258 0 0 5.37258 0 12C0 18.6274 5.37258 24 12 24Z" fill="#F0F0F0"/>
<path d="M11.9997 0C7.24218 0 3.13143 2.76867 1.19043 6.78263H22.8089C20.868 2.76867 16.7572 0 11.9997 0Z" fill="#D80027"/>
<path d="M11.9997 24.0004C16.7572 24.0004 20.868 21.2317 22.809 17.2178H1.19043C3.13143 21.2317 7.24218 24.0004 11.9997 24.0004Z" fill="#0052B4"/>
<path d="M14.9514 8.52734L13.8446 9.63411C14.3167 10.1062 14.6088 10.7584 14.6088 11.4787C14.6088 12.9195 13.4408 14.0874 12.0001 14.0874C10.5594 14.0874 9.39138 12.9194 9.39138 11.4787C9.39138 10.7584 9.68341 10.1062 10.1555 9.63411L9.04872 8.52734C8.29333 9.28259 7.82617 10.3261 7.82617 11.4787C7.82617 13.784 9.69489 15.6526 12.0001 15.6526C14.3052 15.6526 16.174 13.7839 16.174 11.4787C16.1739 10.3261 15.7068 9.28259 14.9514 8.52734Z" fill="#6DA544"/>
<path d="M12.0003 9.91309L12.3888 11.1089H13.6461L12.6289 11.8478L13.0175 13.0435L12.0003 12.3046L10.9831 13.0435L11.3716 11.8478L10.3545 11.1089H11.6117L12.0003 9.91309Z" fill="#FFDA44"/>
</g>
<defs>
<clipPath id="clip0_1_1309">
<rect width="24" height="24" fill="white"/>
</clipPath>
</defs>
</svg>
