<svg width="24" height="24" viewBox="0 0 24 24" fill="none" xmlns="http://www.w3.org/2000/svg">
<g clip-path="url(#clip0_1_1362)">
<path d="M12 24C18.6274 24 24 18.6274 24 12C24 5.37258 18.6274 0 12 0C5.37258 0 0 5.37258 0 12C0 18.6274 5.37258 24 12 24Z" fill="#3366FF"/>
<path d="M2.29449 4.94144C2.05766 5.26652 1.83678 5.60394 1.63297 5.95257L12 12L0.0147031 11.4007C0.0049393 11.5993 0 11.7991 0 12C0 12.2009 0.0049391 12.4007 0.0147025 12.5993L12 12L23.9853 12.5993C23.9951 12.4007 24 12.2009 24 12C24 11.7991 23.9951 11.5993 23.9853 11.4007L12 12L22.367 5.95257C22.1632 5.60394 21.9423 5.26652 21.7055 4.94144L12 12L12.8975 0.0330575C12.6012 0.0111489 12.3019 0 12 0C11.6981 0 11.3988 0.0111494 11.1025 0.0330589L12 12L2.29449 4.94144Z" fill="#FFFF00"/>
<path d="M21.9869 18.6571C19.8351 21.8784 16.166 24 12.0013 24C7.83661 24 4.16745 21.8784 2.01562 18.6571L12.0013 12L21.9869 18.6571Z" fill="#FF0000"/>
</g>
<defs>
<clipPath id="clip0_1_1362">
<rect width="24" height="24" fill="white"/>
</clipPath>
</defs>
</svg>
