<svg width="24" height="24" viewBox="0 0 24 24" fill="none" xmlns="http://www.w3.org/2000/svg">
<g clip-path="url(#clip0_1_1429)">
<path d="M12 24C18.6274 24 24 18.6274 24 12C24 5.37258 18.6274 0 12 0C5.37258 0 0 5.37258 0 12C0 18.6274 5.37258 24 12 24Z" fill="#005430"/>
<path d="M6.78223 14.3477C6.78223 15.2121 7.48301 15.9129 8.34743 15.9129H13.0431C13.0431 16.6332 13.6271 17.2172 14.3474 17.2172H15.9126C16.633 17.2172 17.217 16.6332 17.217 15.9129V14.3477H6.78223Z" fill="#F0F0F0"/>
<path d="M17.3482 6.78223V10.4344C17.3482 11.0098 16.8801 11.4779 16.3047 11.4779V13.0431C17.7431 13.0431 18.9134 11.8728 18.9134 10.4344V6.78223H17.3482Z" fill="#F0F0F0"/>
<path d="M6.1304 10.4344C6.1304 11.0098 5.6623 11.4779 5.08691 11.4779V13.0431C6.52537 13.0431 7.6956 11.8728 7.6956 10.4344V6.78223H6.1304V10.4344Z" fill="#F0F0F0"/>
<path d="M15 6.78223H16.5652V10.4344H15V6.78223Z" fill="#F0F0F0"/>
<path d="M12.6524 8.86919C12.6524 9.01305 12.5354 9.13005 12.3915 9.13005C12.2477 9.13005 12.1307 9.01301 12.1307 8.86919V6.78223H10.5655V8.86919C10.5655 9.01305 10.4484 9.13005 10.3046 9.13005C10.1608 9.13005 10.0438 9.01301 10.0438 8.86919V6.78223H8.47852V8.86919C8.47852 9.87612 9.2977 10.6953 10.3046 10.6953C10.6924 10.6953 11.052 10.5734 11.3481 10.3664C11.6441 10.5734 12.0038 10.6953 12.3916 10.6953C12.4697 10.6953 12.5465 10.6898 12.622 10.6802C12.5111 11.1372 12.0995 11.4779 11.609 11.4779V13.0431C13.0474 13.0431 14.2177 11.8728 14.2177 10.4344V8.86919V6.78223H12.6525V8.86919H12.6524Z" fill="#F0F0F0"/>
<path d="M8.47852 11.4775H10.8263V13.0427H8.47852V11.4775Z" fill="#F0F0F0"/>
</g>
<defs>
<clipPath id="clip0_1_1429">
<rect width="24" height="24" fill="white"/>
</clipPath>
</defs>
</svg>
