<svg width="24" height="24" viewBox="0 0 24 24" fill="none" xmlns="http://www.w3.org/2000/svg">
<g clip-path="url(#clip0_1_2004)">
<path d="M24 12C24 18.6274 18.6274 24 12 24C5.37262 24 0 18.6274 0 12C0 12.0029 12 0.0013125 12 0C18.6274 0 24 5.37262 24 12Z" fill="#0052B4"/>
<path d="M14.4062 14.9629H20.0467L19.8737 16.7104L19.0086 18.4579L17.2265 19.8767L15.4444 18.4579L14.5793 16.7104L14.4062 14.9629Z" fill="#8FC5FF"/>
<path fill-rule="evenodd" clip-rule="evenodd" d="M16.6855 17.6549C16.6855 17.6549 17.3453 16.8006 17.7334 16.8006C18.1214 16.8006 18.1927 17.3679 18.7895 17.3679C19.3861 17.3679 19.7008 16.4639 20.2757 16.4639C20.0296 16.6924 18.853 18.4399 18.853 18.4399L18.334 19.2012L17.1574 19.876L16.6855 17.6549Z" fill="#366CC9"/>
<path fill-rule="evenodd" clip-rule="evenodd" d="M14.7433 16.3379L15.3252 15.793L15.8969 17.1927L16.6644 15.793L17.3245 19.7827L16.1881 19.3226L14.3887 16.6062L14.7433 16.3379Z" fill="#CF6200"/>
<rect x="14.4062" y="11.6406" width="5.64046" height="3.49501" fill="#FFFF00"/>
<path fill-rule="evenodd" clip-rule="evenodd" d="M19.1471 11.8137H15.306C14.9047 11.8137 14.5794 12.1391 14.5794 12.5404V15.7509C14.5794 16.2102 14.7292 16.657 15.006 17.0234L16.6468 19.195C16.9375 19.5798 17.5156 19.5798 17.8064 19.195L19.4471 17.0234C19.724 16.657 19.8738 16.2102 19.8738 15.7509V12.5404C19.8738 12.1391 19.5484 11.8137 19.1471 11.8137ZM15.306 11.1562C14.5416 11.1562 13.9219 11.776 13.9219 12.5404V15.7509C13.9219 16.3533 14.1183 16.9392 14.4814 17.4198L16.1222 19.5913C16.676 20.3243 17.7771 20.3243 18.3309 19.5913L19.9717 17.4198C20.3348 16.9392 20.5312 16.3533 20.5312 15.7509V12.5404C20.5312 11.776 19.9115 11.1562 19.1471 11.1562H15.306Z" fill="white"/>
<path d="M11.9678 11.9999H11.9999C11.9999 11.9891 11.9999 11.9786 11.9999 11.9678C11.9892 11.9785 11.9785 11.9892 11.9678 11.9999Z" fill="#F0F0F0"/>
<path d="M12 6.26086C12 4.14937 12 2.76586 12 0H11.998C5.37145 0.001125 0 5.37323 0 12H6.26086V8.47448L9.78638 12H11.9679C11.9786 11.9893 11.9893 11.9786 12 11.9679C12 11.1594 12 10.4381 12 9.78647L8.47444 6.26086H12Z" fill="#F0F0F0"/>
<path d="M6.07124 1.56543C4.19441 2.63413 2.63409 4.19441 1.56543 6.07124V12.0002H4.69588V4.69598V4.69588H12.0002C12.0002 3.70855 12.0002 2.76796 12.0002 1.56543H6.07124Z" fill="#D80027"/>
<path d="M11.9999 10.5242L7.73637 6.26074H6.26074V6.26084L11.9998 11.9998H11.9999C11.9999 11.9998 11.9999 10.9823 11.9999 10.5242Z" fill="#D80027"/>
</g>
<defs>
<clipPath id="clip0_1_2004">
<rect width="24" height="24" fill="white"/>
</clipPath>
</defs>
</svg>
