<svg width="24" height="24" viewBox="0 0 24 24" fill="none" xmlns="http://www.w3.org/2000/svg">
<g clip-path="url(#clip0_1_660)">
<path d="M12 24C18.6274 24 24 18.6274 24 12C24 5.37258 18.6274 0 12 0C5.37258 0 0 5.37258 0 12C0 18.6274 5.37258 24 12 24Z" fill="#F0F0F0"/>
<path d="M12 24C18.6274 24 24 18.6274 24 12C24 5.37258 18.6274 0 12 0C5.37258 0 0 5.37258 0 12C0 18.6274 5.37258 24 12 24Z" fill="#214D9B"/>
<path fill-rule="evenodd" clip-rule="evenodd" d="M23.6686 14.8124H23.1985L22.9522 14.0344L22.7083 14.8124H21.9045L22.557 15.2984L22.3133 16.0693L22.9522 15.5971L23.3544 15.8932C23.3867 15.7989 23.4179 15.7041 23.4479 15.6088L23.3497 15.2984L23.5909 15.1181C23.6181 15.0167 23.644 14.9148 23.6686 14.8124ZM21.9834 18.6604C21.649 17.7981 21.3146 16.9355 20.9897 16.0694H19.2531C18.9432 16.8926 18.6253 17.7127 18.3071 18.5324V15.312H19.2001L19.7041 14.2946H18.3071V13.4116H20.1416L20.6783 12.3281H14.7866V12.3897L15.1963 13.3957H17.0266V17.3742H17.0379V18.427C16.7337 17.6423 16.4303 16.8573 16.1347 16.0694H14.398C14.0771 16.922 13.7476 17.7712 13.418 18.6204L13.4174 18.6219C13.0957 19.4505 12.7741 20.2791 12.4606 21.1109H14.0842C14.1251 20.9707 14.1677 20.8311 14.2103 20.6916L14.2108 20.6903L14.2441 20.5811C14.2748 20.4802 14.3053 20.3793 14.3348 20.2781H16.1436C16.4094 21.1624 16.7647 22.008 17.1326 22.8501C17.6242 22.6171 18.0975 22.3517 18.5497 22.0566C18.7904 21.4746 19.0127 20.8854 19.19 20.2781H20.6875C21.1642 19.778 21.5981 19.2369 21.9834 18.6604ZM15.9953 23.3188H15.4324L15.1886 22.541L14.9446 23.3188H14.1406L14.6606 23.704C15.1158 23.601 15.5613 23.472 15.9953 23.3188ZM20.6691 19.19C20.5816 18.9065 20.4921 18.624 20.4026 18.3418L20.4018 18.3392C20.3001 18.0182 20.1985 17.6976 20.1001 17.3764C20.0227 17.6292 19.9436 17.8816 19.8645 18.1342L19.8585 18.1534L19.8574 18.1569L19.8564 18.1603L19.8542 18.1671C19.7476 18.5075 19.6409 18.8481 19.538 19.19H20.6691ZM15.5083 18.2185C15.6107 18.5417 15.7137 18.8653 15.814 19.19H14.6827L14.7148 19.0838L14.7424 18.9932L14.7866 18.8491L14.8177 18.7483C14.8467 18.6546 14.8759 18.5609 14.9051 18.4672L15.0031 18.154L15.0034 18.153C15.0845 17.8942 15.1656 17.6355 15.245 17.3764C15.2761 17.4781 15.3076 17.5797 15.3392 17.6813L15.3806 17.8137L15.4193 17.9366L15.5083 18.2185ZM12.6751 14.0344L12.4289 14.8124H11.625L12.2777 15.2984L12.0336 16.0693L12.6751 15.5971L13.3141 16.0693L13.0703 15.2984L13.7229 14.8124H12.9188L12.6751 14.0344Z" fill="white"/>
<path fill-rule="evenodd" clip-rule="evenodd" d="M12.328 0.00439934C12.219 0.00147268 12.1096 0 11.9999 0C5.5452 0 0.280803 5.09615 0.0107422 11.4844H12.328V0.00439934Z" fill="white"/>
<path fill-rule="evenodd" clip-rule="evenodd" d="M0.750094 7.81445C0.358586 8.86642 0.110407 9.98814 0.0292969 11.1559H0.750094V7.81445Z" fill="#214D9B"/>
<path fill-rule="evenodd" clip-rule="evenodd" d="M6.60938 1.27602V11.1562H12V0C10.0614 0 8.23018 0.459695 6.60938 1.27602Z" fill="#EB2E2E"/>
</g>
<defs>
<clipPath id="clip0_1_660">
<rect width="24" height="24" fill="white"/>
</clipPath>
</defs>
</svg>
