<svg width="24" height="24" viewBox="0 0 24 24" fill="none" xmlns="http://www.w3.org/2000/svg">
<g clip-path="url(#clip0_1_128)">
<circle cx="12" cy="12" r="12" fill="#FFDA44"/>
<path d="M12 24C18.6274 24 24 18.6274 24 12C24 5.37259 18.6274 0 12 0V24Z" fill="#F0F0F0"/>
<path d="M16.3818 10.3272L18.8463 13.5753C18.458 14.1611 18.4601 14.9503 18.9092 15.5421C19.4788 16.2929 20.5516 16.4415 21.3052 15.874C22.0588 15.3065 22.208 14.2378 21.6382 13.487C21.1892 12.8952 20.4276 12.678 19.756 12.8904L15.915 7.82812L15.0053 8.51321L13.6406 9.54073L15.016 11.3532L16.3818 10.3272ZM19.9299 14.0614C20.1811 13.8722 20.5387 13.9218 20.7286 14.1719C20.9185 14.4222 20.8688 14.7785 20.6176 14.9677C20.3664 15.1568 20.0088 15.1074 19.819 14.8571C19.629 14.6068 19.6787 14.2505 19.9299 14.0614Z" fill="#ACABB1"/>
<path d="M20.609 11.3533L21.9844 9.54084L20.6198 8.51321L19.7101 7.82812L15.869 12.8904C15.1975 12.678 14.4358 12.8952 13.9868 13.487C13.417 14.2378 13.5662 15.3065 14.3198 15.874C15.0734 16.4415 16.1461 16.2929 16.7158 15.5422C17.1649 14.9503 17.1669 14.1611 16.7786 13.5754L19.2432 10.3272L20.609 11.3533ZM15.8061 14.8572C15.6162 15.1075 15.2587 15.157 15.0075 14.9678C14.7562 14.7786 14.7066 14.4223 14.8965 14.172C15.0863 13.9219 15.4439 13.8723 15.6952 14.0615C15.9464 14.2507 15.996 14.607 15.8061 14.8572Z" fill="#FFDA44"/>
<path d="M12 24V0C5.37258 0 0 5.37259 0 12C0 18.6274 5.37258 24 12 24Z" fill="#FFDA44"/>
</g>
<defs>
<clipPath id="clip0_1_128">
<rect width="24" height="24" fill="white"/>
</clipPath>
</defs>
</svg>
