<svg width="24" height="24" viewBox="0 0 24 24" fill="none" xmlns="http://www.w3.org/2000/svg">
<g clip-path="url(#clip0_1_1913)">
<path d="M12 24C18.6274 24 24 18.6274 24 12C24 5.37258 18.6274 0 12 0C5.37258 0 0 5.37258 0 12C0 18.6274 5.37258 24 12 24Z" fill="#ED2939"/>
<path d="M15.5977 17.7188H20.5898L18.0938 15.2227L15.5977 17.7188ZM20.5898 11.0625H15.5977L18.0938 13.5586L20.5898 11.0625ZM21.4219 16.8867V11.8945L18.9258 14.3906L21.4219 16.8867ZM14.7656 11.8945V16.8867L17.2617 14.3906L14.7656 11.8945Z" fill="white"/>
<path d="M0.0360809 12.9375H12.75V0.0230565C12.502 0.00776085 12.2519 0 12 0C5.37258 0 0 5.37258 0 12C0 12.3155 0.012175 12.6281 0.0360809 12.9375Z" fill="white"/>
<path d="M8.1416 0.633821V12.4251H12.2123V0.00183827C12.1417 0.000614434 12.071 0 12.0001 0C10.6503 0 9.35253 0.22287 8.1416 0.633821Z" fill="#ED2939"/>
<path d="M4.07812 2.9858V12.4246H8.14885V0.630859C6.63341 1.14404 5.25379 1.95173 4.07812 2.9858Z" fill="white"/>
<path d="M0.00738915 12.4255H4.07072V2.99316C1.57471 5.19217 0 8.41239 0 12.0004C0 12.1427 0.00247663 12.2844 0.00738915 12.4255Z" fill="#002395"/>
</g>
<defs>
<clipPath id="clip0_1_1913">
<rect width="24" height="24" fill="white"/>
</clipPath>
</defs>
</svg>
