<svg width="24" height="24" viewBox="0 0 24 24" fill="none" xmlns="http://www.w3.org/2000/svg">
<g clip-path="url(#clip0_1041_232)">
<path d="M12 24C18.6274 24 24 18.6274 24 12C24 5.37258 18.6274 0 12 0C5.37258 0 0 5.37258 0 12C0 18.6274 5.37258 24 12 24Z" fill="#244AA5"/>
<path d="M11.9215 8.23746C12.049 8.38555 12.1343 8.53352 12.1343 8.71351C12.0273 8.76618 11.8795 8.78769 11.7942 8.88288C12.3254 8.80866 12.4312 9.42206 13.0261 9.18929C13.0477 9.27424 13.133 9.34838 13.2388 9.31633L13.3025 9.14739C13.5357 9.08395 13.4719 9.46454 13.7278 9.39036C13.8553 9.49628 13.77 9.67584 13.8553 9.80327C13.8553 9.95109 13.919 10.078 13.9827 10.2048C14.0464 10.1312 14.0885 10.0253 14.2375 10.057C14.3433 10.1731 14.4286 10.2791 14.4501 10.4059C14.4069 10.6495 14.3432 10.8607 14.598 10.9876V11.0618C14.7686 11.1359 15.1509 10.9876 15.1509 11.2838C15.1292 11.3897 15.2566 11.2946 15.2998 11.358C15.4056 11.3155 15.5546 11.337 15.682 11.337C15.7878 11.5591 15.5546 11.7176 15.4909 11.9187C15.5967 12.0241 15.5546 12.2149 15.533 12.3412L15.4693 12.3729C15.6388 12.4046 15.8514 12.3526 16.0005 12.4477L16.2769 12.553C16.4043 12.4794 16.5522 12.4681 16.7228 12.4794C16.8502 12.5746 16.6796 12.7332 16.7865 12.8068C16.9355 12.8068 17.0629 12.8284 17.0834 12.9553L17.105 12.9972C17.2108 12.8068 17.5088 12.9337 17.6362 12.7967C17.8489 12.7967 17.891 13.0289 17.9967 13.1558C18.04 13.4843 17.6362 13.6327 17.7636 13.96C17.6783 14.1186 17.5088 14.2455 17.3814 14.3939C17.4235 14.4154 17.4018 14.4675 17.4018 14.4992C17.2745 14.574 17.3814 14.796 17.2108 14.8165C17.1903 14.9546 16.9355 14.9014 17.0197 15.0498C17.1903 15.2718 16.9355 15.4089 16.9355 15.6105C16.8286 15.7272 16.6159 15.504 16.6159 15.7272C16.4885 15.7589 16.3611 15.6105 16.2769 15.7374C16.2337 15.8858 16.3611 15.9379 16.3406 16.0863C16.5522 16.0647 16.6159 16.2766 16.7012 16.4035L16.9139 16.6153C16.7012 16.7841 16.4248 16.5937 16.1699 16.6889C16.1062 16.6572 16.17 16.5733 16.1062 16.5416C16.0425 16.4668 15.9152 16.4668 15.8094 16.4464C15.8299 16.5416 15.6388 16.5733 15.7241 16.6888C15.7241 16.7205 15.7661 16.8157 15.682 16.8157C15.5113 16.869 15.533 16.6685 15.3839 16.7421C15.1928 16.8157 15.3419 17.1012 15.0655 17.0695C15.1075 17.3244 14.6412 17.4932 14.9596 17.7152C15.0017 17.7571 14.9801 17.8421 14.9801 17.9055C14.789 18.0754 14.45 18.012 14.2373 17.9485C14.0667 17.9055 14.1736 17.6937 14.11 17.5781C14.0463 17.4717 13.8552 17.398 13.8552 17.2496C13.7277 17.1974 13.6208 17.1647 13.5355 17.0593C13.2387 17.3448 12.8771 17.62 12.4527 17.6302C12.2616 17.7254 12.1547 18.1071 11.8578 17.9485C11.7412 18.1388 11.3902 17.9485 11.3692 18.2227C11.231 18.2759 11.2947 18.456 11.21 18.5398C11.1781 18.7516 11.21 18.9317 11.3902 19.0587C11.4647 19.2172 11.231 19.2172 11.3265 19.3657C11.3482 19.4178 11.3265 19.4925 11.2947 19.514C11.231 19.5457 11.21 19.5775 11.231 19.6409C11.1781 19.6409 11.1565 19.6726 11.1144 19.7145C11.0609 19.8199 10.8914 19.8731 10.7743 19.9467C10.6577 19.9785 10.5724 19.8946 10.4984 19.8199C10.4768 19.9366 10.3813 20 10.2647 20C10.0946 20 10.1265 19.8516 9.9991 19.7882C10.052 19.5979 9.88196 19.514 9.93539 19.3441C10.0735 19.2388 10.3068 19.164 10.2431 18.942C10.0946 18.763 10.1475 18.4979 9.9991 18.2861C9.90355 18.2023 9.7443 18.0754 9.79719 17.8738C9.93539 17.7152 9.79719 17.5249 9.7227 17.3561C9.69087 17.2179 9.60611 17.0911 9.60611 16.9325C9.37237 16.7954 9.36155 16.4352 9.03227 16.4035C8.79853 16.4035 8.75642 16.1078 8.52268 16.1282C8.50108 16.0863 8.44819 16.0546 8.40554 16.0126C8.23605 16.1282 8.02337 15.9809 7.81119 16.033C7.67299 15.8008 7.92778 15.4836 7.55585 15.3454V15.1982C7.5985 15.2185 7.61956 15.1766 7.63034 15.1551C7.65139 14.9965 7.36473 14.9761 7.4819 14.796C7.4182 14.7428 7.34371 14.7212 7.38636 14.6159C7.22657 14.2885 6.74881 14.3202 6.64245 13.9917C6.72776 13.9181 6.72776 13.8433 6.75963 13.7799C6.68511 13.653 6.66409 13.516 6.68511 13.3789C6.75963 13.3574 6.8017 13.2623 6.84436 13.1875C6.74881 13.1241 6.63218 13.0289 6.52586 13.0606C6.33477 13.0289 6.19653 12.8816 6.0265 12.7967C5.98385 12.7547 6.00549 12.68 6.00549 12.6279C6.23919 12.5531 5.97365 12.2252 6.26028 12.2677C6.33481 12.1725 6.49402 12.1408 6.61066 12.0666C6.7278 12.0457 6.82334 12.0881 6.93994 12.1199C7.03548 12.2462 7.20555 12.1935 7.30106 12.2994C7.3966 12.2779 7.51378 12.2252 7.63038 12.2779C7.63038 12.0983 7.71514 11.9924 7.84306 11.8655C7.86411 11.7919 7.98071 11.7386 8.07626 11.6967C8.25714 11.7386 8.46929 11.7386 8.59724 11.6118C8.68201 11.665 8.7565 11.5591 8.85204 11.5591C8.9686 11.5376 9.06418 11.5693 9.14948 11.6225C9.15972 11.4107 9.53166 11.5908 9.60618 11.337C9.69095 11.1677 9.37244 11.1043 9.39346 10.9559C9.34057 10.7865 9.46799 10.7021 9.53166 10.586C9.60614 10.5543 9.69091 10.5118 9.78645 10.5328C10.031 10.4483 9.83988 9.9511 10.2329 10.1312C10.2329 10.1839 10.2113 10.2473 10.2431 10.2581C10.3813 10.2581 10.4026 10.0993 10.4985 10.0463C10.5406 9.89846 10.4451 9.71836 10.5725 9.6022C10.6362 9.59147 10.6896 9.5705 10.7317 9.51725C10.7317 9.40113 10.668 9.33773 10.5725 9.26351C10.5406 9.31637 10.4559 9.27428 10.4026 9.29525C10.4026 9.16836 10.3285 9.08398 10.3069 8.96729C10.2431 8.93559 10.2113 8.88291 10.2329 8.80869C10.3285 8.71355 10.2329 8.48077 10.4559 8.53356C10.5406 8.4598 10.6896 8.51248 10.7744 8.38559C10.9973 8.25873 11.2947 8.25873 11.4648 8.02596C11.5393 8.03669 11.6241 7.96251 11.6985 8.02596C11.7196 8.16355 11.9215 8.1103 11.9215 8.23746Z" fill="#D0A650"/>
<path d="M10.4133 4L10.717 4.91967H11.7115L10.9068 5.48846L11.2143 6.40813L10.4133 5.83934L9.60856 6.40813L9.91603 5.48846L9.11128 4.91967H10.1058L10.4133 4Z" fill="white"/>
<path d="M13.5867 4L13.8942 4.91967H14.8887L14.084 5.48846L14.3914 6.40813L13.5867 5.83934L12.7857 6.40813L13.0932 5.48846L12.2885 4.91967H13.283L13.5867 4Z" fill="white"/>
<path d="M16.7147 4.53907L17.0221 5.45504H18.0167L17.2119 6.02384L17.5194 6.94351L16.7147 6.37472L15.9137 6.94351L16.2212 6.02384L15.4164 5.45504H16.411L16.7147 4.53907Z" fill="white"/>
<path d="M20.0055 6.51154L19.7018 5.59556L19.3943 6.51154H18.3997L19.2045 7.08033L18.897 8L19.7018 7.43121L20.5027 8L20.1953 7.08033L21 6.51154H20.0055Z" fill="white"/>
<path d="M7.58902 5.45504L7.28534 4.53907L6.97787 5.45504H5.98332L6.78807 6.02384L6.48059 6.94351L7.28534 6.37472L8.0863 6.94351L7.77882 6.02384L8.58357 5.45504H7.58902Z" fill="white"/>
<path d="M4.29823 5.59556L4.60571 6.51154H5.60026L4.7955 7.08033L5.10298 8L4.29823 7.43121L3.49728 8L3.80475 7.08033L3 6.51154H3.99455L4.29823 5.59556Z" fill="white"/>
</g>
<defs>
<clipPath id="clip0_1041_232">
<rect width="24" height="24" fill="white"/>
</clipPath>
</defs>
</svg>
