<svg width="24" height="24" viewBox="0 0 24 24" fill="none" xmlns="http://www.w3.org/2000/svg">
<g clip-path="url(#clip0_1_1058)">
<circle cx="12" cy="12" r="12" fill="#F5F5F5"/>
<path d="M7.85514 15.9121C7.28129 16.0887 6.48673 16.486 6.17774 16.7067C6.08946 16.795 6.08946 16.8832 6.22188 17.1922C6.35431 17.413 6.44259 17.5895 6.48674 17.5895C6.53088 17.5895 6.83987 17.4571 7.19301 17.2805C7.54615 17.104 7.98757 16.8832 8.20828 16.8391C8.38485 16.795 8.51727 16.795 8.60556 16.7508C8.6497 16.8391 8.60556 16.795 8.69384 16.9274C8.78213 17.104 8.73799 17.104 8.87041 17.1922C9.04698 17.2364 9.44426 17.0157 9.44426 17.0157C9.92982 16.8391 10.1947 16.8391 11.9604 16.8391C13.726 16.8391 13.9909 16.8391 14.4765 17.0157C14.4765 17.0157 14.8737 17.1481 14.9179 17.1481C14.962 17.1481 15.0062 17.1922 15.0503 17.1481C15.0945 17.1481 15.1386 17.0598 15.1827 17.0157C15.1827 17.0157 15.271 16.7508 15.3152 16.6625C15.4035 16.7067 15.58 16.7508 15.7566 16.8391C15.9332 16.9274 16.3746 17.104 16.7277 17.2805C17.0809 17.4571 17.3899 17.5895 17.434 17.5895C17.434 17.5895 17.5664 17.413 17.6988 17.1922C17.9196 16.7508 17.9637 16.795 17.125 16.3535C16.0214 15.7797 14.962 15.5148 14.8296 15.8238C14.8296 15.868 14.7855 15.9121 14.7855 15.9563C14.6972 15.9121 14.3882 15.868 14.1233 15.8238C13.2405 15.6473 10.8127 15.6473 9.92982 15.8238C9.66497 15.868 9.44426 15.9563 9.26769 16.0004C9.17941 15.8238 9.17941 15.9121 9.17941 15.8238C9.04698 15.6473 8.56142 15.6914 7.85514 15.9121Z" fill="#3E4347"/>
<path d="M8.78248 15.7803C8.3852 15.7803 7.63479 16.0451 6.84023 16.4424C6.1781 16.7514 6.1781 16.7955 6.35466 17.1487C6.44295 17.3252 6.53123 17.4577 6.53123 17.4577C6.57538 17.4577 6.84023 17.3252 7.19337 17.1487C7.5465 16.9721 7.98793 16.7955 8.20864 16.7073C8.34106 16.6631 8.47349 16.6631 8.60592 16.619L8.51763 16.3541C8.60592 16.0893 8.82663 15.8686 9.04734 15.8244C8.91491 15.8244 8.87077 15.7803 8.78248 15.7803Z" fill="#DFDFDF"/>
<path d="M11.872 15.8242C11.0774 15.8242 10.327 15.8684 9.97388 15.9125C9.35589 16.0008 9.04689 16.2215 8.82618 16.3098C8.7379 16.3539 8.69375 16.3981 8.60547 16.4422C8.69375 16.6188 8.69375 16.7071 8.7379 16.8395C8.78204 16.9719 8.78204 17.0602 8.95861 17.1043C9.13518 17.1043 9.48831 16.9278 9.48831 16.9278C9.97388 16.7512 10.2387 16.7512 12.0044 16.7512C13.7701 16.7512 14.1232 16.7953 14.5205 16.9278C14.8295 17.0161 14.9178 17.1043 15.0502 17.1043C15.0944 17.1043 15.1385 17.0161 15.1827 16.8836C15.2268 16.7512 15.3151 16.5305 15.3592 16.3098C15.2709 16.3098 15.3151 16.3539 15.1827 16.2656C14.9178 16.1332 14.8737 16.1332 14.6971 16.0449C14.4764 15.9566 14.2998 15.9566 13.9908 15.9125C13.6377 15.8684 12.799 15.8242 12.0044 15.8242H11.872Z" fill="#DFDFDF"/>
<path d="M15.1383 15.8242H15.0059C15.0941 15.8684 15.1824 15.9566 15.2266 16.0008C15.4031 16.0891 15.4031 16.2215 15.4031 16.3981C15.4031 16.4864 15.4031 16.5305 15.359 16.6188C15.4473 16.6629 15.6238 16.7071 15.7563 16.7953C15.9328 16.8395 16.3743 17.0602 16.7715 17.2368C17.1247 17.4133 17.3895 17.5458 17.4337 17.5458C17.4337 17.5458 17.522 17.3692 17.6102 17.2368C17.7427 17.0161 17.7427 16.9278 17.6544 16.8395C17.4337 16.6629 16.595 16.2656 16.0211 16.0891C15.5797 15.8684 15.3149 15.8242 15.1383 15.8242Z" fill="#DFDFDF"/>
<path d="M14.8742 15.8682C14.8301 15.9123 14.8301 15.9564 14.8301 16.0006C14.8742 16.0006 15.0949 16.133 15.2274 16.133H15.2715C15.2715 16.133 15.2274 16.0889 15.1391 16.0447C15.0508 16.0006 14.9625 15.9123 14.8742 15.8682Z" fill="#DFDFDF"/>
<path d="M9.04669 15.8682C9.00255 15.9123 8.87012 16.0006 8.82598 16.0447C8.69356 16.133 8.69356 16.1772 8.64941 16.3096C8.64941 16.3096 8.7377 16.2213 8.95841 16.133C9.13498 16.0447 9.04669 16.0889 9.17912 16.0447C9.09084 15.9564 9.04669 15.9564 9.04669 15.8682Z" fill="#DFDFDF"/>
<path d="M9.35607 7.128C9.13536 7.21628 9.04707 7.39285 9.00293 7.61356C9.00293 7.83428 9.04707 8.01084 9.1795 8.14327L9.31193 8.2757C9.31193 8.2757 9.26778 8.36398 9.22364 8.40812C9.09121 8.54055 9.00293 8.71712 9.00293 8.89369C9.00293 9.07026 9.04707 9.20268 9.22364 9.33511L9.35607 9.46754L9.22364 9.59996C8.95879 9.90896 8.95879 10.218 9.22364 10.4828L9.35607 10.6152H14.7414L14.8738 10.4828C15.1387 10.218 15.1387 9.90896 14.8738 9.59996L14.6973 9.42339L14.8297 9.29097C15.0945 8.98197 15.0945 8.67298 14.8297 8.36398C14.6973 8.23156 14.6973 8.18741 14.7856 8.14327C14.9621 8.05499 15.0504 7.70185 14.9621 7.48114C14.8738 7.17214 14.3883 6.95143 14.1234 7.08386C14.0793 7.128 13.991 7.17214 13.9027 7.26043C13.8144 7.30457 13.7703 7.39285 13.7261 7.39285C13.7261 7.39285 13.6379 7.34871 13.5937 7.26043C13.3289 7.03972 12.9757 7.03972 12.7109 7.30457L12.6226 7.39285L12.4902 7.26043C12.2253 6.99557 11.8722 6.99557 11.5632 7.30457L11.4749 7.39285L11.3425 7.30457C11.1659 7.128 11.0776 7.08386 10.8569 7.08386C10.6803 7.08386 10.5038 7.17214 10.3713 7.30457L10.2831 7.39285L10.1506 7.26043C9.84163 6.99557 9.62092 6.99557 9.35607 7.128Z" fill="#2A5F9E"/>
<path d="M9.17936 10.7922C8.9145 11.1012 8.9145 11.4102 9.17936 11.7192L9.26764 11.8516L9.13521 11.984C9.09107 12.0723 9.00279 12.1606 8.95865 12.2047C8.87036 12.4254 8.9145 12.7344 9.13521 12.8669C9.2235 12.9552 9.26764 12.9993 9.13521 13.1317C9.09107 13.1759 9.04693 13.2642 9.00279 13.3083C8.78208 13.7056 9.09107 14.2353 9.57664 14.2353C9.7532 14.2353 9.92977 14.1911 10.0181 14.0587C10.1063 13.9704 10.1946 13.9263 10.2829 14.0587C10.4153 14.1911 10.5919 14.2794 10.7243 14.2794C10.9009 14.2794 10.9892 14.2353 11.1658 14.0587L11.2982 13.9263L11.4306 14.0587C11.6955 14.3236 11.9603 14.3677 12.3135 14.1029L12.4459 14.0146L12.5783 14.147C12.7549 14.2794 12.8432 14.3236 13.0197 14.3236C13.1963 14.3236 13.2846 14.2794 13.4611 14.1029L13.5936 13.9704L13.726 14.0587C13.9467 14.2353 14.0791 14.3236 14.2116 14.3236C14.3881 14.3236 14.4764 14.2794 14.653 14.1029C14.8296 13.9704 14.8737 13.7939 14.8737 13.6614C14.8737 13.529 14.7413 13.2642 14.6088 13.1759L14.5206 13.0876L14.653 12.9552C14.9178 12.6462 14.9178 12.3813 14.653 12.0282L14.5206 11.8957L14.653 11.7633C14.9178 11.4543 14.9178 11.1453 14.653 10.8805L14.5206 10.748H9.13521L9.17936 10.7922Z" fill="#ED4C5C"/>
<path d="M8.60547 10.3947V14.1026C8.60547 14.235 8.69375 14.2792 8.82618 14.4116C9.04689 14.5882 9.2676 14.7647 10.4594 14.6323C11.563 14.6323 11.7837 14.7206 11.9161 15.162L11.9603 15.4269L12.0044 15.162C12.0927 14.7206 12.3576 14.6323 13.417 14.6323C14.7854 14.6323 14.9178 14.5882 15.0944 14.4116C15.0944 14.4116 15.2268 14.3233 15.2709 14.1909C15.3151 14.0585 15.2709 13.9702 15.2709 13.9702V6.64258H8.60547V10.3947ZM15.2268 10.4388V13.5288C15.2268 13.926 15.2709 14.0585 15.2268 14.1467C15.1827 14.235 15.0944 14.3233 15.0944 14.3233C14.8737 14.544 14.6971 14.5882 13.7701 14.544C13.1521 14.544 12.8431 14.544 12.3576 14.6323C12.2693 14.7206 12.0927 14.6765 11.9603 15.0737C11.8278 14.6765 11.7396 14.6765 11.7396 14.6765C11.2099 14.4557 10.9891 14.4999 10.1946 14.4999C9.66488 14.5882 9.09103 14.4557 8.87032 14.2792C8.87032 14.2792 8.82618 14.2792 8.69375 14.1026V6.68672H15.2268V10.4388Z" fill="#3E4347"/>
<path d="M11.4746 9.15901C11.8277 9.37972 12.4015 9.33558 12.7105 8.98245C12.843 8.85002 12.8871 8.62931 12.9313 8.54102C12.9754 8.45274 12.9754 8.4086 12.9754 8.32031C13.0195 8.4086 13.0637 8.45274 13.0637 8.62931C13.1078 8.85002 13.0637 9.02659 12.9754 9.20316C12.7105 9.90943 11.8277 10.1301 11.298 9.60044C11.0331 9.37972 10.8124 8.89416 10.9449 8.58517C10.989 8.49688 10.989 8.4086 11.0331 8.32031C11.0331 8.4086 11.0331 8.49688 11.1214 8.67345C11.2097 8.89416 11.3421 9.02659 11.4746 9.15901Z" fill="white"/>
<path d="M10.6356 11.9397C10.6356 12.1162 10.6356 12.2045 10.6798 12.2928C10.5915 12.2045 10.5032 12.1604 10.4149 12.0721C10.2825 11.9838 10.0618 11.8955 10.0177 12.028C9.97351 12.1162 10.1501 12.2487 10.2825 12.3369C10.4149 12.4252 10.5032 12.4252 10.6356 12.4694C10.5474 12.5135 10.4591 12.5577 10.3267 12.6018C10.1942 12.6901 10.0177 12.8225 10.1059 12.9549C10.1942 13.0432 10.3708 12.9549 10.5032 12.8667C10.5915 12.8225 10.7239 12.6901 10.7681 12.6459C10.7681 12.7342 10.7239 12.8667 10.7239 12.9991C10.7239 13.1756 10.7681 13.3522 10.9005 13.3522C11.0329 13.3522 11.0771 13.1315 11.0771 12.9549C11.0771 12.7784 11.0771 12.6901 11.0329 12.6018C11.0771 12.6459 11.1654 12.7342 11.2978 12.8225C11.3861 12.9108 11.6068 12.9991 11.6951 12.9108C11.7833 12.8225 11.6509 12.6901 11.4743 12.5577C11.3419 12.4694 11.2536 12.4252 11.1654 12.3811C11.2536 12.3369 11.3419 12.3369 11.5185 12.2487C11.7392 12.1162 11.8275 12.0279 11.7833 11.8955C11.7392 11.8072 11.6068 11.8514 11.3861 11.9838C11.2978 12.0721 11.1654 12.1604 11.1212 12.2045C11.1212 12.1162 11.1654 11.9397 11.1654 11.8514C11.1654 11.6748 11.1212 11.4541 11.0329 11.4541C10.6798 11.5424 10.6798 11.719 10.6356 11.9397Z" fill="#FFCE31"/>
<path d="M10.9889 12.4695C10.9889 12.5578 10.9006 12.6461 10.8123 12.6461C10.724 12.6461 10.6357 12.5578 10.6357 12.4695C10.6357 12.3813 10.724 12.293 10.8123 12.293C10.9006 12.293 10.9889 12.3813 10.9889 12.4695Z" fill="white"/>
<path d="M12.9755 11.9397C12.9755 12.1162 12.9755 12.2045 13.0196 12.2928C12.9313 12.2045 12.8431 12.1604 12.7548 12.0721C12.6224 11.9838 12.4016 11.8955 12.3575 12.028C12.3134 12.1162 12.4899 12.2487 12.6224 12.3369C12.7548 12.4252 12.8431 12.4252 12.9755 12.4694C12.8872 12.5135 12.7989 12.5577 12.6665 12.6018C12.5341 12.6901 12.3575 12.8225 12.4458 12.9549C12.5341 13.0432 12.7106 12.9549 12.8431 12.8667C12.9313 12.8225 13.0638 12.6901 13.1079 12.6459C13.1079 12.7342 13.0638 12.8667 13.0638 12.9991C13.0638 13.1756 13.1079 13.3522 13.1962 13.3522C13.3286 13.3522 13.3728 13.1315 13.3728 12.9549C13.3728 12.7784 13.3728 12.6901 13.3286 12.6018C13.3728 12.6459 13.4611 12.7342 13.5935 12.8225C13.6818 12.9108 13.9025 12.9991 13.9908 12.9108C14.079 12.8225 13.9466 12.6901 13.77 12.5577C13.6376 12.4694 13.5493 12.4252 13.4611 12.3811C13.5493 12.3369 13.6376 12.3369 13.8142 12.2487C14.0349 12.1162 14.1232 12.0279 14.079 11.8955C14.0349 11.8072 13.9025 11.8514 13.6818 11.9838C13.5935 12.0721 13.4611 12.1604 13.4169 12.2045C13.4169 12.1162 13.4611 11.9397 13.4611 11.8514C13.4611 11.6748 13.4169 11.4541 13.3286 11.4541C12.9755 11.5424 12.9755 11.719 12.9755 11.9397Z" fill="#FFCE31"/>
<path d="M13.2848 12.4695C13.2848 12.5578 13.1965 12.6461 13.1082 12.6461C13.0199 12.6461 12.9316 12.5578 12.9316 12.4695C12.9316 12.3813 13.0199 12.293 13.1082 12.293C13.1965 12.293 13.2848 12.3813 13.2848 12.4695Z" fill="white"/>
<path d="M8.16407 11.4982C7.98751 10.7037 7.54608 10.0857 6.97224 9.73254H7.4578L8.11993 9.6884L7.54608 9.33526C7.36951 9.24697 6.92809 8.84969 6.92809 8.5407C6.92809 8.45241 6.92809 8.36413 7.10466 8.2317L7.50194 7.92271L7.06052 7.87857L7.23709 7.43714L6.75152 7.56957L6.70738 7.12815L6.88395 6.99572L6.48667 6.64259L6.13353 6.59844L5.73625 6.77501L5.60383 6.42188L5.38312 6.77501L5.11826 6.42188L4.98584 6.95158L4.67684 6.77501L4.58856 7.21643L4.14714 6.8633L4.19128 7.56957L3.52915 7.43714L3.70572 7.96685L3.13187 7.92271L3.57329 8.76141L3.04358 9.07041L3.794 9.82082V10.0415L2.24902 9.6884L3.17601 10.6154L2.91116 11.5424L3.97057 11.6307L3.57329 12.4252L4.85341 12.1162L5.16241 12.9549C5.11826 12.9549 5.02998 12.9108 4.98584 12.9108C4.27956 12.9108 3.66157 14.0143 3.66157 14.6323C3.66157 15.2503 4.72098 16.3097 5.7804 16.3097C6.22182 16.3097 6.6191 16.1332 6.97224 15.78C8.07579 14.7206 8.51721 13.0432 8.16407 11.4982ZM5.7804 12.2486C6.04525 12.5135 6.57496 13.1315 6.6191 14.0585C6.6191 14.3675 6.44253 14.7647 6.13353 15.1179C5.91282 15.3386 5.73626 15.4269 5.64797 15.4269C4.80927 15.2503 4.36785 14.8972 4.41199 14.3675C4.45613 13.9702 4.72098 13.7053 4.80927 13.7053C4.98584 13.7053 4.98584 13.7495 4.98584 13.926C4.98584 14.0143 5.02998 14.1468 5.16241 14.235L5.25069 14.2792H5.29483C5.4714 14.2792 5.60383 14.1468 5.69211 13.9702C5.7804 13.7495 5.7804 13.4405 5.51554 13.1756C5.42726 13.0873 5.33897 13.0432 5.25069 12.9991L5.7804 12.2486Z" fill="#3E4347"/>
<path d="M6.17726 6.90723L5.60341 7.12794L5.55927 6.99551L5.42684 7.21622L5.25027 6.99551L5.16199 7.34865L4.85299 7.17208L4.76471 7.65764L4.41157 7.39279L4.45571 7.9225L3.83772 7.83421L3.97015 8.31978L3.48459 8.27563L3.83772 8.93777L3.3963 9.20262L4.01429 9.82061L4.05844 10.3945L2.99902 10.1296L3.44045 10.6152L3.21973 11.4097L4.32329 11.498L3.97015 12.2043L4.98542 11.9394L5.25027 12.6457L5.73584 11.9836C5.73584 11.9836 6.79525 12.6899 6.83939 14.1024C6.83939 14.897 6.00069 15.7798 5.60341 15.6915C3.3963 15.2501 4.32329 13.5286 4.80885 13.5286C5.33856 13.5286 5.16199 14.0141 5.25027 14.0583C5.42684 14.1465 5.64755 13.7051 5.33856 13.352C4.72057 12.734 3.83772 13.97 3.83772 14.7204C3.83772 15.3384 5.51513 16.9716 6.75111 15.7357C8.64922 13.8375 8.29608 10.3945 6.35383 9.82061C4.41157 9.24676 4.89714 8.40806 4.89714 8.40806C5.11785 9.82061 7.3691 9.64404 7.3691 9.64404C7.3691 9.64404 6.2214 8.7612 6.97182 8.09907H6.75111L6.88353 7.83421L6.57454 7.9225L6.5304 7.52522L6.30969 7.74593L5.95655 7.65764L5.86826 7.43693L6.5304 6.99551L6.39797 6.90723H6.17726Z" fill="#DFDFDF"/>
<path d="M16.993 15.8242C17.3461 16.1773 17.7434 16.3539 18.1848 16.3539C19.2442 16.3539 20.3037 15.2945 20.3037 14.6765C20.3037 14.0143 19.6857 12.9549 18.9794 12.9549C18.9352 12.9549 18.847 12.9549 18.8028 12.9991L19.1118 12.1604L20.3919 12.4694L19.9505 11.6307L21.0099 11.5424L20.7892 10.6154L21.7162 9.6884L20.1712 10.0415V9.82082L20.9216 9.07041L20.3919 8.76141L20.8334 7.92271L20.2595 7.96685L20.4361 7.43714L19.7739 7.56957L19.8181 6.8633L19.3767 7.21643L19.2884 6.77501L18.9352 6.95158L18.8028 6.42188L18.538 6.77501L18.3173 6.42188L18.1848 6.77501L17.7876 6.59844L17.4344 6.64259L17.0371 6.99572L17.2137 7.12815L17.1696 7.56957L16.684 7.43714L16.8606 7.87857L16.4191 7.92271L16.8164 8.2317C16.993 8.36413 16.993 8.45241 16.993 8.5407C16.993 8.84969 16.5074 9.20283 16.375 9.33526L15.8453 9.6884L16.5074 9.73254H16.993C16.4191 10.0857 16.0219 10.7037 15.8012 11.4982C15.4039 13.0432 15.8453 14.7206 16.993 15.8242ZM18.6704 12.9549C18.5821 12.9991 18.4938 13.0432 18.4055 13.1315C18.1407 13.3963 18.1407 13.7053 18.229 13.926C18.3173 14.1026 18.4497 14.235 18.6263 14.235H18.6704L18.7587 14.1909C18.8911 14.1468 18.9352 13.9702 18.9352 13.8819C18.9352 13.7053 18.9794 13.6612 19.1118 13.6612C19.2001 13.6612 19.5091 13.926 19.5091 14.3233C19.5532 14.853 19.1118 15.2062 18.2731 15.3827C18.1848 15.3827 17.9641 15.2944 17.7876 15.0737C17.4786 14.7647 17.302 14.3233 17.302 14.0143C17.3461 13.0873 17.8758 12.4694 18.1407 12.2045L18.6704 12.9549Z" fill="#3E4347"/>
<path d="M17.7435 6.90723H17.5228L17.4345 6.99551L18.0966 7.43693L17.9642 7.65764L17.611 7.74593L17.3903 7.52522L17.3462 7.9225L17.0372 7.83421L17.1696 8.09907H16.9489C17.6993 8.71706 16.4634 9.55576 16.4634 9.55576C16.4634 9.55576 18.7587 9.73233 18.9353 8.31978C18.9353 8.31978 19.4209 9.15848 17.4786 9.73233C15.5364 10.3503 15.1832 13.7493 17.0813 15.6474C18.3615 16.9275 19.9947 15.2501 19.9947 14.6321C19.9947 13.8817 19.1119 12.6899 18.4939 13.2637C18.1849 13.5727 18.4056 14.0141 18.5822 13.97C18.6705 13.9258 18.538 13.4403 19.0236 13.4403C19.5533 13.4403 20.4803 15.1618 18.229 15.6032C17.8318 15.6915 16.9489 14.8087 16.9931 14.0141C17.0372 12.6457 18.0966 11.8953 18.0966 11.8953L18.5822 12.5574L18.847 11.8511L19.8623 12.116L19.5092 11.4097L20.6127 11.3214L20.392 10.5269L20.8334 10.0413L19.774 10.3062L19.8182 9.73233L20.4361 9.11433L19.9947 8.84948L20.3479 8.18735L19.8623 8.23149L19.9947 7.74593L19.465 7.87835L19.5092 7.34865L19.156 7.6135L19.0677 7.12794L18.7587 7.30451L18.6705 6.95137L18.4939 7.21622L18.3615 6.99551L18.3173 7.12794L17.7435 6.90723Z" fill="#DFDFDF"/>
</g>
<defs>
<clipPath id="clip0_1_1058">
<rect width="24" height="24" fill="white"/>
</clipPath>
</defs>
</svg>
