<svg width="140" height="140" viewBox="0 0 140 140" fill="none" xmlns="http://www.w3.org/2000/svg">
<circle cx="70" cy="70" r="63" fill="#E2F1FF"/>
<path d="M29.9077 96.874C31.0616 99.9839 34.055 102.2 37.5664 102.2C41.0778 102.2 44.0712 99.9839 45.2251 96.874L37.5664 96.1638L29.9077 96.874Z" fill="#FFDA44"/>
<path d="M37.5664 85.8667C34.055 85.8667 31.0616 88.083 29.9077 91.1929L37.5664 91.903L45.2251 91.1929C44.0712 88.083 41.0778 85.8667 37.5664 85.8667Z" fill="#20242C"/>
<path d="M29.9079 91.1924C29.5796 92.0771 29.3999 93.034 29.3999 94.033C29.3999 95.032 29.5796 95.9889 29.9079 96.8736H45.2253C45.5536 95.9889 45.7332 95.032 45.7332 94.033C45.7332 93.034 45.5536 92.0771 45.2253 91.1924H29.9079Z" fill="#D80027"/>
<path d="M69.3001 94.2667C60.9238 94.2667 54.1335 87.4763 54.1335 79.1C54.1335 70.7237 60.9238 63.9333 69.3001 63.9333C77.6765 63.9333 84.4668 70.7237 84.4668 79.1C84.4668 87.4763 77.6765 94.2667 69.3001 94.2667Z" fill="black"/>
<path d="M16.6375 124.36L9.28755 128.55C8.70022 128.869 8.61999 129.65 9.13976 130.011L11.1223 131.382C11.767 131.828 12.5713 132.024 13.3864 131.937L22.4223 129.919L18.9225 124.513C18.5192 123.771 16.6375 124.36 16.6375 124.36Z" fill="#E47B4C"/>
<path fill-rule="evenodd" clip-rule="evenodd" d="M50.0756 129.784C49.828 128.777 49.7687 127.7 49.9362 126.596L52.2454 111.375C45.8288 121.955 33.3501 126.871 24.603 129.96C22.9987 130.527 21.212 130.034 20.1147 128.734L17.7785 125.965C16.9255 124.954 17.2709 123.407 18.4318 122.773C27.8382 117.636 35.6297 108.394 41.0602 99.8541C46.7207 90.953 52.8301 82.0432 62.712 78.3527C62.8618 78.2968 63.0057 78.2435 63.1433 78.1929L74.8546 77.9761C79.5391 79.0171 86.0598 83.1811 88.7346 85.133C88.7346 99.3275 87.1245 116.161 85.6746 126.355C85.3804 128.424 84.4556 130.232 83.1079 131.635C78.8796 132.529 74.4948 133 70.0001 133C63.037 133 56.3377 131.87 50.0756 129.784Z" fill="#4680E1"/>
<path d="M65.3903 66.9504H73.7003L77.6299 78.8669L70.6097 90.6031C70.1289 91.407 68.9643 91.407 68.4834 90.6031L61.4582 78.8669L65.3878 66.9504H65.3903Z" fill="#E47B4C"/>
<path d="M63.3634 64.7001C62.9902 63.7133 61.8907 63.2174 60.9064 63.5931C59.9222 63.9663 59.4238 65.0682 59.7994 66.055C60.1726 67.0418 61.5852 68.3467 62.5694 67.9735C63.5537 67.6003 63.739 65.6869 63.3634 64.7026V64.7001Z" fill="#E47B4C"/>
<path d="M60.4243 62.9725C60.4744 63.1128 60.527 63.248 60.5871 63.3858L60.7123 63.6788L61.5338 65.6073L62.5481 67.979L63.3446 69.8474C63.5374 70.2957 63.7603 70.719 64.0183 71.1122C64.7947 72.3068 65.8466 73.251 67.0563 73.8922C69.0874 74.9767 71.5544 75.2046 73.866 74.328C74.5698 74.06 75.216 73.7094 75.7945 73.2861C75.8496 73.2485 75.9022 73.2085 75.9523 73.1684C78.6872 71.0796 79.9094 67.4155 78.7624 63.9918L76.5358 57.3323C76.4181 56.9842 76.2804 56.6486 76.1251 56.3255C74.2342 52.3959 69.5983 50.47 65.4108 52.0603C61.0179 53.7308 58.8289 58.6146 60.4268 62.975L60.4243 62.9725Z" fill="#E47B4C"/>
<path d="M67.0549 73.892C67.0674 73.9546 67.0975 74.0172 67.1576 74.0723C68.1218 75.0266 69.3315 75.7504 70.729 76.1411C71.9663 76.4892 73.2185 76.5368 74.4082 76.3214C74.8439 76.2413 76.0085 75.9107 76.5996 75.7328L75.7906 73.2859C75.8457 73.2484 75.8983 73.2083 75.9484 73.1682V73.1582C75.8883 73.1883 75.8332 73.2208 75.7781 73.2509C73.9398 74.2577 71.4478 74.7536 69.2914 74.1525C68.6903 73.9847 68.1318 73.7543 67.6034 73.4713C67.2928 73.3035 66.9873 73.609 67.0524 73.892H67.0549Z" fill="#CC6942"/>
<path d="M76.1811 56.3753C74.4705 54.7349 71.9109 54.3366 69.7921 55.3986C67.6106 56.493 65.4542 58.2061 64.9183 59.4484L62.3537 65.3665C62.2935 65.5018 62.1783 65.612 62.0431 65.6646C61.7526 65.7748 61.4345 65.6295 61.3243 65.3415L60.2824 62.5965C58.6269 58.2337 60.6606 53.2522 64.9884 51.4965C67.2425 50.5799 69.6493 50.7001 71.698 51.6217C73.6916 52.5159 75.3396 54.1738 76.1786 56.3778H76.1836L76.1811 56.3753Z" fill="black"/>
<path d="M74.8186 63.1533C74.9501 63.8213 75.1412 64.3456 75.3976 64.2951C75.654 64.2447 75.6322 63.687 75.5007 63.019C75.3692 62.351 75.178 61.8267 74.9217 61.8772C74.6653 61.9277 74.6871 62.4853 74.8186 63.1533Z" fill="black"/>
<path d="M68.8752 64.3227C69.0067 64.9907 69.1979 65.515 69.4542 65.4646C69.7106 65.4141 69.6888 64.8564 69.5573 64.1885C69.4258 63.5205 69.2347 62.9962 68.9783 63.0466C68.7219 63.0971 68.7437 63.6547 68.8752 64.3227Z" fill="black"/>
<path d="M73.845 60.6108C73.7138 60.5451 73.6149 60.423 73.5865 60.2704C73.5398 60.0164 73.7056 59.7673 73.9625 59.7184C74.0124 59.7089 75.0972 59.51 76.255 60.1464C76.4863 60.2724 76.5691 60.5576 76.4437 60.7921C76.3174 61.0218 76.029 61.1052 75.7977 60.9792C74.9512 60.5113 74.1508 60.6557 74.1407 60.6575C74.0377 60.6761 73.9346 60.6515 73.845 60.6108Z" fill="black"/>
<path d="M69.4742 61.4709C69.5707 61.3604 69.616 61.2099 69.5844 61.0579C69.5313 60.8052 69.2835 60.6375 69.0273 60.6896C68.9775 60.6997 67.8983 60.9268 67.068 61.9546C66.9017 62.1588 66.9332 62.4541 67.1381 62.6236C67.342 62.7883 67.6405 62.7562 67.8068 62.5519C68.4128 61.7981 69.2082 61.6284 69.2183 61.6262C69.3206 61.6044 69.4067 61.5425 69.4742 61.4709Z" fill="black"/>
<path d="M73.0382 68.615C73.1893 68.5409 73.3533 68.5896 73.4291 68.718C73.5092 68.8516 73.4633 69.0289 73.329 69.1075C73.2666 69.1436 73.202 69.1789 73.1375 69.2106C71.895 69.8202 70.2246 69.5096 69.3296 68.5054C69.2796 68.448 69.2546 68.3747 69.2588 68.298C69.263 68.2213 69.2965 68.1522 69.3546 68.1C69.373 68.0819 69.3943 68.0696 69.4192 68.0574C69.5351 68.0005 69.6745 68.0286 69.76 68.1249C70.4912 68.9474 71.8631 69.1989 72.8885 68.6957C72.9398 68.6705 72.9927 68.6446 73.0404 68.6121L73.0418 68.615L73.0382 68.615Z" fill="black"/>
<path d="M119.283 88.6222C116.421 89.2955 113.885 90.3383 113.668 91.8564L107.352 88.5695C107.452 87.2199 108.689 86.0759 110.042 86.086C114.107 86.1163 121.921 86.1732 124.286 86.1904C124.686 86.1933 125.015 86.4952 125.058 86.8926C125.108 87.3554 124.749 87.7652 124.285 87.8029C123.195 87.8916 121.41 88.1219 119.283 88.6222Z" fill="#E47B4C"/>
<path d="M113.892 91.2058C112.059 96.9209 110.178 101.667 108.383 105.544C103.908 115.209 93.4463 116.738 85.915 109.206L87.4332 84.4827C91.5538 85.3502 98.2769 100.531 98.2769 100.531L105.741 89.4269C106.544 88.2314 108.137 87.8643 109.383 88.5876L113.892 91.2058Z" fill="#4680E1"/>
<path d="M87.2163 110.508C87.4029 109.276 87.5769 107.34 87.7017 105.369C87.7948 103.9 88.9551 103.756 89.0804 105.223C89.3236 108.073 89.4116 111.104 89.6019 112.893L87.2163 110.508Z" fill="#306DC6"/>
<path d="M113.167 81.2001C120.254 81.2001 126 75.4544 126 68.3668C126 61.2791 120.254 55.5334 113.167 55.5334C106.079 55.5334 100.333 61.2791 100.333 68.3668C100.333 75.4544 106.079 81.2001 113.167 81.2001Z" fill="white"/>
<path d="M112.609 68.3671H126C126 67.2088 125.846 66.0867 125.558 65.0193H112.609V68.3671Z" fill="#D80027"/>
<path d="M112.609 61.6716H124.117C123.331 60.3896 122.327 59.2566 121.155 58.3237H112.609V61.6716Z" fill="#D80027"/>
<path d="M113.165 81.2002C116.186 81.2002 118.962 80.1563 121.154 78.4104H105.177C107.369 80.1563 110.145 81.2002 113.165 81.2002Z" fill="#D80027"/>
<path d="M102.216 75.0627H124.116C124.747 74.0336 125.236 72.9086 125.557 71.7148H100.775C101.097 72.9086 101.586 74.0336 102.216 75.0627Z" fill="#D80027"/>
<path d="M106.278 57.5376H107.448L106.36 58.3279L106.775 59.6066L105.688 58.8163L104.6 59.6066L104.959 58.5019C104.001 59.2997 103.161 60.2345 102.47 61.276H102.844L102.152 61.779C102.044 61.959 101.941 62.1418 101.841 62.3273L102.172 63.345L101.555 62.8968C101.402 63.2217 101.262 63.5539 101.135 63.8931L101.5 65.0144H102.844L101.757 65.8047L102.172 67.0834L101.084 66.2931L100.433 66.7666C100.367 67.2908 100.333 67.8248 100.333 68.3668H113.167C113.167 61.2792 113.167 60.4436 113.167 55.5334C110.632 55.5334 108.268 56.2689 106.278 57.5376ZM106.775 67.0834L105.688 66.2931L104.6 67.0834L105.015 65.8047L103.927 65.0144H105.272L105.688 63.7356L106.103 65.0144H107.448L106.36 65.8047L106.775 67.0834ZM106.36 62.0663L106.775 63.345L105.688 62.5547L104.6 63.345L105.015 62.0663L103.927 61.276H105.272L105.688 59.9972L106.103 61.276H107.448L106.36 62.0663ZM111.379 67.0834L110.291 66.2931L109.203 67.0834L109.619 65.8047L108.531 65.0144H109.875L110.291 63.7356L110.706 65.0144H112.051L110.963 65.8047L111.379 67.0834ZM110.963 62.0663L111.379 63.345L110.291 62.5547L109.203 63.345L109.619 62.0663L108.531 61.276H109.875L110.291 59.9972L110.706 61.276H112.051L110.963 62.0663ZM110.963 58.3279L111.379 59.6066L110.291 58.8163L109.203 59.6066L109.619 58.3279L108.531 57.5376H109.875L110.291 56.2588L110.706 57.5376H112.051L110.963 58.3279Z" fill="#0052B4"/>
<path d="M49.2335 44.7996C55.0323 44.7996 59.7331 40.0987 59.7331 34.2999C59.7331 28.5011 55.0323 23.8003 49.2335 23.8003C43.4347 23.8003 38.7339 28.5011 38.7339 34.2999C38.7339 40.0987 43.4347 44.7996 49.2335 44.7996Z" fill="white"/>
<path d="M40.903 27.9067C40.0786 28.9813 39.4552 30.2158 39.0942 31.5611H44.5573L40.903 27.9067Z" fill="#0052B4"/>
<path d="M59.3713 31.5611C59.0104 30.2158 58.3869 28.9813 57.5626 27.9067L53.9082 31.5611H59.3713Z" fill="#0052B4"/>
<path d="M39.0942 37.0405C39.4552 38.3858 40.0786 39.6203 40.903 40.6949L44.5573 37.0405H39.0942Z" fill="#0052B4"/>
<path d="M55.627 25.9708C54.5524 25.1465 53.3179 24.523 51.9727 24.1621V29.6252L55.627 25.9708Z" fill="#0052B4"/>
<path d="M42.8384 42.6314C43.9129 43.4558 45.1475 44.0792 46.4927 44.4401V38.9771L42.8384 42.6314Z" fill="#0052B4"/>
<path d="M46.4927 24.1621C45.1475 24.523 43.9129 25.1465 42.8384 25.9708L46.4927 29.6252V24.1621Z" fill="#0052B4"/>
<path d="M51.9727 44.4401C53.3179 44.0792 54.5524 43.4558 55.627 42.6314L51.9727 38.9771V44.4401Z" fill="#0052B4"/>
<path d="M53.9082 37.0405L57.5626 40.6949C58.3869 39.6203 59.0104 38.3858 59.3713 37.0405H53.9082Z" fill="#0052B4"/>
<path d="M59.6424 32.9298H50.6029V23.8903C50.1558 23.8288 49.6965 23.8 49.233 23.8C48.7696 23.8 48.3102 23.8288 47.8631 23.8903V32.9298H38.8236C38.7621 33.3769 38.7334 33.8362 38.7334 34.2997C38.7334 34.7632 38.7621 35.2225 38.8236 35.6696H47.8631V44.7091C48.3102 44.7665 48.7696 44.7993 49.233 44.7993C49.6965 44.7993 50.1558 44.7706 50.6029 44.7091V35.6696H59.6424C59.6998 35.2225 59.7326 34.7632 59.7326 34.2997C59.7326 33.8362 59.7039 33.3769 59.6424 32.9298Z" fill="#D80027"/>
<path d="M51.9717 37.04L56.6555 41.7239C56.8729 41.5065 57.0779 41.285 57.2707 41.0512L53.2595 37.04H51.9717Z" fill="#D80027"/>
<path d="M46.4929 37.04L41.8091 41.7239C42.0265 41.9412 42.2479 42.1463 42.4817 42.3391L46.4929 38.3279V37.04Z" fill="#D80027"/>
<path d="M46.4929 31.5596L41.8091 26.8757C41.5917 27.0931 41.3866 27.3146 41.1938 27.5484L45.205 31.5596H46.4929Z" fill="#D80027"/>
<path d="M51.9717 31.5595L56.6555 26.8757C56.4381 26.6583 56.2166 26.4533 55.9829 26.2605L51.9717 30.2717V31.5595Z" fill="#D80027"/>
<path d="M29.4001 74.2001C34.8125 74.2001 39.2001 69.8125 39.2001 64.4001C39.2001 58.9877 34.8125 54.6001 29.4001 54.6001C23.9877 54.6001 19.6001 58.9877 19.6001 64.4001C19.6001 69.8125 23.9877 74.2001 29.4001 74.2001Z" fill="white"/>
<path d="M29.3995 68.6616C31.7527 68.6616 33.6604 66.754 33.6604 64.4007C33.6604 62.0475 31.7527 60.1399 29.3995 60.1399C27.0463 60.1399 25.1387 62.0475 25.1387 64.4007C25.1387 66.754 27.0463 68.6616 29.3995 68.6616Z" fill="#D80027"/>
<path d="M89.5997 45.7331C96.043 45.7331 101.266 40.5098 101.266 34.0665C101.266 27.6232 96.043 22.3999 89.5997 22.3999C83.1564 22.3999 77.9331 27.6232 77.9331 34.0665C77.9331 40.5098 83.1564 45.7331 89.5997 45.7331Z" fill="white"/>
<path d="M101.266 34.0657C101.266 29.0495 98.1004 24.7732 93.6577 23.1248V45.0067C98.1004 43.3582 101.266 39.0819 101.266 34.0657Z" fill="#D80027"/>
<path d="M77.9331 34.0657C77.9331 39.0819 81.0992 43.3582 85.5418 45.0066V23.1248C81.0992 24.7732 77.9331 29.0495 77.9331 34.0657Z" fill="#0052B4"/>
<circle cx="70" cy="70" r="63" fill="#E2F1FF"/>
<path d="M29.9077 96.874C31.0616 99.9839 34.055 102.2 37.5664 102.2C41.0778 102.2 44.0712 99.9839 45.2251 96.874L37.5664 96.1638L29.9077 96.874Z" fill="#FFDA44"/>
<path d="M37.5664 85.8667C34.055 85.8667 31.0616 88.083 29.9077 91.1929L37.5664 91.903L45.2251 91.1929C44.0712 88.083 41.0778 85.8667 37.5664 85.8667Z" fill="#20242C"/>
<path d="M29.9079 91.1924C29.5796 92.0771 29.3999 93.034 29.3999 94.033C29.3999 95.032 29.5796 95.9889 29.9079 96.8736H45.2253C45.5536 95.9889 45.7332 95.032 45.7332 94.033C45.7332 93.034 45.5536 92.0771 45.2253 91.1924H29.9079Z" fill="#D80027"/>
<path d="M69.3001 94.2667C60.9238 94.2667 54.1335 87.4763 54.1335 79.1C54.1335 70.7237 60.9238 63.9333 69.3001 63.9333C77.6765 63.9333 84.4668 70.7237 84.4668 79.1C84.4668 87.4763 77.6765 94.2667 69.3001 94.2667Z" fill="black"/>
<path d="M16.6375 124.36L9.28755 128.55C8.70022 128.869 8.61999 129.65 9.13976 130.011L11.1223 131.382C11.767 131.828 12.5713 132.024 13.3864 131.937L22.4223 129.919L18.9225 124.513C18.5192 123.771 16.6375 124.36 16.6375 124.36Z" fill="#E47B4C"/>
<path fill-rule="evenodd" clip-rule="evenodd" d="M50.0756 129.784C49.828 128.777 49.7687 127.7 49.9362 126.596L52.2454 111.375C45.8288 121.955 33.3501 126.871 24.603 129.96C22.9987 130.527 21.212 130.034 20.1147 128.734L17.7785 125.965C16.9255 124.954 17.2709 123.407 18.4318 122.773C27.8382 117.636 35.6297 108.394 41.0602 99.8541C46.7207 90.953 52.8301 82.0432 62.712 78.3527C62.8618 78.2968 63.0057 78.2435 63.1433 78.1929L74.8546 77.9761C79.5391 79.0171 86.0598 83.1811 88.7346 85.133C88.7346 99.3275 87.1245 116.161 85.6746 126.355C85.3804 128.424 84.4556 130.232 83.1079 131.635C78.8796 132.529 74.4948 133 70.0001 133C63.037 133 56.3377 131.87 50.0756 129.784Z" fill="#4680E1"/>
<path d="M65.3903 66.9504H73.7003L77.6299 78.8669L70.6097 90.6031C70.1289 91.407 68.9643 91.407 68.4834 90.6031L61.4582 78.8669L65.3878 66.9504H65.3903Z" fill="#E47B4C"/>
<path d="M63.3634 64.7001C62.9902 63.7133 61.8907 63.2174 60.9064 63.5931C59.9222 63.9663 59.4238 65.0682 59.7994 66.055C60.1726 67.0418 61.5852 68.3467 62.5694 67.9735C63.5537 67.6003 63.739 65.6869 63.3634 64.7026V64.7001Z" fill="#E47B4C"/>
<path d="M60.4243 62.9725C60.4744 63.1128 60.527 63.248 60.5871 63.3858L60.7123 63.6788L61.5338 65.6073L62.5481 67.979L63.3446 69.8474C63.5374 70.2957 63.7603 70.719 64.0183 71.1122C64.7947 72.3068 65.8466 73.251 67.0563 73.8922C69.0874 74.9767 71.5544 75.2046 73.866 74.328C74.5698 74.06 75.216 73.7094 75.7945 73.2861C75.8496 73.2485 75.9022 73.2085 75.9523 73.1684C78.6872 71.0796 79.9094 67.4155 78.7624 63.9918L76.5358 57.3323C76.4181 56.9842 76.2804 56.6486 76.1251 56.3255C74.2342 52.3959 69.5983 50.47 65.4108 52.0603C61.0179 53.7308 58.8289 58.6146 60.4268 62.975L60.4243 62.9725Z" fill="#E47B4C"/>
<path d="M67.0549 73.892C67.0674 73.9546 67.0975 74.0172 67.1576 74.0723C68.1218 75.0266 69.3315 75.7504 70.729 76.1411C71.9663 76.4892 73.2185 76.5368 74.4082 76.3214C74.8439 76.2413 76.0085 75.9107 76.5996 75.7328L75.7906 73.2859C75.8457 73.2484 75.8983 73.2083 75.9484 73.1682V73.1582C75.8883 73.1883 75.8332 73.2208 75.7781 73.2509C73.9398 74.2577 71.4478 74.7536 69.2914 74.1525C68.6903 73.9847 68.1318 73.7543 67.6034 73.4713C67.2928 73.3035 66.9873 73.609 67.0524 73.892H67.0549Z" fill="#CC6942"/>
<path d="M76.1811 56.3753C74.4705 54.7349 71.9109 54.3366 69.7921 55.3986C67.6106 56.493 65.4542 58.2061 64.9183 59.4484L62.3537 65.3665C62.2935 65.5018 62.1783 65.612 62.0431 65.6646C61.7526 65.7748 61.4345 65.6295 61.3243 65.3415L60.2824 62.5965C58.6269 58.2337 60.6606 53.2522 64.9884 51.4965C67.2425 50.5799 69.6493 50.7001 71.698 51.6217C73.6916 52.5159 75.3396 54.1738 76.1786 56.3778H76.1836L76.1811 56.3753Z" fill="black"/>
<path d="M74.8186 63.1533C74.9501 63.8213 75.1412 64.3456 75.3976 64.2951C75.654 64.2447 75.6322 63.687 75.5007 63.019C75.3692 62.351 75.178 61.8267 74.9217 61.8772C74.6653 61.9277 74.6871 62.4853 74.8186 63.1533Z" fill="black"/>
<path d="M68.8752 64.3227C69.0067 64.9907 69.1979 65.515 69.4542 65.4646C69.7106 65.4141 69.6888 64.8564 69.5573 64.1885C69.4258 63.5205 69.2347 62.9962 68.9783 63.0466C68.7219 63.0971 68.7437 63.6547 68.8752 64.3227Z" fill="black"/>
<path d="M73.845 60.6108C73.7138 60.5451 73.6149 60.423 73.5865 60.2704C73.5398 60.0164 73.7056 59.7673 73.9625 59.7184C74.0124 59.7089 75.0972 59.51 76.255 60.1464C76.4863 60.2724 76.5691 60.5576 76.4437 60.7921C76.3174 61.0218 76.029 61.1052 75.7977 60.9792C74.9512 60.5113 74.1508 60.6557 74.1407 60.6575C74.0377 60.6761 73.9346 60.6515 73.845 60.6108Z" fill="black"/>
<path d="M69.4742 61.4709C69.5707 61.3604 69.616 61.2099 69.5844 61.0579C69.5313 60.8052 69.2835 60.6375 69.0273 60.6896C68.9775 60.6997 67.8983 60.9268 67.068 61.9546C66.9017 62.1588 66.9332 62.4541 67.1381 62.6236C67.342 62.7883 67.6405 62.7562 67.8068 62.5519C68.4128 61.7981 69.2082 61.6284 69.2183 61.6262C69.3206 61.6044 69.4067 61.5425 69.4742 61.4709Z" fill="black"/>
<path d="M73.0382 68.615C73.1893 68.5409 73.3533 68.5896 73.4291 68.718C73.5092 68.8516 73.4633 69.0289 73.329 69.1075C73.2666 69.1436 73.202 69.1789 73.1375 69.2106C71.895 69.8202 70.2246 69.5096 69.3296 68.5054C69.2796 68.448 69.2546 68.3747 69.2588 68.298C69.263 68.2213 69.2965 68.1522 69.3546 68.1C69.373 68.0819 69.3943 68.0696 69.4192 68.0574C69.5351 68.0005 69.6745 68.0286 69.76 68.1249C70.4912 68.9474 71.8631 69.1989 72.8885 68.6957C72.9398 68.6705 72.9927 68.6446 73.0404 68.6121L73.0418 68.615L73.0382 68.615Z" fill="black"/>
<path d="M119.283 88.6222C116.421 89.2955 113.885 90.3383 113.668 91.8564L107.352 88.5695C107.452 87.2199 108.689 86.0759 110.042 86.086C114.107 86.1163 121.921 86.1732 124.286 86.1904C124.686 86.1933 125.015 86.4952 125.058 86.8926C125.108 87.3554 124.749 87.7652 124.285 87.8029C123.195 87.8916 121.41 88.1219 119.283 88.6222Z" fill="#E47B4C"/>
<path d="M113.892 91.2058C112.059 96.9209 110.178 101.667 108.383 105.544C103.908 115.209 93.4463 116.738 85.915 109.206L87.4332 84.4827C91.5538 85.3502 98.2769 100.531 98.2769 100.531L105.741 89.4269C106.544 88.2314 108.137 87.8643 109.383 88.5876L113.892 91.2058Z" fill="#4680E1"/>
<path d="M87.2163 110.508C87.4029 109.276 87.5769 107.34 87.7017 105.369C87.7948 103.9 88.9551 103.756 89.0804 105.223C89.3236 108.073 89.4116 111.104 89.6019 112.893L87.2163 110.508Z" fill="#306DC6"/>
<path d="M113.167 81.2001C120.254 81.2001 126 75.4544 126 68.3668C126 61.2791 120.254 55.5334 113.167 55.5334C106.079 55.5334 100.333 61.2791 100.333 68.3668C100.333 75.4544 106.079 81.2001 113.167 81.2001Z" fill="white"/>
<path d="M112.609 68.3671H126C126 67.2088 125.846 66.0867 125.558 65.0193H112.609V68.3671Z" fill="#D80027"/>
<path d="M112.609 61.6716H124.117C123.331 60.3896 122.327 59.2566 121.155 58.3237H112.609V61.6716Z" fill="#D80027"/>
<path d="M113.165 81.2002C116.186 81.2002 118.962 80.1563 121.154 78.4104H105.177C107.369 80.1563 110.145 81.2002 113.165 81.2002Z" fill="#D80027"/>
<path d="M102.216 75.0627H124.116C124.747 74.0336 125.236 72.9086 125.557 71.7148H100.775C101.097 72.9086 101.586 74.0336 102.216 75.0627Z" fill="#D80027"/>
<path d="M106.278 57.5376H107.448L106.36 58.3279L106.775 59.6066L105.688 58.8163L104.6 59.6066L104.959 58.5019C104.001 59.2997 103.161 60.2345 102.47 61.276H102.844L102.152 61.779C102.044 61.959 101.941 62.1418 101.841 62.3273L102.172 63.345L101.555 62.8968C101.402 63.2217 101.262 63.5539 101.135 63.8931L101.5 65.0144H102.844L101.757 65.8047L102.172 67.0834L101.084 66.2931L100.433 66.7666C100.367 67.2908 100.333 67.8248 100.333 68.3668H113.167C113.167 61.2792 113.167 60.4436 113.167 55.5334C110.632 55.5334 108.268 56.2689 106.278 57.5376ZM106.775 67.0834L105.688 66.2931L104.6 67.0834L105.015 65.8047L103.927 65.0144H105.272L105.688 63.7356L106.103 65.0144H107.448L106.36 65.8047L106.775 67.0834ZM106.36 62.0663L106.775 63.345L105.688 62.5547L104.6 63.345L105.015 62.0663L103.927 61.276H105.272L105.688 59.9972L106.103 61.276H107.448L106.36 62.0663ZM111.379 67.0834L110.291 66.2931L109.203 67.0834L109.619 65.8047L108.531 65.0144H109.875L110.291 63.7356L110.706 65.0144H112.051L110.963 65.8047L111.379 67.0834ZM110.963 62.0663L111.379 63.345L110.291 62.5547L109.203 63.345L109.619 62.0663L108.531 61.276H109.875L110.291 59.9972L110.706 61.276H112.051L110.963 62.0663ZM110.963 58.3279L111.379 59.6066L110.291 58.8163L109.203 59.6066L109.619 58.3279L108.531 57.5376H109.875L110.291 56.2588L110.706 57.5376H112.051L110.963 58.3279Z" fill="#0052B4"/>
<path d="M49.2335 44.7996C55.0323 44.7996 59.7331 40.0987 59.7331 34.2999C59.7331 28.5011 55.0323 23.8003 49.2335 23.8003C43.4347 23.8003 38.7339 28.5011 38.7339 34.2999C38.7339 40.0987 43.4347 44.7996 49.2335 44.7996Z" fill="white"/>
<path d="M40.903 27.9067C40.0786 28.9813 39.4552 30.2158 39.0942 31.5611H44.5573L40.903 27.9067Z" fill="#0052B4"/>
<path d="M59.3713 31.5611C59.0104 30.2158 58.3869 28.9813 57.5626 27.9067L53.9082 31.5611H59.3713Z" fill="#0052B4"/>
<path d="M39.0942 37.0405C39.4552 38.3858 40.0786 39.6203 40.903 40.6949L44.5573 37.0405H39.0942Z" fill="#0052B4"/>
<path d="M55.627 25.9708C54.5524 25.1465 53.3179 24.523 51.9727 24.1621V29.6252L55.627 25.9708Z" fill="#0052B4"/>
<path d="M42.8384 42.6314C43.9129 43.4558 45.1475 44.0792 46.4927 44.4401V38.9771L42.8384 42.6314Z" fill="#0052B4"/>
<path d="M46.4927 24.1621C45.1475 24.523 43.9129 25.1465 42.8384 25.9708L46.4927 29.6252V24.1621Z" fill="#0052B4"/>
<path d="M51.9727 44.4401C53.3179 44.0792 54.5524 43.4558 55.627 42.6314L51.9727 38.9771V44.4401Z" fill="#0052B4"/>
<path d="M53.9082 37.0405L57.5626 40.6949C58.3869 39.6203 59.0104 38.3858 59.3713 37.0405H53.9082Z" fill="#0052B4"/>
<path d="M59.6424 32.9298H50.6029V23.8903C50.1558 23.8288 49.6965 23.8 49.233 23.8C48.7696 23.8 48.3102 23.8288 47.8631 23.8903V32.9298H38.8236C38.7621 33.3769 38.7334 33.8362 38.7334 34.2997C38.7334 34.7632 38.7621 35.2225 38.8236 35.6696H47.8631V44.7091C48.3102 44.7665 48.7696 44.7993 49.233 44.7993C49.6965 44.7993 50.1558 44.7706 50.6029 44.7091V35.6696H59.6424C59.6998 35.2225 59.7326 34.7632 59.7326 34.2997C59.7326 33.8362 59.7039 33.3769 59.6424 32.9298Z" fill="#D80027"/>
<path d="M51.9717 37.04L56.6555 41.7239C56.8729 41.5065 57.0779 41.285 57.2707 41.0512L53.2595 37.04H51.9717Z" fill="#D80027"/>
<path d="M46.4929 37.04L41.8091 41.7239C42.0265 41.9412 42.2479 42.1463 42.4817 42.3391L46.4929 38.3279V37.04Z" fill="#D80027"/>
<path d="M46.4929 31.5596L41.8091 26.8757C41.5917 27.0931 41.3866 27.3146 41.1938 27.5484L45.205 31.5596H46.4929Z" fill="#D80027"/>
<path d="M51.9717 31.5595L56.6555 26.8757C56.4381 26.6583 56.2166 26.4533 55.9829 26.2605L51.9717 30.2717V31.5595Z" fill="#D80027"/>
<path d="M29.4001 74.2001C34.8125 74.2001 39.2001 69.8125 39.2001 64.4001C39.2001 58.9877 34.8125 54.6001 29.4001 54.6001C23.9877 54.6001 19.6001 58.9877 19.6001 64.4001C19.6001 69.8125 23.9877 74.2001 29.4001 74.2001Z" fill="white"/>
<path d="M29.3995 68.6616C31.7527 68.6616 33.6604 66.754 33.6604 64.4007C33.6604 62.0475 31.7527 60.1399 29.3995 60.1399C27.0463 60.1399 25.1387 62.0475 25.1387 64.4007C25.1387 66.754 27.0463 68.6616 29.3995 68.6616Z" fill="#D80027"/>
<path d="M89.5997 45.7331C96.043 45.7331 101.266 40.5098 101.266 34.0665C101.266 27.6232 96.043 22.3999 89.5997 22.3999C83.1564 22.3999 77.9331 27.6232 77.9331 34.0665C77.9331 40.5098 83.1564 45.7331 89.5997 45.7331Z" fill="white"/>
<path d="M101.266 34.0657C101.266 29.0495 98.1004 24.7732 93.6577 23.1248V45.0067C98.1004 43.3582 101.266 39.0819 101.266 34.0657Z" fill="#D80027"/>
<path d="M77.9331 34.0657C77.9331 39.0819 81.0992 43.3582 85.5418 45.0066V23.1248C81.0992 24.7732 77.9331 29.0495 77.9331 34.0657Z" fill="#0052B4"/>
</svg>
