<svg width="140" height="140" viewBox="0 0 140 140" fill="none" xmlns="http://www.w3.org/2000/svg">
<g clip-path="url(#clip0_3084_6060)">
<path d="M130.111 57.3102C130.562 59.3228 130.904 61.3364 131.139 63.3399C131.335 65.0073 131.456 66.6679 131.505 68.3211C131.552 69.7659 131.541 71.2055 131.477 72.6358C130.675 91.058 121.102 107.982 106.044 118.232C100.189 122.217 93.5063 125.194 86.1851 126.859L86.0109 126.898C60.2732 132.669 34.6958 120.438 22.4379 98.5451C19.7418 93.7334 17.6911 88.4556 16.4229 82.7985C13.1624 68.2554 15.6504 53.7613 22.3778 41.6976C23.3636 39.9298 24.4421 38.2144 25.6046 36.5586C28.86 31.9201 32.7968 27.7454 37.3045 24.2057L37.307 24.2051C43.9228 19.0092 51.7684 15.1731 60.5226 13.2104C70.048 11.0749 79.546 11.4041 88.3606 13.7781L88.3631 13.7775C90.9655 14.477 93.509 15.3568 95.9748 16.403C96.6763 16.7003 97.3702 17.0098 98.0599 17.3359C113.768 24.7356 126.018 39.053 130.111 57.3102Z" fill="#E2F1FF"/>
<path d="M98.573 42.3535L99.4629 71.1894L88.5174 73.9C84.586 74.8739 80.9205 71.5504 81.5114 67.5409L84.829 45.0021" fill="#20242C"/>
<path d="M58.3271 106.931C66.8209 110.989 76.7615 110.628 84.9374 105.963L93.2002 101.247V63.0627L67.6918 91.3477H37.3901L41.4645 98.8797L58.3241 106.935L58.3271 106.932V106.931Z" fill="#DCC6FF"/>
<path d="M50.749 103.314L41.4653 98.8784L37.3909 91.3464H40.3445L50.749 103.313V103.314Z" fill="#DCC6FF"/>
<path d="M41.4775 118.871C41.531 117.685 41.7453 116.491 42.1314 115.321C44.1731 109.125 50.4262 105.34 56.8653 106.404L110.086 115.214C108.787 116.275 107.439 117.282 106.044 118.232C100.188 122.217 93.5061 125.194 86.1849 126.859L86.0107 126.898C70.0608 130.474 54.1725 127.137 41.4775 118.871Z" fill="#4680E1"/>
<path d="M80.8134 107.895L88.1924 89.8498C88.4444 89.2339 89.3662 89.4549 89.3092 90.1178L88.1234 104.142L84.9329 105.963C83.604 106.721 82.2222 107.363 80.8124 107.895H80.8134Z" fill="#BCA4EA"/>
<path d="M95.0178 57.709C89.3286 59.9097 82.9795 56.7441 81.3118 50.8779L79.681 45.1447C78.1152 39.6425 81.3078 33.9093 86.814 32.3436C92.3172 30.7778 98.0494 33.9713 99.6152 39.4765L103.83 54.2974L95.0158 57.708" fill="#E47B4C"/>
<path d="M79.9524 46.0942L81.1663 50.3616L79.8374 49.4658C79.4855 49.2288 79.3175 48.7999 79.4145 48.3889L79.9494 46.0952H79.9524V46.0942Z" fill="#E47B4C"/>
<path d="M107.599 117.135H87.0232L91.1566 68.2437C91.4086 65.2901 92.9933 62.6105 95.464 60.9667L103.623 55.5458L103.621 55.5425H103.628L103.623 55.5458L112.124 69.3585C115.619 75.0417 118.311 81.1819 120.117 87.6059L123.484 99.5817C119.472 106.403 114.082 112.403 107.599 117.135Z" fill="#DCC6FF"/>
<path d="M103.976 54.7L96.4004 63.8937C95.9085 64.4916 94.9406 64.1367 94.9506 63.3648L95.0166 57.7066L99.5259 53.1472L103.973 54.703L103.976 54.7Z" fill="#E47B4C"/>
<path d="M81.2397 42.3194C81.1338 42.3504 81.0228 42.3474 80.9128 42.3074C80.9068 42.3044 80.0669 41.9965 79.065 42.3324C78.7881 42.4224 78.4951 42.2765 78.4051 42.0025C78.3151 41.7285 78.4611 41.4326 78.7351 41.3426C80.1079 40.8846 81.2407 41.3146 81.2867 41.3336C81.5517 41.4366 81.6857 41.7355 81.5827 42.0025C81.5207 42.1615 81.3897 42.2735 81.2367 42.3164" fill="#20242C"/>
<path d="M80.8261 44.9085C81.072 44.7966 81.461 45.4345 81.8409 46.2683C82.2209 47.0992 82.4478 47.8121 82.2049 47.9241C81.9589 48.0361 81.5699 47.3982 81.19 46.5643C80.8101 45.7334 80.5831 45.0205 80.8251 44.9085H80.8261Z" fill="#20242C"/>
<path d="M84.8469 53.3519C84.9129 53.3399 84.9779 53.3239 85.0439 53.3049C86.3167 52.941 87.3096 51.6582 87.3006 50.3793C87.3006 50.2334 87.3996 50.0994 87.5425 50.0584C87.5705 50.0524 87.6015 50.0464 87.6295 50.0464C87.7195 50.0464 87.8035 50.0804 87.8655 50.1434C87.9275 50.2054 87.9655 50.2894 87.9655 50.3763C87.9775 51.9391 86.7727 53.5069 85.2259 53.9458C85.1459 53.9678 85.0649 53.9898 84.9799 54.0048C84.7999 54.0418 84.625 53.9268 84.588 53.7469C84.554 53.5789 84.659 53.4079 84.8459 53.3549V53.3519H84.8469Z" fill="#20242C"/>
<path d="M111.592 72.3904C115.887 71.1325 118.053 66.3432 116.16 62.2848L103.549 35.2476C101.734 31.3542 97.3558 29.3525 93.2223 30.5293L80.0762 34.2668C79.1263 34.5377 78.3984 35.3066 78.1805 36.2675L77.9165 37.4343C77.7205 38.3092 78.4084 39.1301 79.3043 39.0901L85.5944 38.8131C88.1241 38.7011 90.5707 39.719 92.2705 41.5897L96.1109 45.8131V67.1631C96.1109 72.0404 100.797 75.5509 105.479 74.1781L111.594 72.3854L111.591 72.3884L111.592 72.3904Z" fill="#20242C"/>
<path d="M95.1433 46.3872C96.3231 46.0513 97.007 44.8245 96.6711 43.6456C96.3351 42.4658 95.1093 41.7809 93.9295 42.1178C92.7496 42.4538 92.0657 43.6806 92.4017 44.8595C92.7376 46.0393 93.9635 46.7242 95.1433 46.3872Z" fill="#E47B4C"/>
<path d="M31.5659 77.4998L45.407 105.381L43.7002 106.225L29.8592 78.3436C29.6262 77.8727 29.8192 77.3008 30.2901 77.0678C30.7611 76.8349 31.333 77.0278 31.5659 77.4988V77.4998Z" fill="#20242C"/>
<path d="M70.4482 104.321L70.4482 106.226H43.6988V104.321H70.4482Z" fill="#20242C"/>
<path d="M57.7263 103.068C59.827 102.044 62.2927 102.096 64.3464 103.208L70.8915 106.746L72.3542 100.531L67.8069 96.358C66.2041 94.8892 63.7545 94.8492 62.1077 96.271L54.4358 102.894C54.1028 103.184 54.0588 103.688 54.3388 104.027C54.5788 104.32 54.9857 104.407 55.3257 104.242L57.7283 103.071L57.7253 103.068H57.7263Z" fill="#E47B4C"/>
<path d="M32.1819 85.2282C32.1229 84.6553 32.9038 84.4283 33.1598 84.9452L40.3428 99.4542H38.0491C36.2873 99.4542 34.6066 98.7133 33.4208 97.4095L31.1581 94.9258C30.3182 94.0019 30.5732 92.5322 31.678 91.9472C32.3689 91.5833 32.7678 90.8364 32.6869 90.0615L32.1859 85.2282H32.1829H32.1819Z" fill="#E47B4C"/>
<path d="M109.735 114.899L117.423 105.279L100.809 77.751L92.1227 104.327L72.3605 100.536L70.8977 106.751L89.1511 118.338C95.8861 122.612 104.757 121.13 109.735 114.9V114.899Z" fill="#DCC6FF"/>
<path d="M46.2634 16.1496C55.0205 16.6503 62.4885 24.5569 62.3772 33.1739C62.3579 34.7039 62.13 36.1814 61.7203 37.5883C61.7117 37.6097 61.7032 37.6429 61.6903 37.6867C61.6818 37.7081 61.6764 37.736 61.6679 37.7681C61.6507 37.8248 61.6315 37.8879 61.6069 37.9639C61.6101 37.9692 61.6069 37.9692 61.6069 37.9724C60.9671 40.1144 57.5337 50.2142 46.7641 62.3972C45.9574 63.3088 44.5088 63.3088 43.7053 62.3972C32.9367 50.2142 29.5034 40.1144 28.8625 37.9724C28.8625 37.9671 28.8593 37.9671 28.8625 37.9639C28.8432 37.9007 28.8208 37.8333 28.8015 37.7681C28.793 37.7349 28.7876 37.7081 28.779 37.6867C28.7619 37.6429 28.7566 37.6108 28.7491 37.5883C28.3168 36.1161 28.09 34.5616 28.09 32.9556C28.09 23.3265 36.3229 15.5804 46.258 16.1496H46.2634ZM52.2495 32.9535C52.2495 29.1543 49.1093 26.0708 45.2331 26.0708C41.3568 26.0708 38.2167 29.1468 38.2167 32.9535C38.2167 36.7602 41.3568 39.8447 45.2331 39.8447C49.1104 39.8447 52.2495 36.7527 52.2495 32.9535Z" fill="#3E5FFF"/>
</g>
<defs>
<clipPath id="clip0_3084_6060">
<rect width="140" height="140" fill="white"/>
</clipPath>
</defs>
</svg>
