<svg width="300" height="300" viewBox="0 0 300 300" fill="none" xmlns="http://www.w3.org/2000/svg">
<circle cx="149.085" cy="149.085" r="143.085" fill="#3E5FFF"/>
<path d="M151.986 5.66113L151.127 145.904L279.625 207.272C293.221 176.97 296.388 141.82 286.065 107.52C267.721 46.566 212.895 6.75918 151.986 5.66113Z" fill="#E2F1FF"/>
<path d="M189.966 164.453C187.813 160.555 186.334 156.242 185.973 151.779C185.741 148.938 185.965 146.093 186.19 143.246C186.367 141 186.545 138.752 186.499 136.503C186.399 131.403 184.81 125.857 180.625 123.137C177.41 121.05 173.465 121.081 169.533 121.112C165.439 121.145 161.359 121.177 158.13 118.818C154.185 115.939 152.993 110.375 153.356 105.405C154.454 90.4641 166.067 77.5385 181.069 79.0955C182.314 79.2247 183.588 79.4597 184.634 80.1706C185.375 80.673 185.947 81.3749 186.52 82.0791C186.906 82.5527 187.292 83.0274 187.732 83.4432C190.208 85.7789 193.664 85.8108 197.149 85.843C198.722 85.8576 200.301 85.8722 201.799 86.0988C202.709 86.2346 203.611 86.4573 204.512 86.6795C206.222 87.1012 207.926 87.5213 209.66 87.3444C212.307 87.0741 215.036 84.5242 214.201 81.9215C214.002 81.3163 213.593 80.7464 213.008 80.5466C212.482 80.3704 211.904 80.5173 211.372 80.67L211.112 80.7448C209.698 81.1527 208.244 81.572 206.796 81.3339C205.259 81.0872 203.751 79.8416 203.751 78.2377C203.751 77.1977 204.376 76.2577 205.13 75.5644C207.374 73.4904 210.665 73.1379 213.663 73.4434L213.887 73.4662C215.349 73.6162 216.963 73.7816 218.069 72.8148C219.373 71.6691 219.221 69.413 218.163 68.0205C217.105 66.6281 215.428 65.9231 213.791 65.3943C212.155 64.8596 210.413 64.4425 208.736 64.7891C207.059 65.1358 205.457 66.446 205.235 68.1968C205.167 68.728 205.21 69.3046 205.253 69.874C205.338 71.0177 205.422 72.1323 204.598 72.7913C204.25 73.0732 203.815 73.1795 203.376 73.2865C203.102 73.3535 202.827 73.4208 202.57 73.5316C201.532 73.9809 200.848 75.0879 200.192 76.152C199.363 77.4952 198.576 78.7699 197.17 78.5667C195.978 78.3904 195.271 77.1331 194.745 76.0168C193.687 73.7783 192.635 71.5457 191.583 69.3072C191.192 68.4788 190.771 67.6093 190.034 67.0805C189.304 66.5517 188.152 66.5106 187.609 67.245C187.738 68.8725 188.842 70.2179 189.888 71.4458C190.94 72.6738 192.039 74.0251 192.162 75.6525C192.29 77.28 190.858 79.0955 189.339 78.6372C188.256 78.3161 187.735 77.133 187.26 76.0545C187.222 75.9688 187.185 75.8833 187.147 75.7994C186.177 73.6373 184.687 71.7279 182.846 70.2884C181.858 69.5129 180.707 68.8607 179.468 68.8725C177.416 68.896 173.542 70.4647 174.541 72.3154C176.1 75.206 173.923 76.3315 171.746 77.4569C170.658 78.0196 169.57 78.5823 168.948 79.3657C168.562 79.8475 168.147 80.3528 167.575 80.5525C167.101 80.717 166.581 80.6465 166.096 80.5231C163.706 79.9297 161.555 78.0203 161.023 75.5468C160.491 73.0674 161.882 70.1885 164.249 69.4952C164.775 69.3414 165.326 69.2913 165.875 69.2414C166.626 69.1731 167.373 69.1051 168.048 68.7726C169.626 67.997 170.018 65.7351 169.258 64.1899C168.796 63.2439 169.059 62.0983 169.907 61.499C170.874 60.8204 171.84 60.1418 172.805 59.4632C173.771 58.7846 174.737 58.106 175.704 57.4274C177.621 56.082 179.743 54.3723 179.789 51.981C179.793 51.8406 179.792 51.6933 179.791 51.5432C179.787 50.6507 179.781 49.6591 180.637 49.4429C181.052 49.3371 181.478 49.4781 181.788 49.7719C183.787 51.6873 186.259 53.3676 189.006 53.5321C191.548 53.6907 194.295 52.2219 195.031 49.7073C195.139 49.3364 195.205 48.9475 195.271 48.5597C195.396 47.817 195.521 47.078 195.943 46.4759C196.365 45.8787 197.042 45.4612 197.699 45.0556C198.672 44.4558 199.601 43.8822 199.601 42.7921C196.37 42.5394 194.277 38.0977 196.077 35.3187C193.915 34.3728 191.7 36.8698 191.285 39.2552C191.12 40.2015 191.099 41.1757 191.078 42.1467C191.046 43.6232 191.014 45.0926 190.479 46.4465C189.59 48.6909 186.183 50.0187 184.985 47.9329C184.751 47.5262 184.588 47.0102 184.428 46.5036C184.09 45.4295 183.764 44.3973 182.799 44.537C182.52 44.5776 182.28 44.7341 182.039 44.8915C181.896 44.9846 181.753 45.0782 181.601 45.1481C180.216 45.7885 178.72 44.3373 178.211 42.8626C176.779 38.7381 179.117 34.3317 181.361 30.6126C181.637 30.1572 181.913 29.6928 182.193 29.2236C185.114 24.3171 188.356 18.8715 194.155 17.4343C199.689 16.0713 205.2 19.5553 209.94 22.6575C210.367 22.9336 210.694 23.3449 210.846 23.8384C211.337 25.4659 209.543 26.3824 208.087 26.6585C206.656 26.9288 203.844 27.7925 205.136 29.7431C206.276 31.4704 210.285 29.9546 211.594 29.4376C212.003 29.2789 212.418 29.0909 212.716 28.7619C213.233 28.1933 213.27 27.3917 213.307 26.5821C213.324 26.2208 213.34 25.8573 213.4 25.5129C213.657 24.0116 214.779 22.8808 216.133 22.191C247.634 38.8576 272.762 67.2675 284.807 103.543C284.743 103.452 284.678 103.362 284.613 103.272C282.871 100.893 280.481 99.1478 277.956 100.593C275.519 101.986 273.491 104.142 272.223 106.703C271.656 107.844 271.21 109.093 270.765 110.339C269.731 113.231 268.704 116.107 266.191 117.573C265.946 117.72 265.66 117.849 265.379 117.796C265.093 117.743 264.871 117.514 264.672 117.291C262.305 114.604 260.806 111.283 259.31 107.969L259.306 107.961C258.834 106.916 258.362 105.871 257.863 104.847L257.741 104.596C255.68 100.349 252.94 94.7022 248.413 95.0997C245.811 95.3288 243.311 94.4917 240.798 93.6502C239.314 93.1533 237.826 92.655 236.31 92.3736C235.895 92.2973 235.167 92.0428 234.405 91.7766C232.878 91.2426 231.215 90.6613 231.675 91.3748C231.827 91.6098 234.252 94.4946 234.515 94.5768C235.204 94.7887 235.913 94.9088 236.621 95.0287C237.464 95.1714 238.305 95.3139 239.109 95.6109C240.482 96.1161 241.803 97.2442 241.932 98.7483C242.06 100.258 240.991 101.568 239.956 102.644C236.631 106.098 232.125 109.371 227.549 108.172C224.417 107.351 222.255 104.709 220.118 102.097L220.116 102.095C219.502 101.344 218.889 100.596 218.256 99.894C217.906 99.5062 217.462 99.0949 216.895 99.3887C216.416 99.6355 216.205 100.229 216.363 100.758C217.088 103.155 218.052 105.475 219.232 107.673C220.249 109.576 221.564 111.498 223.54 112.267C225.344 112.971 227.256 112.569 229.19 112.162C230.551 111.876 231.923 111.588 233.276 111.68C233.382 111.686 233.487 111.703 233.592 111.733C234.457 112.003 234.363 112.908 234.176 113.607C233.055 117.824 230.543 121.428 228.048 125.008C227.435 125.887 226.823 126.764 226.234 127.649C223.353 131.955 221.588 136.203 221.389 141.444C221.208 146.138 220.676 150.345 218.403 154.54C215.644 159.646 211.454 163.758 207.176 167.589C205.912 168.721 204.53 169.869 203.052 170.702L189.966 164.453Z" fill="#C3DCF4"/>
<path d="M227.426 146.286L227.408 146.297C226.438 146.911 225.446 147.537 224.744 148.454C223.049 150.663 223.446 153.824 223.931 156.597C224.066 157.361 224.206 158.142 224.615 158.788C225.024 159.435 225.772 159.922 226.503 159.775C227.058 159.664 227.491 159.223 227.87 158.8C229.688 156.785 231.278 154.464 231.932 151.797C233.002 147.426 231.786 143.548 227.426 146.286Z" fill="#C3DCF4"/>
<path d="M167.335 49.2549C167.832 50.8941 167.113 52.6332 166.412 54.1901C165.932 55.2536 166.873 56.4227 167.966 56.1172C169.018 55.8235 170.053 55.4122 171.07 55.0068C171.642 54.7777 172.244 54.5309 172.642 54.0491C173.431 53.0915 173.109 51.5815 172.39 50.571C172.017 50.0393 171.556 49.5831 171.095 49.1269C170.675 48.7109 170.255 48.2949 169.901 47.8213C169.282 47.0006 169.062 46.0074 168.847 45.0348C168.649 44.1417 168.456 43.2659 167.96 42.5571C166.885 41.0119 164.816 41.899 164.623 43.7321C164.512 44.7779 165.073 45.7767 165.693 46.611C165.805 46.7624 165.921 46.9129 166.037 47.0637L166.038 47.0649C166.562 47.7448 167.092 48.433 167.341 49.2549H167.335Z" fill="#C3DCF4"/>
<path d="M163.086 53.1272C164.278 52.5456 165.599 51.8229 165.962 50.5127C166.19 49.6902 165.944 48.7501 165.348 48.1509C164.752 47.5575 163.162 48.0921 163.162 48.0921C162.11 48.333 161.391 49.3083 160.801 50.2366C160.427 50.83 160.053 51.4587 160.059 52.1989C160.059 52.5573 160.176 52.9157 160.41 53.1801C161.087 53.938 162.215 53.5502 163.086 53.1272Z" fill="#C3DCF4"/>
<path d="M196.731 146.227L208.005 153.855L204.309 164.615L195.728 157.05L176.096 147.204C174.96 146.634 175.311 144.928 176.58 144.853L189.033 144.115C191.762 143.953 194.467 144.695 196.731 146.227Z" fill="#E47B4C"/>
<path d="M62.9148 237.354C58.7243 243.779 43.1363 229.237 35.6398 236.165C52.9814 257.555 64.4162 266.298 86.8309 277.598C91.6549 270.202 95.5737 258.605 95.5737 258.605L62.9201 237.358L62.9148 237.354Z" fill="black"/>
<path d="M24.7493 155.45C16.2614 154.449 15.0453 131.304 6.81154 132.197C4.48351 155.45 6.2389 175.779 15.1432 199.208C26.5542 199.892 40.6978 192.388 40.6978 192.388L33.9029 156.493L24.7493 155.45Z" fill="black"/>
<path d="M246.102 179.321L285.666 145.991L284.536 187.673L256.538 216.499C245.849 227.503 227.561 225.023 220.19 211.568L194.517 164.711C193.64 163.111 193.67 161.167 194.596 159.594L201.076 148.584C201.679 147.559 203.039 147.284 203.993 147.994L246.102 179.321Z" fill="#84DBA8"/>
<path d="M180.25 163.6L205.284 173.345L218.749 197.191L196.308 220.398L142.693 207.857L108.104 253.355C104.075 258.655 96.6406 259.951 91.0563 256.326L66.4648 240.365C59.4986 235.843 58.6648 225.967 64.7745 220.341L126.919 163.123C141.715 148.374 165.72 148.589 180.25 163.6Z" fill="white"/>
<path d="M131.894 196.96L159.665 241.72C177.667 270.734 216.974 277.504 243.644 256.183L250.94 249.693L178.846 163.599C171.138 154.395 159.749 149.077 147.743 149.076L40.108 149.074C32.1009 149.074 26.0865 156.385 27.631 164.242L32.8869 190.979C34.6741 200.071 43.1051 206.295 52.3201 205.326L131.894 196.96Z" fill="white"/>
<path d="M204.565 195.051L236.05 153.675L240.523 147.83C251.011 134.128 266.54 125.186 283.655 122.995L289.568 136.854C291.462 141.294 292.473 146.078 292.349 150.904C291.398 187.915 282.489 217.422 245.759 256.62C240.356 262.387 231.407 262.804 225.268 257.828L210.687 246.008C195.214 233.466 192.503 210.901 204.565 195.051Z" fill="#A3F7CA"/>
<path d="M263.228 123.767L283.691 123.04L285.56 89.7032C286.256 77.3271 276.786 66.7271 264.41 66.0303C252.034 65.3335 241.434 74.8036 240.737 87.1797L240.012 100.065C239.269 113.255 250.026 124.232 263.228 123.761" fill="#E47B4C"/>
<path d="M240.616 89.3176L237.893 93.6371C237.407 94.4133 237.445 95.4059 237.995 96.1409L240.273 99.1902L240.622 89.318L240.616 89.3176Z" fill="#E47B4C"/>
<path d="M246.294 85.4051C246.635 85.4243 246.985 85.2883 247.226 85.0028C247.626 84.527 247.566 83.8197 247.091 83.4191C247.008 83.3459 244.991 81.6625 241.859 81.6295C241.237 81.6194 240.722 82.1199 240.719 82.7427C240.715 83.3654 241.203 83.8788 241.832 83.883C244.123 83.9061 245.624 85.1306 245.636 85.1438C245.826 85.304 246.058 85.3856 246.294 85.3988" fill="black"/>
<path d="M242.399 91.0741C242.743 93.0309 243.217 94.5776 243.789 94.479C244.362 94.3804 244.266 92.7616 243.922 90.8048C243.577 88.848 243.103 87.3014 242.531 87.4C241.958 87.4986 242.054 89.1173 242.399 91.0741Z" fill="black"/>
<path d="M245.502 107.659C245.644 107.679 245.787 107.694 245.936 107.702C248.805 107.864 251.741 105.936 252.63 103.313C252.735 103.008 253.033 102.806 253.356 102.825C253.418 102.828 253.486 102.838 253.547 102.86C253.73 102.921 253.878 103.054 253.962 103.226C254.046 103.399 254.06 103.593 254 103.777C252.916 106.98 249.338 109.339 245.861 109.143C245.681 109.133 245.495 109.116 245.315 109.094C244.92 109.04 244.647 108.676 244.7 108.287C244.752 107.916 245.092 107.642 245.508 107.665L245.502 107.659Z" fill="black"/>
<path d="M286.544 88.5248L284.703 107.767C282.398 107.812 280.714 107.172 278.799 106.048C276.885 104.924 275.284 103.271 274.203 101.227L270.695 91.5172L249.228 70.866C249.179 68.2861 251.23 66.1571 253.803 66.1074L262.762 65.9334C262.827 65.9249 262.883 65.9228 262.946 65.9213L263.037 65.9292C263.137 65.9168 263.228 65.9245 263.327 65.9191C263.587 65.9207 263.848 65.9155 264.107 65.9241C264.353 65.9315 264.591 65.9452 264.836 65.9596C264.934 65.9682 265.032 65.9697 265.124 65.9707C265.424 65.9969 265.717 66.0227 266.01 66.0553C266.038 66.0578 266.059 66.0596 266.094 66.0627C277.418 67.3407 286.321 76.8236 286.544 88.5248Z" fill="black"/>
<path d="M276.843 118.062L264.225 121.521L258.033 133.377C257.262 134.862 258.792 136.487 260.322 135.811L283.693 123.03L276.843 118.062Z" fill="#E47B4C"/>
<path d="M119.668 198.278L84.7983 201.904L72.4829 213.217L120.097 200.618C121.52 200.242 121.132 198.126 119.668 198.278Z" fill="#E3E3E3"/>
<path d="M151.564 77.6956C151.569 76.4965 150.601 75.5203 149.402 75.5152C148.203 75.5101 147.227 76.478 147.222 77.6771L147.2 147.49C147.2 148.625 148.144 149.533 149.278 149.489L151.565 149.4L151.564 77.6956Z" fill="black"/>
<path d="M148.636 144.626L147.629 146.742C147.155 147.739 147.578 148.932 148.576 149.407L210.299 178.778C211.382 179.293 212.678 178.833 213.193 177.75C213.708 176.667 213.248 175.372 212.165 174.856L148.636 144.626Z" fill="black"/>
<path d="M197.046 216.604C197.146 213.459 197.571 209.394 198.748 206.644L252.824 222.103L259.649 212.021C260.045 211.436 260.955 211.861 260.76 212.54L257.716 223.158C250.959 246.725 219.61 251.4 206.272 230.83L197.046 216.604Z" fill="#84DBA8"/>
<path d="M267.389 95.8949C267.539 93.2433 269.808 91.2157 272.46 91.365C275.111 91.5143 277.139 93.7838 276.99 96.4354C276.84 99.087 274.571 101.115 271.919 100.965C269.268 100.816 267.24 98.5465 267.389 95.8949Z" fill="#E47B4C"/>
<path d="M171.002 174.145L182.15 180.432L190.887 172.58L180.257 168.351L162.594 155.3C161.571 154.545 160.209 155.629 160.716 156.795L165.713 168.279C166.791 170.758 168.648 172.817 171.002 174.145Z" fill="#E47B4C"/>
<path d="M235.027 190.427L275.319 144L280.318 184.323L249.228 228.314C240.351 240.875 221.838 241.222 212.497 229.002L180.065 186.575C178.993 185.172 178.708 183.319 179.311 181.659L183.773 169.373C184.172 168.276 185.422 167.752 186.484 168.237L235.027 190.427Z" fill="#A3F7CA"/>
<path d="M292.47 151.866C293.45 127.589 288.63 96.57 286.317 85.6836C285.555 91.1269 277.666 97.8816 273.855 100.422C273.855 100.422 258.4 141.733 263.098 151.866C265.738 157.559 287.9 167.849 292.47 151.866Z" fill="black"/>
</svg>
