<svg width="140" height="140" viewBox="0 0 140 140" fill="none" xmlns="http://www.w3.org/2000/svg">
<g clip-path="url(#clip0_1553_44380)">
<path d="M44.91 39.4025C45.6906 36.6804 45.7368 33.7123 44.887 30.7925C44.4591 29.3221 43.8328 27.9633 43.0459 26.7368C41.9979 25.1035 41.9572 22.8702 43.4415 21.6202C44.6191 20.6284 45.8433 19.6837 47.1119 18.79C48.5692 17.7634 50.5356 18.187 51.8664 19.373C55.7283 22.8149 61.2224 24.2521 66.5558 22.6999C71.8891 21.1477 75.754 16.9866 77.1657 12.0098C77.6521 10.2949 79.0841 8.88219 80.8647 8.96645C83.0156 9.06824 85.1469 9.29873 87.2485 9.65236C89.0556 9.95645 90.157 11.721 90.214 13.5526C90.2539 14.8347 90.4544 16.1326 90.8295 17.4212C93.227 25.659 101.849 30.3935 110.086 27.9959C111.375 27.6209 112.578 27.0935 113.681 26.4392C115.257 25.5044 117.337 25.487 118.564 26.8486C120.149 28.609 121.626 30.482 122.98 32.4601C123.987 33.9306 123.537 35.8906 122.334 37.2055C118.795 41.0743 117.299 46.6422 118.872 52.045C120.403 57.3062 124.473 61.1384 129.36 62.5963C131.068 63.1058 132.461 64.5563 132.353 66.3352C132.241 68.1778 132.035 70.0052 131.738 71.8108C131.439 73.6307 129.659 74.7389 127.815 74.7889C126.513 74.8243 125.194 75.0251 123.885 75.4062C119.868 76.5753 116.684 79.2242 114.754 82.587L96.519 71.8814C98.629 67.529 99.1953 62.4101 97.7371 57.4001C94.6131 46.666 83.3788 40.4969 72.6447 43.621C68.8756 44.718 65.6693 46.8149 63.2306 49.539L44.91 39.4025Z" fill="#FF7059"/> 
<path d="M38.6515 41.1428C36.9136 45.3581 33.3446 48.7733 28.6263 50.1465C26.9287 50.6406 25.2148 50.8318 23.5425 50.7519C21.6045 50.6593 19.6497 51.7393 19.3077 53.6491C18.8571 56.165 18.5832 58.725 18.4956 61.3118C18.4353 63.0928 19.8663 64.5054 21.587 64.9694C25.2145 65.9476 28.4247 68.2251 30.5317 71.4252L52.5046 65.486C51.8877 60.2216 53.3843 55.0502 56.4384 50.984L38.6515 41.1428Z" fill="#FF7059"/> 
<path d="M56.8999 70.4834L35.5426 76.2562C35.9672 77.0979 36.3208 77.9903 36.5938 78.9282C38.125 84.1894 36.7471 89.6072 33.4054 93.4601C32.2377 94.8064 31.8409 96.7778 32.8865 98.221C34.0827 99.8718 35.366 101.445 36.7278 102.936C38.0444 104.378 40.2906 104.236 41.8816 103.105C43.2622 102.123 44.8282 101.352 46.5466 100.852C54.7843 98.4541 63.406 103.189 65.8035 111.426C66.2445 112.942 66.4442 114.47 66.4252 115.97C66.4005 117.922 67.5624 119.85 69.4973 120.112C71.0431 120.322 72.6032 120.465 74.1739 120.539C75.9545 120.623 77.3865 119.211 77.8729 117.496C79.0239 113.438 81.8454 109.836 85.7241 107.835L83.5642 85.5057C83.2204 85.5563 82.8302 85.6827 82.4337 85.7981C71.6996 88.9222 60.4254 82.8396 57.3013 72.1054C57.1442 71.5656 57.0106 71.0246 56.8999 70.4834Z" fill="#FF7059"/>  
<path d="M44.316 113.318L54.2258 94.2475L58.2906 123.318L54.5863 125.434C51.3524 127.282 47.5292 127.765 43.9455 126.78L24.0573 121.31C23.778 121.234 23.6014 120.956 23.6481 120.667L24.8363 113.318H44.316Z" fill="#4680E1"/>  
<path d="M25.0081 113.46L23.8447 120.556C15.957 118.823 11.7535 115.158 9.15396 112.333C8.49495 111.617 9.02934 110.474 10.0025 110.476L17.7882 110.493L17.3142 106.234C17.2474 105.633 18.0551 105.343 18.392 105.844C19.4666 107.445 20.9466 109.555 21.9198 110.56C23.6018 112.297 25.0081 113.46 25.0081 113.46Z" fill="#FFBD6E"/>  
<path d="M98.7852 132.95H66.0128C63.5013 132.95 61.5224 130.956 61.7343 128.627L64.6096 92.6083C67.0323 89.4184 65.7579 86.3322 69.246 84.2322C69.9906 83.8096 75.8299 80.3805 78.5333 79.1364C80.412 78.02 81.8353 79.6601 85.3348 81.263C88.7668 83.1958 93.3702 85.9677 96.7039 87.9998C99.5269 89.7207 101.716 92.2892 102.986 95.324L111.088 114.68C114.728 123.377 108.282 132.95 98.7852 132.95C 0.0 0.0 0.0 0.0 98.7852 132.95L 0.0 0.0 L98.7852 132.95Z" fill="#4680E1"/>    
<path d="M100.293 131.351C100.235 132.25 99.4853 132.95 98.58 132.95H64.864H60.8895C60.3321 132.95 59.8559 132.55 59.7618 132.003L53.5283 95.8083C54.9579 92.1614 57.5565 89.0839 60.9158 87.0568L68.1197 82.7047C68.9691 82.1913 69.9457 81.9199 70.9402 81.9199H85.2563C86.2508 81.9199 87.2276 82.1913 88.077 82.7047L95.2809 87.0568C98.6402 89.0839 101.239 92.1614 102.668 95.8083L101.385 114.379L100.293 131.351Z" fill="#4680E1"/> 
<path d="M86.2863 64.9097V82.6921C86.2863 83.1964 85.9596 83.6405 85.4744 83.7948L84.6529 84.0563C80.3869 85.4074 75.7981 85.4074 71.5359 84.0563L70.7201 83.7948C70.2349 83.6405 69.9082 83.1964 69.9082 82.6977V64.9097H86.2882H86.2863Z" fill="#FFBD6E"/> 
<path d="M86.2881 73.0996L86.2881 78.0337C84.6581 79.2928 82.6239 80.0296 80.4223 80.0296C78.7518 80.0296 77.1814 79.6066 75.8093 78.8504C75.3628 78.6048 75.6168 77.905 76.1152 78.0025C76.7349 78.1311 77.3758 78.1993 78.032 78.1993C81.5134 78.1993 84.5792 75.9064 86.2881 73.0996Z" fill="#E59A48"/> 
<path d="M70.7393 67.2277C70.5433 66.0365 69.4228 65.2361 68.2371 65.4312C67.0514 65.6264 66.2449 66.744 66.441 67.9353C66.637 69.1265 67.918 70.9024 69.1055 70.707C70.2931 70.5115 70.9342 68.4116 70.7393 67.2277Z" fill="#FFBD6E"/> 
<path d="M88.3054 64.3363C88.1093 63.1451 86.9889 62.3446 85.8013 62.5401C84.6138 62.7356 83.8091 63.8529 84.0051 65.0442C84.2012 66.2354 85.4822 68.0113 86.6697 67.8158C87.8573 67.6204 88.5002 65.5202 88.3054 64.3363Z" fill="#FFBD6E"/> 
<path d="M79.3176 77.9578C74.3277 78.7791 69.582 75.5148 68.563 70.5669L67.4175 65.5754C66.2999 60.1551 69.9168 54.893 75.375 53.9945C80.8333 53.0961 85.9441 56.9216 86.6247 62.4138L87.1396 67.5091C87.7602 72.5225 84.3094 77.1361 79.3195 77.9575L79.3176 77.9578Z" fill="#FFBD6E"/> 
<path d="M86.6213 62.3011L86.2589 60.0994L86.2515 60.1006C85.3786 54.7972 80.3659 51.1999 75.0588 52.0734C69.7518 52.947 66.1547 57.9615 67.0277 63.2649L67.3892 65.4611C67.4578 65.8779 67.852 66.1672 68.2725 66.0979C68.6929 66.0287 68.9754 65.6281 68.9068 65.2113C68.8646 64.955 68.8344 64.691 68.8168 64.4231C68.4068 61.932 71.1869 60.4834 73.6017 59.7471C76.5029 58.8624 79.2226 56.9505 78.9349 55.2027C79.2148 56.903 80.1673 58.6546 81.482 59.3383C82.8436 60.0464 84.7166 60.1993 84.9659 61.7137L85.1037 62.5509C85.1726 62.9695 85.5674 63.2511 85.986 63.1822C86.4046 63.1133 86.6902 62.7197 86.6213 62.3011Z" fill="#824F36"/> 
<path d="M85.0284 117.521L84.0183 124.76C76.0026 123.128 71.6342 119.464 68.9556 116.636C68.2765 115.92 68.799 114.749 69.7845 114.735L77.6689 114.625L77.1192 110.306C77.0417 109.697 77.8549 109.388 78.2042 109.892C79.3186 111.5 80.4981 113.995 81.5 115C83.2317 116.737 85.0284 117.521 85.0284 117.521Z" fill="#FFBD6E"/> 
<path d="M56.8847 114.99L58.2666 123.329C57.265 123.91 56.6621 124.25 55.7653 124.761L56.3207 115.024C56.3412 114.668 56.8257 114.639 56.8847 114.99Z" fill="#306DC6"/>
<path d="M85.0391 89.5084L66.8444 95.8954C67.0389 96.1777 67.2241 96.4697 67.3992 96.7711C69.796 100.895 69.7348 105.771 67.6653 109.701C66.9522 111.055 67.0059 112.782 68.1629 113.784C69.5726 115.005 71.0473 116.132 72.5773 117.164C73.8903 118.05 75.6314 117.591 76.7491 116.469C77.5525 115.663 78.473 114.947 79.5038 114.348C82.3083 112.718 85.4608 112.225 88.4272 112.727L93.5883 95.277C90.2953 94.2858 87.2886 92.3214 85.0391 89.5084Z" fill="#FF7059"/>
<path fill-rule="evenodd" clip-rule="evenodd" d="M78.2933 73.2461C78.2093 73.4125 78.0069 73.4807 77.8391 73.3985C77.6701 73.3156 77.6003 73.1114 77.6831 72.9425C77.6831 72.9425 77.6831 72.9426 77.6833 72.9421C77.7094 72.8891 77.7422 72.8391 77.7761 72.7908C77.8337 72.7089 77.9203 72.6006 78.0436 72.4807C78.2912 72.24 78.6822 71.9571 79.2722 71.7469C79.8622 71.5368 80.344 71.5089 80.688 71.5389C80.8593 71.5538 80.9949 71.583 81.0913 71.61C81.1394 71.6236 81.1778 71.6366 81.2059 71.6471C81.2238 71.6537 81.2422 71.661 81.2592 71.6688C81.4302 71.7473 81.5052 71.9497 81.4266 72.1207C81.3486 72.2905 81.1486 72.3656 80.9784 72.2898C80.9698 72.2862 80.8479 72.2369 80.6288 72.2178C80.3787 72.196 79.9953 72.2128 79.5009 72.3889C79.0064 72.5651 78.6987 72.7944 78.5187 72.9694C78.361 73.1227 78.2977 73.2379 78.2933 73.2461Z" fill="black"/>
<path d="M74.2884 67.5617C74.3535 68.3704 74.3038 69.0336 73.9934 69.0586C73.683 69.0836 73.5278 68.4369 73.4626 67.6282C73.3975 66.8195 73.4473 66.1563 73.7576 66.1313C74.068 66.1063 74.2233 66.753 74.2884 67.5617Z" fill="black"/>
<path d="M81.4835 66.9821C81.5486 67.7908 81.4988 68.454 81.1884 68.479C80.8781 68.504 80.7228 67.8573 80.6577 67.0486C80.5925 66.2399 80.6423 65.5767 80.9527 65.5517C81.2631 65.5267 81.4183 66.1734 81.4835 66.9821Z" fill="black"/>
<path d="M74.6229 64.8488C74.7522 64.7309 74.8263 64.5588 74.8095 64.3745C74.7809 64.068 74.5101 63.8357 74.1995 63.8627C74.1391 63.8679 72.83 63.9906 71.7071 65.0954C71.4825 65.3148 71.4797 65.6688 71.6994 65.8973C71.9186 66.1201 72.2765 66.1225 72.5012 65.9031C73.3213 65.0924 74.2865 64.9992 74.2988 64.9981C74.4229 64.9861 74.5332 64.9244 74.6229 64.8488Z" fill="#824F36"/>
<path d="M79.7165 61.9642C79.5701 61.8685 79.4694 61.7105 79.4565 61.5258C79.4356 61.2187 79.6658 60.9461 79.9767 60.923C80.0371 60.9185 81.349 60.8301 82.6342 61.7409C82.8911 61.9216 82.9505 62.2705 82.7702 62.5313C82.5894 62.7863 82.2365 62.846 81.9796 62.6654C81.0403 61.9963 80.0727 62.0588 80.0604 62.0596C79.936 62.0677 79.8172 62.0245 79.7165 61.9642Z" fill="#824F36"/>
<path d="M77.1442 110.672L77.9966 117.062L84.3984 117.83C83.7693 117.215 82.3717 115.923 81.6856 115.044C81.1193 114.318 79.5098 112.064 78.1998 110.248C77.8378 109.746 77.0624 110.058 77.1442 110.672Z" fill="#FFBD6E"/>
<path d="M97.1323 113.188C96.9999 115.375 96.3159 116.475 93.7458 117.306C93.4487 117.402 93.4512 117.844 93.7557 117.913C95.9326 118.406 98.7205 118.853 99.3822 117.897C99.9085 116.861 98.8094 114.813 97.707 113.029C97.5493 112.774 97.1505 112.889 97.1323 113.188Z" fill="#306DC6"/>
<path d="M97.6284 132.95C94.2908 132.454 92.447 131.5 90.8839 130.785C90.4971 130.608 90.0684 130.894 90.0684 131.32V132.95H97.6284Z" fill="#306DC6"/>
</g>
<defs>
<clipPath id="clip0_1553_44380">
<rect width="140" height="140" fill="white"/>
</clipPath>
</defs>
</svg>

