<svg width="140" height="140" viewBox="0 0 140 140" fill="none" xmlns="http://www.w3.org/2000/svg">
<circle cx="69.8722" cy="74.1569" r="57.7389" fill="#3D3D3D"/>
<path d="M115.512 109.528C104.949 123.137 88.4336 131.896 69.8722 131.896C44.1195 131.896 22.3045 115.036 14.8632 91.7519L22.2132 70.6733C23.9485 65.7043 27.3648 61.4939 31.8785 58.7783L49.7147 49.1367H69.8314L88.3048 59.0365C92.5538 61.5959 95.8425 65.4812 97.6576 70.0964L103.659 85.3437C104.274 86.906 105.115 88.3696 106.155 89.6879L112.278 97.448C113.927 99.538 114.992 102.028 115.364 104.663C115.595 106.3 115.64 107.93 115.512 109.528Z" fill="#F8F8F8"/>
<path d="M77.6221 75.0828C77.9488 74.1534 77.4969 73.1301 76.59 72.7454L71.5113 70.5912C69.6614 69.803 67.5554 69.8029 65.6939 70.591L45.1349 79.3116C42.5776 80.3971 40.6636 82.9196 40.6787 85.8632C40.7358 97.5098 45.4793 118.627 65.531 128.226C67.474 129.145 69.7312 129.145 71.6742 128.226C91.7212 118.627 96.4683 97.5098 96.5264 85.8632C96.5497 82.9196 94.6299 80.3971 92.0703 79.3116L83.8443 75.8224C82.8526 75.4017 81.7116 75.9056 81.3544 76.9219L76.3006 91.3006C76.1129 91.8345 76.4398 92.4113 76.9943 92.5246L81.6941 93.4847C82.2458 93.5974 82.5728 94.1692 82.3902 94.7018L81.5514 97.1482L74.1907 116.543C73.9833 117.089 73.3138 116.918 73.4218 116.344C73.4341 116.279 73.4489 116.213 73.4662 116.148L78.4342 97.4239C78.5696 96.9137 78.2552 96.3928 77.7406 96.2748L71.785 94.9098C71.2466 94.7864 70.9326 94.2251 71.1091 93.7017L71.8386 91.5392L71.8383 91.5387L71.8512 91.5018L71.86 91.4759L71.8605 91.4756L77.6221 75.0828Z" fill="#3E5FFF"/>
<path d="M71.0477 27.8955V53.4349C71.0477 54.1592 70.5856 54.797 69.8991 55.0187L68.7371 55.3943C62.7022 57.3348 56.2106 57.3348 50.1811 55.3943L49.0271 55.0187C48.3406 54.797 47.8785 54.1593 47.8785 53.4431V27.8955H71.0504H71.0477Z" fill="#FFBD6E"/>
<path d="M49.7114 28.9335C49.7114 27.1868 48.3 25.7808 46.5614 25.7808C44.8228 25.7808 43.4087 27.1868 43.4087 28.9335C43.4087 30.6802 44.8201 33.5166 46.5614 33.5166C48.3027 33.5166 49.7114 30.6694 49.7114 28.9335Z" fill="#FFBD6E"/>
<path d="M75.4684 28.9335C75.4684 27.1868 74.057 25.7808 72.3157 25.7808C70.5744 25.7808 69.163 27.1868 69.163 28.9335C69.163 30.6802 70.5744 33.5166 72.3157 33.5166C74.057 33.5166 75.4684 30.6694 75.4684 28.9335Z" fill="#FFBD6E"/>
<path d="M58.8668 49.7607C58.2909 49.6005 58.5026 48.948 59.1002 48.9625C59.2119 48.9652 59.324 48.9665 59.4364 48.9665H59.4391C64.3351 48.9665 68.6464 46.3804 71.0507 42.481V47.5023C68.7605 49.2491 65.9025 50.2711 62.8092 50.2711C61.5793 50.2711 60.1767 50.125 58.8668 49.7607Z" fill="#E59A48"/>
<path d="M45.8191 35.8778C46.111 43.1775 52.1189 48.9502 59.4321 48.9502H59.4322C66.7454 48.9502 72.7533 43.1775 73.0451 35.8778L73.5073 28.4862C73.8289 20.4892 67.4319 13.8301 59.4322 13.8301H59.4321C51.4324 13.8301 45.0354 20.4892 45.357 28.4862L45.8191 35.8778Z" fill="#FFBD6E"/>
<path d="M44.2272 27.3149C43.3526 26.1618 42.8455 24.3938 42.8455 22.7776C42.8455 20.6898 42.9083 18.707 44.0139 16.8458L45.1994 14.8416L45.2464 14.5303C45.7538 11.1358 47.9159 8.21048 51.0161 6.735C53.2463 5.67317 55.7794 5.44716 58.1632 6.09534L60.7474 6.79897L63.6941 6.87573C65.0331 6.90984 66.7303 6.78191 68.6152 8.23606C70.8454 9.95461 75.0458 12.3128 75.2122 17.349C75.3005 18.6202 75.4613 19.8731 75.7281 21.1188C76.3393 24.121 75.7529 25.8778 74.7815 27.3959C74.27 28.1951 73.201 28.34 73.201 28.34L71.967 27.4002L71.9371 17.6731L64.0565 11.5836L57.6983 12.8117L47.3615 18.7947L48.9222 24.3298L45.8415 28.34C45.8415 28.34 45.1017 28.4681 44.2272 27.3149Z" fill="#824F36"/>
<path d="M73.5496 22.6877L73.5283 28.6109C73.5283 29.2207 73.0251 29.7154 72.411 29.7154C71.797 29.7111 71.298 29.2122 71.3023 28.5981L71.3108 27.3785C71.3194 24.3764 69.6484 23.5755 67.0642 22.0361C63.0856 19.7163 57.8866 20.9221 55.2895 24.7259C54.8631 25.3485 54.232 25.8048 53.507 26.0137C50.4537 26.8922 47.5881 25.3828 47.5753 28.6109C47.571 29.225 47.0721 29.7154 46.458 29.7154C45.8439 29.7111 45.345 29.2122 45.3535 28.5981L45.3749 22.5811C45.4047 14.8028 51.733 8.51713 59.5113 8.54698C67.2895 8.57257 73.5752 14.9052 73.5496 22.6834" fill="#824F36"/>
<path fill-rule="evenodd" clip-rule="evenodd" d="M63.4751 43.4016C63.4561 42.6424 62.8333 42.043 62.0689 42.0617C61.3005 42.0805 60.7046 42.7086 60.721 43.4685C60.7338 43.9764 61.0149 44.4098 61.4288 44.6398L61.4301 44.6405L61.4315 44.6413C61.6354 44.7566 61.8739 44.8195 62.13 44.8132L62.1302 44.8132C62.8163 44.7965 63.3873 44.2667 63.4642 43.5991L63.4654 43.589L63.4671 43.5789C63.474 43.5373 63.475 43.4886 63.4751 43.4016ZM62.049 41.2512C63.2668 41.2213 64.2593 42.1818 64.2858 43.388L64.2859 43.3925V43.3969C64.2859 43.4002 64.2859 43.4035 64.2859 43.4068C64.2859 43.482 64.286 43.5904 64.2685 43.7015C64.1412 44.7644 63.2388 45.5972 62.15 45.6237C61.7473 45.6336 61.3646 45.5346 61.0337 45.3478C60.3782 44.983 59.9304 44.2928 59.9105 43.488L59.9105 43.4874L59.9105 43.4869C59.8839 42.2796 60.8338 41.281 62.049 41.2512Z" fill="black"/>
<path d="M55.0119 35.2225C55.0119 36.3486 54.8691 37.2605 54.4369 37.2605C54.0048 37.2605 53.862 36.3486 53.862 35.2225C53.862 34.0965 54.0048 33.1846 54.4369 33.1846C54.8691 33.1846 55.0119 34.0965 55.0119 35.2225Z" fill="black"/>
<path d="M65.0302 35.2225C65.0302 36.3486 64.8875 37.2605 64.4553 37.2605C64.0231 37.2605 63.8804 36.3486 63.8804 35.2225C63.8804 34.0965 64.0231 33.1846 64.4553 33.1846C64.8875 33.1846 65.0302 34.0965 65.0302 35.2225Z" fill="black"/>
<path d="M55.7776 29.4344C55.9696 29.2857 56.0913 29.0558 56.0886 28.799C56.0831 28.3718 55.7343 28.0203 55.3017 28.023C55.2176 28.0235 53.3928 28.0473 51.7164 29.4506C51.3811 29.7291 51.3378 30.2185 51.6163 30.5592C51.8948 30.8918 52.3896 30.9351 52.7249 30.6566C53.9498 29.6264 55.2955 29.605 55.3125 29.6047C55.4856 29.602 55.6451 29.529 55.7776 29.4344Z" fill="#824F36"/>
<path d="M63.1457 29.4344C62.9537 29.2857 62.8321 29.0558 62.8348 28.799C62.8402 28.3718 63.189 28.0203 63.6216 28.023C63.7058 28.0235 65.5305 28.0473 67.2069 29.4506C67.5422 29.7291 67.5855 30.2185 67.307 30.5592C67.0285 30.8918 66.5337 30.9351 66.1984 30.6566C64.9735 29.6264 63.6278 29.605 63.6108 29.6047C63.4377 29.602 63.2782 29.529 63.1457 29.4344Z" fill="#824F36"/>
<path d="M35.6851 103.948L48.571 99.0175C49.4677 98.6744 50.4196 99.3805 50.3488 100.34L50.0731 103.996C49.9841 105.185 49.4679 106.301 48.6232 107.14L40.8783 114.843C40.6451 115.074 40.3648 115.255 40.0567 115.373C38.8396 115.839 37.4763 115.23 37.0106 114.013L34.3238 106.991C33.8581 105.774 34.4669 104.41 35.684 103.945" fill="#FFBD6E"/>
<path d="M98.8348 103.949L85.0395 103.742C84.0795 103.727 83.4278 104.717 83.8238 105.594L85.3376 108.933C85.8295 110.019 86.6975 110.89 87.7788 111.388L97.6977 115.965C97.996 116.101 98.3215 116.175 98.6513 116.18C99.9543 116.2 101.026 115.16 101.045 113.857L101.158 106.339C101.178 105.036 100.138 103.965 98.8348 103.945" fill="#FFBD6E"/>
</svg>

