<svg width="40" height="40" viewBox="0 0 40 40" fill="none" xmlns="http://www.w3.org/2000/svg">
<circle cx="20" cy="20" r="20" fill="#FF7059"/>
<path d="M20.4292 25.858C20.9042 25.858 21.2863 25.4758 21.2863 25.0008V22.715C21.2863 22.2399 20.9042 21.8578 20.4292 21.8578C19.9541 21.8578 19.572 22.2399 19.572 22.715V25.0008C19.572 25.4758 19.9541 25.858 20.4292 25.858Z" fill="white"/>
<path fill-rule="evenodd" clip-rule="evenodd" d="M23.8666 14.4489C24.3052 14.2694 24.5212 13.7621 24.2625 13.3651C23.4469 12.1133 22.0348 11.2858 20.4292 11.2858C17.9041 11.2858 15.8576 13.3327 15.8576 15.8575V18.1433H14.7146C13.4521 18.1433 12.4288 19.1684 12.4288 20.4292V27.2866C12.4288 28.5474 13.4521 29.5724 14.7146 29.5724H26.1437C27.4046 29.5724 28.4295 28.5474 28.4295 27.2866V20.4292C28.4295 19.1684 27.4046 18.1433 26.1437 18.1433H25.0009V18.1384H23.2864V18.1433H17.5719V15.8575C17.5719 14.2796 18.8505 13.0002 20.4292 13.0002C21.3177 13.0002 22.1111 13.4054 22.635 14.0411C22.9361 14.4064 23.4286 14.6282 23.8666 14.4489ZM14.1431 20.4292C14.1431 20.1148 14.3989 19.8577 14.7146 19.8577H26.1437C26.458 19.8577 26.7152 20.1148 26.7152 20.4292V27.2866C26.7152 27.6009 26.458 27.8581 26.1437 27.8581H14.7146C14.3989 27.8581 14.1431 27.6009 14.1431 27.2866V20.4292Z" fill="white"/>
</svg>
