<svg width="24" height="24" viewBox="0 0 24 24" fill="none" xmlns="http://www.w3.org/2000/svg">
<g clip-path="url(#clip0_11956_864)">
<path d="M13.9509 3.1915C13.085 1.68096 10.9192 1.68096 10.0521 3.1915L5.55339 11.0377L1.05465 18.884C0.188801 20.3945 1.27172 22.2833 3.00341 22.2833H11.9997H20.9959C22.7288 22.2833 23.8117 20.3945 22.9447 18.884L18.4459 11.0377L13.9472 3.1915H13.9509Z" fill="#FF7059"/>
<path d="M11.9673 19.5008C11.221 19.5008 10.5831 18.9018 10.5769 18.1581C10.5831 17.4254 11.1961 16.8264 11.9673 16.8264C12.7385 16.8264 13.3627 17.4254 13.3578 18.1581C13.364 18.9018 12.7136 19.5008 11.9673 19.5008ZM10.927 14.7L10.7663 7.89924C10.7526 7.32815 11.2235 6.86035 11.8066 6.86035H12.1218C12.7049 6.86035 13.1759 7.32816 13.1622 7.89803L13.0077 14.6988C12.994 15.2517 12.5317 15.6915 11.9673 15.6915C11.4004 15.6915 10.9395 15.2517 10.927 14.7Z" fill="white"/>
</g>
<defs>
<clipPath id="clip0_11956_864">
<rect width="24" height="24" fill="white"/>
</clipPath>
</defs>
</svg>
