<svg width="24" height="24" viewBox="0 0 24 24" fill="none" xmlns="http://www.w3.org/2000/svg">
<path fill-rule="evenodd" clip-rule="evenodd" d="M12 13C13.6569 13 15 11.6569 15 10C15 8.34315 13.6569 7 12 7C10.3431 7 9 8.34315 9 10C9 11.6569 10.3431 13 12 13ZM12 12C13.1046 12 14 11.1046 14 10C14 8.89543 13.1046 8 12 8C10.8954 8 10 8.89543 10 10C10 11.1046 10.8954 12 12 12Z" fill="black"/>
<path fill-rule="evenodd" clip-rule="evenodd" d="M12 21C16.9706 21 21 16.9706 21 12C21 7.02944 16.9706 3 12 3C7.02944 3 3 7.02944 3 12C3 16.9706 7.02944 21 12 21ZM17.88 17.4246C19.196 15.9988 20 14.0933 20 12C20 7.58172 16.4183 4 12 4C7.58172 4 4 7.58172 4 12C4 14.1049 4.81292 16.0199 6.14194 17.4483C6.62216 15.4796 8.3974 14.0184 10.5139 14.0184H13.5139C15.6219 14.0184 17.3914 15.4679 17.88 17.4246ZM17.0032 18.2428C16.8627 16.4386 15.3541 15.0184 13.5139 15.0184H10.5139C8.66656 15.0184 7.15349 16.4497 7.02304 18.2638C8.38907 19.3506 10.1187 20 12 20C13.8934 20 15.6331 19.3423 17.0032 18.2428Z" fill="black"/>
</svg>
