<svg width="24" height="24" viewBox="0 0 24 24" fill="none" xmlns="http://www.w3.org/2000/svg">
<path d="M10.5 8C10.7761 8 11 8.22386 11 8.5V10.5C11 10.7761 10.7761 11 10.5 11C10.2239 11 10 10.7761 10 10.5V10H7.5C7.22386 10 7 9.77614 7 9.5C7 9.22386 7.22386 9 7.5 9H10V8.5C10 8.22386 10.2239 8 10.5 8Z" fill="black"/>
<path d="M12 9.5C12 9.22386 12.2239 9 12.5 9H16.5C16.7761 9 17 9.22386 17 9.5C17 9.77614 16.7761 10 16.5 10H12.5C12.2239 10 12 9.77614 12 9.5Z" fill="black"/>
<path d="M13 13.5C13 13.2239 12.7761 13 12.5 13C12.2239 13 12 13.2239 12 13.5V14.0034H7.5C7.22386 14.0034 7 14.2273 7 14.5034C7 14.7796 7.22386 15.0034 7.5 15.0034H12V15.5C12 15.7761 12.2239 16 12.5 16C12.7761 16 13 15.7761 13 15.5V13.5Z" fill="black"/>
<path d="M14.5 14.0034C14.2239 14.0034 14 14.2273 14 14.5034C14 14.7796 14.2239 15.0034 14.5 15.0034H16.5C16.7761 15.0034 17 14.7796 17 14.5034C17 14.2273 16.7761 14.0034 16.5 14.0034H14.5Z" fill="black"/>
<path fill-rule="evenodd" clip-rule="evenodd" d="M6 4C4.89543 4 4 4.89543 4 6V18C4 19.1046 4.89543 20 6 20H18C19.1046 20 20 19.1046 20 18V6C20 4.89543 19.1046 4 18 4H6ZM18 5H6C5.44772 5 5 5.44772 5 6V18C5 18.5523 5.44772 19 6 19H18C18.5523 19 19 18.5523 19 18V6C19 5.44772 18.5523 5 18 5Z" fill="black"/>
</svg>
