<svg width="24" height="32" viewBox="0 0 24 32" fill="none" xmlns="http://www.w3.org/2000/svg">
<g clip-path="url(#clip0_3341_5558)">
<path d="M20.4 15.9999C20.4 16.3299 20.1225 16.5999 19.7775 16.5999H5.62912L10.9054 22.1987C11.1363 22.4436 11.1174 22.8234 10.8634 23.0458C10.7437 23.1474 10.5937 23.1999 10.4437 23.1999C10.2748 23.1999 10.1059 23.1343 9.98324 23.003L3.76199 16.403C3.54629 16.1745 3.54629 15.8252 3.76199 15.5968L9.98324 8.9968C10.2154 8.75072 10.6091 8.7343 10.8626 8.95577C11.1166 9.17845 11.1354 9.55802 10.9045 9.8029L5.62912 15.3999H19.7779C20.1225 15.3999 20.4 15.6699 20.4 15.9999Z" fill="#5E5E5E"/>
</g>
<defs>
<clipPath id="clip0_3341_5558">
<rect y="4" width="24" height="24" rx="12" fill="white"/>
</clipPath>
</defs>
</svg>
