<svg width="10" height="12" viewBox="0 0 10 12" fill="none" xmlns="http://www.w3.org/2000/svg">
<path fill-rule="evenodd" clip-rule="evenodd" d="M2 2.00215L3.07581 0.591402C3.35954 0.21933 3.80065 0.000976562 4.26857 0.000976562H5.74808C6.21997 0.000976562 6.66435 0.223034 6.94766 0.600409L8 2.00215H9.5C9.77614 2.00215 10 2.22601 10 2.50215C10 2.77829 9.77614 3.00215 9.5 3.00215H9V9.50419C9 10.8849 7.88071 12.0042 6.5 12.0042H3.5C2.11929 12.0042 1 10.8849 1 9.50419V3.00215H0.5C0.223858 3.00215 0 2.77829 0 2.50215C0 2.22601 0.223858 2.00215 0.5 2.00215H2ZM3.87098 1.19779C3.96556 1.07376 4.1126 1.00098 4.26857 1.00098H5.74808C5.90538 1.00098 6.0535 1.075 6.14794 1.20079L6.74956 2.00215H3.25759L3.87098 1.19779ZM2 3.00215H8V9.50419C8 10.3326 7.32843 11.0042 6.5 11.0042H3.5C2.67157 11.0042 2 10.3326 2 9.50419V3.00215Z" fill="black"/>
</svg>
