<svg width="24" height="24" viewBox="0 0 24 24" fill="none" xmlns="http://www.w3.org/2000/svg">
<path fill-rule="evenodd" clip-rule="evenodd" d="M12.7406 19.6405C14.3437 17.629 18 12.7539 18 10.0156C18 6.69322 15.3125 4 12 4C8.68625 4 6 6.69322 6 10.0156C6 12.7539 9.62813 17.629 11.2594 19.6405C11.6438 20.1198 12.3562 20.1198 12.7406 19.6405ZM7 10.0156C7 7.2459 9.2375 5.00259 12 5.00259C14.7625 5.00259 17 7.2459 17 10.0156C17 10.5043 16.8313 11.1748 16.4812 12.002C16.1406 12.8134 15.6625 13.6938 15.1219 14.5742C14.0562 16.3068 12.7938 17.9643 12 18.9637C11.2063 17.9643 9.94375 16.3068 8.87937 14.5742C8.3375 13.6938 7.85844 12.8134 7.5175 12.002C7.16969 11.1748 7 10.5043 7 10.0156Z" fill="#1B1B1B"/>
<path fill-rule="evenodd" clip-rule="evenodd" d="M15 10C15 11.6569 13.6603 13 12.0078 13C10.3552 13 9 11.6569 9 10C9 8.34315 10.3513 7.00391 12.0039 7.00391C13.6565 7.00391 15 8.34315 15 10ZM14.0026 10C14.0026 11.1046 13.1095 12 12.0078 12C10.9061 12 9.99741 11.1046 9.99741 10C9.99741 8.89543 10.9022 8.00391 12.0039 8.00391C13.1056 8.00391 14.0026 8.89543 14.0026 10Z" fill="#1B1B1B"/>
</svg>
