<svg width="14" height="2" viewBox="0 0 14 2" fill="none" xmlns="http://www.w3.org/2000/svg">
<path d="M1 2C0.725 2 0.489583 1.90208 0.29375 1.70625C0.0979167 1.51042 0 1.275 0 1C0 0.725 0.0979167 0.489583 0.29375 0.29375C0.489583 0.0979167 0.725 0 1 0C1.275 0 1.51042 0.0979167 1.70625 0.29375C1.90208 0.489583 2 0.725 2 1C2 1.275 1.90208 1.51042 1.70625 1.70625C1.51042 1.90208 1.275 2 1 2ZM6.5385 2C6.2635 2 6.02808 1.90208 5.83225 1.70625C5.63642 1.51042 5.5385 1.275 5.5385 1C5.5385 0.725 5.63642 0.489583 5.83225 0.29375C6.02808 0.0979167 6.2635 0 6.5385 0C6.8135 0 7.04892 0.0979167 7.24475 0.29375C7.44058 0.489583 7.5385 0.725 7.5385 1C7.5385 1.275 7.44058 1.51042 7.24475 1.70625C7.04892 1.90208 6.8135 2 6.5385 2ZM12.077 2C11.802 2 11.5666 1.90208 11.3707 1.70625C11.1749 1.51042 11.077 1.275 11.077 1C11.077 0.725 11.1749 0.489583 11.3707 0.29375C11.5666 0.0979167 11.802 0 12.077 0C12.352 0 12.5874 0.0979167 12.7832 0.29375C12.9791 0.489583 13.077 0.725 13.077 1C13.077 1.275 12.9791 1.51042 12.7832 1.70625C12.5874 1.90208 12.352 2 12.077 2Z" fill="#2A2A2D"/>
</svg>
