<svg width="14" height="16" viewBox="0 0 14 16" fill="none" xmlns="http://www.w3.org/2000/svg">
<path d="M3.01171 1.50506C3.23196 0.639881 4.01625 0 4.94999 0H11.9999C13.1045 0 13.9999 0.89543 13.9999 2V11.05C13.9999 11.9837 13.3601 12.768 12.4949 12.9883C12.2273 13.0564 12 12.8261 12 12.55C12 12.2738 12.2372 12.0603 12.4794 11.9277C12.7896 11.7579 12.9999 11.4285 12.9999 11.05V2C12.9999 1.44772 12.5522 1 11.9999 1H4.94999C4.57144 1 4.24202 1.21034 4.07223 1.52052C3.93963 1.76274 3.72613 2 3.44999 2C3.17385 2 2.94358 1.77267 3.01171 1.50506Z" fill="#1B1B1B"/>
<path fill-rule="evenodd" clip-rule="evenodd" d="M2 3C0.895431 3 0 3.89543 0 5V14C0 15.1046 0.89543 16 2 16H9C10.1046 16 11 15.1046 11 14V5C11 3.89543 10.1046 3 9 3H2ZM1 5C1 4.44772 1.44772 4 2 4H9C9.55229 4 10 4.44772 10 5V14C10 14.5523 9.55228 15 9 15H2C1.44772 15 1 14.5523 1 14V5Z" fill="#1B1B1B"/>
</svg>

