<svg width="24" height="24" viewBox="0 0 24 24" fill="none" xmlns="http://www.w3.org/2000/svg">
<path d="M15.5013 11.7219C15.6981 11.9157 15.6981 12.2344 15.5013 12.4282L11.8556 16.0739C11.6618 16.2708 11.3431 16.2708 11.1493 16.0739L9.08027 14.0048C8.8834 13.8111 8.8834 13.4923 9.08027 13.2986C9.27402 13.1017 9.59277 13.1017 9.78652 13.2986L11.5024 15.0145L14.795 11.7219C14.9888 11.525 15.3075 11.525 15.5013 11.7219Z" fill="#1B1B1B"/>
<path fill-rule="evenodd" clip-rule="evenodd" d="M12.3337 4.12506C12.1431 3.95831 11.8618 3.95831 11.6712 4.12506L3.17164 11.625C2.96457 11.8063 2.94482 12.0969 3.12754 12.3313C3.31023 12.5375 3.6262 12.5563 3.83339 12.3469L5.00245 11.3156V17.5C5.00245 18.8813 6.12182 20 7.50245 20H16.5024C17.8837 20 19.0025 18.8813 19.0025 17.5V11.3156L20.1712 12.3469C20.3775 12.5563 20.6962 12.5375 20.8493 12.3313C21.0587 12.0969 21.0399 11.8063 20.8337 11.625L12.3337 4.12506ZM6.00245 17.5V10.4594L12.0024 5.16688L18.0025 10.4594V17.5C18.0025 18.3281 17.3306 19 16.5024 19H7.50245C6.67432 19 6.00245 18.3281 6.00245 17.5Z" fill="#1B1B1B"/>
</svg>
