<svg width="23" height="24" viewBox="0 0 23 24" fill="none" xmlns="http://www.w3.org/2000/svg">
<path d="M23 16.9801C23 20.8571 19.866 24 16 24H7C3.13401 24 0 20.8571 0 16.9801V10.9845C0 9.57826 0.588928 8.23635 1.62305 7.28654L8.12305 1.31647C10.0342 -0.438821 12.9658 -0.438827 14.877 1.31647L21.377 7.28654C22.4111 8.23635 23 9.57825 23 10.9845V16.9801Z" fill="#F7F7F8"/>
<path d="M14.3818 10.5373C14.6161 10.1945 15.0822 10.1073 15.4238 10.3423C15.7653 10.5773 15.8524 11.0451 15.6182 11.3878L12.5254 15.9139C12.0871 16.555 11.1787 16.6459 10.623 16.104L8.47754 14.011C8.18072 13.7214 8.17367 13.2449 8.46191 12.9468C8.75054 12.6489 9.22545 12.6418 9.52246 12.9311L11.4561 14.8174L14.3818 10.5373Z" fill="#2A2A2D"/>
<path fill-rule="evenodd" clip-rule="evenodd" d="M9.47363 2.79029C10.6203 1.73657 12.3797 1.73657 13.5264 2.79029L20.0264 8.76368C20.6467 9.33388 21 10.1399 21 10.9841V16.983L20.9932 17.2407C20.8593 19.8916 18.6752 22 16 22H7C4.23869 22 2.00018 19.7536 2 16.983V10.9841C2 10.1399 2.35326 9.33388 2.97363 8.76368L9.47363 2.79029ZM12.5127 3.9005C11.9394 3.37388 11.0606 3.37388 10.4873 3.9005L3.9873 9.8739C3.67717 10.159 3.5 10.5621 3.5 10.9841V16.983C3.50018 18.9224 5.06711 20.4949 7 20.4949H16C17.9329 20.4949 19.4998 18.9224 19.5 16.983V10.9841C19.5 10.5621 19.3228 10.159 19.0127 9.8739L12.5127 3.9005Z" fill="#2A2A2D"/>
</svg>
