<svg width="24" height="24" viewBox="0 0 24 24" fill="none" xmlns="http://www.w3.org/2000/svg">
<path d="M11.832 4.13445C11.5301 3.82384 10.7293 3 9.49621 3C7.55942 3 5.99504 4.56386 5.99504 6.5V8H5.97776C4.3295 8 2.99999 9.34827 2.99999 11V16C2.99999 17.6517 4.3295 19 5.97776 19H6.53237C6.8086 19 7.03254 18.7761 7.03254 18.5C7.03254 18.2239 6.8086 18 6.53237 18H5.97776C4.89075 18 4.00033 17.1083 4.00033 16V11C4.00033 9.89173 4.89075 9 5.97776 9H9.50202C9.77825 9 10.0022 8.77614 10.0022 8.5C10.0022 8.22386 9.77825 8 9.50202 8H6.99538V6.5C6.99538 5.11614 8.11189 4 9.49621 4C10.3022 4 10.8439 4.55444 11.1449 4.86245C11.3379 5.06 11.6548 5.06398 11.8524 4.87103C12.05 4.67808 12.0537 4.36152 11.8607 4.16397L11.832 4.13445Z" fill="#1B1B1B"/>
<path d="M14.5017 14.0042C14.2256 14.0042 14.0017 14.2278 14.0017 14.5036V16.5014C14.0017 16.7772 14.2256 17.0009 14.5017 17.0009C14.7779 17.0009 15.0017 16.7772 15.0017 16.5014V14.5036C15.0017 14.2278 14.7779 14.0042 14.5017 14.0042Z" fill="#1B1B1B"/>
<path fill-rule="evenodd" clip-rule="evenodd" d="M14.4815 5.00244C16.4183 5.00244 17.9827 6.56458 17.9827 8.4986V10.0145H17.9983C19.655 10.0145 20.9993 11.3569 20.9993 13.0112V18.0057C20.9993 19.6601 19.655 21.0024 17.9983 21.0024H10.996C9.33929 21.0024 7.99499 19.6601 7.99499 18.0057V13.0112C7.99499 11.3621 9.33084 10.023 10.9804 10.0146V8.4986C10.9804 6.56458 12.5447 5.00244 14.4815 5.00244ZM16.9824 8.4986C16.9824 7.11626 15.8658 6.00134 14.4815 6.00134C13.0972 6.00134 11.9807 7.11626 11.9807 8.4986V9.99695H16.9824V8.4986ZM19.999 13.0112C19.999 11.9086 19.1026 11.0134 17.9983 11.0134H10.996C9.89176 11.0134 8.99532 11.9086 8.99532 13.0112V18.0057C8.99532 19.1084 9.89176 20.0035 10.996 20.0035H17.9983C19.1026 20.0035 19.999 19.1084 19.999 18.0057V13.0112Z" fill="#1B1B1B"/>
</svg>
