<svg width="24" height="24" viewBox="0 0 24 24" fill="none" xmlns="http://www.w3.org/2000/svg">
<g clip-path="url(#clip0_4028_11315)">
<path d="M11.9988 14.379C11.8912 14.379 11.7918 14.3614 11.7008 14.3262C11.6098 14.2909 11.5207 14.2296 11.4333 14.1425L7.04509 9.75397C6.95143 9.66047 6.90143 9.54572 6.89509 9.40972C6.88859 9.27388 6.93859 9.1528 7.04509 9.04647C7.15143 8.93997 7.26934 8.88672 7.39884 8.88672C7.52834 8.88672 7.64626 8.93997 7.75259 9.04647L11.9988 13.2925L16.2451 9.04647C16.3386 8.9528 16.4533 8.9028 16.5893 8.89647C16.7252 8.88997 16.8463 8.93997 16.9526 9.04647C17.0591 9.1528 17.1123 9.27072 17.1123 9.40022C17.1123 9.52972 17.0591 9.64764 16.9526 9.75397L12.5643 14.1425C12.477 14.2296 12.3878 14.2909 12.2968 14.3262C12.2058 14.3614 12.1065 14.379 11.9988 14.379Z" fill="#1B1B1B"/>
</g>
<defs>
<clipPath id="clip0_4028_11315">
<rect width="24" height="24" fill="white"/>
</clipPath>
</defs>
</svg>
