<svg width="16" height="16" viewBox="0 0 16 16" fill="none" xmlns="http://www.w3.org/2000/svg">
<path d="M10.5 2C10.2239 2 10 2.22386 10 2.5C10 2.77614 10.2239 3 10.5 3H12.293L6.64657 8.64646C6.45131 8.84172 6.45131 9.15831 6.64657 9.35357C6.84183 9.54883 7.15841 9.54883 7.35368 9.35357L13 3.70724V5.5C13 5.77614 13.2239 6 13.5 6C13.7761 6 14 5.77614 14 5.5V2.5C14 2.22386 13.7761 2 13.5 2H10.5Z" fill="#3E5FFF"/>
<path d="M2 4.5C2 3.67157 2.67157 3 3.5 3H7.5C7.77614 3 8 3.22386 8 3.5C8 3.77614 7.77614 4 7.5 4H3.5C3.22386 4 3 4.22386 3 4.5V12.5C3 12.7761 3.22386 13 3.5 13H11.5C11.7761 13 12 12.7761 12 12.5V8.5C12 8.22386 12.2239 8 12.5 8C12.7761 8 13 8.22386 13 8.5V12.5C13 13.3284 12.3284 14 11.5 14H3.5C2.67157 14 2 13.3284 2 12.5V4.5Z" fill="#3E5FFF"/>
</svg>
