<svg width="24" height="24" viewBox="0 0 24 24" fill="none" xmlns="http://www.w3.org/2000/svg">
<g clip-path="url(#clip0_3532_1635)">
<path fill-rule="evenodd" clip-rule="evenodd" d="M14.7293 3.05573C14.941 3.16499 15.0462 3.40837 14.9808 3.63739L13.1629 10H17.5C17.6922 10 17.8674 10.1102 17.9507 10.2834C18.0339 10.4567 18.0105 10.6623 17.8904 10.8124L9.89044 20.8124C9.74165 20.9984 9.48231 21.0536 9.27066 20.9443C9.05901 20.8351 8.95381 20.5917 9.01924 20.3627L10.8371 14H6.5C6.3078 14 6.13261 13.8899 6.04935 13.7166C5.96609 13.5434 5.9895 13.3378 6.10957 13.1877L14.1096 3.18768C14.2584 3.00169 14.5177 2.94648 14.7293 3.05573ZM7.54032 13H11.5C11.6569 13 11.8047 13.0737 11.8992 13.1989C11.9937 13.3242 12.0239 13.4865 11.9808 13.6374L10.6646 18.2439L16.4597 11H12.5C12.3431 11 12.1953 10.9264 12.1008 10.8011C12.0063 10.6759 11.9761 10.5135 12.0192 10.3627L13.3354 5.75621L7.54032 13Z" fill="#1B1B1B"/>
</g>
<defs>
<clipPath id="clip0_3532_1635">
<rect width="24" height="24" fill="white"/>
</clipPath>
</defs>
</svg>
