<svg width="32" height="32" viewBox="0 0 32 32" fill="none" xmlns="http://www.w3.org/2000/svg">
<path fill-rule="evenodd" clip-rule="evenodd" d="M16 3C23.0119 3 28.727 8.5515 28.9902 15.499C29.0007 15.775 28.7761 16 28.5 16C28.2239 16 28.0007 15.7759 27.9893 15.5C27.9387 14.2771 27.704 13.1019 27.3145 12H22.6611C22.7437 12.4744 22.812 12.9606 22.8652 13.457C22.8965 13.7487 22.6654 14 22.3721 14C22.1122 13.9999 21.8962 13.8013 21.8682 13.543C21.8109 13.0146 21.7358 12.4994 21.6445 12H10.3555C10.1275 13.2475 10 14.5923 10 16C10 17.4077 10.1275 18.7525 10.3555 20H13.5C13.7761 20 14 20.2239 14 20.5C14 20.7761 13.7761 21 13.5 21H10.5645C10.8984 22.4093 11.3653 23.6687 11.9307 24.7188C12.9848 26.6762 14.2635 27.7322 15.5029 27.9551C15.7746 28.004 16 28.2239 16 28.5C16 28.7761 15.775 29.0007 15.499 28.9902C8.5515 28.727 3 23.0119 3 16C3 8.8203 8.8203 3 16 3ZM5.0918 21C6.55482 24.1866 9.37058 26.6198 12.8057 27.5664C11.3409 26.1678 10.1748 23.84 9.53711 21H5.0918ZM4.68555 12C4.24315 13.2514 4 14.5971 4 16C4 17.4029 4.24315 18.7486 4.68555 20H9.33887C9.11965 18.7398 9 17.3957 9 16C9 14.6043 9.11965 13.2602 9.33887 12H4.68555ZM12.8057 4.43262C9.37047 5.37913 6.55485 7.81336 5.0918 11H9.53711C10.1749 8.15972 11.3407 5.8312 12.8057 4.43262ZM16 4C14.6112 4 13.1265 5.06054 11.9307 7.28125C11.3653 8.33127 10.8984 9.59065 10.5645 11H21.4355C21.1016 9.59065 20.6347 8.33127 20.0693 7.28125C18.8735 5.06054 17.3888 4 16 4ZM19.1934 4.43262C20.6585 5.83114 21.825 8.15939 22.4629 11H26.9082C25.445 7.81308 22.629 5.37896 19.1934 4.43262Z" fill="#2A2A2D"/>
<path fill-rule="evenodd" clip-rule="evenodd" d="M21 16C23.7614 16 26 18.2386 26 21C26 22.2006 25.5764 23.3021 24.8711 24.1641L27.8535 27.1465C28.0488 27.3417 28.0488 27.6583 27.8535 27.8535C27.6583 28.0488 27.3417 28.0488 27.1465 27.8535L24.1641 24.8711C23.3021 25.5764 22.2006 26 21 26C18.2386 26 16 23.7614 16 21C16 18.2386 18.2386 16 21 16ZM21 17C18.7909 17 17 18.7909 17 21C17 23.2091 18.7909 25 21 25C23.2091 25 25 23.2091 25 21C25 18.7909 23.2091 17 21 17Z" fill="#2A2A2D"/>
</svg>
