<svg width="20" height="18" viewBox="0 0 20 18" fill="none" xmlns="http://www.w3.org/2000/svg">
<path d="M9.75027 6.27346C9.58871 6.4522 9.5 6.69955 9.5 6.94832C9.5 7.21733 9.27614 7.4354 9 7.4354C8.72386 7.4354 8.5 7.21733 8.5 6.94832C8.5 6.48744 8.66129 6.00417 8.99973 5.62971C9.34683 5.24567 9.85969 5 10.5 5C11.1403 5 11.6532 5.24567 12.0003 5.62971C12.3387 6.00417 12.5 6.48744 12.5 6.94832C12.5 7.42515 12.3839 7.79549 12.1976 8.10681C12.0347 8.37893 11.8225 8.5943 11.6528 8.76661L11.6115 8.80854C11.4247 8.99903 11.2821 9.15373 11.1773 9.34871C11.0773 9.53477 11 9.78164 11 10.1562C11 10.4252 10.7761 10.6432 10.5 10.6432C10.2239 10.6432 10 10.4252 10 10.1562C10 9.63807 10.1102 9.23409 10.2914 8.89686C10.4679 8.56854 10.7003 8.32751 10.8885 8.13561L10.9106 8.11302C11.0985 7.92159 11.2328 7.78472 11.3337 7.61608C11.4286 7.45755 11.5 7.2572 11.5 6.94832C11.5 6.69955 11.4113 6.4522 11.2497 6.27346C11.0968 6.10429 10.8597 5.97416 10.5 5.97416C10.1403 5.97416 9.90317 6.10429 9.75027 6.27346ZM10.4999 13C10.8863 13 11.1995 12.6949 11.1995 12.3185C11.1995 11.9421 10.8863 11.637 10.4999 11.637C10.1135 11.637 9.80029 11.9421 9.80029 12.3185C9.80029 12.6949 10.1135 13 10.4999 13Z" fill="black"/>
<path d="M2.40006 11.9322L2.45969 11.7704L2.40686 11.6062C2.14281 10.7856 2 9.90994 2 9C2 4.30558 5.80558 0.5 10.5 0.5C15.1944 0.5 19 4.30558 19 9C19 13.6944 15.1944 17.5 10.5 17.5C9.09413 17.5 7.76934 17.1591 6.60241 16.5558C6.14445 16.3191 5.71067 16.0419 5.30582 15.7289L5.13119 15.5939L4.91376 15.6319L0.769534 16.3576L2.40006 11.9322Z" stroke="black"/>
</svg>
