<svg width="24" height="24" viewBox="0 0 24 24" fill="none" xmlns="http://www.w3.org/2000/svg">
<path fill-rule="evenodd" clip-rule="evenodd" d="M11.6365 3.10147C11.8591 2.96622 12.1405 2.96613 12.3631 3.10147L12.4685 3.18057L21.8348 11.6298L21.9031 11.704C22.041 11.8912 22.0326 12.1564 21.8709 12.3358C21.7091 12.515 21.4471 12.5493 21.2469 12.4315L21.1648 12.372L19.9998 11.3202V18.5009C19.9998 19.8815 18.8804 21.0008 17.4998 21.0009H6.4998C5.11911 21.0009 3.99984 19.8816 3.9998 18.5009V11.3202L2.83476 12.372C2.62981 12.5568 2.3137 12.5406 2.1287 12.3358C1.94381 12.1309 1.96002 11.8148 2.16484 11.6298L11.531 3.18057L11.6365 3.10147ZM4.99101 10.4257C4.99474 10.4503 4.9998 10.4752 4.9998 10.5009V18.5009C4.99984 19.3293 5.6714 20.0009 6.4998 20.0009H17.4998C18.3281 20.0008 18.9998 19.3292 18.9998 18.5009V10.5009C18.9998 10.4749 19.0028 10.4496 19.0066 10.4247L11.9998 4.10342L4.99101 10.4257Z" fill="black"/>
</svg>
