<svg width="24" height="24" viewBox="0 0 24 24" fill="none" xmlns="http://www.w3.org/2000/svg">
<path d="M11.637 3.10073C11.8596 2.9655 12.141 2.9654 12.3635 3.10073L12.469 3.17983L21.8352 11.6291L21.9036 11.7033C22.0415 11.8904 22.033 12.1557 21.8713 12.3351C21.7095 12.5142 21.4476 12.5486 21.2473 12.4308L21.1653 12.3712L20.0003 11.3195V18.5001C20 19.8806 18.8807 21 17.5003 21.0001H6.50025C5.11969 21.0001 4.0005 19.8806 4.00025 18.5001V11.3195L2.83521 12.3712C2.63027 12.5561 2.31416 12.5399 2.12916 12.3351C1.94426 12.1301 1.96048 11.814 2.16529 11.6291L11.5315 3.17983L11.637 3.10073Z" fill="black"/>
</svg>
