<svg width="20" height="20" viewBox="0 0 20 20" fill="none" xmlns="http://www.w3.org/2000/svg">
<path d="M13.6416 14C13.4014 15.2836 13.0519 16.425 12.625 17.3643C11.7507 19.2877 10.7474 20 10 20C9.25257 20 8.2493 19.2877 7.375 17.3643C6.94807 16.425 6.59862 15.2836 6.3584 14H13.6416Z" fill="#2A2A2D"/>
<path d="M5.34277 14C5.78002 16.4629 6.6088 18.4931 7.66113 19.7217C4.59214 18.986 2.07505 16.8374 0.834961 14H5.34277Z" fill="#2A2A2D"/>
<path d="M19.165 14C17.9248 16.8377 15.4073 18.9862 12.3379 19.7217C13.3904 18.4932 14.2199 16.4632 14.6572 14H19.165Z" fill="#2A2A2D"/>
<path d="M5.18945 7C5.06684 7.95371 5 8.95992 5 10C5 11.0401 5.06684 12.0463 5.18945 13H0.458008C0.160548 12.0529 0 11.0452 0 10C0 8.95477 0.160548 7.94706 0.458008 7H5.18945Z" fill="#2A2A2D"/>
<path d="M13.8018 7C13.9292 7.94471 14 8.95138 14 10C14 11.0486 13.9292 12.0553 13.8018 13H6.19824C6.0708 12.0553 6 11.0486 6 10C6 8.95138 6.0708 7.94471 6.19824 7H13.8018Z" fill="#2A2A2D"/>
<path d="M19.542 7C19.8395 7.94706 20 8.95477 20 10C20 11.0452 19.8395 12.0529 19.542 13H14.8105C14.9332 12.0463 15 11.0401 15 10C15 8.95992 14.9332 7.95371 14.8105 7H19.542Z" fill="#2A2A2D"/>
<path d="M7.66113 0.277344C6.60857 1.50583 5.78008 3.53671 5.34277 6H0.834961C2.07508 3.16256 4.59204 1.01296 7.66113 0.277344Z" fill="#2A2A2D"/>
<path d="M10 0C10.7474 0 11.7507 0.71228 12.625 2.63574C13.0519 3.575 13.4014 4.71643 13.6416 6H6.3584C6.59862 4.71643 6.94807 3.575 7.375 2.63574C8.2493 0.71228 9.25257 0 10 0Z" fill="#2A2A2D"/>
<path d="M12.3379 0.277344C15.4074 1.01275 17.9248 3.16228 19.165 6H14.6572C14.2199 3.53638 13.3906 1.50578 12.3379 0.277344Z" fill="#2A2A2D"/>
</svg>
