<svg width="20" height="20" viewBox="0 0 20 20" fill="none" xmlns="http://www.w3.org/2000/svg">
<path fill-rule="evenodd" clip-rule="evenodd" d="M10 0C15.5228 0 20 4.47715 20 10C20 15.5228 15.5228 20 10 20C4.47715 20 0 15.5228 0 10C0 4.47715 4.47715 0 10 0ZM6.44238 14C6.67442 14.9929 6.98735 15.88 7.35938 16.624C8.21101 18.3271 9.20217 19 10 19C10.7978 19 11.789 18.3271 12.6406 16.624C13.0126 15.88 13.3256 14.9929 13.5576 14H6.44238ZM1.9375 14C3.04626 16.2305 5.05247 17.9338 7.48438 18.6406C6.57224 17.5756 5.84315 15.9506 5.41699 14H1.9375ZM14.583 14C14.1568 15.9509 13.427 17.5756 12.5146 18.6406C14.947 17.934 16.9536 16.2308 18.0625 14H14.583ZM14.7705 7C14.9192 7.94707 15 8.95476 15 10C15 11.0452 14.9192 12.0529 14.7705 13H18.4863C18.8181 12.0615 19 11.0521 19 10C19 8.94791 18.8181 7.93847 18.4863 7H14.7705ZM6.24316 7C6.0872 7.93514 6 8.94352 6 10C6 11.0565 6.0872 12.0649 6.24316 13H13.7568C13.9128 12.0649 14 11.0565 14 10C14 8.94352 13.9128 7.93514 13.7568 7H6.24316ZM1.51367 7C1.18191 7.93847 1 8.94791 1 10C1 11.0521 1.18191 12.0615 1.51367 13H5.22949C5.08076 12.0529 5 11.0452 5 10C5 8.95476 5.08076 7.94707 5.22949 7H1.51367ZM12.5146 1.3584C13.4272 2.42345 14.1567 4.04873 14.583 6H18.0625C16.9536 3.7691 14.9471 2.065 12.5146 1.3584ZM10 1C9.20217 1 8.21101 1.67288 7.35938 3.37598C6.98735 4.12002 6.67442 5.00713 6.44238 6H13.5576C13.3256 5.00713 13.0126 4.12002 12.6406 3.37598C11.789 1.67288 10.7978 1 10 1ZM7.48438 1.3584C5.05235 2.06516 3.0463 3.76937 1.9375 6H5.41699C5.84323 4.04903 6.57201 2.42346 7.48438 1.3584Z" fill="#2A2A2D"/>
</svg>
