<svg width="24" height="24" viewBox="0 0 24 24" fill="none" xmlns="http://www.w3.org/2000/svg">
<path fill-rule="evenodd" clip-rule="evenodd" d="M18 6H6C5.44772 6 5 6.44772 5 7V7.5C5 7.77614 4.77614 8 4.5 8C4.22386 8 4 7.77614 4 7.5V7C4 5.89543 4.89543 5 6 5H18C19.1046 5 20 5.89543 20 7V17H21C21.5523 17 22 17.4477 22 18C22 18.5523 21.5523 19 21 19H18H14C13.4477 19 13 18.5523 13 18C13 17.4477 13.4477 17 14 17H19V7C19 6.44772 18.5523 6 18 6ZM9.50976 16.9611C9.33579 16.6263 9.12228 16.3264 8.87826 16.0679C8.25394 16.6464 7.41826 17 6.5 17C5.58174 17 4.74606 16.6464 4.12174 16.0679C3.87772 16.3264 3.66421 16.6263 3.49024 16.9611C3.17116 17.5752 3 18.2787 3 19H2C2 18.1223 2.20793 17.2601 2.60289 16.5C2.83989 16.0439 3.13922 15.6342 3.48855 15.2846C3.1782 14.7621 3 14.1519 3 13.5C3 11.567 4.567 10 6.5 10C8.433 10 10 11.567 10 13.5C10 14.1519 9.8218 14.7621 9.51145 15.2846C9.86078 15.6342 10.1601 16.0439 10.3971 16.5C10.7921 17.2601 11 18.1223 11 19H10C10 18.2787 9.82884 17.5752 9.50976 16.9611ZM4 13.5C4 14.8807 5.11929 16 6.5 16C7.88071 16 9 14.8807 9 13.5C9 12.771 8.68799 12.1149 8.19024 11.6579L6.5 14L4.80977 11.6579C4.31201 12.1149 4 12.771 4 13.5Z" fill="#1B1B1B"/>
</svg>
