<svg width="24" height="24" viewBox="0 0 24 24" fill="none" xmlns="http://www.w3.org/2000/svg">
<path d="M10.252 20.0654C10.4918 19.9286 10.7977 20.0122 10.9346 20.252C11.075 20.498 11.204 20.6792 11.3604 20.8027C11.5026 20.915 11.6933 21 12 21C12.3084 21 12.4986 20.9164 12.6396 20.8057C12.7949 20.6837 12.9237 20.5029 13.0645 20.2539C13.2003 20.0135 13.5057 19.9286 13.7461 20.0645C13.9865 20.2003 14.0713 20.5057 13.9355 20.7461C13.7774 21.026 13.5706 21.346 13.2578 21.5918C12.9307 21.8487 12.5198 22 12 22C11.4782 22 11.0674 21.8453 10.7412 21.5879C10.4293 21.3418 10.2224 21.0231 10.0654 20.748C9.92859 20.5082 10.0121 20.2023 10.252 20.0654Z" fill="black"/>
<path fill-rule="evenodd" clip-rule="evenodd" d="M12 2C12.5523 2 13 2.44772 13 3V4.08398C15.8376 4.56013 18 7.02706 18 10V11.1279C18 12.458 18.4332 13.752 19.2334 14.8145L19.5186 15.1934C19.831 15.6082 19.9999 16.1135 20 16.6328C20 17.9545 18.9281 19.0264 17.6064 19.0264H6.41211C5.08014 19.0264 4 17.9462 4 16.6143C4.00006 16.1102 4.15845 15.6186 4.45215 15.209L4.85938 14.6416L4.99414 14.4443C5.64917 13.4507 5.99997 12.2854 6 11.0918V10C6 7.02706 8.16237 4.56013 11 4.08398V3C11 2.44772 11.4477 2 12 2ZM12 5C9.23858 5 7 7.23858 7 10V11.0918C6.99997 12.574 6.5355 14.019 5.67188 15.2236L5.26465 15.792C5.09275 16.0317 5.00006 16.3193 5 16.6143C5 17.3939 5.63242 18.0264 6.41211 18.0264H17.6064C18.3758 18.0264 19 17.4022 19 16.6328C18.9999 16.3305 18.9016 16.0364 18.7197 15.7949L18.4346 15.416C17.5038 14.1802 17 12.675 17 11.1279V10C17 7.23858 14.7614 5 12 5Z" fill="black"/>
</svg>
