<svg width="24" height="24" viewBox="0 0 24 24" fill="none" xmlns="http://www.w3.org/2000/svg">
<path d="M13.5 20C13.5835 19.9999 13.6682 20.0205 13.7461 20.0645C13.9865 20.2003 14.0714 20.5057 13.9355 20.7461C13.7774 21.026 13.5707 21.346 13.2578 21.5918C12.9307 21.8487 12.5198 22 12 22C11.4783 22 11.0674 21.8453 10.7412 21.5879C10.4293 21.3418 10.2224 21.0231 10.0654 20.748C9.92863 20.5082 10.0122 20.2023 10.252 20.0654C10.3303 20.0207 10.4159 19.9999 10.5 20H13.5Z" fill="black"/>
<path d="M12 2C12.5523 2 13 2.44772 13 3V4.08398C15.8376 4.56013 18 7.02706 18 10V11.1279C18 12.458 18.4332 13.752 19.2334 14.8145L19.5186 15.1934C19.831 15.6082 19.9999 16.1135 20 16.6328C20 17.9545 18.9281 19.0264 17.6064 19.0264H6.41211C5.08014 19.0264 4 17.9462 4 16.6143C4.00006 16.1102 4.15845 15.6186 4.45215 15.209L4.85938 14.6416L4.99414 14.4443C5.64917 13.4507 5.99997 12.2854 6 11.0918V10C6 7.02706 8.16237 4.56013 11 4.08398V3C11 2.44772 11.4477 2 12 2Z" fill="black"/>
</svg>
