<svg width="16" height="18" viewBox="0 0 16 18" fill="none" xmlns="http://www.w3.org/2000/svg">
<path fill-rule="evenodd" clip-rule="evenodd" d="M8 0C7.44772 0 7 0.446961 7 0.998316V2.08246C4.17531 2.56466 2.02539 5.0208 2.02539 7.97824V9.08221C2.02539 10.0512 1.66443 10.9856 1.0127 11.7036L0.403494 12.3748C0.143819 12.6609 0 13.0332 0 13.4193C0 14.2784 0.697603 14.9748 1.55814 14.9748H14.4419C15.3024 14.9748 16 14.2784 16 13.4193C16 13.0332 15.8562 12.6609 15.5965 12.3748L15.0044 11.7225C14.3637 11.0165 14.0088 10.0979 14.0088 9.14528V7.97824C14.0088 5.00888 11.8415 2.54487 9 2.07673V0.998316C9 0.446961 8.55228 0 8 0ZM1.75374 12.374C2.57213 11.4723 3.02539 10.299 3.02539 9.08221V7.97824C3.02539 5.22604 5.26025 2.99495 8.01709 2.99495C10.7739 2.99495 13.0088 5.22605 13.0088 7.97824V9.14528C13.0088 10.3457 13.456 11.5032 14.2634 12.3928L14.8555 13.0451C14.9485 13.1476 15 13.281 15 13.4193C15 13.727 14.7501 13.9765 14.4419 13.9765H1.55814C1.24989 13.9765 1 13.727 1 13.4193C1 13.281 1.05152 13.1476 1.14454 13.0452L1.75374 12.374Z" fill="black"/>
<path d="M9.9354 16.7481C10.0712 16.5081 9.98647 16.2036 9.74605 16.0679C9.50563 15.9323 9.20061 16.017 9.06477 16.257C8.92406 16.5056 8.79507 16.6854 8.6398 16.8072C8.49869 16.9178 8.30867 17.0017 8.00009 17.0017C7.69342 17.0017 7.50303 16.9171 7.36073 16.805C7.20418 16.6817 7.07488 16.5009 6.93433 16.2551C6.79744 16.0157 6.49205 15.9324 6.25223 16.069C6.0124 16.2057 5.92896 16.5105 6.06584 16.75C6.22286 17.0246 6.42935 17.343 6.7413 17.5887C7.0675 17.8457 7.47833 18 8.00009 18C8.51993 18 8.93047 17.8487 9.25753 17.5922C9.57043 17.3469 9.77723 17.0275 9.9354 16.7481Z" fill="black"/>
</svg>

