<svg width="20" height="18" viewBox="0 0 20 18" fill="none" xmlns="http://www.w3.org/2000/svg">
<path d="M6.5 5.00002C6.5 5.27616 6.72386 5.50002 7 5.50002C7.27614 5.50002 7.5 5.27616 7.5 5.00002C7.5 4.72388 7.27614 4.50002 7 4.50002C6.72386 4.50002 6.5 4.72388 6.5 5.00002Z" fill="black"/>
<path d="M4.5 5.00002C4.5 5.27616 4.72386 5.50002 5 5.50002C5.27614 5.50002 5.5 5.27616 5.5 5.00002C5.5 4.72388 5.27614 4.50002 5 4.50002C4.72386 4.50002 4.5 4.72388 4.5 5.00002Z" fill="black"/>
<path fill-rule="evenodd" clip-rule="evenodd" d="M19.1666 0.127384C19.3724 -0.0567462 19.6885 -0.0391853 19.8726 0.166607C20.0568 0.3724 20.0392 0.688495 19.8334 0.872625L0.833402 17.8726C0.62761 18.0568 0.311515 18.0392 0.127384 17.8334C-0.0567462 17.6276 -0.0391853 17.3115 0.166608 17.1274L2.36856 15.1572C2.13646 14.8306 1.99999 14.4312 1.99999 14V12C1.99999 10.8955 2.89542 10 3.99999 10H8.13247L10.3678 8.00003H3.99999C2.89543 8.00003 1.99999 7.1046 1.99999 6.00003V4.00003C1.99999 2.89546 2.89543 2.00003 3.99999 2.00003H15.9811C16.2932 2.00003 16.5884 2.07147 16.8515 2.19882L19.1666 0.127384ZM15.956 3.00003L11.4854 7.00003H3.99999C3.44771 7.00003 2.99999 6.55232 2.99999 6.00003V4.00003C2.99999 3.44775 3.44771 3.00003 3.99999 3.00003H15.956ZM7.01483 11L3.12347 14.4818C3.04477 14.3389 2.99999 14.1747 2.99999 14V12C2.99999 11.4477 3.44771 11 3.99999 11H7.01483Z" fill="black"/>
<path d="M7.02943 17C7.15245 17 7.27115 16.9547 7.36283 16.8726L18.8334 6.6095C18.9394 6.51465 19 6.37913 19 6.23688C19 5.80469 18.4887 5.57607 18.1666 5.86426L6.69604 16.1274C6.354 16.4334 6.57048 17 7.02943 17Z" fill="black"/>
<path d="M12.7158 16.8726C12.6241 16.9546 12.5054 17 12.3824 17C11.9234 17 11.7069 16.4334 12.049 16.1274L18.1666 10.6537C18.4887 10.3655 19 10.5941 19 11.0263C19 11.1686 18.9394 11.3041 18.8334 11.3989L12.7158 16.8726Z" fill="black"/>
</svg>

