<svg width="24" height="24" viewBox="0 0 24 24" fill="none" xmlns="http://www.w3.org/2000/svg">
<path d="M11.0049 3.5C11.0049 3.22386 10.781 3 10.5049 3C10.2287 3 10.0049 3.22386 10.0049 3.5V3.62059C10.0049 4.3066 9.51135 4.9458 8.78258 5.27785C6.10394 6.49834 4 9.15033 4 12.2736C4 16.5644 7.75456 20 11.9999 20C16.2452 20 20.0008 16.5644 20.0008 12.2736C20.0008 9.15064 17.9114 6.49691 15.2339 5.27634C14.5042 4.9437 14.0039 4.30416 14.0039 3.61774V3.5C14.0039 3.22386 13.78 3 13.5039 3C13.2278 3 13.0039 3.22386 13.0039 3.5V3.61774C13.0039 4.80485 13.844 5.74174 14.8191 6.18625C17.2085 7.27547 19.0008 9.61232 19.0008 12.2736C19.0008 15.9648 15.7415 19 11.9999 19C8.25842 19 5 15.9649 5 12.2736C5 9.61521 6.80349 7.27851 9.19721 6.18784C10.1721 5.74363 11.0049 4.80678 11.0049 3.62059V3.5Z" fill="#1B1B1B"/>
<path d="M7.99805 12.017C7.99805 9.65371 9.75817 7.99707 11.5147 7.99707C11.7909 7.99707 12.0147 7.77321 12.0147 7.49707C12.0147 7.22093 11.7909 6.99707 11.5147 6.99707C9.13564 6.99707 6.99805 9.17439 6.99805 12.017C6.99805 14.8692 9.20025 16.9949 11.4992 16.9949C11.7753 16.9949 11.9992 16.771 11.9992 16.4949C11.9992 16.2188 11.7753 15.9949 11.4992 15.9949C9.80475 15.9949 7.99805 14.3707 7.99805 12.017Z" fill="#1B1B1B"/>
<path d="M11.637 10.9831C11.901 10.9046 12.0517 10.6257 11.9735 10.3604C11.8953 10.095 11.6178 9.94364 11.3538 10.0222C10.6207 10.2404 9.99414 11.0636 9.99414 12.0262C9.99414 12.9914 10.5253 13.7221 11.3454 13.9787C11.6083 14.0609 11.8878 13.9134 11.9697 13.6492C12.0515 13.3849 11.9047 13.1041 11.6418 13.0218C11.2689 12.9052 10.9914 12.5855 10.9914 12.0262C10.9914 11.4642 11.3673 11.0634 11.637 10.9831Z" fill="#1B1B1B"/>
</svg>
