<svg width="24" height="24" viewBox="0 0 24 24" fill="none" xmlns="http://www.w3.org/2000/svg">
<path fill-rule="evenodd" clip-rule="evenodd" d="M8.38822 6.17403C9.10026 5.63572 9.91693 5.25607 10.8863 5.09501C14.4341 4.50556 18.1673 6.68748 19.1807 9.9985H16.4979C16.2218 9.9985 15.9979 10.2224 15.9979 10.4985C15.9979 10.7746 16.2218 10.9985 16.4979 10.9985H20.5007C20.7768 10.9985 21.0007 10.7746 21.0007 10.4985V6.5C21.0007 6.22386 20.7768 6 20.5007 6C20.2245 6 20.0007 6.22386 20.0007 6.5V9.30254C18.6646 5.70452 14.575 3.46844 10.7224 4.10853C9.50097 4.31147 8.49624 4.80862 7.64591 5.4844C7.17433 5.17563 6.6105 4.99609 6.00474 4.99609C4.34789 4.99609 3.00474 6.33924 3.00474 7.99609C3.00474 9.65295 4.34789 10.9961 6.00474 10.9961C7.66159 10.9961 9.00474 9.65295 9.00474 7.99609C9.00474 7.31079 8.77495 6.67915 8.38822 6.17403ZM4.00474 7.99609C4.00474 6.89152 4.90017 5.99609 6.00474 5.99609C7.10931 5.99609 8.00474 6.89152 8.00474 7.99609C8.00474 9.10066 7.10931 9.99609 6.00474 9.99609C4.90017 9.99609 4.00474 9.10066 4.00474 7.99609Z" fill="#1B1B1B"/>
<path fill-rule="evenodd" clip-rule="evenodd" d="M13.1219 18.9054C14.094 18.7439 14.9303 18.3868 15.6575 17.8746C15.246 17.361 14.9999 16.7093 14.9999 16C14.9999 14.3431 16.343 13 17.9999 13C19.6567 13 20.9999 14.3431 20.9999 16C20.9999 17.6569 19.6567 19 17.9999 19C17.4217 19 16.8818 18.8365 16.4238 18.5532C15.5445 19.2163 14.51 19.6884 13.2858 19.8918C9.42101 20.534 5.32537 18.2933 4 14.6558L4 17.5022C4 17.7783 3.77614 18.0022 3.5 18.0022C3.22386 18.0022 3 17.7783 3 17.5022V13.5037C3 13.2276 3.22386 13.0037 3.5 13.0037H7.50279C7.77893 13.0037 8.00279 13.2276 8.00279 13.5037C8.00279 13.7798 7.77893 14.0037 7.50279 14.0037H4.83589C5.85786 17.3307 9.57858 19.4941 13.1219 18.9054ZM17.9999 14C16.8953 14 15.9999 14.8954 15.9999 16C15.9999 17.1046 16.8953 18 17.9999 18C19.1044 18 19.9999 17.1046 19.9999 16C19.9999 14.8954 19.1044 14 17.9999 14Z" fill="#1B1B1B"/>
</svg>
