<svg width="24" height="24" viewBox="0 0 24 24" fill="none" xmlns="http://www.w3.org/2000/svg">
<path d="M18.0848 17.194C18.2207 17.035 18.4356 16.9642 18.6365 17.0226C18.9751 17.121 19.1143 17.5243 18.8871 17.7941C17.2362 19.7544 14.7636 21 12 21C7.02944 21 3 16.9706 3 12C3 7.02944 7.02944 3 12 3C15.4829 3 18.5038 4.97844 20 7.8728V4.5C20 4.22386 20.2239 4 20.5 4C20.7761 4 21 4.22386 21 4.5V8.45C21 8.75376 20.7538 9 20.45 9H16.5C16.2239 9 16 8.77614 16 8.5C16 8.22386 16.2239 8 16.5 8H18.9297C17.5465 5.60879 14.9611 4 12 4C7.58172 4 4 7.58172 4 12C4 16.4183 7.58172 20 12 20C14.4359 20 16.6175 18.9113 18.0848 17.194Z" fill="#1B1B1B"/>
</svg>
