<?xml version="1.0" encoding="UTF-8"?>
<svg xmlns="http://www.w3.org/2000/svg" xmlns:xlink="http://www.w3.org/1999/xlink" width="24px" height="24px" viewBox="0 0 24 24" version="1.1">
<g id="surface1">
<path style=" stroke:none;fill-rule:evenodd;fill:rgb(0%,0%,0%);fill-opacity:1;" d="M 18.753906 12 C 20.820312 12 22.5 13.695312 22.5 15.78125 C 22.5 16.339844 22.257812 17.035156 21.9375 17.726562 C 21.609375 18.425781 21.179688 19.175781 20.753906 19.859375 C 20.230469 20.691406 19.671875 21.507812 19.082031 22.296875 L 19.054688 22.335938 L 19.042969 22.347656 C 18.972656 22.441406 18.863281 22.496094 18.746094 22.496094 C 18.628906 22.496094 18.515625 22.441406 18.445312 22.347656 L 18.445312 22.34375 L 18.4375 22.335938 L 18.40625 22.296875 L 18.296875 22.152344 C 17.753906 21.40625 17.234375 20.640625 16.742188 19.859375 C 16.316406 19.175781 15.886719 18.429688 15.5625 17.726562 C 15.242188 17.039062 15 16.34375 15 15.785156 C 15 13.695312 16.683594 12 18.753906 12 Z M 18.753906 12.75 C 17.105469 12.75 15.75 14.105469 15.75 15.785156 C 15.75 16.167969 15.929688 16.734375 16.242188 17.410156 C 16.550781 18.074219 16.960938 18.792969 17.378906 19.460938 C 17.8125 20.152344 18.265625 20.828125 18.746094 21.492188 C 18.8125 21.398438 18.886719 21.296875 18.96875 21.179688 C 19.28125 20.738281 19.699219 20.125 20.117188 19.460938 C 20.535156 18.792969 20.949219 18.070312 21.257812 17.410156 C 21.570312 16.734375 21.75 16.164062 21.75 15.78125 C 21.75 14.101562 20.398438 12.75 18.753906 12.75 Z M 18.753906 12.75 "/>
<path style=" stroke:none;fill-rule:evenodd;fill:rgb(0%,0%,0%);fill-opacity:1;" d="M 12.238281 2.253906 L 12.464844 2.261719 L 12.472656 2.261719 C 12.625 2.269531 12.769531 2.28125 12.917969 2.292969 L 12.929688 2.296875 C 13.0625 2.308594 13.199219 2.324219 13.332031 2.34375 L 13.40625 2.351562 L 13.5 2.367188 C 13.617188 2.386719 13.734375 2.40625 13.851562 2.429688 C 13.933594 2.445312 14.015625 2.464844 14.097656 2.480469 C 14.160156 2.496094 14.222656 2.507812 14.285156 2.523438 C 14.371094 2.542969 14.460938 2.566406 14.550781 2.589844 C 14.609375 2.605469 14.667969 2.621094 14.730469 2.640625 C 14.800781 2.660156 14.875 2.683594 14.945312 2.707031 C 15.019531 2.730469 15.089844 2.753906 15.164062 2.777344 C 15.226562 2.800781 15.285156 2.820312 15.347656 2.84375 C 15.425781 2.875 15.503906 2.902344 15.582031 2.933594 C 15.652344 2.960938 15.71875 2.988281 15.789062 3.019531 C 15.855469 3.046875 15.925781 3.074219 15.992188 3.105469 C 16.058594 3.136719 16.125 3.167969 16.191406 3.199219 C 16.261719 3.234375 16.332031 3.265625 16.398438 3.300781 C 16.453125 3.328125 16.507812 3.359375 16.5625 3.386719 C 16.640625 3.429688 16.722656 3.46875 16.796875 3.515625 C 16.851562 3.542969 16.90625 3.574219 16.957031 3.609375 C 17.027344 3.648438 17.097656 3.691406 17.167969 3.734375 C 17.222656 3.769531 17.277344 3.804688 17.332031 3.839844 C 17.402344 3.886719 17.472656 3.933594 17.539062 3.980469 C 17.597656 4.019531 17.65625 4.0625 17.714844 4.101562 C 17.894531 4.234375 18.070312 4.371094 18.246094 4.515625 C 18.863281 5.027344 19.414062 5.617188 19.886719 6.269531 C 20.023438 6.457031 20.152344 6.652344 20.277344 6.847656 C 20.304688 6.898438 20.335938 6.945312 20.363281 6.992188 C 20.410156 7.070312 20.453125 7.144531 20.496094 7.222656 L 20.585938 7.382812 C 20.625 7.453125 20.660156 7.523438 20.695312 7.59375 C 20.726562 7.65625 20.757812 7.714844 20.785156 7.773438 C 20.820312 7.847656 20.855469 7.917969 20.886719 7.988281 C 20.949219 8.132812 21.011719 8.277344 21.070312 8.425781 C 21.09375 8.484375 21.117188 8.542969 21.140625 8.601562 C 21.171875 8.6875 21.199219 8.769531 21.226562 8.855469 C 21.246094 8.910156 21.265625 8.96875 21.285156 9.023438 C 21.3125 9.113281 21.339844 9.199219 21.363281 9.289062 C 21.378906 9.34375 21.398438 9.402344 21.414062 9.457031 C 21.433594 9.542969 21.457031 9.628906 21.476562 9.71875 L 21.523438 9.90625 C 21.542969 9.996094 21.558594 10.082031 21.574219 10.171875 C 21.585938 10.234375 21.597656 10.292969 21.609375 10.351562 C 21.625 10.445312 21.636719 10.539062 21.652344 10.632812 C 21.660156 10.695312 21.667969 10.757812 21.675781 10.820312 L 21.683594 10.847656 L 21.683594 10.855469 C 21.691406 10.957031 21.660156 11.058594 21.589844 11.136719 C 21.519531 11.210938 21.421875 11.253906 21.316406 11.253906 C 21.121094 11.253906 20.957031 11.101562 20.933594 10.90625 C 20.851562 10.246094 20.699219 9.609375 20.484375 9.003906 L 16.996094 9.003906 C 17.101562 9.597656 17.171875 10.21875 17.214844 10.859375 C 17.21875 10.960938 17.183594 11.0625 17.113281 11.136719 C 17.042969 11.210938 16.945312 11.253906 16.84375 11.25 C 16.640625 11.25 16.476562 11.09375 16.464844 10.890625 C 16.425781 10.257812 16.347656 9.625 16.234375 9 L 7.765625 9 C 7.585938 9.992188 7.5 10.996094 7.5 12 C 7.5 13.058594 7.597656 14.066406 7.765625 15 L 13.125 15 C 13.332031 15 13.5 15.167969 13.5 15.375 C 13.5 15.582031 13.332031 15.75 13.125 15.75 L 7.921875 15.75 C 8.171875 16.808594 8.523438 17.753906 8.949219 18.542969 C 9.738281 20.007812 10.699219 20.800781 11.628906 20.96875 L 11.789062 21 C 12.964844 21.027344 14.132812 20.824219 15.230469 20.402344 C 15.402344 20.335938 15.59375 20.394531 15.695312 20.546875 C 15.757812 20.636719 15.777344 20.753906 15.746094 20.859375 C 15.710938 20.964844 15.632812 21.050781 15.53125 21.09375 C 14.289062 21.574219 12.960938 21.796875 11.628906 21.742188 L 11.597656 21.742188 C 11.535156 21.742188 11.46875 21.738281 11.402344 21.734375 L 11.34375 21.730469 C 11.167969 21.71875 10.996094 21.703125 10.824219 21.679688 L 10.695312 21.664062 C 10.667969 21.660156 10.644531 21.65625 10.617188 21.652344 C 10.566406 21.648438 10.511719 21.640625 10.457031 21.628906 L 10.359375 21.613281 C 10.308594 21.605469 10.253906 21.59375 10.199219 21.585938 L 10.1875 21.582031 L 10.035156 21.554688 L 9.972656 21.539062 L 9.878906 21.519531 C 9.757812 21.492188 9.640625 21.464844 9.523438 21.433594 L 9.425781 21.40625 L 9.292969 21.371094 L 9.226562 21.351562 C 9.097656 21.3125 8.964844 21.269531 8.835938 21.226562 L 8.804688 21.214844 C 8.523438 21.117188 8.246094 21.007812 7.976562 20.882812 L 7.925781 20.863281 C 7.128906 20.496094 6.386719 20.023438 5.71875 19.457031 C 5.664062 19.410156 5.609375 19.363281 5.554688 19.316406 C 5.492188 19.261719 5.429688 19.203125 5.371094 19.148438 C 5.253906 19.042969 5.144531 18.933594 5.035156 18.820312 C 4.988281 18.777344 4.945312 18.726562 4.902344 18.683594 C 4.789062 18.5625 4.679688 18.441406 4.578125 18.320312 C 4.527344 18.261719 4.476562 18.199219 4.425781 18.140625 C 4.378906 18.078125 4.328125 18.015625 4.28125 17.953125 C 4.226562 17.886719 4.175781 17.820312 4.125 17.753906 L 4.082031 17.695312 C 3.828125 17.339844 3.597656 16.964844 3.390625 16.578125 L 3.359375 16.523438 C 3.226562 16.269531 3.105469 16.007812 2.992188 15.742188 L 2.96875 15.679688 C 2.8125 15.300781 2.683594 14.910156 2.578125 14.511719 L 2.550781 14.410156 C 2.519531 14.289062 2.492188 14.167969 2.464844 14.042969 L 2.4375 13.921875 C 2.3125 13.289062 2.25 12.644531 2.25 12 C 2.25 6.617188 6.617188 2.25 12 2.25 C 12.082031 2.25 12.160156 2.253906 12.242188 2.253906 Z M 3.820312 15.75 C 4.929688 18.164062 7.042969 19.96875 9.605469 20.675781 C 8.503906 19.628906 7.632812 17.882812 7.152344 15.75 Z M 3.515625 9 C 3.171875 9.964844 3 10.980469 3 12 C 3 13.054688 3.183594 14.0625 3.515625 15 L 7.003906 15 C 6.832031 14.011719 6.75 13.007812 6.75 12 C 6.75 10.957031 6.839844 9.945312 7.003906 9 Z M 9.535156 3.34375 C 7.007812 4.066406 4.917969 5.859375 3.820312 8.25 L 7.152344 8.25 C 7.632812 6.121094 8.503906 4.375 9.605469 3.328125 Z M 12 3 C 10.957031 3 9.84375 3.796875 8.949219 5.464844 C 8.523438 6.25 8.171875 7.195312 7.921875 8.25 L 16.078125 8.25 C 15.828125 7.195312 15.476562 6.25 15.050781 5.464844 C 14.15625 3.796875 13.042969 3 12 3 Z M 14.394531 3.328125 C 15.496094 4.375 16.367188 6.121094 16.847656 8.25 L 20.179688 8.25 C 19.070312 5.835938 16.953125 4.035156 14.394531 3.328125 Z M 14.394531 3.328125 "/>
</g>
</svg>
