<svg width="64" height="64" viewBox="0 0 64 64" fill="none" xmlns="http://www.w3.org/2000/svg">
<path d="M41.6461 34.2615C40.8577 33.4581 39.5674 33.4459 38.764 34.2343L36.8117 36.1501C36.0084 36.9385 35.9962 38.2289 36.7846 39.0322L54.5551 57.1408C55.3435 57.9442 56.6339 57.9563 57.4372 57.1679L59.3895 55.2521C60.1929 54.4638 60.205 53.1734 59.4166 52.37L41.6461 34.2615Z" fill="#E3E3E3"/>
<path d="M33.0021 36.9803C34.3181 36.3354 35.5548 35.4718 36.6581 34.389C42.1932 28.9573 42.2769 20.0669 36.8452 14.5318C31.4134 8.99677 22.5231 8.91302 16.988 14.3448C14.8553 16.4376 13.5319 19.044 13.0215 21.774C11.5023 22.1087 10.0618 22.6534 8.73218 23.3762C8.96961 19.0185 10.7728 14.7331 14.133 11.4355C21.2748 4.42701 32.7459 4.53508 39.7544 11.6769C46.763 18.8187 46.6549 30.2898 39.5131 37.2983C37.4909 39.2827 35.1217 40.6966 32.605 41.5418C32.8791 40.351 33.024 39.1108 33.024 37.8368C33.024 37.5495 33.0166 37.264 33.0021 36.9803Z" fill="#E3E3E3"/>
<circle cx="16.1931" cy="38.4214" r="12.1931" fill="#BCBCBC"/>
<path d="M14.7286 41.4849V41.3011C14.7333 40.4481 14.8134 39.7694 14.969 39.2651C15.1292 38.7608 15.3554 38.3555 15.6476 38.0492C15.9398 37.7382 16.2956 37.453 16.7151 37.1938C17.0026 37.0147 17.2594 36.8191 17.4856 36.6071C17.7166 36.3903 17.898 36.1499 18.03 35.886C18.1619 35.6174 18.2279 35.3181 18.2279 34.9882C18.2279 34.6159 18.1407 34.2931 17.9663 34.0197C17.792 33.7464 17.5563 33.5343 17.2594 33.3835C16.9672 33.2327 16.6397 33.1572 16.2768 33.1572C15.9422 33.1572 15.624 33.2303 15.3224 33.3764C15.0255 33.5178 14.7781 33.7346 14.5801 34.0268C14.3869 34.3143 14.2785 34.6795 14.255 35.1225H11.7383C11.7618 34.2271 11.9786 33.4777 12.3887 32.8745C12.8034 32.2712 13.3501 31.8188 14.0287 31.5172C14.7121 31.2155 15.4662 31.0647 16.2909 31.0647C17.1911 31.0647 17.9828 31.2226 18.6662 31.5384C19.3543 31.8541 19.8892 32.3042 20.2709 32.8886C20.6574 33.4683 20.8506 34.1564 20.8506 34.9529C20.8506 35.4901 20.7634 35.9708 20.589 36.395C20.4194 36.8191 20.1767 37.1962 19.8609 37.5261C19.5451 37.856 19.1705 38.1505 18.7369 38.4097C18.3551 38.6454 18.0417 38.8905 17.7967 39.1449C17.5563 39.3994 17.3772 39.6987 17.2594 40.0427C17.1463 40.3821 17.0874 40.8015 17.0827 41.3011V41.4849H14.7286ZM15.9587 45.8961C15.5345 45.8961 15.1692 45.7453 14.8629 45.4437C14.5566 45.1421 14.4034 44.7745 14.4034 44.3409C14.4034 43.9167 14.5566 43.5538 14.8629 43.2522C15.1692 42.9506 15.5345 42.7998 15.9587 42.7998C16.3781 42.7998 16.741 42.9506 17.0473 43.2522C17.3584 43.5538 17.5139 43.9167 17.5139 44.3409C17.5139 44.6284 17.4409 44.8899 17.2948 45.1256C17.1534 45.3612 16.9649 45.5497 16.7292 45.6911C16.4983 45.8278 16.2414 45.8961 15.9587 45.8961Z" fill="white"/>
</svg>
