<svg width="32" height="32" viewBox="0 0 32 32" fill="none" xmlns="http://www.w3.org/2000/svg">
<g clip-path="url(#clip0_3399_406)">
<path d="M17.2922 16L13.0462 11.7538C12.9526 11.6603 12.9026 11.5455 12.8962 11.4095C12.8897 11.2737 12.9397 11.1526 13.0462 11.0463C13.1526 10.9398 13.2705 10.8865 13.4 10.8865C13.5295 10.8865 13.6474 10.9398 13.7537 11.0463L18.1422 15.4345C18.2294 15.5218 18.2907 15.611 18.326 15.702C18.3612 15.793 18.3787 15.8923 18.3787 16C18.3787 16.1077 18.3612 16.207 18.326 16.298C18.2907 16.389 18.2294 16.4782 18.1422 16.5655L13.7537 20.9538C13.6602 21.0474 13.5455 21.0974 13.4095 21.1038C13.2737 21.1103 13.1526 21.0603 13.0462 20.9538C12.9397 20.8474 12.8865 20.7295 12.8865 20.6C12.8865 20.4705 12.9397 20.3526 13.0462 20.2463L17.2922 16Z" fill="#1B1B1B"/>
</g>
<defs>
<clipPath id="clip0_3399_406">
<rect x="4" y="4" width="24" height="24" rx="12" fill="white"/>
</clipPath>
</defs>
</svg>
