<svg width="24" height="24" viewBox="0 0 24 24" fill="none" xmlns="http://www.w3.org/2000/svg">
<path fill-rule="evenodd" clip-rule="evenodd" d="M13.5257 3C13.9521 3 14.3236 3.29042 14.427 3.7041L14.7571 5.02246C15.3313 5.24942 15.871 5.54496 16.3655 5.89941L18.2913 5.34863C18.7013 5.23138 19.1387 5.40808 19.3518 5.77734L20.8753 8.41699C21.0884 8.78625 21.0236 9.25341 20.7171 9.5498L19.4075 10.8154C19.4685 11.2007 19.5003 11.5956 19.5003 11.998C19.5003 12.4022 19.4681 12.7988 19.4065 13.1855L20.7171 14.4521C21.0236 14.7485 21.0884 15.2157 20.8753 15.585L19.3518 18.2246C19.1386 18.5939 18.7013 18.7706 18.2913 18.6533L16.3597 18.1016C15.8667 18.4542 15.3291 18.7486 14.7571 18.9746L14.427 20.292C14.3236 20.7057 13.9521 20.9961 13.5257 20.9961H10.4778C10.0515 20.996 9.67986 20.7056 9.57646 20.292L9.24735 18.9746C8.67496 18.7484 8.13616 18.4536 7.64286 18.1006L5.70927 18.6533C5.2993 18.7706 4.86193 18.5939 4.64872 18.2246L3.12431 15.585C2.91134 15.2157 2.97704 14.7485 3.28349 14.4521L4.59696 13.1826C4.53572 12.7968 4.50321 12.4011 4.50321 11.998C4.50321 11.5967 4.53527 11.2026 4.59599 10.8184L3.28349 9.5498C2.97701 9.25347 2.91128 8.78623 3.12431 8.41699L4.64872 5.77734C4.86193 5.40806 5.2993 5.23136 5.70927 5.34863L7.637 5.90039C8.13192 5.54553 8.67266 5.24961 9.24735 5.02246L9.57646 3.7041C9.67986 3.29047 10.0515 3.00007 10.4778 3H13.5257ZM12.0013 8.99902C10.3449 8.9992 9.00224 10.3417 9.00224 11.998C9.00232 13.6544 10.345 14.9969 12.0013 14.9971C13.6576 14.9969 15.0012 13.6544 15.0013 11.998C15.0013 10.3416 13.6576 8.99917 12.0013 8.99902Z" fill="black"/>
</svg>
