<svg width="18" height="18" viewBox="0 0 18 18" fill="none" xmlns="http://www.w3.org/2000/svg">
<path fill-rule="evenodd" clip-rule="evenodd" d="M9.01044 11C10.1138 11 11.0083 10.1046 11.0083 9C11.0083 7.89543 10.1138 7 9.01044 7C7.90704 7 7.01256 7.89543 7.01256 9C7.01256 10.1046 7.90704 11 9.01044 11ZM9.01044 12C10.6655 12 12.0073 10.6569 12.0073 9C12.0073 7.34315 10.6655 6 9.01044 6C7.35534 6 6.01362 7.34315 6.01362 9C6.01362 10.6569 7.35534 12 9.01044 12Z" fill="#1B1B1B"/>
<path fill-rule="evenodd" clip-rule="evenodd" d="M11.1577 3.39662C10.8483 3.27766 10.618 3.01281 10.5429 2.68964L10.2402 1.38673C10.1876 1.16027 9.98597 1 9.75371 1H8.11226C7.88 1 7.67839 1.16027 7.62578 1.38673L7.3074 2.75702C7.23441 3.07119 7.01452 3.33083 6.71685 3.45431C6.18421 3.67525 5.6898 3.97118 5.24687 4.32927C4.98962 4.53725 4.64622 4.60431 4.32974 4.50838L2.6013 3.98445C2.38055 3.91754 2.14273 4.01064 2.0259 4.20973L1.22793 5.56943C1.10838 5.77314 1.14759 6.03281 1.32193 6.19206L2.73313 7.48104C2.96912 7.69659 3.08789 8.01213 3.05268 8.32998C3.02835 8.54961 3.01582 8.77315 3.01582 9C3.01582 9.22709 3.02838 9.45086 3.05276 9.67073C3.08802 9.98862 2.96925 10.3042 2.73322 10.5198L1.32292 11.8079C1.14858 11.9672 1.10938 12.2269 1.22893 12.4306L2.02689 13.7903C2.14372 13.9894 2.38154 14.0825 2.60229 14.0155L4.33001 13.4918C4.64647 13.3959 4.98985 13.463 5.2471 13.6709C5.68998 14.0289 6.18431 14.3248 6.71685 14.5457C7.01452 14.6692 7.23441 14.9288 7.3074 15.243L7.62578 16.6133C7.67839 16.8397 7.88 17 8.11226 17H9.75371C9.98597 17 10.1876 16.8397 10.2402 16.6133L10.5429 15.3104C10.618 14.9872 10.8483 14.7223 11.1577 14.6034C11.7438 14.378 12.2862 14.0628 12.7678 13.6741C13.025 13.4666 13.3681 13.3997 13.6843 13.4956L15.3996 14.0155C15.6204 14.0825 15.8582 13.9894 15.975 13.7903L16.773 12.4306C16.8925 12.2269 16.8533 11.9672 16.679 11.8079L15.2841 10.5339C15.0476 10.3178 14.9288 10.0014 14.9648 9.68283C14.9901 9.45907 15.0031 9.23125 15.0031 9C15.0031 8.76875 14.9901 8.54093 14.9648 8.31717C14.9288 7.99864 15.0476 7.68216 15.2841 7.4661L16.679 6.19206C16.8533 6.03281 16.8925 5.77314 16.773 5.56943L15.975 4.20972C15.8582 4.01064 15.6204 3.91754 15.3996 3.98445L13.6843 4.50441C13.3681 4.60025 13.025 4.53341 12.7678 4.32586C12.2862 3.93719 11.7438 3.62197 11.1577 3.39662ZM11.5159 2.4631L11.1109 0.720081C11.0129 0.298417 10.6375 0 10.2051 0H7.66088C7.22842 0 6.85303 0.298417 6.75506 0.720081L6.33443 2.53048C5.71234 2.78854 5.13552 3.1339 4.61924 3.5513L2.47528 2.90142C2.05814 2.77497 1.60579 2.9514 1.38573 3.32638L0.127668 5.47007C-0.092394 5.84505 -0.0215321 6.31866 0.298351 6.61083L2.05983 8.21975C2.03145 8.47592 2.01688 8.73626 2.01688 9C2.01688 9.26403 2.03148 9.52464 2.05992 9.78107L0.299344 11.3892C-0.0205394 11.6813 -0.0914013 12.155 0.128661 12.5299L1.38672 14.6736C1.60678 15.0486 2.05913 15.225 2.47627 15.0986L4.61951 14.4489C5.13573 14.8662 5.71245 15.2115 6.33443 15.4695L6.75506 17.2799C6.85303 17.7016 7.22842 18 7.66088 18H10.2051C10.6375 18 11.0129 17.7016 11.1109 17.2799L11.5159 15.5369C12.2005 15.2737 12.8334 14.9057 13.3948 14.4527L15.5256 15.0986C15.9428 15.225 16.3951 15.0486 16.6152 14.6736L17.8732 12.5299C18.0933 12.155 18.0224 11.6813 17.7026 11.3892L15.9574 9.79519C15.9869 9.5342 16.0021 9.26887 16.0021 9C16.0021 8.73113 15.9869 8.4658 15.9574 8.20481L17.7026 6.61083C18.0224 6.31866 18.0933 5.84505 17.8732 5.47007L16.6152 3.32638C16.3951 2.9514 15.9428 2.77497 15.5256 2.90142L13.3948 3.54732C12.8334 3.09428 12.2005 2.72634 11.5159 2.4631Z" fill="#1B1B1B"/>
</svg>
