<svg width="18" height="18" viewBox="0 0 18 18" fill="none" xmlns="http://www.w3.org/2000/svg">
<path fill-rule="evenodd" clip-rule="evenodd" d="M10.5257 0C10.9521 0 11.3236 0.290424 11.427 0.704102L11.7571 2.02246C12.3313 2.24942 12.871 2.54496 13.3655 2.89941L15.2913 2.34863C15.7013 2.23138 16.1387 2.40808 16.3518 2.77734L17.8753 5.41699C18.0884 5.78625 18.0236 6.25341 17.7171 6.5498L16.4075 7.81543C16.4685 8.20066 16.5003 8.59565 16.5003 8.99805C16.5003 9.40215 16.4681 9.79876 16.4065 10.1855L17.7171 11.4521C18.0236 11.7485 18.0884 12.2157 17.8753 12.585L16.3518 15.2246C16.1386 15.5939 15.7013 15.7706 15.2913 15.6533L13.3597 15.1016C12.8667 15.4542 12.3291 15.7486 11.7571 15.9746L11.427 17.292C11.3236 17.7057 10.9521 17.9961 10.5257 17.9961H7.47782C7.05148 17.996 6.67986 17.7056 6.57646 17.292L6.24735 15.9746C5.67496 15.7484 5.13616 15.4536 4.64286 15.1006L2.70927 15.6533C2.2993 15.7706 1.86193 15.5939 1.64872 15.2246L0.124307 12.585C-0.088659 12.2157 -0.0229643 11.7485 0.283486 11.4521L1.59696 10.1826C1.53572 9.79676 1.50321 9.40113 1.50321 8.99805C1.50321 8.59672 1.53527 8.20262 1.59599 7.81836L0.283486 6.5498C-0.0229903 6.25347 -0.0887245 5.78623 0.124307 5.41699L1.64872 2.77734C1.86193 2.40806 2.2993 2.23136 2.70927 2.34863L4.637 2.90039C5.13192 2.54553 5.67266 2.24961 6.24735 2.02246L6.57646 0.704102C6.67986 0.290473 7.05148 6.95014e-05 7.47782 0H10.5257ZM9.00126 5.99902C7.34491 5.9992 6.00224 7.34166 6.00224 8.99805C6.00232 10.6544 7.34497 11.9969 9.00126 11.9971C10.6576 11.9969 12.0012 10.6544 12.0013 8.99805C12.0013 7.34164 10.6576 5.99917 9.00126 5.99902Z" fill="#2A2A2D"/>
</svg>
