<svg width="24" height="24" viewBox="0 0 24 24" fill="none" xmlns="http://www.w3.org/2000/svg">
<g id="Frame 3465547">
<path id="Union" fill-rule="evenodd" clip-rule="evenodd" d="M2 12C2 11.8323 2.00413 11.6656 2.01228 11.5C2.2728 6.20944 6.64481 2 12 2C17.3552 2 21.7272 6.20944 21.9877 11.5C21.9959 11.6656 22 11.8323 22 12C22 12.1677 21.9959 12.3344 21.9877 12.5C21.7272 17.7906 17.3552 22 12 22C6.64481 22 2.2728 17.7906 2.01228 12.5C2.00413 12.3344 2 12.1677 2 12ZM7.71624 6.83982C8.14977 5.40332 8.75884 4.20256 9.48401 3.3564C7.95068 3.80196 6.58625 4.64446 5.50935 5.76529C6.0828 6.19376 6.8411 6.55765 7.71624 6.83982ZM8.68033 7.10654C9.65662 7.33549 10.7312 7.47155 11.8301 7.49606C13.0384 7.523 14.2396 7.4142 15.3365 7.16253C15.1397 6.50394 14.9051 5.90408 14.6411 5.37615C13.7894 3.67281 12.7979 3 12 3C11.2021 3 10.2106 3.67281 9.35889 5.37615C9.10242 5.88908 8.87368 6.46991 8.68033 7.10654ZM16.3002 6.89486C17.1386 6.6178 17.8876 6.24371 18.4939 5.76869C17.4165 4.64616 16.0509 3.80241 14.516 3.3564C15.2504 4.21335 15.8657 5.43398 16.3002 6.89486ZM19.146 6.52797C17.3121 7.98629 14.4873 8.55556 11.8078 8.49581C9.14208 8.43637 6.45598 7.75051 4.85623 6.52507C3.78684 7.91834 3.11586 9.63343 3.01365 11.5H4V12.5H3.01365C3.11579 14.3653 3.78591 16.0793 4.85401 17.472C6.68791 16.0137 9.51268 15.4444 12.1922 15.5042C14.8579 15.5636 17.544 16.2495 19.1438 17.4749C20.2132 16.0817 20.8841 14.3666 20.9863 12.5H20V11.5H20.9863C20.8842 9.63473 20.2141 7.92072 19.146 6.52797ZM9.48402 20.6436C7.94913 20.1976 6.58349 19.3538 5.50609 18.2313C6.11242 17.7563 6.86137 17.3822 7.69975 17.1051C8.13427 18.566 8.7496 19.7867 9.48402 20.6436ZM9.35889 18.6239C9.09492 18.0959 8.86032 17.4961 8.66346 16.8375C9.76039 16.5858 10.9616 16.477 12.1699 16.5039C13.2688 16.5284 14.3434 16.6645 15.3197 16.8935C15.1263 17.5301 14.8976 18.1109 14.6411 18.6239C13.7894 20.3272 12.7979 21 12 21C11.2021 21 10.2106 20.3272 9.35889 18.6239ZM14.516 20.6436C15.2412 19.7974 15.8502 18.5967 16.2838 17.1602C17.1589 17.4423 17.9172 17.8062 18.4907 18.2347C17.4137 19.3555 16.0493 20.198 14.516 20.6436ZM7.00003 11.9662L7 12L7.00003 12.0338V11.9662ZM9.08171 13.4705C9.21004 13.1578 9.27421 12.8172 9.27421 12.4485C9.27421 12.0822 9.21004 11.7438 9.08171 11.4335C8.95571 11.1208 8.77721 10.8513 8.54621 10.625C8.31521 10.3987 8.03638 10.2213 7.70971 10.093C7.38538 9.96467 7.02488 9.9005 6.62821 9.9005H4.64721V15H6.62821C7.02488 15 7.38538 14.937 7.70971 14.811C8.03638 14.6827 8.31521 14.5053 8.54621 14.279C8.77721 14.0503 8.95571 13.7808 9.08171 13.4705ZM7.96521 11.766C8.03054 11.969 8.06321 12.1965 8.06321 12.4485C8.06321 12.7028 8.03054 12.9315 7.96521 13.1345C7.89988 13.3375 7.80538 13.5102 7.68171 13.6525C7.56038 13.7925 7.41104 13.901 7.23371 13.978C7.05638 14.0527 6.85454 14.09 6.62821 14.09H5.83721V10.8105H6.62821C6.85454 10.8105 7.05638 10.849 7.23371 10.926C7.41104 11.0007 7.56038 11.1092 7.68171 11.2515C7.80538 11.3915 7.89988 11.563 7.96521 11.766ZM14.9494 15V9.9005H13.9064V12.599C13.9064 12.6807 13.9087 12.7682 13.9134 12.8615C13.9181 12.9525 13.9262 13.047 13.9379 13.145L11.5124 10.0825C11.4797 10.0428 11.4506 10.0113 11.4249 9.988C11.3992 9.96467 11.3724 9.94717 11.3444 9.9355C11.3164 9.9215 11.2849 9.91217 11.2499 9.9075C11.2149 9.90283 11.1717 9.9005 11.1204 9.9005H10.4974V15H11.5404V12.2665C11.5404 12.1918 11.5381 12.1125 11.5334 12.0285C11.5311 11.9422 11.5252 11.8535 11.5159 11.7625L13.9204 14.804C13.9811 14.8763 14.0417 14.9277 14.1024 14.958C14.1654 14.986 14.2424 15 14.3334 15H14.9494ZM19.1693 11.0625C19.209 11.0345 19.2463 10.9925 19.2813 10.9365L19.5753 10.387C19.4843 10.303 19.3805 10.2283 19.2638 10.163C19.1495 10.0953 19.0258 10.0382 18.8928 9.9915C18.7598 9.9425 18.6186 9.90633 18.4693 9.883C18.3223 9.85733 18.1706 9.8445 18.0143 9.8445C17.7343 9.8445 17.4858 9.88767 17.2688 9.974C17.0518 10.058 16.8686 10.1712 16.7193 10.3135C16.57 10.4558 16.4568 10.618 16.3798 10.8C16.3028 10.982 16.2643 11.1687 16.2643 11.36C16.2643 11.598 16.297 11.7987 16.3623 11.962C16.4276 12.123 16.5128 12.2583 16.6178 12.368C16.7251 12.4753 16.8465 12.5628 16.9818 12.6305C17.1171 12.6958 17.256 12.7518 17.3983 12.7985C17.5406 12.8428 17.6795 12.8837 17.8148 12.921C17.9501 12.9583 18.0703 13.0015 18.1753 13.0505C18.2826 13.0995 18.369 13.1613 18.4343 13.236C18.4996 13.3107 18.5323 13.4075 18.5323 13.5265C18.5323 13.7318 18.4728 13.8823 18.3538 13.978C18.2348 14.0713 18.068 14.118 17.8533 14.118C17.6946 14.118 17.557 14.0958 17.4403 14.0515C17.3236 14.0072 17.2198 13.9582 17.1288 13.9045C17.0401 13.8508 16.9596 13.8018 16.8873 13.7575C16.8173 13.7132 16.7473 13.691 16.6773 13.691C16.6236 13.691 16.5735 13.705 16.5268 13.733C16.4825 13.7587 16.4463 13.7913 16.4183 13.831L16.0683 14.384C16.1686 14.4843 16.2865 14.5753 16.4218 14.657C16.5571 14.7387 16.7018 14.8098 16.8558 14.8705C17.0098 14.9288 17.1685 14.9743 17.3318 15.007C17.4975 15.0397 17.6596 15.056 17.8183 15.056C18.1076 15.056 18.3655 15.0128 18.5918 14.9265C18.8205 14.8378 19.0118 14.7177 19.1658 14.566C19.3221 14.412 19.4411 14.2323 19.5228 14.027C19.6045 13.8217 19.6453 13.6012 19.6453 13.3655C19.6453 13.1532 19.6126 12.9723 19.5473 12.823C19.482 12.6713 19.3956 12.543 19.2883 12.438C19.1833 12.333 19.062 12.2467 18.9243 12.179C18.789 12.1113 18.6501 12.053 18.5078 12.004C18.3655 11.9527 18.2255 11.9072 18.0878 11.8675C17.9525 11.8255 17.8311 11.78 17.7238 11.731C17.6188 11.682 17.5336 11.6237 17.4683 11.556C17.403 11.4883 17.3703 11.4032 17.3703 11.3005C17.3703 11.1395 17.424 11.0123 17.5313 10.919C17.641 10.8233 17.8066 10.7755 18.0283 10.7755C18.1566 10.7755 18.271 10.793 18.3713 10.828C18.4716 10.8607 18.5603 10.898 18.6373 10.94C18.7166 10.982 18.7866 11.0205 18.8473 11.0555C18.9103 11.0882 18.9686 11.1045 19.0223 11.1045C19.083 11.1045 19.132 11.0905 19.1693 11.0625Z" fill="black"/>
</g>
</svg>
