<svg width="25" height="24" viewBox="0 0 25 24" fill="none" xmlns="http://www.w3.org/2000/svg">
<g id="Frame 3465406">
<rect id="Rectangle 3467679" x="7.41382" y="2" width="11.1111" height="1.05263" rx="0.526316" fill="black"/>
<path id="Rectangle 3467678 (Stroke)" fill-rule="evenodd" clip-rule="evenodd" d="M3.41382 6.5C3.41382 5.11929 4.53311 4 5.91382 4H19.9138C21.2945 4 22.4138 5.11929 22.4138 6.5V10.5C22.4138 10.7761 22.19 11 21.9138 11C21.6377 11 21.4138 10.7761 21.4138 10.5V6.5C21.4138 5.67157 20.7422 5 19.9138 5H5.91382C5.08539 5 4.41382 5.67157 4.41382 6.5V18.5C4.41382 19.3284 5.08539 20 5.91382 20H9.91382C10.19 20 10.4138 20.2239 10.4138 20.5C10.4138 20.7761 10.19 21 9.91382 21H5.91382C4.53311 21 3.41382 19.8807 3.41382 18.5V6.5Z" fill="black"/>
<g id="Group 1376">
<rect id="Rectangle 3467534" x="14.4138" y="16" width="5" height="1" rx="0.5" fill="black"/>
<circle id="Ellipse 159" cx="16.9138" cy="16.5" r="5" stroke="black"/>
</g>
</g>
</svg>
