<svg width="25" height="24" viewBox="0 0 25 24" fill="none" xmlns="http://www.w3.org/2000/svg">
<g id="Wifi star/24px">
<path id="Union" fill-rule="evenodd" clip-rule="evenodd" d="M17.4138 2L18.4942 4.91964L21.4138 6L18.4942 7.08036L17.4138 10L16.3335 7.08036L13.4138 6L16.3335 4.91964L17.4138 2ZM2.51184 8.72423C2.34765 8.93726 2.40202 9.24207 2.62312 9.39521C2.84106 9.54616 3.13906 9.49273 3.30145 9.28318C4.43605 7.81915 5.92523 6.65754 7.63471 5.90771C9.34513 5.15745 11.2163 4.84564 13.076 4.99735C13.3397 5.01886 13.5793 4.83395 13.6127 4.57143C13.6462 4.30791 13.4594 4.06627 13.1947 4.04383C11.1605 3.87136 9.1124 4.20939 7.24131 5.03011C5.37342 5.84944 3.7475 7.12105 2.51184 8.72423ZM5.84093 12.0057C5.66487 12.2236 5.72191 12.5416 5.95222 12.7011C6.17924 12.8583 6.48915 12.8021 6.66431 12.5886C7.42061 11.6669 8.40347 10.9483 9.52228 10.504C10.6422 10.0592 11.8559 9.90615 13.0478 10.0555C13.3211 10.0897 13.5834 9.91623 13.6377 9.6462C13.6924 9.37457 13.5159 9.10868 13.2412 9.07199C11.8578 8.88714 10.4464 9.05938 9.14564 9.57596C7.84795 10.0913 6.7103 10.9296 5.84093 12.0057ZM9.26459 15.9954C9.03428 15.8359 8.97633 15.5165 9.16585 15.3101C9.70132 14.7271 10.4019 14.3105 11.182 14.1184C11.9639 13.9259 12.7822 13.9697 13.533 14.2381C13.7952 14.3318 13.8931 14.6392 13.7654 14.8866C13.6393 15.131 13.3403 15.2237 13.078 15.1411C12.546 14.9737 11.9742 14.9539 11.4262 15.0888C10.8795 15.2234 10.385 15.505 9.99481 15.8981C9.80026 16.094 9.49161 16.1526 9.26459 15.9954ZM16.5892 11.8248L15.9139 10L15.2387 11.8248L13.4139 12.5L15.2387 13.1752L15.9139 15L16.5892 13.1752L18.4139 12.5L16.5892 11.8248ZM12.4138 22C13.5184 22 14.4138 21.1046 14.4138 20C14.4138 18.8954 13.5184 18 12.4138 18C11.3092 18 10.4138 18.8954 10.4138 20C10.4138 21.1046 11.3092 22 12.4138 22Z" fill="black"/>
</g>
</svg>
