<svg width="24" height="24" viewBox="0 0 24 24" fill="none" xmlns="http://www.w3.org/2000/svg">
<path fill-rule="evenodd" clip-rule="evenodd" d="M11.0053 20.3072C11.0053 20.7345 10.6329 21.0694 10.2139 20.9844C6.09505 20.1485 3 16.3606 3 12C3 7.02917 7.03233 2.99951 12.0065 2.99951C16.8127 2.99951 20.7397 6.76175 20.9993 11.5C21.0144 11.7758 20.7889 12 20.5126 12C20.2363 12 20.0139 11.7759 19.9969 11.5003C19.9426 10.6199 19.7459 9.77811 19.4294 8.99753H16.6906C16.7808 9.45884 16.9461 10.035 17.0093 10.5117C17.0456 10.7855 16.825 11.0098 16.5487 11.0098C16.2716 11.0098 16.0435 10.7842 16.0054 10.51C15.8907 10.0087 15.7656 9.45285 15.6695 8.99753H8.33074C8.13603 9.9203 8.02678 10.9323 8.02678 12.0005C8.02678 13.0665 8.13558 14.0766 8.32956 14.9978L10.505 14.9979C10.7813 14.9979 11.0053 15.2217 11.0053 15.4979C11.0053 15.774 10.7813 15.9979 10.505 15.9979L8.58329 15.9978C8.79406 16.7011 9.05707 17.3351 9.35892 17.8814C9.76878 18.623 10.2108 19.2819 10.6586 19.6475C10.8602 19.812 11.0053 20.0471 11.0053 20.3072ZM18.94 7.99753H16.4563C16.0623 6.56409 15.4633 5.34767 14.7287 4.47391C16.5128 5.11848 18.0021 6.37856 18.94 7.99753ZM5.07299 7.99753C6.00763 6.38408 7.49001 5.12709 9.26598 4.48054C8.53392 5.35381 7.93692 6.56771 7.5439 7.99753H5.07299ZM9.35892 6.11963C9.05787 6.66437 8.79546 7.29649 8.58498 7.99753H15.4153C15.2048 7.29649 14.9424 6.66437 14.6413 6.11963C13.8181 4.63004 12.8422 4 12.0001 4C11.158 4 10.1821 4.63004 9.35892 6.11963ZM4.58353 8.99753H7.30969C7.12605 9.93671 7.02611 10.9475 7.02611 12.0005C7.02611 13.0514 7.12565 14.0603 7.3086 14.9979L4.58169 14.9979C4.20699 14.0721 4.00066 13.0601 4.00066 12C4.00066 10.9382 4.20766 9.92464 4.58353 8.99753ZM5.07036 15.9979L7.54236 15.9979C7.93515 17.4293 8.53232 18.6447 9.2648 19.519C7.48769 18.8717 6.00464 17.6132 5.07036 15.9979Z" fill="black"/>
<path fill-rule="evenodd" clip-rule="evenodd" d="M17.0102 14.9945C15.9021 14.9945 15.0038 15.8927 15.0038 17.0008C15.0038 18.1089 15.9021 19.0072 17.0102 19.0072C18.1182 19.0072 19.0165 18.1089 19.0165 17.0008C19.0165 15.8927 18.1182 14.9945 17.0102 14.9945ZM16.022 17.0008C16.022 16.4551 16.4644 16.0127 17.0102 16.0127C17.5559 16.0127 17.9983 16.4551 17.9983 17.0008C17.9983 17.5466 17.5559 17.989 17.0102 17.989C16.4644 17.989 16.022 17.5466 16.022 17.0008Z" fill="#1B1B1B"/>
<path fill-rule="evenodd" clip-rule="evenodd" d="M16.3316 12C15.8786 12 15.486 12.3126 15.3837 12.7533L15.2305 13.4129C15.0503 13.5023 14.8778 13.6049 14.7144 13.7194L13.8917 13.47C13.4592 13.3388 12.9905 13.5208 12.7612 13.9116L12.1335 14.9815C11.9027 15.3748 11.9764 15.8756 12.3144 16.1843L13.0102 16.82C13.0075 16.88 13.0062 16.9403 13.0062 17.0009C13.0062 17.0616 13.0075 17.122 13.0102 17.1822L12.3149 17.8174C11.9769 18.1262 11.9032 18.6269 12.134 19.0203L12.7617 20.0902C12.991 20.4809 13.4597 20.6629 13.8922 20.5318L14.7146 20.2825C14.8779 20.3969 15.0503 20.4995 15.2305 20.5889L15.3837 21.2485C15.486 21.6892 15.8786 22.0018 16.3316 22.0018H17.6011C18.0541 22.0018 18.4466 21.6892 18.549 21.2485L18.6926 20.6303C18.903 20.532 19.1034 20.416 19.2918 20.2843L20.1083 20.5318C20.5408 20.6629 21.0095 20.4809 21.2388 20.0902L21.8665 19.0203C22.0973 18.6269 22.0236 18.1262 21.6856 17.8174L20.9984 17.1896C21.0014 17.127 21.0028 17.0641 21.0028 17.0009C21.0028 16.9376 21.0014 16.8747 20.9984 16.8121L21.6856 16.1843C22.0236 15.8756 22.0973 15.3748 21.8665 14.9815L21.2388 13.9116C21.0095 13.5208 20.5408 13.3388 20.1083 13.47L19.2918 13.7175C19.1034 13.5857 18.903 13.4697 18.6926 13.3715L18.549 12.7533C18.4466 12.3126 18.0541 12 17.6011 12H16.3316ZM16.1064 14.142L16.3675 13.0182H17.5652L17.8204 14.1167L18.0724 14.2136C18.3638 14.3256 18.6335 14.4824 18.873 14.6757L19.0826 14.8449L20.3758 14.4528L20.9675 15.4613L19.9364 16.4032L19.9656 16.6611C19.9781 16.7725 19.9846 16.8858 19.9846 17.0009C19.9846 17.1159 19.9781 17.2293 19.9656 17.3406L19.9364 17.5985L20.9675 18.5405L20.3758 19.5489L19.0826 19.1569L18.873 19.3261C18.6335 19.5194 18.3638 19.6761 18.0724 19.7882L17.8204 19.8851L17.5652 20.9836H16.3675L16.1064 19.8597L15.8648 19.7595C15.6 19.6497 15.3543 19.5025 15.134 19.3245L14.9243 19.1549L13.6247 19.5489L13.033 18.5405L14.0713 17.5919L14.0427 17.3346C14.0306 17.2252 14.0244 17.1139 14.0244 17.0009C14.0244 16.888 14.0306 16.7768 14.0427 16.6675L14.0712 16.4102L13.0325 15.4613L13.6242 14.4528L14.9242 14.847L15.1339 14.6774C15.3542 14.4993 15.6 14.3521 15.8648 14.2423L16.1064 14.142Z" fill="#1B1B1B"/>
</svg>
