<svg width="18" height="18" viewBox="0 0 18 18" fill="none" xmlns="http://www.w3.org/2000/svg">
<path fill-rule="evenodd" clip-rule="evenodd" d="M12.0007 8.99789C12.0007 10.6544 10.6578 11.9972 9.00131 11.9972C7.34481 11.9972 6.00195 10.6544 6.00195 8.99789C6.00195 7.34139 7.34481 5.99854 9.00131 5.99854C10.6578 5.99854 12.0007 7.34139 12.0007 8.99789ZM11.0007 8.99789C11.0007 10.1021 10.1055 10.9972 9.00131 10.9972C7.89709 10.9972 7.00195 10.1021 7.00195 8.99789C7.00195 7.89368 7.89709 6.99854 9.00131 6.99854C10.1055 6.99854 11.0007 7.89368 11.0007 8.99789Z" fill="#2A2A2D"/>
<path fill-rule="evenodd" clip-rule="evenodd" d="M11.4274 0.703884L11.7569 2.02198C12.3312 2.24895 12.8707 2.54479 13.3654 2.8993L15.2912 2.34841C15.7011 2.23113 16.1383 2.40792 16.3515 2.7772L17.8755 5.4168C18.0887 5.78608 18.0232 6.25307 17.7167 6.54948L16.4076 7.81525C16.4686 8.20054 16.5003 8.5956 16.5003 8.99807C16.5003 9.40233 16.4683 9.79911 16.4067 10.186L17.7167 11.4526C18.0232 11.749 18.0887 12.216 17.8755 12.5853L16.3515 15.2249C16.1383 15.5942 15.7011 15.7709 15.2912 15.6537L13.3594 15.1011C12.8664 15.4537 12.3289 15.7481 11.7569 15.9742L11.4274 17.2922C11.324 17.7059 10.9523 17.9961 10.5259 17.9961H7.47796C7.05155 17.9961 6.67986 17.7059 6.57644 17.2922L6.24692 15.9742C5.67452 15.7479 5.13663 15.4533 4.64333 15.1003L2.70883 15.6537C2.29887 15.7709 1.8617 15.5942 1.64849 15.2249L0.124524 12.5853C-0.0886803 12.216 -0.0231986 11.749 0.283347 11.4526L1.59661 10.1828C1.53536 9.7969 1.50354 9.4012 1.50354 8.99807C1.50354 8.59673 1.53507 8.20276 1.59579 7.81849L0.283346 6.54948C-0.0231996 6.25307 -0.0886812 5.78608 0.124523 5.4168L1.64849 2.7772C1.8617 2.40792 2.29887 2.23113 2.70883 2.34841L4.6374 2.90009C5.13232 2.54523 5.67222 2.24913 6.24691 2.02198L6.57644 0.703884C6.67986 0.290206 7.05155 0 7.47796 0H10.5259C10.9523 0 11.324 0.290207 11.4274 0.703884ZM10.4707 1L10.9114 2.76307L11.3894 2.95197C11.8865 3.14845 12.3539 3.4047 12.7828 3.71209L13.1757 3.99368L15.5131 3.32503L16.9818 5.86897L15.3385 7.45796L15.4199 7.97176C15.4728 8.30548 15.5003 8.64821 15.5003 8.99807C15.5003 9.34949 15.4725 9.69372 15.4192 10.0288L15.3373 10.543L16.9818 12.1331L15.5131 14.677L13.1703 14.0069L12.7777 14.2877C12.3502 14.5935 11.8845 14.8485 11.3894 15.0442L10.9114 15.2331L10.4707 16.9961H7.53319L7.09242 15.2331L6.61449 15.0442C6.11899 14.8483 5.65297 14.5931 5.22524 14.287L4.83255 14.0061L2.48691 14.677L1.01816 12.1331L2.66582 10.54L2.58424 10.026C2.53119 9.69179 2.50354 9.34851 2.50354 8.99807C2.50354 8.64919 2.53095 8.3074 2.58354 7.97457L2.66469 7.46101L1.01816 5.86897L2.4869 3.32503L4.82719 3.9945L5.2201 3.71278C5.64923 3.40509 6.117 3.14861 6.61449 2.95197L7.09242 2.76308L7.53319 1H10.4707Z" fill="#2A2A2D"/>
</svg>
