<svg width="25" height="24" viewBox="0 0 25 24" fill="none" xmlns="http://www.w3.org/2000/svg">
<g id="Main icon2/Temp_user/24px">
<path id="Union" fill-rule="evenodd" clip-rule="evenodd" d="M15.4138 6C15.4138 7.65685 14.0707 9 12.4138 9C10.757 9 9.41382 7.65685 9.41382 6C9.41382 4.34315 10.757 3 12.4138 3C14.0707 3 15.4138 4.34315 15.4138 6ZM16.4138 6C16.4138 8.20914 14.623 10 12.4138 10C10.2047 10 8.41382 8.20914 8.41382 6C8.41382 3.79086 10.2047 2 12.4138 2C14.623 2 16.4138 3.79086 16.4138 6ZM6.69953 13H18.1281C18.7593 13 19.4138 13.6699 19.4138 14.3069V15.5907C19.4138 16.9193 18.5172 18.323 17.3314 18.9L13.4138 20.8C12.9284 21.05 12.023 21.1143 11.4138 20.8L7.49622 18.9C6.31042 18.323 5.41382 16.8346 5.41382 15.5059V14.3069C5.41382 13.6699 6.06835 13 6.69953 13ZM4.41382 14.3069C4.41382 13.0329 5.43717 12 6.69953 12H18.1281C19.3905 12 20.4138 13.0329 20.4138 14.3069V15.5907C20.4138 17.3622 19.4088 18.9773 17.8278 19.7467L13.9028 21.6566C12.962 22.1145 11.8657 22.1145 10.9248 21.6566L6.99988 19.7467C5.41881 18.9773 4.41382 17.3622 4.41382 15.5907V14.3069Z" fill="black"/>
</g>
</svg>
