<svg width="25" height="24" viewBox="0 0 25 24" fill="none" xmlns="http://www.w3.org/2000/svg">
<g id="Global settings 24px">
<path id="Union" fill-rule="evenodd" clip-rule="evenodd" d="M10.3638 7H21.9138C22.19 7 22.4138 7.22386 22.4138 7.5C22.4138 7.77614 22.19 8 21.9138 8H10.3638C10.1322 9.14112 9.1233 10 7.91382 10C6.70434 10 5.69546 9.14112 5.46383 8H2.91382C2.63768 8 2.41382 7.77614 2.41382 7.5C2.41382 7.22386 2.63768 7 2.91382 7H5.46383C5.69546 5.85888 6.70434 5 7.91382 5C9.1233 5 10.1322 5.85888 10.3638 7ZM2.91382 12C2.63768 12 2.41382 12.2239 2.41382 12.5C2.41382 12.7761 2.63768 13 2.91382 13H14.4638C14.6955 14.1411 15.7043 15 16.9138 15C18.1233 15 19.1322 14.1411 19.3638 13H21.9138C22.19 13 22.4138 12.7761 22.4138 12.5C22.4138 12.2239 22.19 12 21.9138 12H19.3638C19.1322 10.8589 18.1233 10 16.9138 10C15.7043 10 14.6955 10.8589 14.4638 12H2.91382ZM2.41382 17.5C2.41382 17.2239 2.63768 17 2.91382 17H5.46383C5.69546 15.8589 6.70434 15 7.91382 15C9.1233 15 10.1322 15.8589 10.3638 17H21.9138C22.19 17 22.4138 17.2239 22.4138 17.5C22.4138 17.7761 22.19 18 21.9138 18H10.3638C10.1322 19.1411 9.1233 20 7.91382 20C6.70434 20 5.69546 19.1411 5.46383 18H2.91382C2.63768 18 2.41382 17.7761 2.41382 17.5Z" fill="black"/>
</g>
</svg>
