<svg width="24" height="24" viewBox="0 0 24 24" fill="none" xmlns="http://www.w3.org/2000/svg">
<path fill-rule="evenodd" clip-rule="evenodd" d="M15.0007 11.9979C15.0007 13.6544 13.6578 14.9972 12.0013 14.9972C10.3448 14.9972 9.00195 13.6544 9.00195 11.9979C9.00195 10.3414 10.3448 8.99854 12.0013 8.99854C13.6578 8.99854 15.0007 10.3414 15.0007 11.9979ZM14.0007 11.9979C14.0007 13.1021 13.1055 13.9972 12.0013 13.9972C10.8971 13.9972 10.002 13.1021 10.002 11.9979C10.002 10.8937 10.8971 9.99854 12.0013 9.99854C13.1055 9.99854 14.0007 10.8937 14.0007 11.9979Z" fill="black"/>
<path fill-rule="evenodd" clip-rule="evenodd" d="M14.4274 3.70388L14.7569 5.02198C15.3312 5.24895 15.8707 5.54479 16.3654 5.8993L18.2912 5.34841C18.7011 5.23113 19.1383 5.40792 19.3515 5.7772L20.8755 8.4168C21.0887 8.78608 21.0232 9.25307 20.7167 9.54948L19.4076 10.8153C19.4686 11.2005 19.5003 11.5956 19.5003 11.9981C19.5003 12.4023 19.4683 12.7991 19.4067 13.186L20.7167 14.4526C21.0232 14.749 21.0887 15.216 20.8755 15.5853L19.3515 18.2249C19.1383 18.5942 18.7011 18.7709 18.2912 18.6537L16.3594 18.1011C15.8664 18.4537 15.3289 18.7481 14.7569 18.9742L14.4274 20.2922C14.324 20.7059 13.9523 20.9961 13.5259 20.9961H10.478C10.0515 20.9961 9.67986 20.7059 9.57644 20.2922L9.24692 18.9742C8.67452 18.7479 8.13663 18.4533 7.64333 18.1003L5.70883 18.6537C5.29887 18.7709 4.8617 18.5942 4.64849 18.2249L3.12452 15.5853C2.91132 15.216 2.9768 14.749 3.28335 14.4526L4.59661 13.1828C4.53536 12.7969 4.50354 12.4012 4.50354 11.9981C4.50354 11.5967 4.53507 11.2028 4.59579 10.8185L3.28335 9.54948C2.9768 9.25307 2.91132 8.78608 3.12452 8.4168L4.64849 5.7772C4.8617 5.40792 5.29887 5.23113 5.70883 5.34841L7.6374 5.90009C8.13232 5.54523 8.67222 5.24913 9.24691 5.02198L9.57644 3.70388C9.67986 3.29021 10.0515 3 10.478 3H13.5259C13.9523 3 14.324 3.29021 14.4274 3.70388ZM13.4707 4L13.9114 5.76307L14.3894 5.95197C14.8865 6.14845 15.3539 6.4047 15.7828 6.71209L16.1757 6.99368L18.5131 6.32503L19.9818 8.86897L18.3385 10.458L18.4199 10.9718C18.4728 11.3055 18.5003 11.6482 18.5003 11.9981C18.5003 12.3495 18.4725 12.6937 18.4192 13.0288L18.3373 13.543L19.9818 15.1331L18.5131 17.677L16.1703 17.0069L15.7777 17.2877C15.3502 17.5935 14.8845 17.8485 14.3894 18.0442L13.9114 18.2331L13.4707 19.9961H10.5332L10.0924 18.2331L9.61449 18.0442C9.11899 17.8483 8.65297 17.5931 8.22524 17.287L7.83255 17.0061L5.48691 17.677L4.01816 15.1331L5.66582 13.54L5.58424 13.026C5.53119 12.6918 5.50354 12.3485 5.50354 11.9981C5.50354 11.6492 5.53095 11.3074 5.58354 10.9746L5.66469 10.461L4.01816 8.86897L5.4869 6.32503L7.82719 6.9945L8.2201 6.71278C8.64923 6.40509 9.117 6.14861 9.61449 5.95197L10.0924 5.76308L10.5332 4H13.4707Z" fill="black"/>
</svg>
