<svg width="25" height="24" viewBox="0 0 25 24" fill="none" xmlns="http://www.w3.org/2000/svg">
<g id="Frame 3465408">
<path id="Union" fill-rule="evenodd" clip-rule="evenodd" d="M2.41382 4.79412C2.41382 3.25097 3.59202 2 5.0454 2H19.7822C21.2356 2 22.4138 3.25097 22.4138 4.79412V6V7V9.5C22.4138 9.80863 22.2045 10 21.9138 10C21.6231 10 21.4138 9.80863 21.4138 9.5V7H3.42247L3.46645 18.2059C3.46645 19.1318 4.17337 20 5.0454 20H9.25592C9.5466 20 9.78224 20.1914 9.78224 20.5C9.78224 20.8086 9.5466 21 9.25592 21H5.0454C3.59202 21 2.41382 19.749 2.41382 18.2059V7V6V4.79412ZM21.4138 4.71331V6H3.41855L3.41382 4.79412C3.41382 3.86823 4.37435 3 5.24638 3H19.8842C20.7562 3 21.4138 3.78742 21.4138 4.71331ZM16.9138 22C19.9514 22 22.4138 19.5376 22.4138 16.5C22.4138 13.4624 19.9514 11 16.9138 11C13.8763 11 11.4138 13.4624 11.4138 16.5C11.4138 19.5376 13.8763 22 16.9138 22ZM16.914 12.8329C16.4078 12.8329 15.9974 13.2433 15.9974 13.7496V15.5829H14.1636C13.6573 15.5829 13.2469 15.9933 13.2469 16.4996C13.2469 17.0058 13.6573 17.4162 14.1636 17.4162H15.9974V19.2496C15.9974 19.7558 16.4078 20.1662 16.914 20.1662C17.4203 20.1662 17.8307 19.7558 17.8307 19.2496V17.4162H19.6636C20.1699 17.4162 20.5803 17.0058 20.5803 16.4996C20.5803 15.9933 20.1699 15.5829 19.6636 15.5829H17.8307V13.7496C17.8307 13.2433 17.4203 12.8329 16.914 12.8329Z" fill="black"/>
</g>
</svg>
