<svg width="32" height="32" viewBox="0 0 32 32" fill="none" xmlns="http://www.w3.org/2000/svg">
<path d="M2.79289 2.79304C3.18342 2.40252 3.81643 2.40252 4.20696 2.79304L7.83879 6.42488L14.7538 3.26863L14.9042 3.20515C15.6588 2.90915 16.5045 2.93016 17.246 3.26863L26.6572 7.5655L26.8066 7.6407C27.5382 8.04147 27.9997 8.81238 27.9999 9.65535V10.3428C27.9998 14.8276 26.5624 19.1008 24.0224 22.6085L29.207 27.793C29.5974 28.1836 29.5974 28.8166 29.207 29.2071C28.8165 29.5976 28.1834 29.5975 27.7929 29.2071L2.79289 4.20711C2.40237 3.81658 2.40237 3.18357 2.79289 2.79304Z" fill="#F29086"/>
<path d="M21.371 25.6143C20.2559 26.6575 19.0199 27.588 17.6738 28.378L17.0488 28.7305C16.4358 29.0626 15.7039 29.0834 15.0761 28.793L14.9511 28.7305C8.20367 25.0749 4.0002 18.0169 3.99992 10.3428V9.65535C4.00002 9.25511 4.10437 8.87105 4.29192 8.53523L21.371 25.6143Z" fill="#F29086"/>
</svg>
