<svg width="24" height="24" viewBox="0 0 24 24" fill="none" xmlns="http://www.w3.org/2000/svg">
<g clip-path="url(#clip0_3559_1161)">
<path fill-rule="evenodd" clip-rule="evenodd" d="M12.0543 21.0003C17.0004 20.9714 21.001 16.9529 21.001 12C21.001 7.02917 16.9713 2.99951 12.0005 2.99951C7.02966 2.99951 3 7.02917 3 12C3 16.9468 6.99076 20.9615 11.9284 21.0002C11.9503 21.0007 11.9722 21.001 11.9941 21.001C12.0142 21.001 12.0343 21.0008 12.0543 21.0003ZM20.001 12C20.001 13.06 19.7948 14.0718 19.4205 14.9976L16.6826 14.9976C16.8654 14.0601 16.9648 13.0513 16.9648 12.0005C16.9648 10.9475 16.865 9.93671 16.6815 8.99753H19.4185C19.7941 9.92464 20.001 10.9382 20.001 12ZM15.6611 8.99753C15.8557 9.9203 15.9648 10.9323 15.9648 12.0005C15.9648 13.0665 15.8561 14.0764 15.6623 14.9977L8.32602 14.9978C8.13217 14.0766 8.02344 13.0665 8.02344 12.0005C8.02344 10.9323 8.13261 9.9203 8.3272 8.99753H15.6611ZM16.4474 7.99753H18.9294C17.9921 6.37856 16.5038 5.11848 14.7209 4.47391C15.455 5.34767 16.0537 6.56409 16.4474 7.99753ZM9.26182 4.48054C7.48703 5.12709 6.00563 6.38408 5.07161 7.99753H7.54088C7.93364 6.56771 8.53024 5.35381 9.26182 4.48054ZM8.58127 7.99753C8.79161 7.29649 9.05385 6.66437 9.3547 6.11963C10.1774 4.63004 11.1526 4 11.9941 4C12.8357 4 13.8109 4.63004 14.6336 6.11963C14.9344 6.66437 15.1967 7.29649 15.407 7.99753H8.58127ZM7.30683 8.99753H4.58248C4.20686 9.92464 4 10.9382 4 12C4 13.0601 4.20619 14.0721 4.58064 14.9979L7.30574 14.9979C7.12291 14.0603 7.02344 13.0514 7.02344 12.0005C7.02344 10.9475 7.12331 9.93671 7.30683 8.99753ZM7.53935 15.9979L5.06898 15.9979C6.00264 17.6132 7.48471 18.8717 9.26064 19.519C8.52865 18.6447 7.93187 17.4293 7.53935 15.9979ZM12.0383 20.0004C12.0257 20.0005 12.0131 20.0005 12.0005 20.0005C11.9825 20.0005 11.9646 20.0004 11.9467 20.0003C11.1161 19.9771 10.1619 19.343 9.3547 17.8814C9.05305 17.3351 8.79021 16.7011 8.57959 15.9978L15.4087 15.9977C15.1981 16.701 14.9353 17.3351 14.6336 17.8814C13.8253 19.345 12.8696 19.9787 12.0383 20.0004ZM14.7221 19.5257C15.4567 18.6508 16.0555 17.4328 16.449 15.9976L18.9322 15.9976C17.9953 17.6186 16.5062 18.8803 14.7221 19.5257Z" fill="#1B1B1B"/>
</g>
<defs>
<clipPath id="clip0_3559_1161">
<rect width="24" height="24" fill="white"/>
</clipPath>
</defs>
</svg>
