<svg width="24" height="24" viewBox="0 0 24 24" fill="none" xmlns="http://www.w3.org/2000/svg">
<path d="M17.2002 18C17.6419 18.0001 17.9999 18.3581 18 18.7998V20H18.5C18.7761 20 19 20.2239 19 20.5C19 20.7761 18.7761 21 18.5 21H16.5C16.2239 21 16 20.7761 16 20.5C16 20.2239 16.2239 20 16.5 20H17V19H16.5C16.2239 19 16 18.7761 16 18.5C16 18.2239 16.2239 18 16.5 18H17.2002Z" fill="#1B1B1B"/>
<path d="M17.5 16C17.7761 16 18 16.2239 18 16.5C18 16.7761 17.7761 17 17.5 17C17.2239 17 17 16.7761 17 16.5C17 16.2239 17.2239 16 17.5 16Z" fill="#1B1B1B"/>
<path fill-rule="evenodd" clip-rule="evenodd" d="M17.5 14C19.9853 14 22 16.0147 22 18.5C22 20.9853 19.9853 23 17.5 23C15.0147 23 13 20.9853 13 18.5C13 16.0147 15.0147 14 17.5 14ZM17.5 15C15.567 15 14 16.567 14 18.5C14 20.433 15.567 22 17.5 22C19.433 22 21 20.433 21 18.5C21 16.567 19.433 15 17.5 15Z" fill="#1B1B1B"/>
<path d="M17 2C18.1046 2 19 2.89543 19 4V12.5C19 12.7761 18.7761 13 18.5 13C18.2239 13 18 12.7761 18 12.5V4C18 3.44772 17.5523 3 17 3H5C4.44772 3 4 3.44772 4 4V20C4 20.5523 4.44772 21 5 21H11.5C11.7761 21 12 21.2239 12 21.5C12 21.7761 11.7761 22 11.5 22H5L4.7959 21.9893C3.85435 21.8938 3.1062 21.1457 3.01074 20.2041L3 20V4C3 2.96435 3.78722 2.113 4.7959 2.01074L5 2H17Z" fill="#1B1B1B"/>
<path d="M11.5 15C11.7761 15 12 15.2239 12 15.5C12 15.7761 11.7761 16 11.5 16H6.5C6.22386 16 6 15.7761 6 15.5C6 15.2239 6.22386 15 6.5 15H11.5Z" fill="#1B1B1B"/>
<path d="M15.5 11C15.7761 11 16 11.2239 16 11.5C16 11.7761 15.7761 12 15.5 12H6.5C6.22386 12 6 11.7761 6 11.5C6 11.2239 6.22386 11 6.5 11H15.5Z" fill="#1B1B1B"/>
<path d="M15.5 7C15.7761 7 16 7.22386 16 7.5C16 7.77614 15.7761 8 15.5 8H6.5C6.22386 8 6 7.77614 6 7.5C6 7.22386 6.22386 7 6.5 7H15.5Z" fill="#1B1B1B"/>
</svg>
