<svg width="32" height="32" viewBox="0 0 32 32" fill="none" xmlns="http://www.w3.org/2000/svg">
<g clip-path="url(#clip0_2924_6575)">
<path d="M10.4614 17C10.1864 17 9.95101 16.9021 9.75518 16.7063C9.55934 16.5104 9.46143 16.275 9.46143 16C9.46143 15.725 9.55934 15.4896 9.75518 15.2938C9.95101 15.0979 10.1864 15 10.4614 15C10.7364 15 10.9718 15.0979 11.1677 15.2938C11.3635 15.4896 11.4614 15.725 11.4614 16C11.4614 16.275 11.3635 16.5104 11.1677 16.7063C10.9718 16.9021 10.7364 17 10.4614 17ZM15.9999 17C15.7249 17 15.4895 16.9021 15.2937 16.7063C15.0978 16.5104 14.9999 16.275 14.9999 16C14.9999 15.725 15.0978 15.4896 15.2937 15.2938C15.4895 15.0979 15.7249 15 15.9999 15C16.2749 15 16.5103 15.0979 16.7062 15.2938C16.902 15.4896 16.9999 15.725 16.9999 16C16.9999 16.275 16.902 16.5104 16.7062 16.7063C16.5103 16.9021 16.2749 17 15.9999 17ZM21.5384 17C21.2634 17 21.028 16.9021 20.8322 16.7063C20.6363 16.5104 20.5384 16.275 20.5384 16C20.5384 15.725 20.6363 15.4896 20.8322 15.2938C21.028 15.0979 21.2634 15 21.5384 15C21.8134 15 22.0488 15.0979 22.2447 15.2938C22.4405 15.4896 22.5384 15.725 22.5384 16C22.5384 16.275 22.4405 16.5104 22.2447 16.7063C22.0488 16.9021 21.8134 17 21.5384 17Z" fill="#1B1B1B"/>
</g>
<defs>
<clipPath id="clip0_2924_6575">
<rect x="4" y="4" width="24" height="24" rx="12" fill="white"/>
</clipPath>
</defs>
</svg>
