<svg width="24" height="24" viewBox="0 0 24 24" fill="none" xmlns="http://www.w3.org/2000/svg">
<path fill-rule="evenodd" clip-rule="evenodd" d="M19.9611 8.77071L20.0039 7.39791C20.0071 7.29388 19.9419 7.15346 19.7644 7.08262L12.0616 4.00753C12.0219 3.99165 11.9736 3.99166 11.9339 4.00754L4.23523 7.08243C4.05761 7.15337 3.99218 7.29398 3.99539 7.39828L4.03811 8.78706C4.18601 13.5946 7.20117 17.9212 11.8978 19.9859C11.9538 20.0105 12.0228 20.0106 12.0789 19.9859C16.7864 17.9211 19.811 13.5874 19.9611 8.77071ZM3.86593 6.15783C3.32694 6.37311 2.98328 6.87769 3.00023 7.42889L3.04296 8.81768C3.2035 14.036 6.47465 18.6894 11.4971 20.8973C11.8082 21.0341 12.1676 21.0342 12.4788 20.8977C17.5124 18.6899 20.7933 14.0294 20.9562 8.80172L20.999 7.42893C21.0162 6.87776 20.6726 6.37313 20.1336 6.15795L12.4308 3.08287C12.1539 2.97235 11.8414 2.97238 11.5646 3.08294L3.86593 6.15783Z" fill="black"/>
<path d="M8.11977 11.4084L13.4399 7.07652C13.6998 6.86496 14.073 7.13047 13.9584 7.44532L12.8229 10.5638C12.7446 10.7791 12.904 11.0067 13.133 11.0067H15.6659C15.9764 11.0067 16.115 11.3966 15.8743 11.5926L10.5541 15.9245C10.2943 16.1361 9.92101 15.8706 10.0356 15.5557L11.1711 12.4372C11.2495 12.222 11.0901 11.9943 10.861 11.9943H8.32814C8.01762 11.9943 7.87898 11.6045 8.11977 11.4084Z" fill="black"/>
</svg>
