<svg width="16" height="16" viewBox="0 0 16 16" fill="none" xmlns="http://www.w3.org/2000/svg">
<path d="M12.2247 3.08216C12.4187 2.95405 12.6828 2.97593 12.8536 3.14662C13.0245 3.31747 13.0462 3.58145 12.9181 3.77552L12.8536 3.85365L8.70716 8.00013L12.8536 12.1466L12.9181 12.2247C13.0463 12.4188 13.0245 12.6828 12.8536 12.8536C12.6828 13.0245 12.4188 13.0463 12.2247 12.9181L12.1466 12.8536L8.00013 8.70716L3.85365 12.8536L3.77552 12.9181C3.58145 13.0462 3.31746 13.0245 3.14662 12.8536C2.97593 12.6828 2.95405 12.4187 3.08216 12.2247L3.14662 12.1466L7.2931 8.00013L3.14662 3.85365L3.08216 3.77552C2.95416 3.58147 2.97583 3.31742 3.14662 3.14662C3.31742 2.97582 3.58146 2.95416 3.77552 3.08216L3.85365 3.14662L8.00013 7.2931L12.1466 3.14662L12.2247 3.08216Z" fill="#696A6D"/>
</svg>
