<svg width="21" height="20" viewBox="0 0 21 20" fill="none" xmlns="http://www.w3.org/2000/svg">
<path fill-rule="evenodd" clip-rule="evenodd" d="M13.0549 16.6239C12.2033 18.3272 11.2117 19 10.4138 19C9.61593 19 8.62438 18.3272 7.77271 16.6239C7.49157 16.0616 7.24374 15.4177 7.03933 14.7082C8.09354 14.8971 9.22964 15 10.4138 15C11.598 15 12.7341 14.8971 13.7883 14.7082C13.5839 15.4177 13.3361 16.0616 13.0549 16.6239ZM14.0524 13.6386C12.9441 13.8694 11.7153 14 10.4138 14C9.11231 14 7.88357 13.8694 6.77524 13.6386C6.54438 12.5302 6.41382 11.3015 6.41382 10C6.41382 8.69849 6.54438 7.46975 6.77524 6.36143C7.88357 6.13056 9.11231 6 10.4138 6C11.7153 6 12.9441 6.13056 14.0524 6.36143C14.2833 7.46975 14.4138 8.69849 14.4138 10C14.4138 11.3015 14.2833 12.5302 14.0524 13.6386ZM14.8869 14.4731C14.4507 16.2145 13.7678 17.6658 12.9298 18.6436C15.8774 17.7871 18.2009 15.4636 19.0574 12.516C18.0796 13.354 16.6283 14.0369 14.8869 14.4731ZM19.0574 7.48401C18.0796 6.64603 16.6283 5.96308 14.8869 5.52689C14.4507 3.78549 13.7678 2.33419 12.9298 1.3564C15.8774 2.21293 18.2009 4.53637 19.0574 7.48401ZM15.122 6.62552C15.8315 6.82992 16.4754 7.07775 17.0377 7.35889C18.741 8.21056 19.4138 9.20212 19.4138 10C19.4138 10.7979 18.741 11.7894 17.0377 12.6411C16.4754 12.9223 15.8315 13.1701 15.122 13.3745C15.3109 12.3203 15.4138 11.1842 15.4138 10C15.4138 8.81582 15.3109 7.67972 15.122 6.62552ZM13.7883 5.29183C13.5839 4.58231 13.3361 3.93844 13.0549 3.37615C12.2033 1.67281 11.2117 1 10.4138 1C9.61593 1 8.62438 1.67281 7.77271 3.37615C7.49157 3.93844 7.24374 4.58231 7.03933 5.29183C8.09354 5.10292 9.22964 5 10.4138 5C11.598 5 12.7341 5.10292 13.7883 5.29183ZM5.9407 5.52689C6.3769 3.78549 7.05984 2.33419 7.89783 1.3564C4.95019 2.21293 2.62675 4.53637 1.77021 7.48401C2.74801 6.64602 4.1993 5.96309 5.9407 5.52689ZM1.41382 9.99911C1.41382 9.9994 1.41382 9.9997 1.41382 10C1.41382 10.0016 1.41382 10.0031 1.41382 10.0047C1.41644 10.8018 2.08995 11.7911 3.78996 12.6411C4.35226 12.9223 4.99612 13.1701 5.70565 13.3745C5.51673 12.3203 5.41382 11.1842 5.41382 10C5.41382 8.81582 5.51673 7.67972 5.70565 6.62552C4.99612 6.82992 4.35226 7.07775 3.78996 7.35889C2.08726 8.21024 1.41432 9.20138 1.41382 9.99911ZM5.94071 14.4731C4.1993 14.0369 2.74801 13.354 1.77021 12.516C2.62675 15.4636 4.95019 17.7871 7.89783 18.6436C7.05985 17.6658 6.3769 16.2145 5.94071 14.4731ZM0.413818 10C0.413818 4.47715 4.89097 0 10.4138 0C15.9367 0 20.4138 4.47715 20.4138 10C20.4138 15.5228 15.9367 20 10.4138 20C4.89097 20 0.413818 15.5228 0.413818 10Z" fill="black"/>
</svg>
